<?xml version="1.0" encoding="utf-8" standalone="no"?>
<!DOCTYPE svg PUBLIC "-//W3C//DTD SVG 1.1//EN"
  "http://www.w3.org/Graphics/SVG/1.1/DTD/svg11.dtd">
<!-- Created with matplotlib (https://matplotlib.org/) -->
<svg height="345.6pt" version="1.1" viewBox="0 0 460.8 345.6" width="460.8pt" xmlns="http://www.w3.org/2000/svg" xmlns:xlink="http://www.w3.org/1999/xlink">
 <metadata>
  <rdf:RDF xmlns:cc="http://creativecommons.org/ns#" xmlns:dc="http://purl.org/dc/elements/1.1/" xmlns:rdf="http://www.w3.org/1999/02/22-rdf-syntax-ns#">
   <cc:Work>
    <dc:type rdf:resource="http://purl.org/dc/dcmitype/StillImage"/>
    <dc:date>2023-04-13T12:50:53.863442</dc:date>
    <dc:format>image/svg+xml</dc:format>
    <dc:creator>
     <cc:Agent>
      <dc:title>Matplotlib v3.3.4, https://matplotlib.org/</dc:title>
     </cc:Agent>
    </dc:creator>
   </cc:Work>
  </rdf:RDF>
 </metadata>
 <defs>
  <style type="text/css">*{stroke-linecap:butt;stroke-linejoin:round;}</style>
 </defs>
 <g id="figure_1">
  <g id="patch_1">
   <path d="M 0 345.6 
L 460.8 345.6 
L 460.8 0 
L 0 0 
z
" style="fill:#ffffff;"/>
  </g>
  <g id="axes_1">
   <g id="patch_2">
    <path d="M 57.6 307.584 
L 414.72 307.584 
L 414.72 41.472 
L 57.6 41.472 
z
" style="fill:#ffffff;"/>
   </g>
   <g id="matplotlib.axis_1">
    <g id="xtick_1">
     <g id="line2d_1">
      <defs>
       <path d="M 0 0 
L 0 3.5 
" id="mcead731c70" style="stroke:#000000;stroke-width:0.8;"/>
      </defs>
      <g>
       <use style="stroke:#000000;stroke-width:0.8;" x="73.832727" xlink:href="#mcead731c70" y="307.584"/>
      </g>
     </g>
     <g id="text_1">
      <!-- 0 -->
      <g transform="translate(70.651477 322.182437)scale(0.1 -0.1)">
       <defs>
        <path d="M 31.78125 66.40625 
Q 24.171875 66.40625 20.328125 58.90625 
Q 16.5 51.421875 16.5 36.375 
Q 16.5 21.390625 20.328125 13.890625 
Q 24.171875 6.390625 31.78125 6.390625 
Q 39.453125 6.390625 43.28125 13.890625 
Q 47.125 21.390625 47.125 36.375 
Q 47.125 51.421875 43.28125 58.90625 
Q 39.453125 66.40625 31.78125 66.40625 
z
M 31.78125 74.21875 
Q 44.046875 74.21875 50.515625 64.515625 
Q 56.984375 54.828125 56.984375 36.375 
Q 56.984375 17.96875 50.515625 8.265625 
Q 44.046875 -1.421875 31.78125 -1.421875 
Q 19.53125 -1.421875 13.0625 8.265625 
Q 6.59375 17.96875 6.59375 36.375 
Q 6.59375 54.828125 13.0625 64.515625 
Q 19.53125 74.21875 31.78125 74.21875 
z
" id="DejaVuSans-48"/>
       </defs>
       <use xlink:href="#DejaVuSans-48"/>
      </g>
     </g>
    </g>
    <g id="xtick_2">
     <g id="line2d_2">
      <g>
       <use style="stroke:#000000;stroke-width:0.8;" x="138.763636" xlink:href="#mcead731c70" y="307.584"/>
      </g>
     </g>
     <g id="text_2">
      <!-- 20 -->
      <g transform="translate(132.401136 322.182437)scale(0.1 -0.1)">
       <defs>
        <path d="M 19.1875 8.296875 
L 53.609375 8.296875 
L 53.609375 0 
L 7.328125 0 
L 7.328125 8.296875 
Q 12.9375 14.109375 22.625 23.890625 
Q 32.328125 33.6875 34.8125 36.53125 
Q 39.546875 41.84375 41.421875 45.53125 
Q 43.3125 49.21875 43.3125 52.78125 
Q 43.3125 58.59375 39.234375 62.25 
Q 35.15625 65.921875 28.609375 65.921875 
Q 23.96875 65.921875 18.8125 64.3125 
Q 13.671875 62.703125 7.8125 59.421875 
L 7.8125 69.390625 
Q 13.765625 71.78125 18.9375 73 
Q 24.125 74.21875 28.421875 74.21875 
Q 39.75 74.21875 46.484375 68.546875 
Q 53.21875 62.890625 53.21875 53.421875 
Q 53.21875 48.921875 51.53125 44.890625 
Q 49.859375 40.875 45.40625 35.40625 
Q 44.1875 33.984375 37.640625 27.21875 
Q 31.109375 20.453125 19.1875 8.296875 
z
" id="DejaVuSans-50"/>
       </defs>
       <use xlink:href="#DejaVuSans-50"/>
       <use x="63.623047" xlink:href="#DejaVuSans-48"/>
      </g>
     </g>
    </g>
    <g id="xtick_3">
     <g id="line2d_3">
      <g>
       <use style="stroke:#000000;stroke-width:0.8;" x="203.694545" xlink:href="#mcead731c70" y="307.584"/>
      </g>
     </g>
     <g id="text_3">
      <!-- 40 -->
      <g transform="translate(197.332045 322.182437)scale(0.1 -0.1)">
       <defs>
        <path d="M 37.796875 64.3125 
L 12.890625 25.390625 
L 37.796875 25.390625 
z
M 35.203125 72.90625 
L 47.609375 72.90625 
L 47.609375 25.390625 
L 58.015625 25.390625 
L 58.015625 17.1875 
L 47.609375 17.1875 
L 47.609375 0 
L 37.796875 0 
L 37.796875 17.1875 
L 4.890625 17.1875 
L 4.890625 26.703125 
z
" id="DejaVuSans-52"/>
       </defs>
       <use xlink:href="#DejaVuSans-52"/>
       <use x="63.623047" xlink:href="#DejaVuSans-48"/>
      </g>
     </g>
    </g>
    <g id="xtick_4">
     <g id="line2d_4">
      <g>
       <use style="stroke:#000000;stroke-width:0.8;" x="268.625455" xlink:href="#mcead731c70" y="307.584"/>
      </g>
     </g>
     <g id="text_4">
      <!-- 60 -->
      <g transform="translate(262.262955 322.182437)scale(0.1 -0.1)">
       <defs>
        <path d="M 33.015625 40.375 
Q 26.375 40.375 22.484375 35.828125 
Q 18.609375 31.296875 18.609375 23.390625 
Q 18.609375 15.53125 22.484375 10.953125 
Q 26.375 6.390625 33.015625 6.390625 
Q 39.65625 6.390625 43.53125 10.953125 
Q 47.40625 15.53125 47.40625 23.390625 
Q 47.40625 31.296875 43.53125 35.828125 
Q 39.65625 40.375 33.015625 40.375 
z
M 52.59375 71.296875 
L 52.59375 62.3125 
Q 48.875 64.0625 45.09375 64.984375 
Q 41.3125 65.921875 37.59375 65.921875 
Q 27.828125 65.921875 22.671875 59.328125 
Q 17.53125 52.734375 16.796875 39.40625 
Q 19.671875 43.65625 24.015625 45.921875 
Q 28.375 48.1875 33.59375 48.1875 
Q 44.578125 48.1875 50.953125 41.515625 
Q 57.328125 34.859375 57.328125 23.390625 
Q 57.328125 12.15625 50.6875 5.359375 
Q 44.046875 -1.421875 33.015625 -1.421875 
Q 20.359375 -1.421875 13.671875 8.265625 
Q 6.984375 17.96875 6.984375 36.375 
Q 6.984375 53.65625 15.1875 63.9375 
Q 23.390625 74.21875 37.203125 74.21875 
Q 40.921875 74.21875 44.703125 73.484375 
Q 48.484375 72.75 52.59375 71.296875 
z
" id="DejaVuSans-54"/>
       </defs>
       <use xlink:href="#DejaVuSans-54"/>
       <use x="63.623047" xlink:href="#DejaVuSans-48"/>
      </g>
     </g>
    </g>
    <g id="xtick_5">
     <g id="line2d_5">
      <g>
       <use style="stroke:#000000;stroke-width:0.8;" x="333.556364" xlink:href="#mcead731c70" y="307.584"/>
      </g>
     </g>
     <g id="text_5">
      <!-- 80 -->
      <g transform="translate(327.193864 322.182437)scale(0.1 -0.1)">
       <defs>
        <path d="M 31.78125 34.625 
Q 24.75 34.625 20.71875 30.859375 
Q 16.703125 27.09375 16.703125 20.515625 
Q 16.703125 13.921875 20.71875 10.15625 
Q 24.75 6.390625 31.78125 6.390625 
Q 38.8125 6.390625 42.859375 10.171875 
Q 46.921875 13.96875 46.921875 20.515625 
Q 46.921875 27.09375 42.890625 30.859375 
Q 38.875 34.625 31.78125 34.625 
z
M 21.921875 38.8125 
Q 15.578125 40.375 12.03125 44.71875 
Q 8.5 49.078125 8.5 55.328125 
Q 8.5 64.0625 14.71875 69.140625 
Q 20.953125 74.21875 31.78125 74.21875 
Q 42.671875 74.21875 48.875 69.140625 
Q 55.078125 64.0625 55.078125 55.328125 
Q 55.078125 49.078125 51.53125 44.71875 
Q 48 40.375 41.703125 38.8125 
Q 48.828125 37.15625 52.796875 32.3125 
Q 56.78125 27.484375 56.78125 20.515625 
Q 56.78125 9.90625 50.3125 4.234375 
Q 43.84375 -1.421875 31.78125 -1.421875 
Q 19.734375 -1.421875 13.25 4.234375 
Q 6.78125 9.90625 6.78125 20.515625 
Q 6.78125 27.484375 10.78125 32.3125 
Q 14.796875 37.15625 21.921875 38.8125 
z
M 18.3125 54.390625 
Q 18.3125 48.734375 21.84375 45.5625 
Q 25.390625 42.390625 31.78125 42.390625 
Q 38.140625 42.390625 41.71875 45.5625 
Q 45.3125 48.734375 45.3125 54.390625 
Q 45.3125 60.0625 41.71875 63.234375 
Q 38.140625 66.40625 31.78125 66.40625 
Q 25.390625 66.40625 21.84375 63.234375 
Q 18.3125 60.0625 18.3125 54.390625 
z
" id="DejaVuSans-56"/>
       </defs>
       <use xlink:href="#DejaVuSans-56"/>
       <use x="63.623047" xlink:href="#DejaVuSans-48"/>
      </g>
     </g>
    </g>
    <g id="xtick_6">
     <g id="line2d_6">
      <g>
       <use style="stroke:#000000;stroke-width:0.8;" x="398.487273" xlink:href="#mcead731c70" y="307.584"/>
      </g>
     </g>
     <g id="text_6">
      <!-- 100 -->
      <g transform="translate(388.943523 322.182437)scale(0.1 -0.1)">
       <defs>
        <path d="M 12.40625 8.296875 
L 28.515625 8.296875 
L 28.515625 63.921875 
L 10.984375 60.40625 
L 10.984375 69.390625 
L 28.421875 72.90625 
L 38.28125 72.90625 
L 38.28125 8.296875 
L 54.390625 8.296875 
L 54.390625 0 
L 12.40625 0 
z
" id="DejaVuSans-49"/>
       </defs>
       <use xlink:href="#DejaVuSans-49"/>
       <use x="63.623047" xlink:href="#DejaVuSans-48"/>
       <use x="127.246094" xlink:href="#DejaVuSans-48"/>
      </g>
     </g>
    </g>
    <g id="text_7">
     <!-- time [s] -->
     <g transform="translate(216.768594 335.860562)scale(0.1 -0.1)">
      <defs>
       <path d="M 18.3125 70.21875 
L 18.3125 54.6875 
L 36.8125 54.6875 
L 36.8125 47.703125 
L 18.3125 47.703125 
L 18.3125 18.015625 
Q 18.3125 11.328125 20.140625 9.421875 
Q 21.96875 7.515625 27.59375 7.515625 
L 36.8125 7.515625 
L 36.8125 0 
L 27.59375 0 
Q 17.1875 0 13.234375 3.875 
Q 9.28125 7.765625 9.28125 18.015625 
L 9.28125 47.703125 
L 2.6875 47.703125 
L 2.6875 54.6875 
L 9.28125 54.6875 
L 9.28125 70.21875 
z
" id="DejaVuSans-116"/>
       <path d="M 9.421875 54.6875 
L 18.40625 54.6875 
L 18.40625 0 
L 9.421875 0 
z
M 9.421875 75.984375 
L 18.40625 75.984375 
L 18.40625 64.59375 
L 9.421875 64.59375 
z
" id="DejaVuSans-105"/>
       <path d="M 52 44.1875 
Q 55.375 50.25 60.0625 53.125 
Q 64.75 56 71.09375 56 
Q 79.640625 56 84.28125 50.015625 
Q 88.921875 44.046875 88.921875 33.015625 
L 88.921875 0 
L 79.890625 0 
L 79.890625 32.71875 
Q 79.890625 40.578125 77.09375 44.375 
Q 74.3125 48.1875 68.609375 48.1875 
Q 61.625 48.1875 57.5625 43.546875 
Q 53.515625 38.921875 53.515625 30.90625 
L 53.515625 0 
L 44.484375 0 
L 44.484375 32.71875 
Q 44.484375 40.625 41.703125 44.40625 
Q 38.921875 48.1875 33.109375 48.1875 
Q 26.21875 48.1875 22.15625 43.53125 
Q 18.109375 38.875 18.109375 30.90625 
L 18.109375 0 
L 9.078125 0 
L 9.078125 54.6875 
L 18.109375 54.6875 
L 18.109375 46.1875 
Q 21.1875 51.21875 25.484375 53.609375 
Q 29.78125 56 35.6875 56 
Q 41.65625 56 45.828125 52.96875 
Q 50 49.953125 52 44.1875 
z
" id="DejaVuSans-109"/>
       <path d="M 56.203125 29.59375 
L 56.203125 25.203125 
L 14.890625 25.203125 
Q 15.484375 15.921875 20.484375 11.0625 
Q 25.484375 6.203125 34.421875 6.203125 
Q 39.59375 6.203125 44.453125 7.46875 
Q 49.3125 8.734375 54.109375 11.28125 
L 54.109375 2.78125 
Q 49.265625 0.734375 44.1875 -0.34375 
Q 39.109375 -1.421875 33.890625 -1.421875 
Q 20.796875 -1.421875 13.15625 6.1875 
Q 5.515625 13.8125 5.515625 26.8125 
Q 5.515625 40.234375 12.765625 48.109375 
Q 20.015625 56 32.328125 56 
Q 43.359375 56 49.78125 48.890625 
Q 56.203125 41.796875 56.203125 29.59375 
z
M 47.21875 32.234375 
Q 47.125 39.59375 43.09375 43.984375 
Q 39.0625 48.390625 32.421875 48.390625 
Q 24.90625 48.390625 20.390625 44.140625 
Q 15.875 39.890625 15.1875 32.171875 
z
" id="DejaVuSans-101"/>
       <path id="DejaVuSans-32"/>
       <path d="M 8.59375 75.984375 
L 29.296875 75.984375 
L 29.296875 69 
L 17.578125 69 
L 17.578125 -6.203125 
L 29.296875 -6.203125 
L 29.296875 -13.1875 
L 8.59375 -13.1875 
z
" id="DejaVuSans-91"/>
       <path d="M 44.28125 53.078125 
L 44.28125 44.578125 
Q 40.484375 46.53125 36.375 47.5 
Q 32.28125 48.484375 27.875 48.484375 
Q 21.1875 48.484375 17.84375 46.4375 
Q 14.5 44.390625 14.5 40.28125 
Q 14.5 37.15625 16.890625 35.375 
Q 19.28125 33.59375 26.515625 31.984375 
L 29.59375 31.296875 
Q 39.15625 29.25 43.1875 25.515625 
Q 47.21875 21.78125 47.21875 15.09375 
Q 47.21875 7.46875 41.1875 3.015625 
Q 35.15625 -1.421875 24.609375 -1.421875 
Q 20.21875 -1.421875 15.453125 -0.5625 
Q 10.6875 0.296875 5.421875 2 
L 5.421875 11.28125 
Q 10.40625 8.6875 15.234375 7.390625 
Q 20.0625 6.109375 24.8125 6.109375 
Q 31.15625 6.109375 34.5625 8.28125 
Q 37.984375 10.453125 37.984375 14.40625 
Q 37.984375 18.0625 35.515625 20.015625 
Q 33.0625 21.96875 24.703125 23.78125 
L 21.578125 24.515625 
Q 13.234375 26.265625 9.515625 29.90625 
Q 5.8125 33.546875 5.8125 39.890625 
Q 5.8125 47.609375 11.28125 51.796875 
Q 16.75 56 26.8125 56 
Q 31.78125 56 36.171875 55.265625 
Q 40.578125 54.546875 44.28125 53.078125 
z
" id="DejaVuSans-115"/>
       <path d="M 30.421875 75.984375 
L 30.421875 -13.1875 
L 9.71875 -13.1875 
L 9.71875 -6.203125 
L 21.390625 -6.203125 
L 21.390625 69 
L 9.71875 69 
L 9.71875 75.984375 
z
" id="DejaVuSans-93"/>
      </defs>
      <use xlink:href="#DejaVuSans-116"/>
      <use x="39.208984" xlink:href="#DejaVuSans-105"/>
      <use x="66.992188" xlink:href="#DejaVuSans-109"/>
      <use x="164.404297" xlink:href="#DejaVuSans-101"/>
      <use x="225.927734" xlink:href="#DejaVuSans-32"/>
      <use x="257.714844" xlink:href="#DejaVuSans-91"/>
      <use x="296.728516" xlink:href="#DejaVuSans-115"/>
      <use x="348.828125" xlink:href="#DejaVuSans-93"/>
     </g>
    </g>
   </g>
   <g id="matplotlib.axis_2">
    <g id="ytick_1">
     <g id="line2d_7">
      <defs>
       <path d="M 0 0 
L -3.5 0 
" id="mb33d392548" style="stroke:#000000;stroke-width:0.8;"/>
      </defs>
      <g>
       <use style="stroke:#000000;stroke-width:0.8;" x="57.6" xlink:href="#mb33d392548" y="295.428282"/>
      </g>
     </g>
     <g id="text_8">
      <!-- −1000 -->
      <g transform="translate(16.770313 299.227501)scale(0.1 -0.1)">
       <defs>
        <path d="M 10.59375 35.5 
L 73.1875 35.5 
L 73.1875 27.203125 
L 10.59375 27.203125 
z
" id="DejaVuSans-8722"/>
       </defs>
       <use xlink:href="#DejaVuSans-8722"/>
       <use x="83.789062" xlink:href="#DejaVuSans-49"/>
       <use x="147.412109" xlink:href="#DejaVuSans-48"/>
       <use x="211.035156" xlink:href="#DejaVuSans-48"/>
       <use x="274.658203" xlink:href="#DejaVuSans-48"/>
      </g>
     </g>
    </g>
    <g id="ytick_2">
     <g id="line2d_8">
      <g>
       <use style="stroke:#000000;stroke-width:0.8;" x="57.6" xlink:href="#mb33d392548" y="243.078737"/>
      </g>
     </g>
     <g id="text_9">
      <!-- −500 -->
      <g transform="translate(23.132812 246.877955)scale(0.1 -0.1)">
       <defs>
        <path d="M 10.796875 72.90625 
L 49.515625 72.90625 
L 49.515625 64.59375 
L 19.828125 64.59375 
L 19.828125 46.734375 
Q 21.96875 47.46875 24.109375 47.828125 
Q 26.265625 48.1875 28.421875 48.1875 
Q 40.625 48.1875 47.75 41.5 
Q 54.890625 34.8125 54.890625 23.390625 
Q 54.890625 11.625 47.5625 5.09375 
Q 40.234375 -1.421875 26.90625 -1.421875 
Q 22.3125 -1.421875 17.546875 -0.640625 
Q 12.796875 0.140625 7.71875 1.703125 
L 7.71875 11.625 
Q 12.109375 9.234375 16.796875 8.0625 
Q 21.484375 6.890625 26.703125 6.890625 
Q 35.15625 6.890625 40.078125 11.328125 
Q 45.015625 15.765625 45.015625 23.390625 
Q 45.015625 31 40.078125 35.4375 
Q 35.15625 39.890625 26.703125 39.890625 
Q 22.75 39.890625 18.8125 39.015625 
Q 14.890625 38.140625 10.796875 36.28125 
z
" id="DejaVuSans-53"/>
       </defs>
       <use xlink:href="#DejaVuSans-8722"/>
       <use x="83.789062" xlink:href="#DejaVuSans-53"/>
       <use x="147.412109" xlink:href="#DejaVuSans-48"/>
       <use x="211.035156" xlink:href="#DejaVuSans-48"/>
      </g>
     </g>
    </g>
    <g id="ytick_3">
     <g id="line2d_9">
      <g>
       <use style="stroke:#000000;stroke-width:0.8;" x="57.6" xlink:href="#mb33d392548" y="190.729191"/>
      </g>
     </g>
     <g id="text_10">
      <!-- 0 -->
      <g transform="translate(44.2375 194.528409)scale(0.1 -0.1)">
       <use xlink:href="#DejaVuSans-48"/>
      </g>
     </g>
    </g>
    <g id="ytick_4">
     <g id="line2d_10">
      <g>
       <use style="stroke:#000000;stroke-width:0.8;" x="57.6" xlink:href="#mb33d392548" y="138.379645"/>
      </g>
     </g>
     <g id="text_11">
      <!-- 500 -->
      <g transform="translate(31.5125 142.178864)scale(0.1 -0.1)">
       <use xlink:href="#DejaVuSans-53"/>
       <use x="63.623047" xlink:href="#DejaVuSans-48"/>
       <use x="127.246094" xlink:href="#DejaVuSans-48"/>
      </g>
     </g>
    </g>
    <g id="ytick_5">
     <g id="line2d_11">
      <g>
       <use style="stroke:#000000;stroke-width:0.8;" x="57.6" xlink:href="#mb33d392548" y="86.030099"/>
      </g>
     </g>
     <g id="text_12">
      <!-- 1000 -->
      <g transform="translate(25.15 89.829318)scale(0.1 -0.1)">
       <use xlink:href="#DejaVuSans-49"/>
       <use x="63.623047" xlink:href="#DejaVuSans-48"/>
       <use x="127.246094" xlink:href="#DejaVuSans-48"/>
       <use x="190.869141" xlink:href="#DejaVuSans-48"/>
      </g>
     </g>
    </g>
    <g id="text_13">
     <!-- velocity [m/s] -->
     <g transform="translate(10.690625 208.720188)rotate(-90)scale(0.1 -0.1)">
      <defs>
       <path d="M 2.984375 54.6875 
L 12.5 54.6875 
L 29.59375 8.796875 
L 46.6875 54.6875 
L 56.203125 54.6875 
L 35.6875 0 
L 23.484375 0 
z
" id="DejaVuSans-118"/>
       <path d="M 9.421875 75.984375 
L 18.40625 75.984375 
L 18.40625 0 
L 9.421875 0 
z
" id="DejaVuSans-108"/>
       <path d="M 30.609375 48.390625 
Q 23.390625 48.390625 19.1875 42.75 
Q 14.984375 37.109375 14.984375 27.296875 
Q 14.984375 17.484375 19.15625 11.84375 
Q 23.34375 6.203125 30.609375 6.203125 
Q 37.796875 6.203125 41.984375 11.859375 
Q 46.1875 17.53125 46.1875 27.296875 
Q 46.1875 37.015625 41.984375 42.703125 
Q 37.796875 48.390625 30.609375 48.390625 
z
M 30.609375 56 
Q 42.328125 56 49.015625 48.375 
Q 55.71875 40.765625 55.71875 27.296875 
Q 55.71875 13.875 49.015625 6.21875 
Q 42.328125 -1.421875 30.609375 -1.421875 
Q 18.84375 -1.421875 12.171875 6.21875 
Q 5.515625 13.875 5.515625 27.296875 
Q 5.515625 40.765625 12.171875 48.375 
Q 18.84375 56 30.609375 56 
z
" id="DejaVuSans-111"/>
       <path d="M 48.78125 52.59375 
L 48.78125 44.1875 
Q 44.96875 46.296875 41.140625 47.34375 
Q 37.3125 48.390625 33.40625 48.390625 
Q 24.65625 48.390625 19.8125 42.84375 
Q 14.984375 37.3125 14.984375 27.296875 
Q 14.984375 17.28125 19.8125 11.734375 
Q 24.65625 6.203125 33.40625 6.203125 
Q 37.3125 6.203125 41.140625 7.25 
Q 44.96875 8.296875 48.78125 10.40625 
L 48.78125 2.09375 
Q 45.015625 0.34375 40.984375 -0.53125 
Q 36.96875 -1.421875 32.421875 -1.421875 
Q 20.0625 -1.421875 12.78125 6.34375 
Q 5.515625 14.109375 5.515625 27.296875 
Q 5.515625 40.671875 12.859375 48.328125 
Q 20.21875 56 33.015625 56 
Q 37.15625 56 41.109375 55.140625 
Q 45.0625 54.296875 48.78125 52.59375 
z
" id="DejaVuSans-99"/>
       <path d="M 32.171875 -5.078125 
Q 28.375 -14.84375 24.75 -17.8125 
Q 21.140625 -20.796875 15.09375 -20.796875 
L 7.90625 -20.796875 
L 7.90625 -13.28125 
L 13.1875 -13.28125 
Q 16.890625 -13.28125 18.9375 -11.515625 
Q 21 -9.765625 23.484375 -3.21875 
L 25.09375 0.875 
L 2.984375 54.6875 
L 12.5 54.6875 
L 29.59375 11.921875 
L 46.6875 54.6875 
L 56.203125 54.6875 
z
" id="DejaVuSans-121"/>
       <path d="M 25.390625 72.90625 
L 33.6875 72.90625 
L 8.296875 -9.28125 
L 0 -9.28125 
z
" id="DejaVuSans-47"/>
      </defs>
      <use xlink:href="#DejaVuSans-118"/>
      <use x="59.179688" xlink:href="#DejaVuSans-101"/>
      <use x="120.703125" xlink:href="#DejaVuSans-108"/>
      <use x="148.486328" xlink:href="#DejaVuSans-111"/>
      <use x="209.667969" xlink:href="#DejaVuSans-99"/>
      <use x="264.648438" xlink:href="#DejaVuSans-105"/>
      <use x="292.431641" xlink:href="#DejaVuSans-116"/>
      <use x="331.640625" xlink:href="#DejaVuSans-121"/>
      <use x="390.820312" xlink:href="#DejaVuSans-32"/>
      <use x="422.607422" xlink:href="#DejaVuSans-91"/>
      <use x="461.621094" xlink:href="#DejaVuSans-109"/>
      <use x="559.033203" xlink:href="#DejaVuSans-47"/>
      <use x="592.724609" xlink:href="#DejaVuSans-115"/>
      <use x="644.824219" xlink:href="#DejaVuSans-93"/>
     </g>
    </g>
   </g>
   <g id="line2d_12">
    <path clip-path="url(#p603dced8fa)" d="M 73.832727 190.729191 
L 82.167628 190.812216 
L 82.777499 190.915842 
L 84.810401 190.952765 
L 85.013692 190.82211 
L 85.623562 190.787118 
L 87.249884 190.670556 
L 96.397946 190.289461 
L 97.617688 190.14347 
L 100.870332 190.338539 
L 101.073622 190.273096 
L 101.276912 189.886128 
L 101.480203 191.220867 
L 101.683493 183.265597 
L 101.886783 189.636493 
L 102.090073 190.334715 
L 103.309815 190.896491 
L 104.122976 193.566441 
L 104.326266 195.209073 
L 104.529557 199.163724 
L 104.732847 295.488 
L 104.936137 183.836407 
L 105.139427 187.487831 
L 105.546008 189.277391 
L 105.952588 189.869314 
L 106.562459 190.255292 
L 107.57891 190.518029 
L 109.408523 190.668522 
L 113.677618 190.721555 
L 127.704646 190.723637 
L 128.517807 190.283534 
L 129.534259 190.047482 
L 132.786903 189.717654 
L 134.006644 189.730442 
L 134.209935 189.743715 
L 134.819805 188.892963 
L 135.023096 188.739408 
L 136.242837 189.577466 
L 137.462579 190.123427 
L 138.47903 190.427376 
L 140.308642 190.731216 
L 141.934964 190.846178 
L 148.846833 191.307603 
L 155.352122 191.071771 
L 156.775153 192.310197 
L 157.385024 192.243315 
L 157.588314 192.231394 
L 157.791605 192.082289 
L 157.994895 192.285542 
L 158.198185 192.302129 
L 158.401475 192.495633 
L 158.604766 190.469645 
L 158.808056 191.381401 
L 159.214637 192.029401 
L 159.417927 191.695883 
L 159.621217 192.212704 
L 160.434378 192.171614 
L 160.637668 192.009934 
L 161.450829 191.87039 
L 163.687022 191.444158 
L 171.005472 190.902862 
L 171.412052 190.882719 
L 174.664696 191.412352 
L 178.323921 191.412455 
L 179.340372 191.130485 
L 180.153533 191.004498 
L 181.373275 190.937131 
L 182.186436 190.901971 
L 182.999597 190.811576 
L 184.829209 190.925195 
L 185.43908 191.021464 
L 185.845661 191.590147 
L 186.252241 191.766586 
L 186.862112 191.23167 
L 187.675273 191.0156 
L 188.691724 190.880853 
L 189.098305 192.352452 
L 189.504885 192.888012 
L 189.911466 192.904539 
L 190.318046 192.599812 
L 191.131207 191.888163 
L 191.537788 191.661653 
L 191.741078 191.693892 
L 191.944368 191.845411 
L 192.147659 192.512549 
L 192.350949 190.317312 
L 192.554239 190.615198 
L 192.757529 190.489264 
L 193.16411 190.605031 
L 193.3674 190.289327 
L 193.57069 190.900905 
L 193.773981 190.886332 
L 193.977271 190.996016 
L 194.180561 191.386104 
L 194.383852 190.194996 
L 194.587142 190.557459 
L 194.993722 190.67057 
L 196.010174 190.714828 
L 196.620044 190.669373 
L 196.823335 190.604789 
L 197.026625 189.614919 
L 197.229915 190.808912 
L 197.433205 190.973319 
L 198.043076 190.931566 
L 198.246366 191.099353 
L 198.449657 192.24272 
L 198.652947 190.654457 
L 199.059528 190.730129 
L 200.88914 191.279246 
L 201.09243 191.81435 
L 201.29572 189.955903 
L 201.702301 190.864707 
L 202.312172 191.640389 
L 202.515462 194.153809 
L 202.718752 190.416948 
L 203.125333 190.535327 
L 203.531913 190.459001 
L 203.735204 190.976784 
L 203.938494 190.984696 
L 204.141784 190.850102 
L 204.345074 189.507588 
L 204.548365 190.577169 
L 204.954945 190.983057 
L 205.564816 191.187183 
L 206.377977 191.803104 
L 206.581267 192.125382 
L 206.784557 196.424772 
L 206.987848 191.122698 
L 207.191138 190.514699 
L 207.597718 190.656416 
L 208.004299 190.631445 
L 208.207589 190.33905 
L 208.410879 190.870206 
L 208.61417 191.025065 
L 208.81746 189.373083 
L 209.02075 190.424685 
L 209.224041 190.406695 
L 209.427331 190.185752 
L 209.630621 189.400026 
L 209.833911 190.934714 
L 210.037202 191.572133 
L 210.240492 190.194954 
L 210.443782 190.533216 
L 210.647072 190.399119 
L 210.850363 190.795079 
L 211.053653 190.885011 
L 211.256943 192.415103 
L 211.460233 190.759553 
L 212.070104 190.730574 
L 212.273394 190.481872 
L 212.476685 192.158342 
L 212.883265 190.529264 
L 213.289846 190.684852 
L 213.696426 190.498955 
L 213.899717 179.246619 
L 214.103007 190.958686 
L 214.306297 191.393477 
L 214.712878 191.524752 
L 215.119458 191.527827 
L 215.526039 191.731203 
L 216.135909 192.390088 
L 216.3392 193.169544 
L 216.54249 206.90339 
L 216.74578 190.494583 
L 217.558941 189.40145 
L 217.762231 188.476673 
L 217.965522 193.868832 
L 218.168812 191.328091 
L 218.575392 189.67418 
L 218.778683 189.641523 
L 218.981973 189.288948 
L 219.185263 192.353358 
L 219.388554 190.42836 
L 219.795134 189.726277 
L 219.998424 190.469075 
L 220.201715 190.637657 
L 220.811585 190.140338 
L 221.014876 190.407507 
L 221.218166 190.189563 
L 221.421456 191.855185 
L 221.828037 190.393605 
L 222.031327 189.929488 
L 222.234617 189.107874 
L 222.437907 186.729134 
L 222.641198 192.596548 
L 222.844488 191.245327 
L 223.251068 190.433618 
L 223.657649 190.22702 
L 224.06423 190.760988 
L 224.47081 190.3462 
L 224.6741 190.981105 
L 225.283971 190.572731 
L 225.487261 190.430103 
L 225.690552 193.949993 
L 225.893842 190.829239 
L 226.503713 191.112281 
L 226.707003 189.344116 
L 226.910293 190.554835 
L 227.316874 190.773706 
L 227.926744 190.733983 
L 228.130035 190.855189 
L 228.333325 191.291276 
L 228.536615 190.693821 
L 228.739906 190.806443 
L 228.943196 190.775848 
L 229.146486 190.957204 
L 229.349776 190.831016 
L 229.959647 190.840354 
L 230.162937 190.505886 
L 230.366228 190.82913 
L 230.569518 190.940546 
L 230.772808 190.810416 
L 230.976098 191.623062 
L 231.179389 190.917161 
L 231.585969 191.064436 
L 231.789259 190.890243 
L 231.99255 191.03319 
L 232.39913 190.908047 
L 233.212291 190.922942 
L 233.415581 190.489804 
L 233.618872 191.537747 
L 234.025452 190.94521 
L 234.432033 190.911468 
L 234.635323 190.48479 
L 234.838613 193.443381 
L 235.245194 191.092262 
L 235.651774 191.323262 
L 236.261645 190.932643 
L 236.464935 188.793353 
L 236.668226 188.600846 
L 238.091257 191.712185 
L 238.497838 192.27029 
L 238.904419 192.744871 
L 239.107709 192.944565 
L 239.71758 194.196807 
L 239.92087 197.096223 
L 240.12416 192.573191 
L 240.530741 191.19321 
L 240.734031 190.929365 
L 241.953772 190.863321 
L 243.376804 190.760788 
L 243.580094 191.095639 
L 243.783385 190.360985 
L 243.986675 190.349304 
L 244.189965 190.215988 
L 244.393256 190.688567 
L 245.206417 190.622863 
L 245.612997 190.692809 
L 245.816287 190.957323 
L 246.019578 188.995949 
L 246.222868 190.182402 
L 246.629448 190.67021 
L 247.036029 190.894392 
L 247.239319 190.444134 
L 247.6459 190.670171 
L 248.459061 191.25584 
L 248.662351 191.529084 
L 248.865641 192.484142 
L 249.068932 182.55157 
L 249.272222 189.372429 
L 249.678802 191.403512 
L 249.882093 191.946474 
L 250.085383 190.152296 
L 250.491963 190.733655 
L 250.898544 190.637887 
L 251.101834 190.342523 
L 251.508415 190.538922 
L 252.321576 190.576014 
L 254.557769 190.607108 
L 256.387381 190.646998 
L 256.997252 190.636601 
L 257.200542 190.790579 
L 257.810413 191.687307 
L 258.216993 192.143681 
L 258.420283 192.577536 
L 258.623574 193.65769 
L 258.826864 198.139085 
L 259.030154 174.341963 
L 259.233445 187.415741 
L 259.640025 188.545086 
L 260.249896 189.288525 
L 261.063057 189.906913 
L 262.282798 190.350776 
L 263.909121 190.571373 
L 265.942023 190.664404 
L 269.194667 190.604535 
L 271.22757 190.606741 
L 290.540145 190.711132 
L 293.589498 190.63965 
L 294.199369 191.012548 
L 294.60595 191.112312 
L 296.028982 191.072529 
L 296.638852 190.820542 
L 297.248723 190.625665 
L 300.501367 190.24935 
L 304.363882 190.289539 
L 304.973753 190.557255 
L 306.600075 190.356295 
L 307.413236 190.329331 
L 310.66588 190.741672 
L 311.885622 190.940635 
L 312.292202 190.978417 
L 312.902073 191.68485 
L 313.308654 191.903733 
L 313.918525 191.950027 
L 314.121815 192.298666 
L 314.934976 195.899661 
L 315.138266 182.943365 
L 315.341556 189.133712 
L 315.544847 190.739088 
L 316.358008 190.896682 
L 316.561298 192.595275 
L 316.764588 189.471212 
L 317.171169 192.796039 
L 317.374459 189.71282 
L 317.781039 191.631393 
L 317.98433 192.149137 
L 318.18762 190.108547 
L 318.39091 190.919746 
L 318.5942 190.757192 
L 318.797491 192.007234 
L 319.000781 191.753906 
L 319.204071 190.19683 
L 319.407362 190.853586 
L 319.610652 190.733719 
L 320.017232 191.506339 
L 320.220523 190.334364 
L 320.423813 190.773322 
L 320.830393 190.76724 
L 321.033684 190.781767 
L 321.236974 191.183555 
L 321.440264 190.654946 
L 321.846845 190.628164 
L 322.050135 190.819782 
L 323.066586 190.90096 
L 323.269876 190.018832 
L 323.473167 190.765048 
L 324.083038 190.536921 
L 324.286328 190.188885 
L 324.489618 190.835165 
L 325.302779 190.590582 
L 325.506069 189.850125 
L 325.70936 190.737034 
L 326.725811 190.898849 
L 326.929101 190.46951 
L 327.132391 191.108412 
L 327.335682 190.8641 
L 328.148843 190.852439 
L 328.555423 190.904563 
L 328.758713 191.003317 
L 328.962004 191.325691 
L 329.165294 190.622052 
L 329.368584 190.891704 
L 329.775165 190.702936 
L 330.791616 190.662947 
L 330.994906 190.671947 
L 331.198197 190.476549 
L 331.604777 190.623134 
L 332.417938 190.58632 
L 333.027809 190.602219 
L 333.231099 189.157756 
L 333.434389 190.548608 
L 333.84097 190.489744 
L 334.247551 190.448635 
L 334.654131 190.627209 
L 335.060712 190.744873 
L 335.264002 190.902111 
L 335.467292 184.532301 
L 335.670582 190.219061 
L 336.077163 190.643648 
L 336.280453 190.265822 
L 336.687034 190.384808 
L 337.296904 190.499126 
L 337.500195 190.681796 
L 337.703485 190.078471 
L 338.110065 190.303027 
L 338.313356 190.373835 
L 338.923227 189.837597 
L 339.126517 188.570959 
L 339.329807 190.493686 
L 339.736388 190.451236 
L 339.939678 190.508308 
L 340.142968 238.393769 
L 340.346258 181.108762 
L 340.549549 186.566446 
L 340.752839 187.265747 
L 340.956129 187.309414 
L 341.159419 186.408229 
L 341.566 183.110176 
L 341.97258 177.489099 
L 342.175871 192.553157 
L 342.379161 191.600977 
L 342.582451 191.305695 
L 342.785741 190.150808 
L 342.989032 190.461976 
L 343.192322 191.101044 
L 343.395612 190.307881 
L 343.598902 190.552294 
L 344.412064 190.035442 
L 344.615354 189.855655 
L 344.818644 190.735195 
L 345.021934 188.551448 
L 345.225225 189.228802 
L 345.428515 189.165649 
L 345.631805 189.983694 
L 346.038386 189.67543 
L 346.444966 189.795494 
L 346.648256 188.621598 
L 346.851547 190.881379 
L 347.054837 190.672211 
L 347.461417 190.65375 
L 347.664708 202.404761 
L 347.867998 187.931972 
L 348.071288 186.858703 
L 348.884449 188.306368 
L 349.08774 189.942473 
L 349.29103 190.161988 
L 349.49432 188.682895 
L 349.69761 188.892519 
L 350.104191 188.978611 
L 350.307481 188.588145 
L 350.510771 125.69759 
L 350.714062 193.230139 
L 350.917352 193.1916 
L 351.323932 193.773828 
L 351.730513 194.504644 
L 351.933803 194.938574 
L 352.340384 197.364322 
L 352.543674 186.968887 
L 352.950254 190.168427 
L 353.153545 191.055322 
L 353.356835 189.823879 
L 354.373286 191.419885 
L 354.576577 191.470509 
L 354.779867 189.33623 
L 354.983157 191.458617 
L 355.186447 190.395145 
L 355.389738 190.274193 
L 355.593028 189.997897 
L 355.796318 189.911375 
L 355.999608 197.32208 
L 356.609479 194.244306 
L 357.21935 191.556393 
L 357.829221 190.162528 
L 358.235801 189.944715 
L 359.252253 189.846685 
L 359.658833 190.139991 
L 360.268704 190.325858 
L 360.675284 190.493534 
L 361.691736 190.472691 
L 362.098316 190.425038 
L 362.504897 190.257865 
L 362.708187 190.273001 
L 362.911477 190.115396 
L 363.318058 190.337699 
L 363.521348 190.4856 
L 364.131219 190.454808 
L 366.570702 190.726212 
L 369.620056 190.857218 
L 370.433217 191.053361 
L 372.059539 191.067992 
L 372.8727 191.104306 
L 373.685861 190.911128 
L 375.515473 190.244476 
L 375.922054 190.200254 
L 376.328634 189.871079 
L 376.531925 189.518196 
L 376.735215 188.587445 
L 376.938505 181.38063 
L 377.141795 193.263087 
L 377.345086 192.06406 
L 377.751666 191.583967 
L 377.954956 191.49463 
L 378.361537 191.687737 
L 379.174698 192.70771 
L 379.377988 188.944223 
L 379.581279 190.109097 
L 379.987859 190.597124 
L 381.410891 191.618704 
L 381.817471 192.368139 
L 382.020762 193.110119 
L 382.224052 194.805859 
L 382.427342 201.435773 
L 382.630632 157.543985 
L 382.833923 182.921913 
L 383.240503 190.918984 
L 383.443793 218.581386 
L 383.647084 200.071757 
L 384.053664 194.435625 
L 384.663535 190.608958 
L 385.273406 187.791428 
L 385.679986 186.235546 
L 386.086567 183.490124 
L 386.289857 180.199264 
L 386.493147 171.827787 
L 386.696438 143.742371 
L 386.899728 275.606004 
L 387.103018 126.659002 
L 387.306308 172.021497 
L 387.509599 182.203648 
L 387.916179 188.499707 
L 388.32276 189.98606 
L 389.542501 191.932266 
L 389.949082 192.134519 
L 390.762243 192.198426 
L 390.965533 192.505153 
L 391.372114 192.323657 
L 392.795145 192.563841 
L 394.421468 192.112555 
L 395.844499 191.741691 
L 397.674112 191.448941 
L 398.080692 192.928969 
L 398.487273 193.713935 
L 398.487273 193.713935 
" style="fill:none;stroke:#ff0000;stroke-linecap:square;stroke-width:1.5;"/>
   </g>
   <g id="line2d_13">
    <path clip-path="url(#p603dced8fa)" d="M 73.832727 190.729191 
L 82.167628 190.795376 
L 82.777499 190.873375 
L 85.826853 190.925072 
L 86.030143 190.790231 
L 86.640014 190.827714 
L 87.656465 190.805121 
L 95.381495 191.161995 
L 96.804527 191.417298 
L 97.414397 191.446543 
L 101.073622 191.283379 
L 101.276912 191.752902 
L 101.480203 190.132954 
L 101.683493 199.756958 
L 101.886783 192.050942 
L 102.090073 191.20619 
L 103.309815 190.528153 
L 104.122976 187.326025 
L 104.326266 185.356329 
L 104.529557 180.612345 
L 104.732847 65.091699 
L 104.936137 198.997479 
L 105.139427 194.616297 
L 105.546008 192.469274 
L 105.952588 191.759586 
L 106.562459 191.297189 
L 107.37562 191.023367 
L 108.798652 190.836914 
L 111.644716 190.749105 
L 123.638841 190.733033 
L 127.704646 190.735241 
L 128.314517 191.125586 
L 129.127678 191.390581 
L 130.55071 191.570258 
L 134.209935 191.910032 
L 134.819805 193.028746 
L 135.023096 193.247522 
L 136.649418 191.934676 
L 137.869159 191.349271 
L 138.68232 191.145104 
L 139.902062 190.992923 
L 140.105352 190.730802 
L 143.561287 190.875513 
L 146.40735 191.157597 
L 147.017221 191.223333 
L 148.236962 191.261312 
L 149.050124 191.296929 
L 150.066575 191.194296 
L 151.692897 191.196307 
L 155.352122 191.03928 
L 156.775153 192.157375 
L 157.588314 192.144324 
L 157.791605 192.02077 
L 157.994895 192.239129 
L 158.198185 192.265293 
L 158.401475 192.456612 
L 158.604766 190.47684 
L 158.808056 191.362108 
L 159.214637 191.995397 
L 159.417927 191.672689 
L 159.621217 192.186333 
L 160.434378 192.191693 
L 160.637668 192.028782 
L 161.450829 191.853995 
L 163.077151 191.531828 
L 163.890313 191.520843 
L 164.296893 191.597327 
L 166.939666 191.343163 
L 167.956118 191.095188 
L 170.802181 190.97207 
L 171.208762 190.85486 
L 172.225213 190.959722 
L 174.664696 191.420395 
L 176.494309 191.389821 
L 177.71405 191.521012 
L 178.120631 191.502243 
L 179.340372 191.131279 
L 179.950243 191.059728 
L 180.763404 190.892592 
L 181.779855 190.864336 
L 183.202887 190.751167 
L 189.301595 190.597669 
L 190.521337 190.618859 
L 191.944368 190.65597 
L 192.147659 190.612028 
L 192.350949 190.756217 
L 193.773981 190.718825 
L 196.416754 190.731222 
L 198.246366 190.70624 
L 198.449657 190.635246 
L 198.856237 190.733711 
L 202.312172 190.673984 
L 202.515462 190.521743 
L 202.718752 190.748107 
L 206.581267 190.644547 
L 206.784557 190.383379 
L 206.987848 190.705204 
L 207.597718 190.733573 
L 211.053653 190.719739 
L 211.256943 190.62631 
L 211.663524 190.728004 
L 213.696426 190.74305 
L 213.899717 191.417035 
L 214.103007 190.71551 
L 215.119458 190.680743 
L 216.3392 190.583089 
L 216.54249 189.770732 
L 216.74578 190.743107 
L 217.762231 190.863104 
L 217.965522 190.541103 
L 218.372102 190.739574 
L 218.981973 190.814777 
L 219.185263 190.633332 
L 219.591844 190.769978 
L 220.608295 190.761147 
L 222.234617 190.825532 
L 222.437907 190.970095 
L 222.641198 190.616123 
L 223.251068 190.747225 
L 225.487261 190.747882 
L 225.690552 190.526716 
L 225.893842 190.722904 
L 226.503713 190.704651 
L 226.707003 190.816293 
L 227.113583 190.730914 
L 232.60242 190.717034 
L 238.497838 190.59835 
L 239.107709 190.328896 
L 239.514289 189.780637 
L 239.71758 189.335878 
L 239.92087 187.54261 
L 240.12416 189.623498 
L 240.734031 190.540899 
L 242.157063 190.355952 
L 242.360353 190.462743 
L 242.563643 190.398233 
L 242.970224 190.576928 
L 243.173514 190.76485 
L 243.376804 191.378689 
L 243.580094 195.862605 
L 243.783385 186.282335 
L 243.986675 186.470518 
L 244.189965 185.48009 
L 244.393256 190.333514 
L 244.596546 190.010939 
L 244.799836 190.080738 
L 245.003126 189.835236 
L 245.206417 189.800659 
L 245.409707 189.96621 
L 245.612997 190.41466 
L 245.816287 192.663062 
L 246.019578 176.362282 
L 246.222868 186.275213 
L 246.426158 189.165868 
L 247.036029 191.970193 
L 247.239319 188.694306 
L 247.442609 189.319251 
L 248.05248 192.05001 
L 248.459061 193.484567 
L 248.662351 194.813532 
L 248.865641 199.489253 
L 249.068932 150.62641 
L 249.272222 184.163611 
L 249.678802 194.060169 
L 249.882093 197.12721 
L 250.085383 187.505905 
L 250.491963 190.757289 
L 250.898544 190.137573 
L 251.101834 188.246138 
L 251.305124 189.136104 
L 251.508415 189.467736 
L 251.711705 189.305419 
L 252.118285 189.749998 
L 252.524866 189.50455 
L 253.134737 189.711711 
L 254.761059 189.907588 
L 255.57422 190.062835 
L 256.997252 189.959774 
L 257.200542 191.236716 
L 257.810413 198.725742 
L 258.216993 202.540923 
L 258.420283 206.144194 
L 258.623574 215.18121 
L 258.826864 252.467888 
L 259.030154 53.568 
L 259.233445 163.458292 
L 259.640025 173.590856 
L 260.046606 178.779633 
L 260.453186 181.943517 
L 261.063057 184.885955 
L 261.672928 186.773047 
L 262.282798 187.989327 
L 263.095959 188.928307 
L 263.909121 189.523435 
L 264.925572 190.00214 
L 265.738733 190.288502 
L 266.551894 190.410443 
L 268.178216 190.357938 
L 270.211119 190.239575 
L 270.820989 190.270984 
L 272.853892 190.272193 
L 273.667053 190.443675 
L 274.276924 190.466092 
L 276.106536 190.673414 
L 278.342729 190.721653 
L 292.369757 190.631741 
L 293.589498 190.512173 
L 293.996079 191.178087 
L 294.40266 191.575023 
L 294.80924 191.628212 
L 295.419111 191.525491 
L 295.825691 191.462686 
L 296.028982 191.478608 
L 296.435562 191.029355 
L 296.842143 190.708399 
L 297.248723 190.502303 
L 298.265174 190.10922 
L 298.671755 189.941314 
L 300.907948 189.680247 
L 302.53427 189.733279 
L 303.144141 189.782765 
L 303.754011 189.712283 
L 303.957302 189.547479 
L 304.160592 189.552706 
L 304.973753 190.357012 
L 305.990204 189.990234 
L 306.803365 189.869466 
L 307.209946 189.847099 
L 307.616526 189.926378 
L 307.819817 189.807752 
L 309.242849 190.140711 
L 310.2593 190.498615 
L 311.275751 191.01764 
L 312.088912 191.205663 
L 312.292202 191.236421 
L 312.902073 192.669325 
L 313.105363 193.001321 
L 313.715234 193.213232 
L 313.918525 193.212752 
L 314.121815 193.922058 
L 314.934976 201.249686 
L 315.138266 174.875194 
L 315.341556 187.48345 
L 315.544847 190.749319 
L 316.154717 191.027546 
L 316.358008 191.068536 
L 316.561298 194.508507 
L 316.764588 188.183506 
L 317.171169 194.911572 
L 317.374459 188.674427 
L 317.781039 192.551864 
L 317.98433 193.600587 
L 318.18762 189.473954 
L 318.39091 191.114306 
L 318.5942 190.785753 
L 318.797491 193.307937 
L 319.000781 192.795395 
L 319.204071 189.656384 
L 319.407362 190.979466 
L 319.610652 190.73829 
L 320.017232 192.288732 
L 320.220523 189.937391 
L 320.423813 190.81769 
L 320.627103 190.713015 
L 321.033684 190.834378 
L 321.236974 191.637617 
L 321.440264 190.580861 
L 321.846845 190.527482 
L 322.050135 190.909871 
L 322.253425 190.944876 
L 322.660006 190.864273 
L 323.066586 191.070393 
L 323.269876 189.318334 
L 323.473167 190.800402 
L 323.879747 190.552595 
L 324.083038 190.347451 
L 324.286328 189.657171 
L 324.489618 190.939374 
L 325.302779 190.454639 
L 325.506069 188.990273 
L 325.70936 190.744686 
L 326.11594 190.768362 
L 326.31923 190.623121 
L 326.725811 191.063111 
L 326.929101 190.218315 
L 327.132391 191.475153 
L 327.335682 190.994601 
L 327.742262 190.98366 
L 328.352133 190.987659 
L 328.758713 191.265129 
L 328.962004 191.893646 
L 329.165294 190.520175 
L 329.368584 191.04608 
L 329.775165 190.678136 
L 329.978455 190.625797 
L 330.181745 190.688574 
L 330.588326 190.54054 
L 330.994906 190.619565 
L 331.198197 190.247857 
L 331.401487 190.501983 
L 332.214648 190.499602 
L 332.824519 190.46812 
L 333.027809 190.496361 
L 333.231099 187.850834 
L 333.434389 190.398488 
L 333.63768 190.248672 
L 334.04426 190.250535 
L 334.247551 190.23312 
L 334.654131 190.551655 
L 335.060712 190.755919 
L 335.264002 191.019096 
L 335.467292 180.445048 
L 335.670582 189.889825 
L 336.077163 190.590238 
L 336.280453 189.980198 
L 336.687034 190.180245 
L 337.296904 190.368861 
L 337.500195 190.655527 
L 337.703485 189.723827 
L 338.110065 190.07935 
L 338.313356 190.190272 
L 338.719936 189.709754 
L 338.923227 189.438359 
L 339.126517 187.663532 
L 339.329807 190.400806 
L 339.736388 190.364213 
L 339.939678 190.450373 
L 340.142968 248.258038 
L 340.346258 179.582513 
L 340.549549 186.061001 
L 340.752839 186.985205 
L 340.956129 187.161005 
L 341.159419 186.384258 
L 341.76929 182.873477 
L 341.97258 182.392816 
L 342.175871 191.644894 
L 342.379161 191.061081 
L 342.785741 190.627774 
L 343.395612 190.776866 
L 344.005483 190.839802 
L 344.615354 191.190466 
L 344.818644 190.725743 
L 345.021934 192.054028 
L 345.225225 191.672256 
L 345.428515 191.740355 
L 345.631805 191.218352 
L 346.038386 191.428127 
L 346.444966 191.365578 
L 346.648256 192.179173 
L 346.851547 190.623888 
L 347.258127 190.792636 
L 347.461417 190.779615 
L 347.664708 183.072669 
L 347.867998 192.545289 
L 348.071288 193.233923 
L 348.884449 192.334606 
L 349.08774 191.255265 
L 349.29103 191.111046 
L 349.49432 192.11234 
L 349.900901 191.94601 
L 350.104191 191.910835 
L 350.307481 192.175877 
L 350.510771 234.782522 
L 350.714062 189.028617 
L 350.917352 189.055519 
L 351.527223 188.493316 
L 351.933803 187.972546 
L 352.340384 186.492004 
L 352.543674 193.072579 
L 352.950254 191.058435 
L 353.153545 190.542651 
L 353.356835 191.234698 
L 354.169996 190.417468 
L 354.576577 190.370953 
L 354.779867 191.384775 
L 354.983157 190.399263 
L 355.186447 190.875163 
L 355.796318 191.059236 
L 355.999608 188.145255 
L 357.21935 190.458877 
L 357.829221 190.885401 
L 358.642382 190.90698 
L 359.455543 190.855257 
L 360.878575 190.774286 
L 362.301606 190.905637 
L 363.114767 191.073138 
L 363.521348 190.902196 
L 364.537799 191.023544 
L 365.14767 191.043676 
L 365.757541 191.18202 
L 365.960831 191.191867 
L 366.164121 190.922053 
L 366.773992 190.788934 
L 367.587153 190.748002 
L 368.400314 190.782308 
L 369.213475 191.541254 
L 369.823346 194.430403 
L 370.433217 197.229926 
L 370.636507 197.516235 
L 370.839797 197.300546 
L 371.043088 196.747973 
L 371.652958 194.407182 
L 372.66941 194.049071 
L 373.07599 193.593184 
L 373.482571 192.73915 
L 374.092442 190.780801 
L 374.905603 188.127451 
L 375.312183 187.219099 
L 375.922054 186.617495 
L 376.328634 184.049077 
L 376.531925 181.326009 
L 376.735215 174.080874 
L 376.938505 118.383742 
L 377.141795 210.373342 
L 377.345086 201.079622 
L 377.751666 197.359911 
L 377.954956 196.660632 
L 378.361537 198.071601 
L 378.971408 203.229383 
L 379.174698 205.027657 
L 379.377988 178.134385 
L 379.581279 186.488031 
L 379.987859 189.885044 
L 380.59773 192.071589 
L 381.614181 194.37817 
L 381.817471 195.147026 
L 382.020762 196.460304 
L 382.224052 199.52187 
L 382.427342 211.507487 
L 382.630632 132.343765 
L 382.833923 178.021444 
L 383.240503 190.998532 
L 383.443793 227.67556 
L 383.647084 202.483156 
L 384.053664 194.929593 
L 384.460245 191.652571 
L 385.070116 188.820067 
L 385.883277 186.240417 
L 386.086567 185.067772 
L 386.289857 182.5859 
L 386.493147 176.098558 
L 386.696438 154.241183 
L 386.899728 257.045841 
L 387.103018 140.518365 
L 387.306308 176.061883 
L 387.509599 184.083564 
L 387.916179 189.01701 
L 388.32276 190.165556 
L 389.542501 191.658383 
L 389.949082 191.81855 
L 390.762243 191.861027 
L 390.965533 192.097321 
L 391.372114 191.94758 
L 392.998436 192.092058 
L 395.234629 191.60685 
L 397.674112 191.29004 
L 398.080692 192.447412 
L 398.487273 193.060534 
L 398.487273 193.060534 
" style="fill:none;stroke:#0000ff;stroke-linecap:square;stroke-width:1.5;"/>
   </g>
   <g id="line2d_14">
    <path clip-path="url(#p603dced8fa)" d="M 73.832727 190.729191 
L 101.480203 190.744951 
L 101.683493 190.572729 
L 101.886783 190.753072 
L 102.903234 190.729622 
L 104.529557 190.845404 
L 104.732847 192.395735 
L 104.936137 190.10593 
L 105.139427 190.710223 
L 124.452002 190.729158 
L 206.581267 190.766642 
L 206.784557 190.906844 
L 206.987848 190.695026 
L 208.004299 190.728467 
L 209.630621 190.689398 
L 210.037202 190.755346 
L 210.647072 190.719588 
L 212.070104 190.728615 
L 213.696426 190.723229 
L 213.899717 190.355373 
L 214.103007 190.830627 
L 214.509587 190.748227 
L 216.3392 190.794803 
L 216.54249 191.234345 
L 216.74578 190.590253 
L 217.152361 190.708538 
L 217.762231 190.66522 
L 217.965522 190.852761 
L 218.372102 190.717749 
L 218.981973 190.688653 
L 219.185263 190.797182 
L 219.591844 190.704648 
L 221.218166 190.712783 
L 221.624746 190.724343 
L 222.437907 190.603367 
L 222.641198 190.828185 
L 223.047778 190.724836 
L 225.487261 190.72069 
L 225.690552 190.83634 
L 225.893842 190.706082 
L 226.503713 190.740084 
L 226.910293 190.734812 
L 230.772808 190.73004 
L 231.585969 190.73758 
L 234.635323 190.717975 
L 234.838613 190.83963 
L 235.245194 190.732861 
L 236.261645 190.733553 
L 236.668226 190.674851 
L 238.294548 190.733675 
L 243.173514 190.731164 
L 243.580094 190.841574 
L 243.783385 190.597959 
L 244.393256 190.752416 
L 245.206417 190.713437 
L 245.816287 190.771351 
L 246.019578 190.440881 
L 246.222868 190.724506 
L 248.865641 190.803366 
L 249.068932 190.335111 
L 249.272222 190.779996 
L 250.085383 190.693855 
L 250.898544 190.728293 
L 258.420283 190.757498 
L 258.826864 190.877653 
L 259.030154 190.283569 
L 259.233445 190.773617 
L 259.640025 190.718756 
L 314.934976 190.793075 
L 315.138266 190.576837 
L 315.341556 190.742107 
L 320.220523 190.721405 
L 322.660006 190.729692 
L 339.939678 190.729549 
L 340.142968 190.475998 
L 340.346258 190.90851 
L 340.549549 190.770891 
L 341.97258 190.866351 
L 342.175871 190.64821 
L 342.582451 190.726853 
L 345.428515 190.736455 
L 347.461417 190.728797 
L 347.664708 190.824685 
L 347.867998 190.679982 
L 348.681159 190.704806 
L 355.796318 190.715048 
L 355.999608 190.875952 
L 356.406189 190.759553 
L 358.032511 190.724656 
L 369.823346 190.811818 
L 371.246378 190.768729 
L 373.685861 190.735166 
L 376.735215 190.638465 
L 376.938505 190.295358 
L 377.141795 190.995142 
L 377.345086 190.754661 
L 382.427342 190.902264 
L 382.630632 190.034218 
L 382.833923 190.763595 
L 383.240503 190.748135 
L 383.443793 191.002574 
L 383.647084 190.677931 
L 384.663535 190.733618 
L 386.289857 190.900065 
L 386.493147 191.066994 
L 386.696438 191.630086 
L 386.899728 188.587317 
L 387.103018 192.62617 
L 387.306308 190.706162 
L 387.712889 190.772401 
L 389.542501 190.701723 
L 395.437919 190.713465 
L 398.487273 190.680558 
L 398.487273 190.680558 
" style="fill:none;stroke:#008000;stroke-linecap:square;stroke-width:1.5;"/>
   </g>
   <g id="line2d_15">
    <path clip-path="url(#p603dced8fa)" d="M 73.832727 190.729191 
L 81.155762 190.729191 
L 81.35918 190.894045 
L 81.562597 190.729191 
L 81.969433 190.729191 
L 82.17285 190.987994 
L 82.376268 190.729191 
L 82.783103 190.729191 
L 82.986521 191.052216 
L 83.189938 190.729191 
L 83.596774 190.729191 
L 83.800191 191.047511 
L 84.003609 190.729191 
L 84.410444 190.729191 
L 84.613862 191.030759 
L 84.81728 190.729191 
L 85.224115 190.729191 
L 85.427532 190.919608 
L 85.63095 190.729191 
L 86.851456 190.729191 
L 87.054874 190.450668 
L 87.258291 190.729191 
L 87.665126 190.729191 
L 87.868544 190.356538 
L 88.071962 190.729191 
L 88.478797 190.729191 
L 88.682215 190.32702 
L 88.885632 190.729191 
L 89.292468 190.729191 
L 89.495885 190.303584 
L 89.699303 190.729191 
L 90.106138 190.729191 
L 90.309556 190.295553 
L 90.512973 190.729191 
L 90.919809 190.729191 
L 91.123226 190.255785 
L 91.326644 190.729191 
L 91.733479 190.729191 
L 91.936897 190.187097 
L 92.140314 190.729191 
L 92.54715 190.729191 
L 92.750567 190.122755 
L 92.953985 190.729191 
L 93.36082 190.729191 
L 93.564238 190.087992 
L 93.767656 190.729191 
L 94.174491 190.729191 
L 94.377908 190.058113 
L 94.581326 190.729191 
L 94.988161 190.729191 
L 95.191579 190.045376 
L 95.394997 190.729191 
L 95.801832 190.729191 
L 96.005249 190.044326 
L 96.208667 190.729191 
L 96.615502 190.729191 
L 96.81892 190.063176 
L 97.022338 190.729191 
L 97.429173 190.729191 
L 97.632591 190.073604 
L 97.836008 190.729191 
L 98.242843 190.729191 
L 98.446261 190.085291 
L 98.649679 190.729191 
L 99.056514 190.729191 
L 99.259932 190.157035 
L 99.463349 190.729191 
L 99.870185 190.729191 
L 100.073602 190.292731 
L 100.27702 190.729191 
L 100.683855 190.729191 
L 100.887273 190.468855 
L 101.09069 190.729191 
L 132.417006 190.729191 
L 132.620424 190.617229 
L 133.027259 190.729191 
L 133.230677 190.729191 
L 133.434094 190.609707 
L 133.84093 190.729191 
L 140.553712 190.729191 
L 140.757129 190.887631 
L 140.960547 190.729191 
L 141.367382 190.729191 
L 141.5708 191.066691 
L 141.774217 190.729191 
L 142.181053 190.729191 
L 142.38447 191.190671 
L 142.587888 190.729191 
L 142.994723 190.729191 
L 143.198141 191.271525 
L 143.401558 190.729191 
L 143.808394 190.729191 
L 144.011811 191.331102 
L 144.215229 190.729191 
L 144.622064 190.729191 
L 144.825482 191.363947 
L 145.0289 190.729191 
L 145.435735 190.729191 
L 145.639152 191.402367 
L 145.84257 190.729191 
L 146.249405 190.729191 
L 146.452823 191.445252 
L 146.656241 190.729191 
L 147.063076 190.729191 
L 147.266494 191.472704 
L 147.469911 190.729191 
L 147.876746 190.729191 
L 148.080164 191.47645 
L 148.283582 190.729191 
L 148.690417 190.729191 
L 148.893835 191.45784 
L 149.097252 190.729191 
L 149.504087 190.729191 
L 149.707505 191.433567 
L 149.910923 190.729191 
L 150.317758 190.729191 
L 150.521176 191.411331 
L 150.724593 190.729191 
L 151.131429 190.729191 
L 151.334846 191.396707 
L 151.538264 190.729191 
L 151.945099 190.729191 
L 152.148517 191.396377 
L 152.351934 190.729191 
L 152.75877 190.729191 
L 152.962187 191.413939 
L 153.165605 190.729191 
L 153.57244 190.729191 
L 153.775858 191.418136 
L 153.979275 190.729191 
L 154.386111 190.729191 
L 154.589528 191.443909 
L 154.792946 190.729191 
L 155.199781 190.729191 
L 155.403199 191.487394 
L 155.606617 190.729191 
L 156.013452 190.729191 
L 156.216869 191.524735 
L 156.420287 190.729191 
L 156.827122 190.729191 
L 157.03054 191.540349 
L 157.233958 190.729191 
L 157.640793 190.729191 
L 157.844211 191.538132 
L 158.047628 190.729191 
L 158.454463 190.729191 
L 158.657881 191.546225 
L 158.861299 190.729191 
L 159.268134 190.729191 
L 159.471552 191.543169 
L 159.674969 190.729191 
L 160.081805 190.729191 
L 160.285222 191.516108 
L 160.48864 190.729191 
L 160.895475 190.729191 
L 161.098893 191.493692 
L 161.30231 190.729191 
L 161.709146 190.729191 
L 161.912563 191.478468 
L 162.115981 190.729191 
L 162.522816 190.729191 
L 162.726234 191.451227 
L 162.929651 190.729191 
L 163.336487 190.729191 
L 163.539904 191.417873 
L 163.743322 190.729191 
L 164.150157 190.729191 
L 164.353575 191.366298 
L 164.556992 190.729191 
L 164.963828 190.729191 
L 165.167245 191.341185 
L 165.370663 190.729191 
L 165.777498 190.729191 
L 165.980916 191.35602 
L 166.184334 190.729191 
L 166.591169 190.729191 
L 166.794586 191.383591 
L 166.998004 190.729191 
L 167.404839 190.729191 
L 167.608257 191.409365 
L 167.811675 190.729191 
L 168.21851 190.729191 
L 168.421928 191.451022 
L 168.625345 190.729191 
L 169.03218 190.729191 
L 169.235598 191.4723 
L 169.439016 190.729191 
L 169.845851 190.729191 
L 170.049269 191.4723 
L 170.252686 190.729191 
L 170.659522 190.729191 
L 170.862939 191.485787 
L 171.066357 190.729191 
L 171.473192 190.729191 
L 171.67661 191.5216 
L 171.880027 190.729191 
L 172.286863 190.729191 
L 172.49028 191.527234 
L 172.693698 190.729191 
L 173.100533 190.729191 
L 173.303951 191.516866 
L 173.507368 190.729191 
L 173.914204 190.729191 
L 174.117621 191.498466 
L 174.321039 190.729191 
L 174.727874 190.729191 
L 174.931292 191.500984 
L 175.13471 190.729191 
L 175.541545 190.729191 
L 175.744962 191.500566 
L 175.94838 190.729191 
L 176.355215 190.729191 
L 176.558633 191.515821 
L 176.762051 190.729191 
L 177.168886 190.729191 
L 177.372303 191.519807 
L 177.575721 190.729191 
L 177.982556 190.729191 
L 178.185974 191.521666 
L 178.389392 190.729191 
L 178.796227 190.729191 
L 178.999645 191.507102 
L 179.203062 190.729191 
L 179.609897 190.729191 
L 179.813315 191.495774 
L 180.016733 190.729191 
L 180.423568 190.729191 
L 180.626986 191.484146 
L 180.830403 190.729191 
L 181.237239 190.729191 
L 181.440656 191.492087 
L 181.644074 190.729191 
L 182.050909 190.729191 
L 182.254327 191.510335 
L 182.457744 190.729191 
L 182.86458 190.729191 
L 183.067997 191.531221 
L 183.271415 190.729191 
L 183.67825 190.729191 
L 183.881668 191.52966 
L 184.085085 190.729191 
L 184.491921 190.729191 
L 184.695338 191.477333 
L 184.898756 190.729191 
L 185.305591 190.729191 
L 185.509009 191.376757 
L 185.712427 190.729191 
L 186.119262 190.729191 
L 186.322679 191.251067 
L 186.526097 190.729191 
L 186.932932 190.729191 
L 187.13635 191.079076 
L 187.339768 190.729191 
L 187.746603 190.729191 
L 187.950021 190.893809 
L 188.153438 190.729191 
L 230.871141 190.729191 
L 231.074559 190.868426 
L 231.277977 190.729191 
L 233.312153 190.729191 
L 233.515571 190.955755 
L 233.718988 190.729191 
L 234.125824 190.729191 
L 234.329241 191.111263 
L 234.532659 190.729191 
L 234.939494 190.729191 
L 235.142912 191.273754 
L 235.346329 190.729191 
L 235.753165 190.729191 
L 235.956582 191.361203 
L 236.16 190.729191 
L 236.566835 190.729191 
L 236.770253 191.347208 
L 236.973671 190.729191 
L 237.380506 190.729191 
L 237.583923 191.339266 
L 237.787341 190.729191 
L 238.194176 190.729191 
L 238.397594 191.357426 
L 238.601012 190.729191 
L 239.007847 190.729191 
L 239.211265 191.365966 
L 239.414682 190.729191 
L 239.821517 190.729191 
L 240.024935 191.329431 
L 240.228353 190.729191 
L 240.635188 190.729191 
L 240.838606 191.24839 
L 241.042023 190.729191 
L 241.448859 190.729191 
L 241.652276 191.104116 
L 241.855694 190.729191 
L 242.262529 190.729191 
L 242.465947 190.896099 
L 242.669364 190.729191 
L 244.703541 190.729191 
L 244.906958 190.609954 
L 245.313794 190.729191 
L 245.517211 190.729191 
L 245.720629 190.590802 
L 245.924046 190.729191 
L 246.330882 190.729191 
L 246.534299 190.577315 
L 246.737717 190.729191 
L 247.144552 190.729191 
L 247.34797 190.559543 
L 247.551388 190.729191 
L 247.958223 190.729191 
L 248.16164 190.532573 
L 248.365058 190.729191 
L 248.771893 190.729191 
L 248.975311 190.510726 
L 249.178729 190.729191 
L 249.585564 190.729191 
L 249.788982 190.493194 
L 249.992399 190.729191 
L 250.399234 190.729191 
L 250.602652 190.514081 
L 250.80607 190.729191 
L 251.212905 190.729191 
L 251.416323 190.522261 
L 251.61974 190.729191 
L 252.026576 190.729191 
L 252.229993 190.538985 
L 252.433411 190.729191 
L 252.840246 190.729191 
L 253.043664 190.566078 
L 253.247081 190.729191 
L 253.653917 190.729191 
L 253.857334 190.590326 
L 254.060752 190.729191 
L 254.467587 190.729191 
L 254.671005 190.612956 
L 255.07784 190.729191 
L 258.53594 190.729191 
L 258.739357 190.61799 
L 259.146193 190.729191 
L 259.34961 190.729191 
L 259.553028 190.616343 
L 259.959863 190.729191 
L 260.163281 190.729191 
L 260.366699 190.605404 
L 260.773534 190.729191 
L 260.976951 190.729191 
L 261.180369 190.600609 
L 261.587204 190.729191 
L 261.790622 190.729191 
L 261.99404 190.602198 
L 262.400875 190.729191 
L 262.604293 190.729191 
L 262.80771 190.604056 
L 263.214545 190.729191 
L 263.417963 190.729191 
L 263.621381 190.610619 
L 264.028216 190.729191 
L 264.231634 190.729191 
L 264.435051 190.610769 
L 264.841887 190.729191 
L 265.045304 190.729191 
L 265.248722 190.602227 
L 265.655557 190.729191 
L 265.858975 190.729191 
L 266.062392 190.574806 
L 266.26581 190.729191 
L 266.672645 190.729191 
L 266.876063 190.539292 
L 267.079481 190.729191 
L 267.486316 190.729191 
L 267.689733 190.486038 
L 267.893151 190.729191 
L 268.299986 190.729191 
L 268.503404 190.450315 
L 268.706822 190.729191 
L 269.113657 190.729191 
L 269.317075 190.428288 
L 269.520492 190.729191 
L 269.927327 190.729191 
L 270.130745 190.43656 
L 270.334163 190.729191 
L 270.740998 190.729191 
L 270.944416 190.449418 
L 271.147833 190.729191 
L 271.554668 190.729191 
L 271.758086 190.45787 
L 271.961504 190.729191 
L 272.368339 190.729191 
L 272.571757 190.470997 
L 272.775174 190.729191 
L 273.18201 190.729191 
L 273.385427 190.471389 
L 273.588845 190.729191 
L 273.99568 190.729191 
L 274.199098 190.53993 
L 274.402515 190.729191 
L 274.809351 190.729191 
L 275.012768 190.614525 
L 275.419604 190.729191 
L 292.710103 190.729191 
L 292.91352 190.594984 
L 293.116938 190.729191 
L 293.523773 190.729191 
L 293.727191 190.573286 
L 293.930608 190.729191 
L 294.337444 190.729191 
L 294.540861 190.54988 
L 294.744279 190.729191 
L 295.151114 190.729191 
L 295.354532 190.527432 
L 295.557949 190.729191 
L 295.964785 190.729191 
L 296.168202 190.485176 
L 296.37162 190.729191 
L 296.778455 190.729191 
L 296.981873 190.468243 
L 297.18529 190.729191 
L 297.592126 190.729191 
L 297.795543 190.452209 
L 297.998961 190.729191 
L 298.405796 190.729191 
L 298.609214 190.433539 
L 298.812632 190.729191 
L 299.219467 190.729191 
L 299.422884 190.414359 
L 299.626302 190.729191 
L 300.033137 190.729191 
L 300.236555 190.382383 
L 300.439973 190.729191 
L 300.846808 190.729191 
L 301.050226 190.392212 
L 301.253643 190.729191 
L 301.660478 190.729191 
L 301.863896 190.402671 
L 302.067314 190.729191 
L 302.474149 190.729191 
L 302.677567 190.3944 
L 302.880984 190.729191 
L 303.28782 190.729191 
L 303.491237 190.390325 
L 303.694655 190.729191 
L 304.10149 190.729191 
L 304.304908 190.398927 
L 304.508325 190.729191 
L 304.915161 190.729191 
L 305.118578 190.404921 
L 305.321996 190.729191 
L 305.728831 190.729191 
L 305.932249 190.413223 
L 306.135666 190.729191 
L 306.542502 190.729191 
L 306.745919 190.429377 
L 306.949337 190.729191 
L 307.356172 190.729191 
L 307.55959 190.454791 
L 307.763008 190.729191 
L 308.169843 190.729191 
L 308.37326 190.472833 
L 308.576678 190.729191 
L 308.983513 190.729191 
L 309.186931 190.502353 
L 309.390349 190.729191 
L 309.797184 190.729191 
L 310.000602 190.53463 
L 310.204019 190.729191 
L 310.610854 190.729191 
L 310.814272 190.571672 
L 311.01769 190.729191 
L 311.424525 190.729191 
L 311.627943 190.606946 
L 312.034778 190.729191 
L 332.579959 190.729191 
L 332.783377 190.586837 
L 332.986794 190.729191 
L 333.39363 190.729191 
L 333.597047 190.547908 
L 333.800465 190.729191 
L 334.2073 190.729191 
L 334.410718 190.510807 
L 334.614135 190.729191 
L 335.020971 190.729191 
L 335.224388 190.474455 
L 335.427806 190.729191 
L 335.834641 190.729191 
L 336.038059 190.437474 
L 336.241476 190.729191 
L 336.648312 190.729191 
L 336.851729 190.412511 
L 337.055147 190.729191 
L 337.461982 190.729191 
L 337.6654 190.392163 
L 337.868817 190.729191 
L 338.275653 190.729191 
L 338.47907 190.380086 
L 338.682488 190.729191 
L 339.089323 190.729191 
L 339.292741 190.361956 
L 339.496159 190.729191 
L 339.902994 190.729191 
L 340.106411 190.332618 
L 340.309829 190.729191 
L 340.716664 190.729191 
L 340.920082 190.298666 
L 341.1235 190.729191 
L 341.530335 190.729191 
L 341.733753 190.293364 
L 341.93717 190.729191 
L 342.344005 190.729191 
L 342.547423 190.188869 
L 342.750841 190.729191 
L 343.157676 190.729191 
L 343.361094 190.090459 
L 343.564511 190.729191 
L 343.971347 190.729191 
L 344.174764 190.026061 
L 344.378182 190.729191 
L 344.785017 190.729191 
L 344.988435 189.960014 
L 345.191852 190.729191 
L 345.598688 190.729191 
L 345.802105 189.87266 
L 346.005523 190.729191 
L 346.412358 190.729191 
L 346.615776 189.787582 
L 346.819193 190.729191 
L 347.226029 190.729191 
L 347.429446 189.733011 
L 347.632864 190.729191 
L 348.039699 190.729191 
L 348.243117 189.666782 
L 348.446535 190.729191 
L 348.85337 190.729191 
L 349.056787 189.639751 
L 349.260205 190.729191 
L 349.66704 190.729191 
L 349.870458 189.664533 
L 350.073876 190.729191 
L 350.480711 190.729191 
L 350.684129 189.673643 
L 350.887546 190.729191 
L 351.294381 190.729191 
L 351.497799 189.657909 
L 351.701217 190.729191 
L 352.108052 190.729191 
L 352.31147 189.637771 
L 352.514887 190.729191 
L 352.921722 190.729191 
L 353.12514 189.611428 
L 353.328558 190.729191 
L 353.735393 190.729191 
L 353.938811 189.588742 
L 354.142228 190.729191 
L 354.549064 190.729191 
L 354.752481 189.577923 
L 354.955899 190.729191 
L 355.362734 190.729191 
L 355.566152 189.577982 
L 355.769569 190.729191 
L 356.176405 190.729191 
L 356.379822 189.586941 
L 356.58324 190.729191 
L 356.990075 190.729191 
L 357.193493 189.601235 
L 357.39691 190.729191 
L 357.803746 190.729191 
L 358.007163 189.654098 
L 358.210581 190.729191 
L 358.617416 190.729191 
L 358.820834 189.72617 
L 359.024252 190.729191 
L 359.431087 190.729191 
L 359.634504 189.784128 
L 359.837922 190.729191 
L 360.244757 190.729191 
L 360.448175 189.854582 
L 360.651593 190.729191 
L 361.058428 190.729191 
L 361.261846 189.944366 
L 361.465263 190.729191 
L 361.872098 190.729191 
L 362.075516 190.015779 
L 362.278934 190.729191 
L 362.685769 190.729191 
L 362.889187 190.03307 
L 363.092604 190.729191 
L 363.49944 190.729191 
L 363.702857 190.044997 
L 363.906275 190.729191 
L 364.31311 190.729191 
L 364.516528 190.09705 
L 364.719945 190.729191 
L 365.126781 190.729191 
L 365.330198 190.247637 
L 365.533616 190.729191 
L 365.940451 190.729191 
L 366.143869 190.462805 
L 366.347286 190.729191 
L 382.213862 190.729191 
L 382.41728 190.902194 
L 382.620697 190.729191 
L 383.027532 190.729191 
L 383.23095 191.033663 
L 383.434368 190.729191 
L 383.841203 190.729191 
L 384.044621 191.1485 
L 384.248038 190.729191 
L 384.654874 190.729191 
L 384.858291 191.242299 
L 385.061709 190.729191 
L 385.468544 190.729191 
L 385.671962 191.309638 
L 385.875379 190.729191 
L 386.282215 190.729191 
L 386.485632 191.330886 
L 386.68905 190.729191 
L 387.095885 190.729191 
L 387.299303 191.320098 
L 387.50272 190.729191 
L 387.909556 190.729191 
L 388.112973 191.308501 
L 388.316391 190.729191 
L 388.723226 190.729191 
L 388.926644 191.301848 
L 389.130062 190.729191 
L 389.536897 190.729191 
L 389.740314 191.28162 
L 389.943732 190.729191 
L 390.350567 190.729191 
L 390.553985 191.249824 
L 390.757403 190.729191 
L 391.164238 190.729191 
L 391.367656 191.186682 
L 391.571073 190.729191 
L 391.977908 190.729191 
L 392.181326 191.09468 
L 392.384744 190.729191 
L 392.791579 190.729191 
L 392.994997 190.971422 
L 393.198414 190.729191 
L 393.605249 190.729191 
L 393.808667 190.846785 
L 394.215502 190.729191 
L 398.487273 190.729191 
L 398.487273 190.729191 
" style="fill:none;stroke:#ff0000;stroke-dasharray:5.55,2.4;stroke-dashoffset:0;stroke-width:1.5;"/>
   </g>
   <g id="line2d_16">
    <path clip-path="url(#p603dced8fa)" d="M 73.832727 190.729191 
L 81.155762 190.729191 
L 81.35918 190.872084 
L 81.562597 190.729191 
L 81.969433 190.729191 
L 82.17285 190.949473 
L 82.376268 190.729191 
L 82.783103 190.729191 
L 82.986521 190.99675 
L 83.189938 190.729191 
L 83.596774 190.729191 
L 83.800191 190.986927 
L 84.003609 190.729191 
L 84.410444 190.729191 
L 84.613862 191.018713 
L 84.81728 190.729191 
L 85.224115 190.729191 
L 85.427532 191.109596 
L 85.63095 190.729191 
L 86.037785 190.729191 
L 86.241203 191.155102 
L 86.444621 190.729191 
L 86.851456 190.729191 
L 87.054874 191.09665 
L 87.258291 190.729191 
L 87.665126 190.729191 
L 87.868544 191.079098 
L 88.071962 190.729191 
L 88.478797 190.729191 
L 88.682215 191.143089 
L 88.885632 190.729191 
L 89.292468 190.729191 
L 89.495885 191.235679 
L 89.699303 190.729191 
L 90.106138 190.729191 
L 90.309556 191.322084 
L 90.512973 190.729191 
L 90.919809 190.729191 
L 91.123226 191.37081 
L 91.326644 190.729191 
L 91.733479 190.729191 
L 91.936897 191.39374 
L 92.140314 190.729191 
L 92.54715 190.729191 
L 92.750567 191.416927 
L 92.953985 190.729191 
L 93.36082 190.729191 
L 93.564238 191.453512 
L 93.767656 190.729191 
L 94.174491 190.729191 
L 94.377908 191.48182 
L 94.581326 190.729191 
L 94.988161 190.729191 
L 95.191579 191.503493 
L 95.394997 190.729191 
L 95.801832 190.729191 
L 96.005249 191.503558 
L 96.208667 190.729191 
L 96.615502 190.729191 
L 96.81892 191.497116 
L 97.022338 190.729191 
L 97.429173 190.729191 
L 97.632591 191.477052 
L 97.836008 190.729191 
L 98.242843 190.729191 
L 98.446261 191.451997 
L 98.649679 190.729191 
L 99.056514 190.729191 
L 99.259932 191.380437 
L 99.463349 190.729191 
L 99.870185 190.729191 
L 100.073602 191.221925 
L 100.27702 190.729191 
L 100.683855 190.729191 
L 100.887273 191.027987 
L 101.09069 190.729191 
L 132.417006 190.729191 
L 132.620424 190.860007 
L 133.027259 190.729191 
L 133.230677 190.729191 
L 133.434094 190.872406 
L 133.637512 190.729191 
L 134.044347 190.729191 
L 134.247765 190.855208 
L 134.6546 190.729191 
L 138.92637 190.729191 
L 139.129788 190.928571 
L 139.333206 190.729191 
L 139.740041 190.729191 
L 139.943459 191.066538 
L 140.146876 190.729191 
L 140.553712 190.729191 
L 140.757129 191.146632 
L 140.960547 190.729191 
L 141.367382 190.729191 
L 141.5708 191.14177 
L 141.774217 190.729191 
L 142.181053 190.729191 
L 142.38447 191.118873 
L 142.587888 190.729191 
L 142.994723 190.729191 
L 143.198141 191.147053 
L 143.401558 190.729191 
L 143.808394 190.729191 
L 144.011811 191.196326 
L 144.215229 190.729191 
L 144.622064 190.729191 
L 144.825482 191.253941 
L 145.0289 190.729191 
L 145.435735 190.729191 
L 145.639152 191.304986 
L 145.84257 190.729191 
L 146.249405 190.729191 
L 146.452823 191.346111 
L 146.656241 190.729191 
L 147.063076 190.729191 
L 147.266494 191.382631 
L 147.469911 190.729191 
L 147.876746 190.729191 
L 148.080164 191.400762 
L 148.283582 190.729191 
L 148.690417 190.729191 
L 148.893835 191.395513 
L 149.097252 190.729191 
L 149.504087 190.729191 
L 149.707505 191.369523 
L 149.910923 190.729191 
L 150.317758 190.729191 
L 150.521176 191.347881 
L 150.724593 190.729191 
L 151.131429 190.729191 
L 151.334846 191.335417 
L 151.538264 190.729191 
L 151.945099 190.729191 
L 152.148517 191.31677 
L 152.351934 190.729191 
L 152.75877 190.729191 
L 152.962187 191.333291 
L 153.165605 190.729191 
L 153.57244 190.729191 
L 153.775858 191.347848 
L 153.979275 190.729191 
L 154.386111 190.729191 
L 154.589528 191.354192 
L 154.792946 190.729191 
L 155.199781 190.729191 
L 155.403199 191.35812 
L 155.606617 190.729191 
L 156.013452 190.729191 
L 156.216869 191.36762 
L 156.420287 190.729191 
L 156.827122 190.729191 
L 157.03054 191.389551 
L 157.233958 190.729191 
L 157.640793 190.729191 
L 157.844211 191.425653 
L 158.047628 190.729191 
L 158.454463 190.729191 
L 158.657881 191.443043 
L 158.861299 190.729191 
L 159.268134 190.729191 
L 159.471552 191.444234 
L 159.674969 190.729191 
L 160.081805 190.729191 
L 160.285222 191.438018 
L 160.48864 190.729191 
L 160.895475 190.729191 
L 161.098893 191.423461 
L 161.30231 190.729191 
L 161.709146 190.729191 
L 161.912563 191.394573 
L 162.115981 190.729191 
L 162.522816 190.729191 
L 162.726234 191.381691 
L 162.929651 190.729191 
L 163.336487 190.729191 
L 163.539904 191.37496 
L 163.743322 190.729191 
L 164.150157 190.729191 
L 164.353575 191.398695 
L 164.556992 190.729191 
L 164.963828 190.729191 
L 165.167245 191.440046 
L 165.370663 190.729191 
L 165.777498 190.729191 
L 165.980916 191.451962 
L 166.184334 190.729191 
L 166.591169 190.729191 
L 166.794586 191.434571 
L 166.998004 190.729191 
L 167.404839 190.729191 
L 167.608257 191.40652 
L 167.811675 190.729191 
L 168.21851 190.729191 
L 168.421928 191.374636 
L 168.625345 190.729191 
L 169.03218 190.729191 
L 169.235598 191.365457 
L 169.439016 190.729191 
L 169.845851 190.729191 
L 170.049269 191.377244 
L 170.252686 190.729191 
L 170.659522 190.729191 
L 170.862939 191.375504 
L 171.066357 190.729191 
L 171.473192 190.729191 
L 171.67661 191.337309 
L 171.880027 190.729191 
L 172.286863 190.729191 
L 172.49028 191.332413 
L 172.693698 190.729191 
L 173.100533 190.729191 
L 173.303951 191.359529 
L 173.507368 190.729191 
L 173.914204 190.729191 
L 174.117621 191.401685 
L 174.321039 190.729191 
L 174.727874 190.729191 
L 174.931292 191.432118 
L 175.13471 190.729191 
L 175.541545 190.729191 
L 175.744962 191.45289 
L 175.94838 190.729191 
L 176.355215 190.729191 
L 176.558633 191.456336 
L 176.762051 190.729191 
L 177.168886 190.729191 
L 177.372303 191.459845 
L 177.575721 190.729191 
L 177.982556 190.729191 
L 178.185974 191.451118 
L 178.389392 190.729191 
L 178.796227 190.729191 
L 178.999645 191.432567 
L 179.203062 190.729191 
L 179.609897 190.729191 
L 179.813315 191.408027 
L 180.016733 190.729191 
L 180.423568 190.729191 
L 180.626986 191.355275 
L 180.830403 190.729191 
L 181.237239 190.729191 
L 181.440656 191.250834 
L 181.644074 190.729191 
L 182.050909 190.729191 
L 182.254327 191.101692 
L 182.457744 190.729191 
L 182.86458 190.729191 
L 183.067997 190.959764 
L 183.271415 190.729191 
L 239.007847 190.729191 
L 239.211265 190.598296 
L 239.6181 190.729191 
L 239.821517 190.729191 
L 240.024935 190.43199 
L 240.228353 190.729191 
L 240.635188 190.729191 
L 240.838606 190.253479 
L 241.042023 190.729191 
L 241.448859 190.729191 
L 241.652276 190.09104 
L 241.855694 190.729191 
L 242.262529 190.729191 
L 242.465947 189.990018 
L 242.669364 190.729191 
L 243.0762 190.729191 
L 243.279617 189.945966 
L 243.483035 190.729191 
L 243.88987 190.729191 
L 244.093288 189.907451 
L 244.296705 190.729191 
L 244.703541 190.729191 
L 244.906958 189.83908 
L 245.110376 190.729191 
L 245.517211 190.729191 
L 245.720629 189.769647 
L 245.924046 190.729191 
L 246.330882 190.729191 
L 246.534299 189.709295 
L 246.737717 190.729191 
L 247.144552 190.729191 
L 247.34797 189.688556 
L 247.551388 190.729191 
L 247.958223 190.729191 
L 248.16164 189.725978 
L 248.365058 190.729191 
L 248.771893 190.729191 
L 248.975311 189.751872 
L 249.178729 190.729191 
L 249.585564 190.729191 
L 249.788982 189.710521 
L 249.992399 190.729191 
L 250.399234 190.729191 
L 250.602652 189.634259 
L 250.80607 190.729191 
L 251.212905 190.729191 
L 251.416323 189.588399 
L 251.61974 190.729191 
L 252.026576 190.729191 
L 252.229993 189.606111 
L 252.433411 190.729191 
L 252.840246 190.729191 
L 253.043664 189.686848 
L 253.247081 190.729191 
L 253.653917 190.729191 
L 253.857334 189.8452 
L 254.060752 190.729191 
L 254.467587 190.729191 
L 254.671005 190.006868 
L 254.874422 190.729191 
L 255.281258 190.729191 
L 255.484675 190.05379 
L 255.688093 190.729191 
L 256.094928 190.729191 
L 256.298346 190.077622 
L 256.501763 190.729191 
L 256.908599 190.729191 
L 257.112016 190.056431 
L 257.315434 190.729191 
L 257.722269 190.729191 
L 257.925687 189.98207 
L 258.129105 190.729191 
L 258.53594 190.729191 
L 258.739357 189.942039 
L 258.942775 190.729191 
L 259.34961 190.729191 
L 259.553028 189.959913 
L 259.756446 190.729191 
L 260.163281 190.729191 
L 260.366699 189.957273 
L 260.570116 190.729191 
L 260.976951 190.729191 
L 261.180369 189.943586 
L 261.383787 190.729191 
L 261.790622 190.729191 
L 261.99404 189.958496 
L 262.197457 190.729191 
L 262.604293 190.729191 
L 262.80771 189.937241 
L 263.011128 190.729191 
L 263.417963 190.729191 
L 263.621381 189.925615 
L 263.824798 190.729191 
L 264.231634 190.729191 
L 264.435051 189.938175 
L 264.638469 190.729191 
L 265.045304 190.729191 
L 265.248722 189.903812 
L 265.452139 190.729191 
L 265.858975 190.729191 
L 266.062392 189.8747 
L 266.26581 190.729191 
L 266.672645 190.729191 
L 266.876063 189.837793 
L 267.079481 190.729191 
L 267.486316 190.729191 
L 267.689733 189.796862 
L 267.893151 190.729191 
L 268.299986 190.729191 
L 268.503404 189.752162 
L 268.706822 190.729191 
L 269.113657 190.729191 
L 269.317075 189.720924 
L 269.520492 190.729191 
L 269.927327 190.729191 
L 270.130745 189.744658 
L 270.334163 190.729191 
L 270.740998 190.729191 
L 270.944416 189.783111 
L 271.147833 190.729191 
L 271.554668 190.729191 
L 271.758086 189.812804 
L 271.961504 190.729191 
L 272.368339 190.729191 
L 272.571757 189.866714 
L 272.775174 190.729191 
L 273.18201 190.729191 
L 273.385427 189.975374 
L 273.588845 190.729191 
L 273.99568 190.729191 
L 274.199098 190.141969 
L 274.402515 190.729191 
L 274.809351 190.729191 
L 275.012768 190.344118 
L 275.216186 190.729191 
L 275.623021 190.729191 
L 275.826439 190.513741 
L 276.029856 190.729191 
L 291.082761 190.729191 
L 291.286179 190.513998 
L 291.489597 190.729191 
L 291.896432 190.729191 
L 292.09985 190.386628 
L 292.303267 190.729191 
L 292.710103 190.729191 
L 292.91352 190.270691 
L 293.116938 190.729191 
L 293.523773 190.729191 
L 293.727191 190.175075 
L 293.930608 190.729191 
L 294.337444 190.729191 
L 294.540861 190.120005 
L 294.744279 190.729191 
L 295.151114 190.729191 
L 295.354532 190.048381 
L 295.557949 190.729191 
L 295.964785 190.729191 
L 296.168202 189.97898 
L 296.37162 190.729191 
L 296.778455 190.729191 
L 296.981873 189.918435 
L 297.18529 190.729191 
L 297.592126 190.729191 
L 297.795543 189.863397 
L 297.998961 190.729191 
L 298.405796 190.729191 
L 298.609214 189.811129 
L 298.812632 190.729191 
L 299.219467 190.729191 
L 299.422884 189.761823 
L 299.626302 190.729191 
L 300.033137 190.729191 
L 300.236555 189.727622 
L 300.439973 190.729191 
L 300.846808 190.729191 
L 301.050226 189.701761 
L 301.253643 190.729191 
L 301.660478 190.729191 
L 301.863896 189.677575 
L 302.067314 190.729191 
L 302.474149 190.729191 
L 302.677567 189.682341 
L 302.880984 190.729191 
L 303.28782 190.729191 
L 303.491237 189.699958 
L 303.694655 190.729191 
L 304.10149 190.729191 
L 304.304908 189.707622 
L 304.508325 190.729191 
L 304.915161 190.729191 
L 305.118578 189.717799 
L 305.321996 190.729191 
L 305.728831 190.729191 
L 305.932249 189.745559 
L 306.135666 190.729191 
L 306.542502 190.729191 
L 306.745919 189.795799 
L 306.949337 190.729191 
L 307.356172 190.729191 
L 307.55959 189.874926 
L 307.763008 190.729191 
L 308.169843 190.729191 
L 308.37326 189.962459 
L 308.576678 190.729191 
L 308.983513 190.729191 
L 309.186931 190.031409 
L 309.390349 190.729191 
L 309.797184 190.729191 
L 310.000602 190.117782 
L 310.204019 190.729191 
L 310.610854 190.729191 
L 310.814272 190.234782 
L 311.01769 190.729191 
L 311.424525 190.729191 
L 311.627943 190.356259 
L 311.83136 190.729191 
L 312.238195 190.729191 
L 312.441613 190.475868 
L 312.645031 190.729191 
L 313.051866 190.729191 
L 313.255284 190.533901 
L 313.458701 190.729191 
L 313.865537 190.729191 
L 314.068954 190.583335 
L 314.272372 190.729191 
L 330.952618 190.729191 
L 331.156036 190.528233 
L 331.359453 190.729191 
L 331.766288 190.729191 
L 331.969706 190.426047 
L 332.173124 190.729191 
L 332.579959 190.729191 
L 332.783377 190.317066 
L 332.986794 190.729191 
L 333.39363 190.729191 
L 333.597047 190.209019 
L 333.800465 190.729191 
L 334.2073 190.729191 
L 334.410718 190.122742 
L 334.614135 190.729191 
L 335.020971 190.729191 
L 335.224388 190.051698 
L 335.427806 190.729191 
L 335.834641 190.729191 
L 336.038059 189.994245 
L 336.241476 190.729191 
L 336.648312 190.729191 
L 336.851729 189.95167 
L 337.055147 190.729191 
L 337.461982 190.729191 
L 337.6654 189.923137 
L 337.868817 190.729191 
L 338.275653 190.729191 
L 338.47907 189.923363 
L 338.682488 190.729191 
L 339.089323 190.729191 
L 339.292741 189.933926 
L 339.496159 190.729191 
L 339.902994 190.729191 
L 340.106411 189.970511 
L 340.309829 190.729191 
L 340.716664 190.729191 
L 340.920082 190.040493 
L 341.1235 190.729191 
L 341.530335 190.729191 
L 341.733753 190.153307 
L 341.93717 190.729191 
L 342.344005 190.729191 
L 342.547423 190.337553 
L 342.750841 190.729191 
L 343.157676 190.729191 
L 343.361094 190.573842 
L 343.564511 190.729191 
L 344.785017 190.729191 
L 344.988435 190.97428 
L 345.191852 190.729191 
L 345.598688 190.729191 
L 345.802105 191.086515 
L 346.005523 190.729191 
L 346.412358 190.729191 
L 346.615776 191.148026 
L 346.819193 190.729191 
L 347.226029 190.729191 
L 347.429446 191.19102 
L 347.632864 190.729191 
L 348.039699 190.729191 
L 348.243117 191.188927 
L 348.446535 190.729191 
L 348.85337 190.729191 
L 349.056787 191.204964 
L 349.260205 190.729191 
L 349.66704 190.729191 
L 349.870458 191.211565 
L 350.073876 190.729191 
L 350.480711 190.729191 
L 350.684129 191.207249 
L 350.887546 190.729191 
L 351.294381 190.729191 
L 351.497799 191.209116 
L 351.701217 190.729191 
L 352.108052 190.729191 
L 352.31147 191.203286 
L 352.514887 190.729191 
L 352.921722 190.729191 
L 353.12514 191.165187 
L 353.328558 190.729191 
L 353.735393 190.729191 
L 353.938811 191.111017 
L 354.142228 190.729191 
L 354.549064 190.729191 
L 354.752481 191.066284 
L 354.955899 190.729191 
L 355.362734 190.729191 
L 355.566152 191.009151 
L 355.769569 190.729191 
L 356.176405 190.729191 
L 356.379822 190.963677 
L 356.58324 190.729191 
L 356.990075 190.729191 
L 357.193493 190.908381 
L 357.39691 190.729191 
L 357.803746 190.729191 
L 358.007163 190.860041 
L 358.413999 190.729191 
L 361.872098 190.729191 
L 362.075516 190.84384 
L 362.482351 190.729191 
L 362.685769 190.729191 
L 362.889187 190.964383 
L 363.092604 190.729191 
L 363.49944 190.729191 
L 363.702857 191.074106 
L 363.906275 190.729191 
L 364.31311 190.729191 
L 364.516528 191.211621 
L 364.719945 190.729191 
L 365.126781 190.729191 
L 365.330198 191.382919 
L 365.533616 190.729191 
L 365.940451 190.729191 
L 366.143869 191.49438 
L 366.347286 190.729191 
L 366.754122 190.729191 
L 366.957539 191.508293 
L 367.160957 190.729191 
L 367.567792 190.729191 
L 367.77121 191.463206 
L 367.974627 190.729191 
L 368.381463 190.729191 
L 368.58488 191.39886 
L 368.788298 190.729191 
L 369.195133 190.729191 
L 369.398551 191.340216 
L 369.601969 190.729191 
L 370.008804 190.729191 
L 370.212221 191.25513 
L 370.415639 190.729191 
L 370.822474 190.729191 
L 371.025892 191.144023 
L 371.22931 190.729191 
L 371.636145 190.729191 
L 371.839563 191.024156 
L 372.04298 190.729191 
L 372.449815 190.729191 
L 372.653233 190.896367 
L 372.856651 190.729191 
L 379.77285 190.729191 
L 379.976268 190.860136 
L 380.383103 190.729191 
L 380.586521 190.729191 
L 380.789938 190.995397 
L 380.993356 190.729191 
L 381.400191 190.729191 
L 381.603609 191.120643 
L 381.807027 190.729191 
L 382.213862 190.729191 
L 382.41728 191.23291 
L 382.620697 190.729191 
L 383.027532 190.729191 
L 383.23095 191.316482 
L 383.434368 190.729191 
L 383.841203 190.729191 
L 384.044621 191.344146 
L 384.248038 190.729191 
L 384.654874 190.729191 
L 384.858291 191.329074 
L 385.061709 190.729191 
L 385.468544 190.729191 
L 385.671962 191.306563 
L 385.875379 190.729191 
L 386.282215 190.729191 
L 386.485632 191.278545 
L 386.68905 190.729191 
L 387.095885 190.729191 
L 387.299303 191.264632 
L 387.50272 190.729191 
L 387.909556 190.729191 
L 388.112973 191.25249 
L 388.316391 190.729191 
L 388.723226 190.729191 
L 388.926644 191.231686 
L 389.130062 190.729191 
L 389.536897 190.729191 
L 389.740314 191.221766 
L 389.943732 190.729191 
L 390.350567 190.729191 
L 390.553985 191.19597 
L 390.757403 190.729191 
L 391.164238 190.729191 
L 391.367656 191.137421 
L 391.571073 190.729191 
L 391.977908 190.729191 
L 392.181326 191.050918 
L 392.384744 190.729191 
L 392.791579 190.729191 
L 392.994997 190.946961 
L 393.198414 190.729191 
L 398.487273 190.729191 
L 398.487273 190.729191 
" style="fill:none;stroke:#0000ff;stroke-dasharray:5.55,2.4;stroke-dashoffset:0;stroke-width:1.5;"/>
   </g>
   <g id="line2d_17">
    <path clip-path="url(#p603dced8fa)" d="M 73.832727 190.729191 
L 278.877703 190.729191 
L 281.928968 190.729191 
L 398.487273 190.729191 
L 398.487273 190.729191 
" style="fill:none;stroke:#008000;stroke-dasharray:5.55,2.4;stroke-dashoffset:0;stroke-width:1.5;"/>
   </g>
   <g id="patch_3">
    <path d="M 57.6 307.584 
L 57.6 41.472 
" style="fill:none;stroke:#000000;stroke-linecap:square;stroke-linejoin:miter;stroke-width:0.8;"/>
   </g>
   <g id="patch_4">
    <path d="M 414.72 307.584 
L 414.72 41.472 
" style="fill:none;stroke:#000000;stroke-linecap:square;stroke-linejoin:miter;stroke-width:0.8;"/>
   </g>
   <g id="patch_5">
    <path d="M 57.6 307.584 
L 414.72 307.584 
" style="fill:none;stroke:#000000;stroke-linecap:square;stroke-linejoin:miter;stroke-width:0.8;"/>
   </g>
   <g id="patch_6">
    <path d="M 57.6 41.472 
L 414.72 41.472 
" style="fill:none;stroke:#000000;stroke-linecap:square;stroke-linejoin:miter;stroke-width:0.8;"/>
   </g>
   <g id="legend_1">
    <g id="patch_7">
     <path d="M 64.6 137.54075 
L 161.967187 137.54075 
Q 163.967187 137.54075 163.967187 135.54075 
L 163.967187 48.472 
Q 163.967187 46.472 161.967187 46.472 
L 64.6 46.472 
Q 62.6 46.472 62.6 48.472 
L 62.6 135.54075 
Q 62.6 137.54075 64.6 137.54075 
z
" style="fill:#ffffff;opacity:0.8;stroke:#cccccc;stroke-linejoin:miter;"/>
    </g>
    <g id="line2d_18">
     <path d="M 66.6 54.570438 
L 86.6 54.570438 
" style="fill:none;stroke:#ff0000;stroke-linecap:square;stroke-width:1.5;"/>
    </g>
    <g id="line2d_19"/>
    <g id="text_14">
     <!-- estimated vx -->
     <g transform="translate(94.6 58.070438)scale(0.1 -0.1)">
      <defs>
       <path d="M 34.28125 27.484375 
Q 23.390625 27.484375 19.1875 25 
Q 14.984375 22.515625 14.984375 16.5 
Q 14.984375 11.71875 18.140625 8.90625 
Q 21.296875 6.109375 26.703125 6.109375 
Q 34.1875 6.109375 38.703125 11.40625 
Q 43.21875 16.703125 43.21875 25.484375 
L 43.21875 27.484375 
z
M 52.203125 31.203125 
L 52.203125 0 
L 43.21875 0 
L 43.21875 8.296875 
Q 40.140625 3.328125 35.546875 0.953125 
Q 30.953125 -1.421875 24.3125 -1.421875 
Q 15.921875 -1.421875 10.953125 3.296875 
Q 6 8.015625 6 15.921875 
Q 6 25.140625 12.171875 29.828125 
Q 18.359375 34.515625 30.609375 34.515625 
L 43.21875 34.515625 
L 43.21875 35.40625 
Q 43.21875 41.609375 39.140625 45 
Q 35.0625 48.390625 27.6875 48.390625 
Q 23 48.390625 18.546875 47.265625 
Q 14.109375 46.140625 10.015625 43.890625 
L 10.015625 52.203125 
Q 14.9375 54.109375 19.578125 55.046875 
Q 24.21875 56 28.609375 56 
Q 40.484375 56 46.34375 49.84375 
Q 52.203125 43.703125 52.203125 31.203125 
z
" id="DejaVuSans-97"/>
       <path d="M 45.40625 46.390625 
L 45.40625 75.984375 
L 54.390625 75.984375 
L 54.390625 0 
L 45.40625 0 
L 45.40625 8.203125 
Q 42.578125 3.328125 38.25 0.953125 
Q 33.9375 -1.421875 27.875 -1.421875 
Q 17.96875 -1.421875 11.734375 6.484375 
Q 5.515625 14.40625 5.515625 27.296875 
Q 5.515625 40.1875 11.734375 48.09375 
Q 17.96875 56 27.875 56 
Q 33.9375 56 38.25 53.625 
Q 42.578125 51.265625 45.40625 46.390625 
z
M 14.796875 27.296875 
Q 14.796875 17.390625 18.875 11.75 
Q 22.953125 6.109375 30.078125 6.109375 
Q 37.203125 6.109375 41.296875 11.75 
Q 45.40625 17.390625 45.40625 27.296875 
Q 45.40625 37.203125 41.296875 42.84375 
Q 37.203125 48.484375 30.078125 48.484375 
Q 22.953125 48.484375 18.875 42.84375 
Q 14.796875 37.203125 14.796875 27.296875 
z
" id="DejaVuSans-100"/>
       <path d="M 54.890625 54.6875 
L 35.109375 28.078125 
L 55.90625 0 
L 45.3125 0 
L 29.390625 21.484375 
L 13.484375 0 
L 2.875 0 
L 24.125 28.609375 
L 4.6875 54.6875 
L 15.28125 54.6875 
L 29.78125 35.203125 
L 44.28125 54.6875 
z
" id="DejaVuSans-120"/>
      </defs>
      <use xlink:href="#DejaVuSans-101"/>
      <use x="61.523438" xlink:href="#DejaVuSans-115"/>
      <use x="113.623047" xlink:href="#DejaVuSans-116"/>
      <use x="152.832031" xlink:href="#DejaVuSans-105"/>
      <use x="180.615234" xlink:href="#DejaVuSans-109"/>
      <use x="278.027344" xlink:href="#DejaVuSans-97"/>
      <use x="339.306641" xlink:href="#DejaVuSans-116"/>
      <use x="378.515625" xlink:href="#DejaVuSans-101"/>
      <use x="440.039062" xlink:href="#DejaVuSans-100"/>
      <use x="503.515625" xlink:href="#DejaVuSans-32"/>
      <use x="535.302734" xlink:href="#DejaVuSans-118"/>
      <use x="594.482422" xlink:href="#DejaVuSans-120"/>
     </g>
    </g>
    <g id="line2d_20">
     <path d="M 66.6 69.248563 
L 86.6 69.248563 
" style="fill:none;stroke:#0000ff;stroke-linecap:square;stroke-width:1.5;"/>
    </g>
    <g id="line2d_21"/>
    <g id="text_15">
     <!-- estimated vy -->
     <g transform="translate(94.6 72.748563)scale(0.1 -0.1)">
      <use xlink:href="#DejaVuSans-101"/>
      <use x="61.523438" xlink:href="#DejaVuSans-115"/>
      <use x="113.623047" xlink:href="#DejaVuSans-116"/>
      <use x="152.832031" xlink:href="#DejaVuSans-105"/>
      <use x="180.615234" xlink:href="#DejaVuSans-109"/>
      <use x="278.027344" xlink:href="#DejaVuSans-97"/>
      <use x="339.306641" xlink:href="#DejaVuSans-116"/>
      <use x="378.515625" xlink:href="#DejaVuSans-101"/>
      <use x="440.039062" xlink:href="#DejaVuSans-100"/>
      <use x="503.515625" xlink:href="#DejaVuSans-32"/>
      <use x="535.302734" xlink:href="#DejaVuSans-118"/>
      <use x="594.482422" xlink:href="#DejaVuSans-121"/>
     </g>
    </g>
    <g id="line2d_22">
     <path d="M 66.6 83.926688 
L 86.6 83.926688 
" style="fill:none;stroke:#008000;stroke-linecap:square;stroke-width:1.5;"/>
    </g>
    <g id="line2d_23"/>
    <g id="text_16">
     <!-- estimated vz -->
     <g transform="translate(94.6 87.426688)scale(0.1 -0.1)">
      <defs>
       <path d="M 5.515625 54.6875 
L 48.1875 54.6875 
L 48.1875 46.484375 
L 14.40625 7.171875 
L 48.1875 7.171875 
L 48.1875 0 
L 4.296875 0 
L 4.296875 8.203125 
L 38.09375 47.515625 
L 5.515625 47.515625 
z
" id="DejaVuSans-122"/>
      </defs>
      <use xlink:href="#DejaVuSans-101"/>
      <use x="61.523438" xlink:href="#DejaVuSans-115"/>
      <use x="113.623047" xlink:href="#DejaVuSans-116"/>
      <use x="152.832031" xlink:href="#DejaVuSans-105"/>
      <use x="180.615234" xlink:href="#DejaVuSans-109"/>
      <use x="278.027344" xlink:href="#DejaVuSans-97"/>
      <use x="339.306641" xlink:href="#DejaVuSans-116"/>
      <use x="378.515625" xlink:href="#DejaVuSans-101"/>
      <use x="440.039062" xlink:href="#DejaVuSans-100"/>
      <use x="503.515625" xlink:href="#DejaVuSans-32"/>
      <use x="535.302734" xlink:href="#DejaVuSans-118"/>
      <use x="594.482422" xlink:href="#DejaVuSans-122"/>
     </g>
    </g>
    <g id="line2d_24">
     <path d="M 66.6 98.604813 
L 86.6 98.604813 
" style="fill:none;stroke:#ff0000;stroke-dasharray:5.55,2.4;stroke-dashoffset:0;stroke-width:1.5;"/>
    </g>
    <g id="line2d_25"/>
    <g id="text_17">
     <!-- gt vx -->
     <g transform="translate(94.6 102.104813)scale(0.1 -0.1)">
      <defs>
       <path d="M 45.40625 27.984375 
Q 45.40625 37.75 41.375 43.109375 
Q 37.359375 48.484375 30.078125 48.484375 
Q 22.859375 48.484375 18.828125 43.109375 
Q 14.796875 37.75 14.796875 27.984375 
Q 14.796875 18.265625 18.828125 12.890625 
Q 22.859375 7.515625 30.078125 7.515625 
Q 37.359375 7.515625 41.375 12.890625 
Q 45.40625 18.265625 45.40625 27.984375 
z
M 54.390625 6.78125 
Q 54.390625 -7.171875 48.1875 -13.984375 
Q 42 -20.796875 29.203125 -20.796875 
Q 24.46875 -20.796875 20.265625 -20.09375 
Q 16.0625 -19.390625 12.109375 -17.921875 
L 12.109375 -9.1875 
Q 16.0625 -11.328125 19.921875 -12.34375 
Q 23.78125 -13.375 27.78125 -13.375 
Q 36.625 -13.375 41.015625 -8.765625 
Q 45.40625 -4.15625 45.40625 5.171875 
L 45.40625 9.625 
Q 42.625 4.78125 38.28125 2.390625 
Q 33.9375 0 27.875 0 
Q 17.828125 0 11.671875 7.65625 
Q 5.515625 15.328125 5.515625 27.984375 
Q 5.515625 40.671875 11.671875 48.328125 
Q 17.828125 56 27.875 56 
Q 33.9375 56 38.28125 53.609375 
Q 42.625 51.21875 45.40625 46.390625 
L 45.40625 54.6875 
L 54.390625 54.6875 
z
" id="DejaVuSans-103"/>
      </defs>
      <use xlink:href="#DejaVuSans-103"/>
      <use x="63.476562" xlink:href="#DejaVuSans-116"/>
      <use x="102.685547" xlink:href="#DejaVuSans-32"/>
      <use x="134.472656" xlink:href="#DejaVuSans-118"/>
      <use x="193.652344" xlink:href="#DejaVuSans-120"/>
     </g>
    </g>
    <g id="line2d_26">
     <path d="M 66.6 113.282938 
L 86.6 113.282938 
" style="fill:none;stroke:#0000ff;stroke-dasharray:5.55,2.4;stroke-dashoffset:0;stroke-width:1.5;"/>
    </g>
    <g id="line2d_27"/>
    <g id="text_18">
     <!-- gt vy -->
     <g transform="translate(94.6 116.782938)scale(0.1 -0.1)">
      <use xlink:href="#DejaVuSans-103"/>
      <use x="63.476562" xlink:href="#DejaVuSans-116"/>
      <use x="102.685547" xlink:href="#DejaVuSans-32"/>
      <use x="134.472656" xlink:href="#DejaVuSans-118"/>
      <use x="193.652344" xlink:href="#DejaVuSans-121"/>
     </g>
    </g>
    <g id="line2d_28">
     <path d="M 66.6 127.961063 
L 86.6 127.961063 
" style="fill:none;stroke:#008000;stroke-dasharray:5.55,2.4;stroke-dashoffset:0;stroke-width:1.5;"/>
    </g>
    <g id="line2d_29"/>
    <g id="text_19">
     <!-- gt vz -->
     <g transform="translate(94.6 131.461063)scale(0.1 -0.1)">
      <use xlink:href="#DejaVuSans-103"/>
      <use x="63.476562" xlink:href="#DejaVuSans-116"/>
      <use x="102.685547" xlink:href="#DejaVuSans-32"/>
      <use x="134.472656" xlink:href="#DejaVuSans-118"/>
      <use x="193.652344" xlink:href="#DejaVuSans-122"/>
     </g>
    </g>
   </g>
  </g>
 </g>
 <defs>
  <clipPath id="p603dced8fa">
   <rect height="266.112" width="357.12" x="57.6" y="41.472"/>
  </clipPath>
 </defs>
</svg>
