<?xml version="1.0" encoding="utf-8" standalone="no"?>
<!DOCTYPE svg PUBLIC "-//W3C//DTD SVG 1.1//EN"
  "http://www.w3.org/Graphics/SVG/1.1/DTD/svg11.dtd">
<!-- Created with matplotlib (https://matplotlib.org/) -->
<svg height="345.6pt" version="1.1" viewBox="0 0 460.8 345.6" width="460.8pt" xmlns="http://www.w3.org/2000/svg" xmlns:xlink="http://www.w3.org/1999/xlink">
 <metadata>
  <rdf:RDF xmlns:cc="http://creativecommons.org/ns#" xmlns:dc="http://purl.org/dc/elements/1.1/" xmlns:rdf="http://www.w3.org/1999/02/22-rdf-syntax-ns#">
   <cc:Work>
    <dc:type rdf:resource="http://purl.org/dc/dcmitype/StillImage"/>
    <dc:date>2023-04-13T12:24:00.056085</dc:date>
    <dc:format>image/svg+xml</dc:format>
    <dc:creator>
     <cc:Agent>
      <dc:title>Matplotlib v3.3.4, https://matplotlib.org/</dc:title>
     </cc:Agent>
    </dc:creator>
   </cc:Work>
  </rdf:RDF>
 </metadata>
 <defs>
  <style type="text/css">*{stroke-linecap:butt;stroke-linejoin:round;}</style>
 </defs>
 <g id="figure_1">
  <g id="patch_1">
   <path d="M 0 345.6 
L 460.8 345.6 
L 460.8 0 
L 0 0 
z
" style="fill:#ffffff;"/>
  </g>
  <g id="axes_1">
   <g id="patch_2">
    <path d="M 57.6 307.584 
L 414.72 307.584 
L 414.72 41.472 
L 57.6 41.472 
z
" style="fill:#ffffff;"/>
   </g>
   <g id="matplotlib.axis_1">
    <g id="xtick_1">
     <g id="line2d_1">
      <defs>
       <path d="M 0 0 
L 0 3.5 
" id="md797c577fe" style="stroke:#000000;stroke-width:0.8;"/>
      </defs>
      <g>
       <use style="stroke:#000000;stroke-width:0.8;" x="73.832727" xlink:href="#md797c577fe" y="307.584"/>
      </g>
     </g>
     <g id="text_1">
      <!-- 0 -->
      <g transform="translate(70.651477 322.182437)scale(0.1 -0.1)">
       <defs>
        <path d="M 31.78125 66.40625 
Q 24.171875 66.40625 20.328125 58.90625 
Q 16.5 51.421875 16.5 36.375 
Q 16.5 21.390625 20.328125 13.890625 
Q 24.171875 6.390625 31.78125 6.390625 
Q 39.453125 6.390625 43.28125 13.890625 
Q 47.125 21.390625 47.125 36.375 
Q 47.125 51.421875 43.28125 58.90625 
Q 39.453125 66.40625 31.78125 66.40625 
z
M 31.78125 74.21875 
Q 44.046875 74.21875 50.515625 64.515625 
Q 56.984375 54.828125 56.984375 36.375 
Q 56.984375 17.96875 50.515625 8.265625 
Q 44.046875 -1.421875 31.78125 -1.421875 
Q 19.53125 -1.421875 13.0625 8.265625 
Q 6.59375 17.96875 6.59375 36.375 
Q 6.59375 54.828125 13.0625 64.515625 
Q 19.53125 74.21875 31.78125 74.21875 
z
" id="DejaVuSans-48"/>
       </defs>
       <use xlink:href="#DejaVuSans-48"/>
      </g>
     </g>
    </g>
    <g id="xtick_2">
     <g id="line2d_2">
      <g>
       <use style="stroke:#000000;stroke-width:0.8;" x="114.490779" xlink:href="#md797c577fe" y="307.584"/>
      </g>
     </g>
     <g id="text_2">
      <!-- 200 -->
      <g transform="translate(104.947029 322.182437)scale(0.1 -0.1)">
       <defs>
        <path d="M 19.1875 8.296875 
L 53.609375 8.296875 
L 53.609375 0 
L 7.328125 0 
L 7.328125 8.296875 
Q 12.9375 14.109375 22.625 23.890625 
Q 32.328125 33.6875 34.8125 36.53125 
Q 39.546875 41.84375 41.421875 45.53125 
Q 43.3125 49.21875 43.3125 52.78125 
Q 43.3125 58.59375 39.234375 62.25 
Q 35.15625 65.921875 28.609375 65.921875 
Q 23.96875 65.921875 18.8125 64.3125 
Q 13.671875 62.703125 7.8125 59.421875 
L 7.8125 69.390625 
Q 13.765625 71.78125 18.9375 73 
Q 24.125 74.21875 28.421875 74.21875 
Q 39.75 74.21875 46.484375 68.546875 
Q 53.21875 62.890625 53.21875 53.421875 
Q 53.21875 48.921875 51.53125 44.890625 
Q 49.859375 40.875 45.40625 35.40625 
Q 44.1875 33.984375 37.640625 27.21875 
Q 31.109375 20.453125 19.1875 8.296875 
z
" id="DejaVuSans-50"/>
       </defs>
       <use xlink:href="#DejaVuSans-50"/>
       <use x="63.623047" xlink:href="#DejaVuSans-48"/>
       <use x="127.246094" xlink:href="#DejaVuSans-48"/>
      </g>
     </g>
    </g>
    <g id="xtick_3">
     <g id="line2d_3">
      <g>
       <use style="stroke:#000000;stroke-width:0.8;" x="155.148831" xlink:href="#md797c577fe" y="307.584"/>
      </g>
     </g>
     <g id="text_3">
      <!-- 400 -->
      <g transform="translate(145.605081 322.182437)scale(0.1 -0.1)">
       <defs>
        <path d="M 37.796875 64.3125 
L 12.890625 25.390625 
L 37.796875 25.390625 
z
M 35.203125 72.90625 
L 47.609375 72.90625 
L 47.609375 25.390625 
L 58.015625 25.390625 
L 58.015625 17.1875 
L 47.609375 17.1875 
L 47.609375 0 
L 37.796875 0 
L 37.796875 17.1875 
L 4.890625 17.1875 
L 4.890625 26.703125 
z
" id="DejaVuSans-52"/>
       </defs>
       <use xlink:href="#DejaVuSans-52"/>
       <use x="63.623047" xlink:href="#DejaVuSans-48"/>
       <use x="127.246094" xlink:href="#DejaVuSans-48"/>
      </g>
     </g>
    </g>
    <g id="xtick_4">
     <g id="line2d_4">
      <g>
       <use style="stroke:#000000;stroke-width:0.8;" x="195.806883" xlink:href="#md797c577fe" y="307.584"/>
      </g>
     </g>
     <g id="text_4">
      <!-- 600 -->
      <g transform="translate(186.263133 322.182437)scale(0.1 -0.1)">
       <defs>
        <path d="M 33.015625 40.375 
Q 26.375 40.375 22.484375 35.828125 
Q 18.609375 31.296875 18.609375 23.390625 
Q 18.609375 15.53125 22.484375 10.953125 
Q 26.375 6.390625 33.015625 6.390625 
Q 39.65625 6.390625 43.53125 10.953125 
Q 47.40625 15.53125 47.40625 23.390625 
Q 47.40625 31.296875 43.53125 35.828125 
Q 39.65625 40.375 33.015625 40.375 
z
M 52.59375 71.296875 
L 52.59375 62.3125 
Q 48.875 64.0625 45.09375 64.984375 
Q 41.3125 65.921875 37.59375 65.921875 
Q 27.828125 65.921875 22.671875 59.328125 
Q 17.53125 52.734375 16.796875 39.40625 
Q 19.671875 43.65625 24.015625 45.921875 
Q 28.375 48.1875 33.59375 48.1875 
Q 44.578125 48.1875 50.953125 41.515625 
Q 57.328125 34.859375 57.328125 23.390625 
Q 57.328125 12.15625 50.6875 5.359375 
Q 44.046875 -1.421875 33.015625 -1.421875 
Q 20.359375 -1.421875 13.671875 8.265625 
Q 6.984375 17.96875 6.984375 36.375 
Q 6.984375 53.65625 15.1875 63.9375 
Q 23.390625 74.21875 37.203125 74.21875 
Q 40.921875 74.21875 44.703125 73.484375 
Q 48.484375 72.75 52.59375 71.296875 
z
" id="DejaVuSans-54"/>
       </defs>
       <use xlink:href="#DejaVuSans-54"/>
       <use x="63.623047" xlink:href="#DejaVuSans-48"/>
       <use x="127.246094" xlink:href="#DejaVuSans-48"/>
      </g>
     </g>
    </g>
    <g id="xtick_5">
     <g id="line2d_5">
      <g>
       <use style="stroke:#000000;stroke-width:0.8;" x="236.464935" xlink:href="#md797c577fe" y="307.584"/>
      </g>
     </g>
     <g id="text_5">
      <!-- 800 -->
      <g transform="translate(226.921185 322.182437)scale(0.1 -0.1)">
       <defs>
        <path d="M 31.78125 34.625 
Q 24.75 34.625 20.71875 30.859375 
Q 16.703125 27.09375 16.703125 20.515625 
Q 16.703125 13.921875 20.71875 10.15625 
Q 24.75 6.390625 31.78125 6.390625 
Q 38.8125 6.390625 42.859375 10.171875 
Q 46.921875 13.96875 46.921875 20.515625 
Q 46.921875 27.09375 42.890625 30.859375 
Q 38.875 34.625 31.78125 34.625 
z
M 21.921875 38.8125 
Q 15.578125 40.375 12.03125 44.71875 
Q 8.5 49.078125 8.5 55.328125 
Q 8.5 64.0625 14.71875 69.140625 
Q 20.953125 74.21875 31.78125 74.21875 
Q 42.671875 74.21875 48.875 69.140625 
Q 55.078125 64.0625 55.078125 55.328125 
Q 55.078125 49.078125 51.53125 44.71875 
Q 48 40.375 41.703125 38.8125 
Q 48.828125 37.15625 52.796875 32.3125 
Q 56.78125 27.484375 56.78125 20.515625 
Q 56.78125 9.90625 50.3125 4.234375 
Q 43.84375 -1.421875 31.78125 -1.421875 
Q 19.734375 -1.421875 13.25 4.234375 
Q 6.78125 9.90625 6.78125 20.515625 
Q 6.78125 27.484375 10.78125 32.3125 
Q 14.796875 37.15625 21.921875 38.8125 
z
M 18.3125 54.390625 
Q 18.3125 48.734375 21.84375 45.5625 
Q 25.390625 42.390625 31.78125 42.390625 
Q 38.140625 42.390625 41.71875 45.5625 
Q 45.3125 48.734375 45.3125 54.390625 
Q 45.3125 60.0625 41.71875 63.234375 
Q 38.140625 66.40625 31.78125 66.40625 
Q 25.390625 66.40625 21.84375 63.234375 
Q 18.3125 60.0625 18.3125 54.390625 
z
" id="DejaVuSans-56"/>
       </defs>
       <use xlink:href="#DejaVuSans-56"/>
       <use x="63.623047" xlink:href="#DejaVuSans-48"/>
       <use x="127.246094" xlink:href="#DejaVuSans-48"/>
      </g>
     </g>
    </g>
    <g id="xtick_6">
     <g id="line2d_6">
      <g>
       <use style="stroke:#000000;stroke-width:0.8;" x="277.122987" xlink:href="#md797c577fe" y="307.584"/>
      </g>
     </g>
     <g id="text_6">
      <!-- 1000 -->
      <g transform="translate(264.397987 322.182437)scale(0.1 -0.1)">
       <defs>
        <path d="M 12.40625 8.296875 
L 28.515625 8.296875 
L 28.515625 63.921875 
L 10.984375 60.40625 
L 10.984375 69.390625 
L 28.421875 72.90625 
L 38.28125 72.90625 
L 38.28125 8.296875 
L 54.390625 8.296875 
L 54.390625 0 
L 12.40625 0 
z
" id="DejaVuSans-49"/>
       </defs>
       <use xlink:href="#DejaVuSans-49"/>
       <use x="63.623047" xlink:href="#DejaVuSans-48"/>
       <use x="127.246094" xlink:href="#DejaVuSans-48"/>
       <use x="190.869141" xlink:href="#DejaVuSans-48"/>
      </g>
     </g>
    </g>
    <g id="xtick_7">
     <g id="line2d_7">
      <g>
       <use style="stroke:#000000;stroke-width:0.8;" x="317.781039" xlink:href="#md797c577fe" y="307.584"/>
      </g>
     </g>
     <g id="text_7">
      <!-- 1200 -->
      <g transform="translate(305.056039 322.182437)scale(0.1 -0.1)">
       <use xlink:href="#DejaVuSans-49"/>
       <use x="63.623047" xlink:href="#DejaVuSans-50"/>
       <use x="127.246094" xlink:href="#DejaVuSans-48"/>
       <use x="190.869141" xlink:href="#DejaVuSans-48"/>
      </g>
     </g>
    </g>
    <g id="xtick_8">
     <g id="line2d_8">
      <g>
       <use style="stroke:#000000;stroke-width:0.8;" x="358.439091" xlink:href="#md797c577fe" y="307.584"/>
      </g>
     </g>
     <g id="text_8">
      <!-- 1400 -->
      <g transform="translate(345.714091 322.182437)scale(0.1 -0.1)">
       <use xlink:href="#DejaVuSans-49"/>
       <use x="63.623047" xlink:href="#DejaVuSans-52"/>
       <use x="127.246094" xlink:href="#DejaVuSans-48"/>
       <use x="190.869141" xlink:href="#DejaVuSans-48"/>
      </g>
     </g>
    </g>
    <g id="xtick_9">
     <g id="line2d_9">
      <g>
       <use style="stroke:#000000;stroke-width:0.8;" x="399.097144" xlink:href="#md797c577fe" y="307.584"/>
      </g>
     </g>
     <g id="text_9">
      <!-- 1600 -->
      <g transform="translate(386.372144 322.182437)scale(0.1 -0.1)">
       <use xlink:href="#DejaVuSans-49"/>
       <use x="63.623047" xlink:href="#DejaVuSans-54"/>
       <use x="127.246094" xlink:href="#DejaVuSans-48"/>
       <use x="190.869141" xlink:href="#DejaVuSans-48"/>
      </g>
     </g>
    </g>
    <g id="text_10">
     <!-- time [s] -->
     <g transform="translate(216.768594 335.860562)scale(0.1 -0.1)">
      <defs>
       <path d="M 18.3125 70.21875 
L 18.3125 54.6875 
L 36.8125 54.6875 
L 36.8125 47.703125 
L 18.3125 47.703125 
L 18.3125 18.015625 
Q 18.3125 11.328125 20.140625 9.421875 
Q 21.96875 7.515625 27.59375 7.515625 
L 36.8125 7.515625 
L 36.8125 0 
L 27.59375 0 
Q 17.1875 0 13.234375 3.875 
Q 9.28125 7.765625 9.28125 18.015625 
L 9.28125 47.703125 
L 2.6875 47.703125 
L 2.6875 54.6875 
L 9.28125 54.6875 
L 9.28125 70.21875 
z
" id="DejaVuSans-116"/>
       <path d="M 9.421875 54.6875 
L 18.40625 54.6875 
L 18.40625 0 
L 9.421875 0 
z
M 9.421875 75.984375 
L 18.40625 75.984375 
L 18.40625 64.59375 
L 9.421875 64.59375 
z
" id="DejaVuSans-105"/>
       <path d="M 52 44.1875 
Q 55.375 50.25 60.0625 53.125 
Q 64.75 56 71.09375 56 
Q 79.640625 56 84.28125 50.015625 
Q 88.921875 44.046875 88.921875 33.015625 
L 88.921875 0 
L 79.890625 0 
L 79.890625 32.71875 
Q 79.890625 40.578125 77.09375 44.375 
Q 74.3125 48.1875 68.609375 48.1875 
Q 61.625 48.1875 57.5625 43.546875 
Q 53.515625 38.921875 53.515625 30.90625 
L 53.515625 0 
L 44.484375 0 
L 44.484375 32.71875 
Q 44.484375 40.625 41.703125 44.40625 
Q 38.921875 48.1875 33.109375 48.1875 
Q 26.21875 48.1875 22.15625 43.53125 
Q 18.109375 38.875 18.109375 30.90625 
L 18.109375 0 
L 9.078125 0 
L 9.078125 54.6875 
L 18.109375 54.6875 
L 18.109375 46.1875 
Q 21.1875 51.21875 25.484375 53.609375 
Q 29.78125 56 35.6875 56 
Q 41.65625 56 45.828125 52.96875 
Q 50 49.953125 52 44.1875 
z
" id="DejaVuSans-109"/>
       <path d="M 56.203125 29.59375 
L 56.203125 25.203125 
L 14.890625 25.203125 
Q 15.484375 15.921875 20.484375 11.0625 
Q 25.484375 6.203125 34.421875 6.203125 
Q 39.59375 6.203125 44.453125 7.46875 
Q 49.3125 8.734375 54.109375 11.28125 
L 54.109375 2.78125 
Q 49.265625 0.734375 44.1875 -0.34375 
Q 39.109375 -1.421875 33.890625 -1.421875 
Q 20.796875 -1.421875 13.15625 6.1875 
Q 5.515625 13.8125 5.515625 26.8125 
Q 5.515625 40.234375 12.765625 48.109375 
Q 20.015625 56 32.328125 56 
Q 43.359375 56 49.78125 48.890625 
Q 56.203125 41.796875 56.203125 29.59375 
z
M 47.21875 32.234375 
Q 47.125 39.59375 43.09375 43.984375 
Q 39.0625 48.390625 32.421875 48.390625 
Q 24.90625 48.390625 20.390625 44.140625 
Q 15.875 39.890625 15.1875 32.171875 
z
" id="DejaVuSans-101"/>
       <path id="DejaVuSans-32"/>
       <path d="M 8.59375 75.984375 
L 29.296875 75.984375 
L 29.296875 69 
L 17.578125 69 
L 17.578125 -6.203125 
L 29.296875 -6.203125 
L 29.296875 -13.1875 
L 8.59375 -13.1875 
z
" id="DejaVuSans-91"/>
       <path d="M 44.28125 53.078125 
L 44.28125 44.578125 
Q 40.484375 46.53125 36.375 47.5 
Q 32.28125 48.484375 27.875 48.484375 
Q 21.1875 48.484375 17.84375 46.4375 
Q 14.5 44.390625 14.5 40.28125 
Q 14.5 37.15625 16.890625 35.375 
Q 19.28125 33.59375 26.515625 31.984375 
L 29.59375 31.296875 
Q 39.15625 29.25 43.1875 25.515625 
Q 47.21875 21.78125 47.21875 15.09375 
Q 47.21875 7.46875 41.1875 3.015625 
Q 35.15625 -1.421875 24.609375 -1.421875 
Q 20.21875 -1.421875 15.453125 -0.5625 
Q 10.6875 0.296875 5.421875 2 
L 5.421875 11.28125 
Q 10.40625 8.6875 15.234375 7.390625 
Q 20.0625 6.109375 24.8125 6.109375 
Q 31.15625 6.109375 34.5625 8.28125 
Q 37.984375 10.453125 37.984375 14.40625 
Q 37.984375 18.0625 35.515625 20.015625 
Q 33.0625 21.96875 24.703125 23.78125 
L 21.578125 24.515625 
Q 13.234375 26.265625 9.515625 29.90625 
Q 5.8125 33.546875 5.8125 39.890625 
Q 5.8125 47.609375 11.28125 51.796875 
Q 16.75 56 26.8125 56 
Q 31.78125 56 36.171875 55.265625 
Q 40.578125 54.546875 44.28125 53.078125 
z
" id="DejaVuSans-115"/>
       <path d="M 30.421875 75.984375 
L 30.421875 -13.1875 
L 9.71875 -13.1875 
L 9.71875 -6.203125 
L 21.390625 -6.203125 
L 21.390625 69 
L 9.71875 69 
L 9.71875 75.984375 
z
" id="DejaVuSans-93"/>
      </defs>
      <use xlink:href="#DejaVuSans-116"/>
      <use x="39.208984" xlink:href="#DejaVuSans-105"/>
      <use x="66.992188" xlink:href="#DejaVuSans-109"/>
      <use x="164.404297" xlink:href="#DejaVuSans-101"/>
      <use x="225.927734" xlink:href="#DejaVuSans-32"/>
      <use x="257.714844" xlink:href="#DejaVuSans-91"/>
      <use x="296.728516" xlink:href="#DejaVuSans-115"/>
      <use x="348.828125" xlink:href="#DejaVuSans-93"/>
     </g>
    </g>
   </g>
   <g id="matplotlib.axis_2">
    <g id="ytick_1">
     <g id="line2d_10">
      <defs>
       <path d="M 0 0 
L -3.5 0 
" id="m22af6b7a05" style="stroke:#000000;stroke-width:0.8;"/>
      </defs>
      <g>
       <use style="stroke:#000000;stroke-width:0.8;" x="57.6" xlink:href="#m22af6b7a05" y="275.509555"/>
      </g>
     </g>
     <g id="text_11">
      <!-- −150 -->
      <g transform="translate(23.132812 279.308773)scale(0.1 -0.1)">
       <defs>
        <path d="M 10.59375 35.5 
L 73.1875 35.5 
L 73.1875 27.203125 
L 10.59375 27.203125 
z
" id="DejaVuSans-8722"/>
        <path d="M 10.796875 72.90625 
L 49.515625 72.90625 
L 49.515625 64.59375 
L 19.828125 64.59375 
L 19.828125 46.734375 
Q 21.96875 47.46875 24.109375 47.828125 
Q 26.265625 48.1875 28.421875 48.1875 
Q 40.625 48.1875 47.75 41.5 
Q 54.890625 34.8125 54.890625 23.390625 
Q 54.890625 11.625 47.5625 5.09375 
Q 40.234375 -1.421875 26.90625 -1.421875 
Q 22.3125 -1.421875 17.546875 -0.640625 
Q 12.796875 0.140625 7.71875 1.703125 
L 7.71875 11.625 
Q 12.109375 9.234375 16.796875 8.0625 
Q 21.484375 6.890625 26.703125 6.890625 
Q 35.15625 6.890625 40.078125 11.328125 
Q 45.015625 15.765625 45.015625 23.390625 
Q 45.015625 31 40.078125 35.4375 
Q 35.15625 39.890625 26.703125 39.890625 
Q 22.75 39.890625 18.8125 39.015625 
Q 14.890625 38.140625 10.796875 36.28125 
z
" id="DejaVuSans-53"/>
       </defs>
       <use xlink:href="#DejaVuSans-8722"/>
       <use x="83.789062" xlink:href="#DejaVuSans-49"/>
       <use x="147.412109" xlink:href="#DejaVuSans-53"/>
       <use x="211.035156" xlink:href="#DejaVuSans-48"/>
      </g>
     </g>
    </g>
    <g id="ytick_2">
     <g id="line2d_11">
      <g>
       <use style="stroke:#000000;stroke-width:0.8;" x="57.6" xlink:href="#m22af6b7a05" y="241.788223"/>
      </g>
     </g>
     <g id="text_12">
      <!-- −100 -->
      <g transform="translate(23.132812 245.587441)scale(0.1 -0.1)">
       <use xlink:href="#DejaVuSans-8722"/>
       <use x="83.789062" xlink:href="#DejaVuSans-49"/>
       <use x="147.412109" xlink:href="#DejaVuSans-48"/>
       <use x="211.035156" xlink:href="#DejaVuSans-48"/>
      </g>
     </g>
    </g>
    <g id="ytick_3">
     <g id="line2d_12">
      <g>
       <use style="stroke:#000000;stroke-width:0.8;" x="57.6" xlink:href="#m22af6b7a05" y="208.066891"/>
      </g>
     </g>
     <g id="text_13">
      <!-- −50 -->
      <g transform="translate(29.495313 211.866109)scale(0.1 -0.1)">
       <use xlink:href="#DejaVuSans-8722"/>
       <use x="83.789062" xlink:href="#DejaVuSans-53"/>
       <use x="147.412109" xlink:href="#DejaVuSans-48"/>
      </g>
     </g>
    </g>
    <g id="ytick_4">
     <g id="line2d_13">
      <g>
       <use style="stroke:#000000;stroke-width:0.8;" x="57.6" xlink:href="#m22af6b7a05" y="174.345559"/>
      </g>
     </g>
     <g id="text_14">
      <!-- 0 -->
      <g transform="translate(44.2375 178.144777)scale(0.1 -0.1)">
       <use xlink:href="#DejaVuSans-48"/>
      </g>
     </g>
    </g>
    <g id="ytick_5">
     <g id="line2d_14">
      <g>
       <use style="stroke:#000000;stroke-width:0.8;" x="57.6" xlink:href="#m22af6b7a05" y="140.624227"/>
      </g>
     </g>
     <g id="text_15">
      <!-- 50 -->
      <g transform="translate(37.875 144.423445)scale(0.1 -0.1)">
       <use xlink:href="#DejaVuSans-53"/>
       <use x="63.623047" xlink:href="#DejaVuSans-48"/>
      </g>
     </g>
    </g>
    <g id="ytick_6">
     <g id="line2d_15">
      <g>
       <use style="stroke:#000000;stroke-width:0.8;" x="57.6" xlink:href="#m22af6b7a05" y="106.902895"/>
      </g>
     </g>
     <g id="text_16">
      <!-- 100 -->
      <g transform="translate(31.5125 110.702114)scale(0.1 -0.1)">
       <use xlink:href="#DejaVuSans-49"/>
       <use x="63.623047" xlink:href="#DejaVuSans-48"/>
       <use x="127.246094" xlink:href="#DejaVuSans-48"/>
      </g>
     </g>
    </g>
    <g id="ytick_7">
     <g id="line2d_16">
      <g>
       <use style="stroke:#000000;stroke-width:0.8;" x="57.6" xlink:href="#m22af6b7a05" y="73.181563"/>
      </g>
     </g>
     <g id="text_17">
      <!-- 150 -->
      <g transform="translate(31.5125 76.980782)scale(0.1 -0.1)">
       <use xlink:href="#DejaVuSans-49"/>
       <use x="63.623047" xlink:href="#DejaVuSans-53"/>
       <use x="127.246094" xlink:href="#DejaVuSans-48"/>
      </g>
     </g>
    </g>
    <g id="text_18">
     <!-- orientation [deg] -->
     <g transform="translate(17.053125 216.794406)rotate(-90)scale(0.1 -0.1)">
      <defs>
       <path d="M 30.609375 48.390625 
Q 23.390625 48.390625 19.1875 42.75 
Q 14.984375 37.109375 14.984375 27.296875 
Q 14.984375 17.484375 19.15625 11.84375 
Q 23.34375 6.203125 30.609375 6.203125 
Q 37.796875 6.203125 41.984375 11.859375 
Q 46.1875 17.53125 46.1875 27.296875 
Q 46.1875 37.015625 41.984375 42.703125 
Q 37.796875 48.390625 30.609375 48.390625 
z
M 30.609375 56 
Q 42.328125 56 49.015625 48.375 
Q 55.71875 40.765625 55.71875 27.296875 
Q 55.71875 13.875 49.015625 6.21875 
Q 42.328125 -1.421875 30.609375 -1.421875 
Q 18.84375 -1.421875 12.171875 6.21875 
Q 5.515625 13.875 5.515625 27.296875 
Q 5.515625 40.765625 12.171875 48.375 
Q 18.84375 56 30.609375 56 
z
" id="DejaVuSans-111"/>
       <path d="M 41.109375 46.296875 
Q 39.59375 47.171875 37.8125 47.578125 
Q 36.03125 48 33.890625 48 
Q 26.265625 48 22.1875 43.046875 
Q 18.109375 38.09375 18.109375 28.8125 
L 18.109375 0 
L 9.078125 0 
L 9.078125 54.6875 
L 18.109375 54.6875 
L 18.109375 46.1875 
Q 20.953125 51.171875 25.484375 53.578125 
Q 30.03125 56 36.53125 56 
Q 37.453125 56 38.578125 55.875 
Q 39.703125 55.765625 41.0625 55.515625 
z
" id="DejaVuSans-114"/>
       <path d="M 54.890625 33.015625 
L 54.890625 0 
L 45.90625 0 
L 45.90625 32.71875 
Q 45.90625 40.484375 42.875 44.328125 
Q 39.84375 48.1875 33.796875 48.1875 
Q 26.515625 48.1875 22.3125 43.546875 
Q 18.109375 38.921875 18.109375 30.90625 
L 18.109375 0 
L 9.078125 0 
L 9.078125 54.6875 
L 18.109375 54.6875 
L 18.109375 46.1875 
Q 21.34375 51.125 25.703125 53.5625 
Q 30.078125 56 35.796875 56 
Q 45.21875 56 50.046875 50.171875 
Q 54.890625 44.34375 54.890625 33.015625 
z
" id="DejaVuSans-110"/>
       <path d="M 34.28125 27.484375 
Q 23.390625 27.484375 19.1875 25 
Q 14.984375 22.515625 14.984375 16.5 
Q 14.984375 11.71875 18.140625 8.90625 
Q 21.296875 6.109375 26.703125 6.109375 
Q 34.1875 6.109375 38.703125 11.40625 
Q 43.21875 16.703125 43.21875 25.484375 
L 43.21875 27.484375 
z
M 52.203125 31.203125 
L 52.203125 0 
L 43.21875 0 
L 43.21875 8.296875 
Q 40.140625 3.328125 35.546875 0.953125 
Q 30.953125 -1.421875 24.3125 -1.421875 
Q 15.921875 -1.421875 10.953125 3.296875 
Q 6 8.015625 6 15.921875 
Q 6 25.140625 12.171875 29.828125 
Q 18.359375 34.515625 30.609375 34.515625 
L 43.21875 34.515625 
L 43.21875 35.40625 
Q 43.21875 41.609375 39.140625 45 
Q 35.0625 48.390625 27.6875 48.390625 
Q 23 48.390625 18.546875 47.265625 
Q 14.109375 46.140625 10.015625 43.890625 
L 10.015625 52.203125 
Q 14.9375 54.109375 19.578125 55.046875 
Q 24.21875 56 28.609375 56 
Q 40.484375 56 46.34375 49.84375 
Q 52.203125 43.703125 52.203125 31.203125 
z
" id="DejaVuSans-97"/>
       <path d="M 45.40625 46.390625 
L 45.40625 75.984375 
L 54.390625 75.984375 
L 54.390625 0 
L 45.40625 0 
L 45.40625 8.203125 
Q 42.578125 3.328125 38.25 0.953125 
Q 33.9375 -1.421875 27.875 -1.421875 
Q 17.96875 -1.421875 11.734375 6.484375 
Q 5.515625 14.40625 5.515625 27.296875 
Q 5.515625 40.1875 11.734375 48.09375 
Q 17.96875 56 27.875 56 
Q 33.9375 56 38.25 53.625 
Q 42.578125 51.265625 45.40625 46.390625 
z
M 14.796875 27.296875 
Q 14.796875 17.390625 18.875 11.75 
Q 22.953125 6.109375 30.078125 6.109375 
Q 37.203125 6.109375 41.296875 11.75 
Q 45.40625 17.390625 45.40625 27.296875 
Q 45.40625 37.203125 41.296875 42.84375 
Q 37.203125 48.484375 30.078125 48.484375 
Q 22.953125 48.484375 18.875 42.84375 
Q 14.796875 37.203125 14.796875 27.296875 
z
" id="DejaVuSans-100"/>
       <path d="M 45.40625 27.984375 
Q 45.40625 37.75 41.375 43.109375 
Q 37.359375 48.484375 30.078125 48.484375 
Q 22.859375 48.484375 18.828125 43.109375 
Q 14.796875 37.75 14.796875 27.984375 
Q 14.796875 18.265625 18.828125 12.890625 
Q 22.859375 7.515625 30.078125 7.515625 
Q 37.359375 7.515625 41.375 12.890625 
Q 45.40625 18.265625 45.40625 27.984375 
z
M 54.390625 6.78125 
Q 54.390625 -7.171875 48.1875 -13.984375 
Q 42 -20.796875 29.203125 -20.796875 
Q 24.46875 -20.796875 20.265625 -20.09375 
Q 16.0625 -19.390625 12.109375 -17.921875 
L 12.109375 -9.1875 
Q 16.0625 -11.328125 19.921875 -12.34375 
Q 23.78125 -13.375 27.78125 -13.375 
Q 36.625 -13.375 41.015625 -8.765625 
Q 45.40625 -4.15625 45.40625 5.171875 
L 45.40625 9.625 
Q 42.625 4.78125 38.28125 2.390625 
Q 33.9375 0 27.875 0 
Q 17.828125 0 11.671875 7.65625 
Q 5.515625 15.328125 5.515625 27.984375 
Q 5.515625 40.671875 11.671875 48.328125 
Q 17.828125 56 27.875 56 
Q 33.9375 56 38.28125 53.609375 
Q 42.625 51.21875 45.40625 46.390625 
L 45.40625 54.6875 
L 54.390625 54.6875 
z
" id="DejaVuSans-103"/>
      </defs>
      <use xlink:href="#DejaVuSans-111"/>
      <use x="61.181641" xlink:href="#DejaVuSans-114"/>
      <use x="102.294922" xlink:href="#DejaVuSans-105"/>
      <use x="130.078125" xlink:href="#DejaVuSans-101"/>
      <use x="191.601562" xlink:href="#DejaVuSans-110"/>
      <use x="254.980469" xlink:href="#DejaVuSans-116"/>
      <use x="294.189453" xlink:href="#DejaVuSans-97"/>
      <use x="355.46875" xlink:href="#DejaVuSans-116"/>
      <use x="394.677734" xlink:href="#DejaVuSans-105"/>
      <use x="422.460938" xlink:href="#DejaVuSans-111"/>
      <use x="483.642578" xlink:href="#DejaVuSans-110"/>
      <use x="547.021484" xlink:href="#DejaVuSans-32"/>
      <use x="578.808594" xlink:href="#DejaVuSans-91"/>
      <use x="617.822266" xlink:href="#DejaVuSans-100"/>
      <use x="681.298828" xlink:href="#DejaVuSans-101"/>
      <use x="742.822266" xlink:href="#DejaVuSans-103"/>
      <use x="806.298828" xlink:href="#DejaVuSans-93"/>
     </g>
    </g>
   </g>
   <g id="line2d_17">
    <path clip-path="url(#pdf85e3cb64)" d="M 73.832727 174.345559 
L 74.036018 174.047494 
L 77.288662 174.008248 
L 79.931435 173.966843 
L 81.354467 174.248152 
L 82.574208 174.417021 
L 84.607111 174.73801 
L 84.810401 174.805993 
L 85.420272 174.708599 
L 85.826853 174.756489 
L 86.030143 173.116239 
L 86.233433 173.265672 
L 86.640014 173.825706 
L 87.249884 173.854313 
L 88.266336 173.45286 
L 88.876207 173.271612 
L 90.095948 173.378364 
L 90.705819 173.605128 
L 92.332141 173.5987 
L 93.145302 173.548159 
L 94.365044 173.943485 
L 94.974914 174.00125 
L 95.584785 174.095585 
L 96.601236 173.937485 
L 97.414397 174.013027 
L 99.24401 173.926082 
L 99.853881 173.97647 
L 100.870332 173.912091 
L 102.699944 173.922619 
L 106.359169 173.978474 
L 111.238135 173.977772 
L 126.281614 173.805476 
L 129.127678 173.875314 
L 134.413225 173.995166 
L 136.446127 173.986731 
L 139.698772 173.920837 
L 139.902062 174.032377 
L 140.105352 64.365999 
L 140.308642 174.281192 
L 140.511933 174.951498 
L 140.918513 174.64349 
L 141.325094 174.416315 
L 142.138255 173.973849 
L 142.748125 173.857973 
L 143.154706 173.914544 
L 143.561287 173.88647 
L 144.171157 174.042067 
L 145.797479 174.342868 
L 146.40735 174.276732 
L 147.627092 174.339309 
L 148.643543 174.455017 
L 149.050124 174.374962 
L 149.456704 174.243846 
L 151.286316 174.299496 
L 151.692897 174.242834 
L 152.302768 174.338465 
L 154.742251 174.312729 
L 155.758702 174.413918 
L 156.775153 174.937299 
L 157.181734 175.138198 
L 157.791605 175.120401 
L 157.994895 175.058211 
L 158.604766 175.24217 
L 159.824507 175.325047 
L 163.890313 174.790077 
L 165.516635 174.696227 
L 167.752827 174.170381 
L 168.362698 174.200781 
L 168.972569 174.228274 
L 169.98902 174.30467 
L 170.395601 174.234922 
L 170.598891 174.246487 
L 171.005472 173.954469 
L 171.615342 174.072653 
L 172.428503 174.150203 
L 173.241664 174.507852 
L 173.648245 174.582214 
L 174.461406 174.604499 
L 175.274567 174.535222 
L 175.681148 174.657143 
L 176.087728 174.570465 
L 176.494309 174.73048 
L 176.697599 174.711494 
L 176.900889 174.579832 
L 177.91734 174.815652 
L 178.323921 175.033485 
L 178.730502 175.208467 
L 179.746953 175.444638 
L 181.373275 175.565472 
L 181.779855 175.337315 
L 182.389726 175.364175 
L 184.219339 174.402595 
L 184.625919 174.456383 
L 185.0325 174.280579 
L 185.64237 174.245559 
L 187.675273 174.334363 
L 188.285144 174.407961 
L 189.301595 174.364093 
L 191.741078 174.411573 
L 202.515462 174.701722 
L 232.805711 174.918826 
L 234.432033 175.126797 
L 237.278096 174.885633 
L 237.481387 174.861193 
L 237.887967 174.958714 
L 239.514289 175.33042 
L 239.92087 175.468115 
L 240.530741 175.237686 
L 240.937321 175.303761 
L 241.343902 175.438805 
L 241.953772 175.359687 
L 242.360353 175.501298 
L 242.766933 175.326893 
L 243.173514 175.173632 
L 243.783385 175.165115 
L 246.832739 174.972166 
L 247.6459 174.750981 
L 248.662351 174.676395 
L 249.272222 174.580693 
L 249.678802 174.513173 
L 251.508415 174.266099 
L 254.557769 174.422118 
L 255.37093 174.497508 
L 256.184091 174.554582 
L 257.607122 174.499827 
L 259.030154 174.408143 
L 261.266347 174.426044 
L 262.282798 174.475726 
L 263.29925 174.324983 
L 265.332152 174.472042 
L 265.942023 174.906323 
L 266.755184 175.043848 
L 267.161765 175.203834 
L 268.381506 175.307482 
L 269.601248 175.231197 
L 270.211119 175.167897 
L 270.820989 175.129125 
L 272.040731 174.915817 
L 274.276924 175.563283 
L 276.309826 175.68005 
L 278.9526 175.615746 
L 283.221695 175.649152 
L 289.930274 175.329856 
L 291.150015 175.203345 
L 291.963176 175.172942 
L 293.589498 174.748918 
L 294.40266 174.756496 
L 295.01253 174.777004 
L 295.622401 174.883058 
L 296.435562 174.822367 
L 296.842143 174.669343 
L 299.688206 174.243199 
L 301.924399 174.048939 
L 302.73756 174.062188 
L 304.160592 174.000526 
L 305.583624 173.953298 
L 306.803365 173.990667 
L 308.226397 174.295064 
L 308.836268 174.328371 
L 309.242849 174.451364 
L 310.46259 174.301215 
L 311.275751 174.218618 
L 311.682332 174.260753 
L 312.902073 174.173292 
L 316.358008 174.126033 
L 320.017232 174.092879 
L 326.31923 174.187359 
L 330.181745 174.238231 
L 330.994906 174.182164 
L 332.824519 174.105553 
L 336.890324 173.746235 
L 338.719936 173.690701 
L 339.126517 173.587937 
L 339.533097 173.65336 
L 340.142968 173.58088 
L 340.752839 173.125784 
L 341.159419 173.06043 
L 342.582451 173.672392 
L 342.989032 173.683412 
L 344.208773 174.130215 
L 344.615354 174.424691 
L 345.021934 174.553191 
L 347.054837 173.652605 
L 349.08774 173.398193 
L 350.307481 173.607805 
L 350.917352 173.522567 
L 351.323932 173.404284 
L 351.933803 173.032142 
L 353.153545 172.547531 
L 354.373286 171.766543 
L 355.999608 171.802559 
L 356.812769 172.705295 
L 359.048962 174.27095 
L 360.878575 175.227057 
L 361.691736 175.214977 
L 361.895026 175.061661 
L 362.708187 175.59728 
L 363.114767 176.203216 
L 363.724638 177.215732 
L 364.334509 177.754705 
L 364.74109 177.895347 
L 365.757541 177.827679 
L 366.164121 177.713979 
L 366.773992 177.702546 
L 366.977282 295.318275 
L 367.180573 174.208765 
L 367.383863 172.731987 
L 367.587153 174.987472 
L 367.790443 175.776224 
L 367.993734 176.115484 
L 368.400314 176.216522 
L 369.010185 175.903553 
L 369.823346 175.409439 
L 371.652958 174.722838 
L 372.8727 174.636665 
L 376.735215 174.617081 
L 381.207601 174.583182 
L 382.020762 174.666179 
L 383.443793 174.475952 
L 383.647084 174.522308 
L 384.053664 174.918471 
L 384.460245 175.002316 
L 385.273406 174.804712 
L 387.103018 173.970407 
L 387.712889 173.88228 
L 388.119469 173.767309 
L 389.745792 173.772239 
L 390.355662 173.779481 
L 391.778694 173.739938 
L 392.388565 173.833277 
L 396.25108 173.91127 
L 398.487273 173.932739 
L 398.487273 173.932739 
" style="fill:none;stroke:#ff0000;stroke-linecap:square;stroke-width:1.5;"/>
   </g>
   <g id="line2d_18">
    <path clip-path="url(#pdf85e3cb64)" d="M 73.832727 174.345559 
L 74.036018 175.458143 
L 78.711694 175.439511 
L 81.354467 175.582662 
L 82.167628 175.566989 
L 85.216982 174.917176 
L 85.826853 174.638377 
L 86.030143 173.037849 
L 86.843304 173.931154 
L 87.249884 174.03084 
L 88.469626 173.739396 
L 88.876207 173.733153 
L 89.892658 174.013905 
L 91.112399 174.294063 
L 92.128851 174.236765 
L 94.161753 174.367855 
L 95.381495 174.566284 
L 99.4473 174.337951 
L 100.057171 174.132859 
L 101.073622 174.034737 
L 101.886783 174.096711 
L 104.326266 174.193121 
L 108.798652 174.211376 
L 111.644716 174.256715 
L 131.160581 174.568847 
L 132.786903 174.71137 
L 134.616515 174.714256 
L 138.27574 174.822845 
L 139.292191 175.041849 
L 139.902062 175.27499 
L 140.105352 113.647161 
L 140.308642 167.043074 
L 140.511933 171.046194 
L 140.918513 173.059446 
L 141.325094 173.605711 
L 142.544835 174.833781 
L 143.967867 175.087628 
L 144.781028 174.966502 
L 149.253414 175.047532 
L 149.659994 175.161425 
L 150.269865 175.037888 
L 150.676446 175.125839 
L 151.286316 175.086627 
L 152.506058 175.143796 
L 152.912638 175.233812 
L 153.7258 175.43042 
L 154.742251 175.328249 
L 155.555412 175.415614 
L 156.571863 174.936178 
L 157.385024 174.640666 
L 157.791605 174.80314 
L 157.994895 174.968989 
L 159.824507 174.592298 
L 160.637668 174.692677 
L 161.65412 174.905083 
L 163.483732 175.126033 
L 164.703474 174.838495 
L 165.313344 174.712431 
L 166.329796 174.85207 
L 167.752827 175.231128 
L 169.175859 175.210552 
L 169.58244 175.162566 
L 170.598891 175.295053 
L 171.005472 175.571422 
L 171.208762 175.767866 
L 171.818633 175.332307 
L 174.664696 174.397673 
L 176.087728 174.472419 
L 176.291018 174.60166 
L 176.900889 174.488753 
L 177.51076 174.7463 
L 178.527211 174.364871 
L 179.137082 174.112477 
L 179.950243 174.009159 
L 180.966694 173.596067 
L 181.576565 173.645157 
L 183.406177 172.755574 
L 183.812758 172.706949 
L 184.829209 172.791977 
L 185.64237 172.903718 
L 186.862112 172.965797 
L 188.488434 173.011228 
L 191.334498 172.998647 
L 196.620044 173.023553 
L 200.075979 173.045543 
L 203.328623 172.983021 
L 216.3392 173.075804 
L 229.146486 173.052898 
L 233.618872 173.08297 
L 235.855065 172.79817 
L 236.871516 173.196377 
L 237.887967 173.818928 
L 238.701128 174.424639 
L 239.310999 174.639674 
L 239.514289 174.673608 
L 240.530741 173.862929 
L 241.140611 174.141099 
L 241.547192 174.28936 
L 242.157063 174.413232 
L 243.580094 173.903299 
L 244.189965 174.006348 
L 245.206417 173.919673 
L 245.409707 174.032997 
L 245.816287 173.886393 
L 247.84919 173.907571 
L 251.101834 173.757044 
L 251.914995 173.842731 
L 252.931446 173.921603 
L 254.354478 174.071473 
L 255.167639 174.060601 
L 255.57422 174.095001 
L 256.184091 173.9357 
L 264.722282 173.902669 
L 265.535443 173.72634 
L 266.551894 173.794383 
L 267.568345 173.559288 
L 269.194667 173.297645 
L 270.007828 173.38437 
L 271.837441 173.416798 
L 272.447311 173.497374 
L 273.057182 173.452458 
L 274.276924 173.476894 
L 280.172341 173.136442 
L 285.254598 173.198866 
L 288.100661 173.259971 
L 290.133564 173.254313 
L 291.353306 173.25896 
L 293.386208 173.455393 
L 294.199369 173.416211 
L 295.622401 173.356032 
L 296.435562 173.448605 
L 297.248723 173.463587 
L 299.891497 173.419384 
L 300.501367 173.346183 
L 301.517819 173.27857 
L 302.33098 173.19622 
L 306.396785 173.266883 
L 307.006656 173.354831 
L 308.836268 173.309562 
L 309.039558 173.361825 
L 309.649429 173.227793 
L 311.275751 173.385985 
L 311.885622 173.309301 
L 312.495493 173.159925 
L 313.308654 173.190708 
L 314.528395 173.322314 
L 329.978455 173.581279 
L 333.231099 173.338372 
L 334.450841 173.401274 
L 335.264002 173.416576 
L 338.923227 173.444298 
L 339.533097 173.480513 
L 339.736388 173.430211 
L 342.175871 174.373101 
L 342.785741 174.464624 
L 344.208773 175.012192 
L 344.412064 175.109351 
L 344.818644 174.932545 
L 345.428515 174.584713 
L 346.241676 174.716789 
L 347.258127 174.427095 
L 348.274578 174.570423 
L 348.884449 174.395574 
L 349.69761 174.756956 
L 351.120642 174.917298 
L 351.527223 174.806787 
L 352.950254 175.243415 
L 353.966706 175.190572 
L 354.576577 174.989396 
L 355.389738 174.721493 
L 355.796318 174.512946 
L 356.202899 174.607731 
L 356.609479 174.723815 
L 358.845672 173.885628 
L 359.658833 173.12386 
L 360.268704 172.553625 
L 360.878575 172.321128 
L 361.285155 172.326221 
L 361.691736 172.53375 
L 362.098316 172.927639 
L 362.708187 173.896684 
L 363.318058 174.921508 
L 363.724638 175.357038 
L 364.131219 175.526387 
L 364.537799 175.438332 
L 365.960831 174.714389 
L 366.570702 174.874435 
L 366.773992 174.988114 
L 366.977282 235.043956 
L 367.180573 174.533527 
L 367.383863 176.347342 
L 367.587153 176.230165 
L 368.197024 176.35083 
L 368.806895 176.023742 
L 369.213475 175.647137 
L 369.823346 175.075155 
L 370.433217 174.870355 
L 373.27928 174.54838 
L 375.718764 174.47297 
L 379.581279 174.709958 
L 381.207601 174.945504 
L 381.614181 174.846394 
L 382.833923 173.883795 
L 383.037213 173.829051 
L 383.240503 173.909894 
L 384.256955 175.37689 
L 384.663535 175.481891 
L 384.866825 175.475769 
L 385.273406 175.250447 
L 387.306308 174.793224 
L 387.916179 174.798941 
L 388.72934 174.968126 
L 391.168823 175.192297 
L 392.591855 174.838565 
L 393.201726 174.784656 
L 395.031338 174.763926 
L 398.487273 174.863134 
L 398.487273 174.863134 
" style="fill:none;stroke:#0000ff;stroke-linecap:square;stroke-width:1.5;"/>
   </g>
   <g id="line2d_19">
    <path clip-path="url(#pdf85e3cb64)" d="M 73.832727 174.345559 
L 74.036018 261.4734 
L 75.459049 261.459116 
L 76.27221 261.481149 
L 81.151177 261.31457 
L 82.167628 261.03973 
L 82.574208 260.690723 
L 83.184079 260.022147 
L 83.59066 260.010585 
L 83.79395 260.178008 
L 83.99724 260.586399 
L 84.200531 261.333577 
L 84.403821 262.521645 
L 84.810401 267.086734 
L 85.420272 279.033613 
L 85.826853 289.7127 
L 86.030143 65.65182 
L 86.233433 59.484083 
L 87.046594 78.671529 
L 87.453175 82.492831 
L 87.656465 82.914491 
L 87.859755 82.869993 
L 88.266336 82.061671 
L 88.672916 80.907337 
L 90.095948 76.084903 
L 90.299238 75.810289 
L 90.502529 75.727262 
L 90.705819 75.794544 
L 91.112399 76.40845 
L 91.72227 77.991329 
L 92.128851 79.063037 
L 92.535431 79.588297 
L 93.958463 79.957381 
L 94.365044 79.786685 
L 94.771624 79.681708 
L 95.381495 79.663112 
L 96.194656 79.539775 
L 96.601236 79.368822 
L 97.007817 79.407228 
L 98.430849 79.894092 
L 98.837429 79.687553 
L 99.24401 79.738092 
L 99.65059 79.809027 
L 100.057171 79.569413 
L 102.496654 79.699367 
L 104.732847 79.804221 
L 107.57891 79.865401 
L 108.595362 79.936069 
L 115.507231 79.991938 
L 116.930262 80.0005 
L 118.353294 80.068379 
L 121.809229 80.799941 
L 123.638841 80.959852 
L 128.721098 81.799026 
L 131.973742 81.907925 
L 132.786903 81.776695 
L 133.193483 81.431362 
L 135.226386 78.618922 
L 135.632966 78.445746 
L 137.259288 78.245742 
L 137.869159 77.648929 
L 138.072449 77.319136 
L 138.47903 75.888572 
L 138.885611 72.494653 
L 139.292191 66.288294 
L 139.902062 54.089874 
L 140.105352 56.301529 
L 140.308642 274.009075 
L 140.511933 283.91308 
L 141.731674 266.532938 
L 142.138255 263.658093 
L 142.544835 262.348737 
L 142.951416 262.004361 
L 143.357996 262.006275 
L 143.967867 262.444813 
L 144.374448 263.060715 
L 144.781028 263.735975 
L 145.187609 263.963837 
L 146.00077 264.14222 
L 146.61064 264.400347 
L 148.236962 265.316199 
L 148.846833 265.381845 
L 150.066575 265.256213 
L 150.879736 265.380528 
L 151.286316 265.166888 
L 151.692897 264.862668 
L 152.506058 264.570477 
L 153.7258 265.225361 
L 154.13238 264.896556 
L 155.758702 263.226183 
L 156.165283 263.137845 
L 156.571863 263.285613 
L 157.385024 263.967408 
L 158.198185 264.929559 
L 158.401475 264.955687 
L 158.808056 264.812314 
L 159.621217 265.048584 
L 160.434378 265.660874 
L 160.637668 265.676351 
L 161.65412 265.050827 
L 162.0607 265.138485 
L 163.280442 266.101922 
L 163.483732 266.433589 
L 164.906764 270.476362 
L 165.313344 270.524194 
L 165.923215 269.916062 
L 166.939666 268.244382 
L 167.346247 267.571221 
L 168.159408 265.327314 
L 168.565989 264.679499 
L 168.972569 264.571784 
L 169.37915 264.642833 
L 169.78573 264.791135 
L 170.192311 264.762362 
L 170.598891 264.311742 
L 171.615342 262.278666 
L 171.818633 262.112951 
L 172.428503 262.320107 
L 172.835084 262.669793 
L 173.648245 264.712369 
L 174.461406 265.483581 
L 175.071277 265.963653 
L 175.477857 266.398651 
L 175.681148 266.475885 
L 176.087728 266.143477 
L 177.104179 265.891246 
L 177.71405 265.963581 
L 178.527211 265.75307 
L 179.950243 265.041143 
L 180.153533 264.779033 
L 180.356824 264.316198 
L 180.966694 261.606431 
L 181.576565 257.959077 
L 182.389726 251.231554 
L 184.422629 235.768124 
L 184.829209 234.055198 
L 185.43908 232.962054 
L 185.845661 232.537954 
L 186.252241 232.443586 
L 189.911466 232.480181 
L 190.927917 232.48794 
L 199.262818 232.683612 
L 200.482559 232.728357 
L 216.54249 232.771697 
L 225.487261 232.651201 
L 228.130035 232.573669 
L 229.553067 232.738401 
L 229.756357 232.766645 
L 230.366228 232.597549 
L 231.585969 232.570201 
L 233.415581 232.569686 
L 233.822162 232.935982 
L 234.228743 233.830084 
L 234.838613 235.258975 
L 235.245194 235.548274 
L 236.058355 235.64366 
L 236.668226 235.223785 
L 237.278096 234.643356 
L 238.497838 231.767719 
L 238.701128 231.04261 
L 239.107709 228.124034 
L 239.514289 223.313388 
L 242.360353 181.992593 
L 242.766933 177.309101 
L 243.376804 172.465102 
L 243.783385 171.153124 
L 244.596546 170.281244 
L 247.036029 169.231474 
L 247.442609 168.611055 
L 248.05248 167.444706 
L 248.865641 166.704827 
L 249.272222 166.470701 
L 249.475512 166.452943 
L 249.678802 166.626924 
L 250.491963 168.25749 
L 250.695254 168.529644 
L 251.101834 168.375346 
L 251.305124 168.389199 
L 252.728156 169.453022 
L 253.134737 169.472773 
L 253.744608 169.29554 
L 254.151188 169.038606 
L 254.557769 169.094269 
L 254.964349 169.799354 
L 255.37093 170.381488 
L 255.77751 170.265877 
L 257.607122 169.718482 
L 259.030154 169.750364 
L 259.640025 169.447059 
L 260.249896 168.910158 
L 260.656476 168.862485 
L 260.859767 168.975328 
L 261.672928 168.888848 
L 262.486089 169.07881 
L 262.892669 169.666308 
L 263.095959 169.761707 
L 263.70583 169.384317 
L 263.909121 169.316153 
L 264.315701 169.533926 
L 264.518991 169.582087 
L 265.332152 169.049 
L 266.348604 167.431565 
L 266.755184 166.834711 
L 267.365055 165.444325 
L 267.974926 164.793418 
L 268.788087 164.198645 
L 269.397958 164.249345 
L 270.820989 164.344269 
L 271.22757 164.325813 
L 271.63415 164.396497 
L 271.837441 164.135343 
L 272.040731 164.087993 
L 272.244021 163.821618 
L 272.853892 162.516768 
L 273.260472 162.177197 
L 273.463763 162.254831 
L 273.667053 162.462522 
L 273.870343 162.860795 
L 274.073634 162.840488 
L 274.276924 161.686139 
L 274.886795 161.71021 
L 275.293375 161.74075 
L 275.903246 161.559329 
L 276.513117 161.307365 
L 276.919697 161.035029 
L 277.326278 160.442319 
L 277.732858 159.846789 
L 278.139439 159.598914 
L 278.9526 159.421095 
L 281.392083 159.285401 
L 284.034856 159.241932 
L 288.710532 159.032921 
L 289.523693 158.846606 
L 290.540145 158.845942 
L 290.946725 158.781458 
L 291.963176 159.161987 
L 293.386208 159.405208 
L 293.996079 159.000194 
L 294.60595 158.885363 
L 295.01253 158.840903 
L 295.215821 158.559264 
L 295.622401 157.762344 
L 296.232272 157.769624 
L 296.842143 157.834458 
L 297.452013 157.808491 
L 297.858594 157.785578 
L 299.281626 157.474563 
L 299.891497 156.839611 
L 300.094787 156.728467 
L 300.501367 157.048656 
L 300.907948 157.753055 
L 301.517819 158.13873 
L 302.53427 157.545006 
L 303.144141 157.314546 
L 303.550721 157.384249 
L 304.160592 157.569915 
L 305.583624 157.573729 
L 306.193495 157.392282 
L 306.803365 157.582365 
L 307.413236 157.381709 
L 308.226397 156.853402 
L 308.632978 157.045368 
L 309.242849 157.421212 
L 310.2593 157.578511 
L 310.66588 157.303154 
L 311.072461 157.042559 
L 311.885622 156.778701 
L 312.698783 156.672537 
L 313.715234 156.663057 
L 315.138266 156.699579 
L 317.98433 156.593262 
L 319.407362 156.514979 
L 322.863296 156.315009 
L 325.506069 156.254997 
L 327.132391 156.168237 
L 328.555423 156.096714 
L 330.994906 155.745787 
L 332.824519 155.079185 
L 333.84097 154.861244 
L 335.060712 153.835127 
L 335.467292 153.383327 
L 336.280453 152.930137 
L 337.093614 152.497582 
L 338.516646 151.635732 
L 339.329807 150.296181 
L 339.736388 149.187117 
L 341.36271 142.971247 
L 341.76929 138.568857 
L 342.582451 124.050354 
L 343.802193 103.053247 
L 344.412064 96.253945 
L 345.021934 92.525503 
L 345.428515 91.464745 
L 345.835095 91.095851 
L 346.038386 91.019651 
L 346.851547 90.259887 
L 347.054837 90.263592 
L 347.258127 90.470182 
L 347.664708 91.220345 
L 348.071288 91.453594 
L 348.477869 91.456959 
L 349.29103 90.752015 
L 349.49432 90.679644 
L 349.900901 90.744606 
L 350.917352 90.590108 
L 351.323932 90.810905 
L 352.340384 91.704786 
L 353.560125 94.49631 
L 354.169996 95.635979 
L 354.779867 96.648504 
L 355.389738 98.080446 
L 357.62593 102.241493 
L 358.032511 104.076752 
L 359.048962 106.17281 
L 359.862123 107.47275 
L 360.268704 107.548682 
L 360.675284 107.390392 
L 360.878575 107.008634 
L 361.081865 106.318807 
L 361.691736 102.448191 
L 363.927929 86.168649 
L 364.537799 78.627072 
L 366.367412 55.543602 
L 366.773992 53.568 
L 366.977282 287.732323 
L 367.180573 174.667463 
L 367.383863 292.399817 
L 367.587153 294.53002 
L 367.993734 294.171926 
L 368.400314 293.837821 
L 370.229927 293.721966 
L 371.043088 294.08894 
L 371.246378 293.933269 
L 371.449668 293.55482 
L 371.856249 292.436371 
L 372.466119 291.510856 
L 372.8727 291.14422 
L 373.482571 290.878992 
L 374.092442 290.764917 
L 376.735215 290.798445 
L 377.751666 290.78835 
L 378.564827 290.670858 
L 379.174698 290.428774 
L 379.784569 289.959106 
L 380.39444 289.176244 
L 380.80102 287.961965 
L 381.410891 284.72735 
L 382.224052 278.962307 
L 383.037213 273.257651 
L 383.850374 268.827703 
L 385.070116 262.773093 
L 385.679986 261.515583 
L 386.086567 260.688274 
L 386.289857 260.478987 
L 386.696438 260.559519 
L 387.103018 260.732432 
L 387.306308 260.740881 
L 388.932631 259.931031 
L 389.745792 260.567191 
L 391.778694 260.272397 
L 394.828048 260.593052 
L 398.487273 260.670254 
L 398.487273 260.670254 
" style="fill:none;stroke:#008000;stroke-linecap:square;stroke-width:1.5;"/>
   </g>
   <g id="line2d_20">
    <path clip-path="url(#pdf85e3cb64)" d="M 73.832727 175.518936 
L 80.541306 175.538404 
L 80.744596 175.377279 
L 82.167628 175.391519 
L 82.370918 175.123171 
L 82.980789 175.123171 
L 83.387369 175.2416 
L 83.79395 175.2416 
L 83.99724 174.933157 
L 84.607111 174.933157 
L 84.810401 174.054103 
L 85.420272 174.054103 
L 85.623562 173.605858 
L 86.233433 173.605858 
L 86.436723 173.997597 
L 87.046594 173.997597 
L 87.249884 174.842859 
L 87.859755 174.842859 
L 88.063045 175.69034 
L 89.486077 175.607468 
L 89.689368 175.453237 
L 90.299238 175.453237 
L 90.502529 174.742773 
L 91.112399 174.742773 
L 91.31569 174.893681 
L 92.738721 174.881254 
L 92.942012 175.164846 
L 93.551883 175.164846 
L 93.755173 174.39002 
L 95.178205 174.300981 
L 95.584785 174.217631 
L 95.991366 174.217631 
L 96.194656 174.730856 
L 96.804527 174.730856 
L 97.007817 174.365223 
L 97.617688 174.365223 
L 97.820978 174.503167 
L 98.430849 174.503167 
L 98.634139 175.019391 
L 99.24401 175.019391 
L 99.4473 174.492513 
L 100.057171 174.492513 
L 100.260461 174.999618 
L 100.870332 174.999618 
L 101.073622 174.853397 
L 130.95729 174.786489 
L 131.363871 174.713494 
L 131.770451 174.713494 
L 132.177032 174.587816 
L 132.583612 174.587816 
L 132.786903 174.452994 
L 135.023096 174.545078 
L 136.039547 174.571165 
L 139.088901 174.660601 
L 139.292191 174.808418 
L 139.902062 174.808418 
L 140.105352 174.348774 
L 140.715223 174.348774 
L 140.918513 174.761074 
L 141.528384 174.761074 
L 141.731674 175.254047 
L 142.341545 175.254047 
L 142.544835 175.753793 
L 143.967867 175.75787 
L 144.171157 175.142673 
L 144.781028 175.142673 
L 144.984318 174.927597 
L 145.594189 174.927597 
L 145.797479 175.208152 
L 147.220511 175.114503 
L 147.627092 174.986966 
L 148.846833 174.89695 
L 149.050124 175.327462 
L 149.659994 175.327462 
L 149.863285 175.182872 
L 151.286316 175.174881 
L 151.489607 175.419886 
L 152.099477 175.419886 
L 152.302768 175.215185 
L 152.912638 175.215185 
L 153.115929 175.626786 
L 153.7258 175.626786 
L 153.92909 175.351733 
L 155.352122 175.35763 
L 155.555412 175.191841 
L 156.165283 175.191841 
L 156.368573 174.382388 
L 156.978444 174.382388 
L 157.181734 173.827608 
L 157.791605 173.827608 
L 157.994895 174.966826 
L 158.604766 174.966826 
L 158.808056 173.982627 
L 161.044249 174.082547 
L 161.247539 174.479101 
L 161.85741 174.479101 
L 162.0607 174.8302 
L 163.483732 174.782161 
L 163.687022 174.543173 
L 165.923215 174.489055 
L 166.126505 175.188533 
L 166.736376 175.188533 
L 166.939666 175.50414 
L 169.175859 175.44105 
L 169.37915 174.86271 
L 169.98902 174.86271 
L 170.192311 175.460433 
L 170.802181 175.460433 
L 171.005472 176.856356 
L 171.615342 176.856356 
L 171.818633 175.191428 
L 172.428503 175.191428 
L 172.631794 174.718951 
L 173.241664 174.718951 
L 173.444955 174.463277 
L 174.867987 174.37777 
L 175.071277 174.850773 
L 175.681148 174.850773 
L 175.884438 174.708316 
L 176.494309 174.708316 
L 176.697599 174.341555 
L 177.30747 174.341555 
L 177.51076 174.976784 
L 178.120631 174.976784 
L 178.323921 173.748817 
L 179.746953 173.668964 
L 179.950243 173.525394 
L 180.560114 173.525394 
L 180.763404 173.255249 
L 181.373275 173.255249 
L 181.576565 173.826916 
L 182.186436 173.826916 
L 182.389726 172.867846 
L 182.999597 172.867846 
L 183.202887 173.098974 
L 183.812758 173.098974 
L 184.016048 172.9626 
L 184.625919 172.9626 
L 184.829209 173.182985 
L 186.252241 173.211843 
L 186.455531 173.389796 
L 234.228743 173.281402 
L 234.432033 172.93055 
L 235.855065 172.835406 
L 236.058355 173.182363 
L 236.668226 173.182363 
L 236.871516 173.749099 
L 237.481387 173.749099 
L 237.684677 174.491142 
L 238.294548 174.491142 
L 238.497838 175.23204 
L 239.107709 175.23204 
L 239.310999 175.421412 
L 239.92087 175.421412 
L 240.12416 174.183584 
L 240.734031 174.183584 
L 240.937321 175.432923 
L 241.547192 175.432923 
L 241.750482 175.673411 
L 242.360353 175.673411 
L 242.766933 175.796539 
L 243.173514 175.796539 
L 243.376804 175.458354 
L 244.799836 175.561122 
L 245.206417 175.639325 
L 245.612997 175.639325 
L 245.816287 175.337154 
L 247.239319 175.434392 
L 247.442609 174.910637 
L 248.05248 174.910637 
L 248.459061 175.027753 
L 248.865641 175.027753 
L 249.068932 174.855893 
L 249.678802 174.855893 
L 249.882093 174.659902 
L 250.491963 174.659902 
L 250.695254 174.470662 
L 251.305124 174.470662 
L 251.711705 174.593558 
L 252.118285 174.593558 
L 252.321576 174.744408 
L 254.557769 174.644608 
L 255.167639 174.604177 
L 255.37093 174.604177 
L 255.57422 174.943456 
L 256.184091 174.943456 
L 256.387381 174.791906 
L 257.810413 174.752982 
L 258.013703 174.51981 
L 258.623574 174.51981 
L 258.826864 174.682944 
L 259.436735 174.682944 
L 259.640025 174.403545 
L 260.249896 174.403545 
L 260.453186 174.586432 
L 262.689379 174.678044 
L 262.892669 174.418383 
L 264.315701 174.329275 
L 264.518991 174.688872 
L 265.128862 174.688872 
L 265.535443 174.821521 
L 265.942023 174.821521 
L 266.145313 175.075723 
L 266.755184 175.075723 
L 266.958474 175.599458 
L 267.568345 175.599458 
L 267.771635 175.422722 
L 269.194667 175.362804 
L 269.397958 175.079741 
L 270.820989 175.131123 
L 271.02428 174.85143 
L 271.63415 174.85143 
L 271.837441 174.627157 
L 272.447311 174.627157 
L 272.650602 175.619073 
L 273.260472 175.619073 
L 273.463763 175.469741 
L 275.699956 175.543682 
L 276.309826 175.583004 
L 290.336854 175.535641 
L 290.743435 175.462917 
L 291.963176 175.462299 
L 292.166467 175.160734 
L 292.776337 175.160734 
L 292.979628 174.649588 
L 293.589498 174.649588 
L 293.792789 175.110968 
L 294.40266 175.110968 
L 294.60595 174.856233 
L 295.215821 174.856233 
L 295.419111 175.365513 
L 296.028982 175.365513 
L 296.232272 175.052224 
L 296.842143 175.052224 
L 297.045433 174.797772 
L 298.468465 174.7436 
L 298.671755 174.516757 
L 299.281626 174.516757 
L 299.484916 174.704634 
L 300.094787 174.704634 
L 300.298077 174.432012 
L 301.721109 174.500698 
L 302.127689 174.57261 
L 306.600075 174.526669 
L 306.803365 174.689722 
L 307.413236 174.689722 
L 307.616526 174.861357 
L 309.039558 174.944089 
L 309.242849 175.202533 
L 309.852719 175.202533 
L 310.05601 174.871006 
L 310.66588 174.871006 
L 310.869171 174.683122 
L 311.479041 174.683122 
L 311.682332 174.893453 
L 313.105363 174.797838 
L 313.715234 174.750621 
L 313.918525 174.750621 
L 314.325105 174.623996 
L 332.621228 174.657209 
L 333.027809 174.746919 
L 334.247551 174.675235 
L 334.450841 174.511633 
L 337.500195 174.493479 
L 337.703485 174.62718 
L 338.313356 174.62718 
L 338.516646 174.473668 
L 339.939678 174.387875 
L 340.142968 173.984563 
L 340.752839 173.984563 
L 340.956129 173.417209 
L 341.566 173.417209 
L 341.76929 173.996078 
L 342.379161 173.996078 
L 342.582451 174.162512 
L 344.818644 174.103993 
L 345.021934 174.646497 
L 345.631805 174.646497 
L 345.835095 174.864932 
L 346.444966 174.864932 
L 346.648256 175.435234 
L 347.258127 175.435234 
L 347.461417 175.090391 
L 349.69761 175.042564 
L 349.900901 174.737058 
L 351.323932 174.698837 
L 351.527223 175.417791 
L 352.137093 175.417791 
L 352.340384 174.894009 
L 353.763415 174.941265 
L 353.966706 175.430161 
L 355.389738 175.533504 
L 355.593028 175.931229 
L 356.202899 175.931229 
L 356.406189 174.717652 
L 357.01606 174.717652 
L 357.21935 175.296672 
L 358.642382 175.199353 
L 358.845672 175.596552 
L 359.455543 175.596552 
L 359.658833 176.668491 
L 360.268704 176.668491 
L 360.471994 176.915725 
L 361.081865 176.915725 
L 361.285155 176.54857 
L 361.895026 176.54857 
L 362.098316 175.12455 
L 362.708187 175.12455 
L 362.911477 172.756824 
L 363.521348 172.756824 
L 363.724638 171.351001 
L 365.14767 171.367601 
L 365.554251 171.470269 
L 365.960831 171.470269 
L 366.164121 171.691505 
L 367.587153 171.612571 
L 367.790443 172.231354 
L 368.400314 172.231354 
L 368.603604 173.418472 
L 369.213475 173.418472 
L 369.416766 174.223578 
L 370.026636 174.223578 
L 370.229927 174.492405 
L 370.839797 174.492405 
L 371.043088 174.746147 
L 381.410891 174.850306 
L 381.614181 174.558479 
L 382.224052 174.558479 
L 382.427342 174.356676 
L 383.037213 174.356676 
L 383.240503 174.857833 
L 383.850374 174.857833 
L 384.053664 174.990969 
L 384.663535 174.990969 
L 384.866825 175.252118 
L 385.476696 175.252118 
L 385.679986 175.47366 
L 387.103018 175.405816 
L 387.306308 175.084363 
L 387.916179 175.084363 
L 388.119469 175.528118 
L 389.542501 175.5772 
L 389.949082 175.651798 
L 391.981984 175.623002 
L 392.185275 175.17237 
L 392.795145 175.17237 
L 392.998436 175.333525 
L 393.608306 175.333525 
L 393.811597 175.192722 
L 398.487273 175.229768 
L 398.487273 175.229768 
" style="fill:none;stroke:#ff0000;stroke-dasharray:5.55,2.4;stroke-dashoffset:0;stroke-width:1.5;"/>
   </g>
   <g id="line2d_21">
    <path clip-path="url(#pdf85e3cb64)" d="M 73.832727 174.048168 
L 80.541306 173.941563 
L 80.947886 173.854228 
L 81.354467 173.854228 
L 81.557757 173.620592 
L 82.167628 173.620592 
L 82.370918 173.785612 
L 82.980789 173.785612 
L 83.184079 173.963279 
L 83.79395 173.963279 
L 83.99724 173.824126 
L 85.420272 173.814763 
L 85.623562 174.36704 
L 86.233433 174.36704 
L 86.436723 174.097741 
L 92.738721 174.105377 
L 93.145302 173.974396 
L 93.551883 173.974396 
L 93.958463 174.087122 
L 94.365044 174.087122 
L 94.568334 173.707938 
L 95.178205 173.707938 
L 95.381495 174.172266 
L 95.991366 174.172266 
L 96.194656 173.930654 
L 97.617688 173.920163 
L 98.024268 174.045783 
L 99.24401 174.021396 
L 99.4473 174.186938 
L 102.496654 174.154672 
L 102.903234 174.023019 
L 131.770451 173.951173 
L 132.380322 173.911043 
L 132.583612 173.911043 
L 132.786903 174.122333 
L 133.396773 174.122333 
L 133.803354 174.009043 
L 137.462579 173.927802 
L 137.869159 173.860082 
L 138.27574 173.860082 
L 138.68232 173.739899 
L 139.088901 173.739899 
L 139.292191 173.492035 
L 140.715223 173.536763 
L 140.918513 174.077392 
L 141.528384 174.077392 
L 141.731674 174.658148 
L 142.341545 174.658148 
L 142.544835 174.11062 
L 143.154706 174.11062 
L 143.357996 174.36396 
L 144.781028 174.341266 
L 144.984318 174.007965 
L 146.40735 174.010252 
L 146.61064 174.145978 
L 149.659994 174.242806 
L 149.863285 174.470113 
L 150.473155 174.470113 
L 150.676446 173.939565 
L 151.286316 173.939565 
L 151.489607 174.293099 
L 152.099477 174.293099 
L 152.302768 173.929282 
L 155.352122 173.930608 
L 155.555412 173.68279 
L 156.165283 173.68279 
L 156.368573 173.936207 
L 157.791605 173.97692 
L 157.994895 173.570366 
L 158.604766 173.570366 
L 158.808056 173.845086 
L 164.296893 173.88314 
L 164.500183 174.124168 
L 166.736376 174.078679 
L 166.939666 173.921875 
L 169.175859 174.013931 
L 169.78573 174.065077 
L 169.98902 174.065077 
L 170.395601 174.185667 
L 171.615342 174.219606 
L 172.021923 174.314467 
L 172.428503 174.314467 
L 172.631794 174.010612 
L 173.241664 174.010612 
L 173.444955 174.344566 
L 174.054826 174.344566 
L 174.258116 174.11826 
L 174.867987 174.11826 
L 175.071277 174.64186 
L 175.681148 174.64186 
L 175.884438 174.176551 
L 176.494309 174.176551 
L 176.697599 174.325832 
L 177.30747 174.325832 
L 177.51076 173.437009 
L 178.120631 173.437009 
L 178.323921 174.219521 
L 178.933792 174.219521 
L 179.340372 174.098981 
L 182.186436 174.202263 
L 182.389726 173.812391 
L 182.999597 173.812391 
L 183.202887 174.173923 
L 183.812758 174.173923 
L 184.219339 174.05236 
L 184.625919 174.05236 
L 184.829209 174.412142 
L 186.252241 174.351606 
L 186.455531 174.214204 
L 187.065402 174.214204 
L 187.268692 173.908763 
L 230.976098 173.958874 
L 231.179389 174.187645 
L 231.789259 174.187645 
L 231.99255 173.981653 
L 232.60242 173.981653 
L 232.805711 173.836646 
L 235.041904 173.878136 
L 235.245194 174.021377 
L 235.855065 174.021377 
L 236.058355 174.336292 
L 236.668226 174.336292 
L 236.871516 174.068756 
L 237.481387 174.068756 
L 237.684677 173.634727 
L 238.294548 173.634727 
L 238.497838 173.971382 
L 239.107709 173.971382 
L 239.514289 174.096462 
L 239.92087 174.096462 
L 240.12416 173.555581 
L 241.547192 173.664787 
L 241.750482 174.397679 
L 242.360353 174.397679 
L 242.563643 173.942559 
L 243.173514 173.942559 
L 243.376804 174.200134 
L 243.986675 174.200134 
L 244.189965 173.93863 
L 248.05248 174.024689 
L 248.25577 174.202673 
L 248.865641 174.202673 
L 249.068932 173.862355 
L 252.118285 173.952116 
L 252.321576 174.200219 
L 253.744608 174.209532 
L 253.947898 174.050652 
L 257.810413 173.998092 
L 258.216993 173.879573 
L 259.436735 173.879079 
L 259.640025 174.030068 
L 261.063057 173.925816 
L 261.672928 173.885918 
L 261.876218 173.885918 
L 262.079508 174.046572 
L 262.689379 174.046572 
L 262.892669 174.184921 
L 263.50254 174.184921 
L 263.70583 173.985467 
L 264.315701 173.985467 
L 264.518991 173.837222 
L 265.128862 173.837222 
L 265.332152 173.666479 
L 265.942023 173.666479 
L 266.145313 174.056522 
L 267.568345 174.001314 
L 267.974926 173.93499 
L 268.381506 173.93499 
L 268.584796 173.781133 
L 269.194667 173.781133 
L 269.397958 174.220406 
L 271.63415 174.164487 
L 272.040731 174.06891 
L 274.073634 173.994977 
L 274.276924 174.24349 
L 275.699956 174.270594 
L 275.903246 174.05634 
L 289.523693 173.953004 
L 290.133564 173.915302 
L 290.336854 173.915302 
L 290.743435 173.792962 
L 291.150015 173.792962 
L 291.353306 173.960397 
L 292.776337 173.887163 
L 293.182918 173.791713 
L 293.589498 173.791713 
L 293.792789 173.92575 
L 295.215821 173.880528 
L 295.419111 174.068829 
L 296.842143 174.116737 
L 297.045433 173.950667 
L 300.907948 173.947181 
L 301.111238 174.119384 
L 302.53427 174.045068 
L 302.94085 173.965536 
L 304.160592 174.052712 
L 304.363882 174.221526 
L 305.786914 174.149614 
L 306.193495 174.03297 
L 306.600075 174.03297 
L 306.803365 174.219173 
L 307.413236 174.219173 
L 307.616526 173.996836 
L 310.66588 173.918003 
L 310.869171 174.149691 
L 312.292202 174.099758 
L 312.495493 173.811591 
L 313.105363 173.811591 
L 313.308654 174.050204 
L 330.181745 173.963755 
L 330.588326 173.849773 
L 330.994906 173.849773 
L 331.198197 173.984942 
L 331.808067 173.984942 
L 332.011358 173.792181 
L 333.434389 173.769993 
L 333.63768 173.960265 
L 334.247551 173.960265 
L 334.450841 173.717993 
L 335.060712 173.717993 
L 335.264002 173.893005 
L 335.873873 173.893005 
L 336.077163 173.654485 
L 337.500195 173.727831 
L 338.110065 173.784348 
L 338.313356 173.784348 
L 338.516646 173.945489 
L 339.126517 173.945489 
L 339.329807 174.267641 
L 339.939678 174.267641 
L 340.346258 174.389765 
L 340.752839 174.389765 
L 340.956129 173.850797 
L 341.566 173.850797 
L 341.76929 174.208191 
L 342.379161 174.208191 
L 342.582451 174.375124 
L 344.005483 174.333406 
L 344.208773 174.493568 
L 344.818644 174.493568 
L 345.021934 174.965512 
L 345.631805 174.965512 
L 345.835095 173.692991 
L 346.444966 173.692991 
L 346.648256 174.190068 
L 347.258127 174.190068 
L 347.461417 173.81479 
L 348.884449 173.863672 
L 349.08774 173.678729 
L 349.69761 173.678729 
L 349.900901 173.816997 
L 351.323932 173.715879 
L 351.527223 173.176629 
L 352.137093 173.176629 
L 352.340384 172.828408 
L 352.950254 172.828408 
L 353.153545 172.637835 
L 353.763415 172.637835 
L 353.966706 171.999719 
L 354.576577 171.999719 
L 354.779867 172.619124 
L 356.202899 172.520773 
L 356.406189 173.241222 
L 357.01606 173.241222 
L 357.21935 174.080271 
L 357.829221 174.080271 
L 358.032511 174.735883 
L 358.642382 174.735883 
L 358.845672 175.27904 
L 359.455543 175.27904 
L 359.658833 175.812683 
L 360.268704 175.812683 
L 360.471994 176.379168 
L 361.895026 176.272277 
L 363.318058 176.095978 
L 363.521348 176.095978 
L 363.724638 176.537426 
L 364.334509 176.537426 
L 364.537799 175.893978 
L 365.14767 175.893978 
L 365.35096 175.148504 
L 365.960831 175.148504 
L 366.164121 173.90966 
L 366.773992 173.90966 
L 366.977282 172.840294 
L 367.587153 172.840294 
L 367.790443 172.280545 
L 368.400314 172.280545 
L 368.603604 172.73903 
L 369.213475 172.73903 
L 369.416766 173.763675 
L 370.839797 173.761067 
L 371.246378 173.645091 
L 372.466119 173.693598 
L 372.8727 173.811003 
L 379.784569 173.732047 
L 379.987859 173.592245 
L 381.410891 173.561435 
L 381.614181 173.791969 
L 382.224052 173.791969 
L 382.427342 174.891722 
L 383.037213 174.891722 
L 383.240503 174.636806 
L 383.850374 174.636806 
L 384.053664 171.903899 
L 384.663535 171.903899 
L 384.866825 172.801912 
L 385.476696 172.801912 
L 385.679986 174.208697 
L 391.981984 174.284729 
L 392.185275 173.89452 
L 392.795145 173.89452 
L 392.998436 174.119906 
L 394.421468 174.030586 
L 394.828048 173.957375 
L 398.487273 173.93395 
L 398.487273 173.93395 
" style="fill:none;stroke:#0000ff;stroke-dasharray:5.55,2.4;stroke-dashoffset:0;stroke-width:1.5;"/>
   </g>
   <g id="line2d_22">
    <path clip-path="url(#pdf85e3cb64)" d="M 73.832727 263.730511 
L 81.354467 263.708327 
L 81.761047 263.599442 
L 82.167628 263.599442 
L 82.370918 263.261643 
L 82.980789 263.261643 
L 83.184079 262.343089 
L 83.79395 262.343089 
L 83.99724 262.811099 
L 84.607111 262.811099 
L 84.810401 269.028062 
L 85.420272 269.028062 
L 85.623562 285.811552 
L 86.233433 285.811552 
L 86.436723 66.425604 
L 87.046594 66.425604 
L 87.249884 83.015328 
L 87.859755 83.015328 
L 88.063045 84.688445 
L 88.672916 84.688445 
L 88.876207 82.348684 
L 89.486077 82.348684 
L 89.689368 79.406702 
L 90.299238 79.406702 
L 90.502529 77.73277 
L 91.112399 77.73277 
L 91.31569 78.838803 
L 91.92556 78.838803 
L 92.128851 80.983651 
L 92.738721 80.983651 
L 92.942012 81.652432 
L 93.551883 81.652432 
L 93.755173 81.856391 
L 94.365044 81.856391 
L 94.568334 81.634637 
L 95.991366 81.598256 
L 96.397946 81.471874 
L 96.804527 81.471874 
L 97.007817 81.308767 
L 97.617688 81.308767 
L 97.820978 81.574194 
L 98.430849 81.574194 
L 98.837429 81.688148 
L 100.057171 81.675733 
L 100.260461 81.39832 
L 130.95729 81.313122 
L 132.177032 81.246906 
L 132.583612 81.246906 
L 132.990193 81.120752 
L 133.396773 81.120752 
L 133.600064 80.245526 
L 134.209935 80.245526 
L 134.413225 78.830839 
L 135.023096 78.830839 
L 135.226386 77.912949 
L 135.836257 77.912949 
L 136.039547 77.697938 
L 137.462579 77.664428 
L 137.665869 77.173886 
L 138.27574 77.173886 
L 138.47903 75.232796 
L 139.088901 75.232796 
L 139.292191 65.926896 
L 139.902062 65.926896 
L 140.105352 292.310446 
L 140.715223 292.310446 
L 140.918513 276.866752 
L 141.528384 276.866752 
L 141.731674 265.832057 
L 142.341545 265.832057 
L 142.544835 261.443403 
L 143.154706 261.443403 
L 143.357996 261.026223 
L 143.967867 261.026223 
L 144.171157 261.68619 
L 144.781028 261.68619 
L 144.984318 262.913299 
L 145.594189 262.913299 
L 145.797479 263.100634 
L 146.40735 263.100634 
L 146.61064 263.366652 
L 147.220511 263.366652 
L 147.423801 263.836065 
L 148.033672 263.836065 
L 148.236962 264.220605 
L 151.286316 264.274476 
L 151.489607 263.909179 
L 152.099477 263.909179 
L 152.302768 263.492439 
L 152.912638 263.492439 
L 153.115929 263.831629 
L 153.7258 263.831629 
L 153.92909 264.01068 
L 154.538961 264.01068 
L 154.742251 263.059361 
L 155.352122 263.059361 
L 155.555412 262.188719 
L 156.165283 262.188719 
L 156.368573 262.005043 
L 156.978444 262.005043 
L 157.181734 262.56502 
L 157.791605 262.56502 
L 157.994895 263.561357 
L 159.417927 263.605864 
L 159.621217 263.779868 
L 160.231088 263.779868 
L 160.434378 264.3713 
L 161.044249 264.3713 
L 161.247539 263.916451 
L 162.670571 263.814943 
L 162.873861 264.463275 
L 163.483732 264.463275 
L 163.687022 265.652052 
L 164.296893 265.652052 
L 164.500183 268.174399 
L 165.110054 268.174399 
L 165.313344 269.186656 
L 165.923215 269.186656 
L 166.126505 268.215267 
L 166.736376 268.215267 
L 166.939666 266.904255 
L 167.549537 266.904255 
L 167.752827 264.908526 
L 168.362698 264.908526 
L 168.565989 263.378129 
L 170.802181 263.425079 
L 171.005472 262.286111 
L 171.615342 262.286111 
L 171.818633 260.760811 
L 172.428503 260.760811 
L 172.631794 261.087856 
L 173.241664 261.087856 
L 173.444955 262.967165 
L 174.054826 262.967165 
L 174.258116 263.97288 
L 174.867987 263.97288 
L 175.071277 264.591725 
L 175.681148 264.591725 
L 175.884438 264.893973 
L 176.494309 264.893973 
L 176.697599 264.562484 
L 178.933792 264.466282 
L 179.137082 264.076939 
L 179.746953 264.076939 
L 179.950243 263.58094 
L 180.560114 263.58094 
L 180.763404 261.15041 
L 181.373275 261.15041 
L 181.576565 256.60193 
L 182.186436 256.60193 
L 182.389726 250.142184 
L 182.999597 250.142184 
L 183.202887 243.710488 
L 183.812758 243.710488 
L 184.016048 237.24677 
L 184.625919 237.24677 
L 184.829209 232.937599 
L 185.43908 232.937599 
L 185.64237 231.529043 
L 186.252241 231.529043 
L 186.455531 231.270947 
L 233.415581 231.260259 
L 233.618872 231.406448 
L 234.228743 231.406448 
L 234.432033 233.05323 
L 235.041904 233.05323 
L 235.245194 234.255184 
L 235.855065 234.255184 
L 236.058355 234.387926 
L 236.668226 234.387926 
L 236.871516 233.794639 
L 237.481387 233.794639 
L 237.684677 232.461992 
L 238.294548 232.461992 
L 238.497838 230.547178 
L 239.107709 230.547178 
L 239.310999 225.03678 
L 239.92087 225.03678 
L 240.12416 213.129858 
L 240.734031 213.129858 
L 240.937321 202.163783 
L 241.547192 202.163783 
L 241.750482 190.158498 
L 242.360353 190.158498 
L 242.563643 178.656941 
L 243.173514 178.656941 
L 243.376804 171.939925 
L 243.986675 171.939925 
L 244.189965 170.069434 
L 244.799836 170.069434 
L 245.003126 169.574796 
L 245.612997 169.574796 
L 245.816287 169.398245 
L 246.426158 169.398245 
L 246.629448 169.115229 
L 247.239319 169.115229 
L 247.442609 168.257153 
L 248.05248 168.257153 
L 248.25577 166.836139 
L 248.865641 166.836139 
L 249.068932 166.173993 
L 249.678802 166.173993 
L 249.882093 166.632601 
L 250.491963 166.632601 
L 250.695254 168.104344 
L 252.118285 168.101755 
L 252.321576 168.72575 
L 252.931446 168.72575 
L 253.134737 168.967621 
L 253.744608 168.967621 
L 253.947898 168.677158 
L 254.557769 168.677158 
L 254.761059 168.914948 
L 255.37093 168.914948 
L 255.57422 169.965522 
L 256.184091 169.965522 
L 256.387381 169.672061 
L 256.997252 169.672061 
L 257.200542 169.310787 
L 259.436735 169.340116 
L 259.640025 169.062162 
L 260.249896 169.062162 
L 260.453186 168.459508 
L 261.876218 168.472813 
L 262.282798 168.601934 
L 262.689379 168.601934 
L 262.892669 169.264282 
L 263.50254 169.264282 
L 263.70583 168.99035 
L 264.315701 168.99035 
L 264.518991 169.1767 
L 265.128862 169.1767 
L 265.332152 168.700026 
L 265.942023 168.700026 
L 266.145313 167.351161 
L 266.755184 167.351161 
L 266.958474 165.965176 
L 267.568345 165.965176 
L 267.771635 164.655076 
L 268.381506 164.655076 
L 268.584796 163.927629 
L 272.447311 164.017077 
L 272.650602 162.912254 
L 273.260472 162.912254 
L 273.463763 162.185997 
L 274.073634 162.185997 
L 274.276924 163.559438 
L 274.886795 163.559438 
L 275.090085 163.912006 
L 291.150015 163.847045 
L 291.353306 164.043887 
L 291.963176 164.043887 
L 292.166467 164.345868 
L 292.776337 164.345868 
L 292.979628 164.572591 
L 293.589498 164.572591 
L 293.792789 164.418063 
L 294.40266 164.418063 
L 294.60595 164.237671 
L 295.215821 164.237671 
L 295.419111 163.490521 
L 296.028982 163.490521 
L 296.232272 163.211809 
L 299.281626 163.177279 
L 299.484916 162.738389 
L 300.094787 162.738389 
L 300.298077 162.321142 
L 300.907948 162.321142 
L 301.111238 163.436886 
L 302.53427 163.462575 
L 302.73756 163.046519 
L 304.160592 162.96444 
L 304.363882 163.18872 
L 306.600075 163.105409 
L 306.803365 163.310856 
L 307.413236 163.310856 
L 307.616526 162.999878 
L 308.226397 162.999878 
L 308.429687 162.732144 
L 309.039558 162.732144 
L 309.242849 163.329628 
L 309.852719 163.329628 
L 310.05601 163.521523 
L 310.66588 163.521523 
L 310.869171 163.215986 
L 311.479041 163.215986 
L 311.682332 162.961735 
L 330.994906 162.894258 
L 331.198197 162.670515 
L 331.808067 162.670515 
L 332.011358 162.383344 
L 332.621228 162.383344 
L 332.824519 162.235307 
L 334.247551 162.168005 
L 334.450841 161.528325 
L 335.060712 161.528325 
L 335.264002 160.839256 
L 335.873873 160.839256 
L 336.077163 160.365628 
L 336.687034 160.365628 
L 336.890324 160.032752 
L 337.500195 160.032752 
L 337.703485 159.565766 
L 338.313356 159.565766 
L 338.516646 159.087523 
L 339.126517 159.087523 
L 339.329807 157.794998 
L 339.939678 157.794998 
L 340.142968 155.168507 
L 340.752839 155.168507 
L 340.956129 152.431705 
L 341.566 152.431705 
L 341.76929 146.469754 
L 342.379161 146.469754 
L 342.582451 132.111741 
L 343.192322 132.111741 
L 343.395612 117.311162 
L 344.005483 117.311162 
L 344.208773 105.882661 
L 344.818644 105.882661 
L 345.021934 100.207633 
L 345.631805 100.207633 
L 345.835095 98.553961 
L 346.444966 98.553961 
L 346.648256 97.66964 
L 347.258127 97.66964 
L 347.461417 98.087064 
L 348.071288 98.087064 
L 348.274578 98.7272 
L 348.884449 98.7272 
L 349.08774 98.116663 
L 350.510771 98.006407 
L 350.917352 97.89935 
L 351.323932 97.89935 
L 351.527223 98.33167 
L 352.137093 98.33167 
L 352.340384 99.041153 
L 352.950254 99.041153 
L 353.153545 100.910856 
L 353.763415 100.910856 
L 353.966706 102.65842 
L 354.576577 102.65842 
L 354.779867 104.012366 
L 355.389738 104.012366 
L 355.593028 105.919876 
L 356.202899 105.919876 
L 356.406189 107.505237 
L 357.01606 107.505237 
L 357.21935 108.902629 
L 357.829221 108.902629 
L 358.032511 110.528359 
L 358.642382 110.528359 
L 358.845672 112.185057 
L 359.455543 112.185057 
L 359.658833 113.591734 
L 360.268704 113.591734 
L 360.471994 113.876521 
L 361.081865 113.876521 
L 361.285155 111.636768 
L 361.895026 111.636768 
L 362.098316 105.918149 
L 362.708187 105.918149 
L 362.911477 99.66851 
L 363.521348 99.66851 
L 363.724638 94.173144 
L 364.334509 94.173144 
L 364.537799 84.770493 
L 365.14767 84.770493 
L 365.35096 72.978217 
L 365.960831 72.978217 
L 366.164121 62.13971 
L 366.773992 62.13971 
L 366.977282 57.40255 
L 367.587153 57.40255 
L 367.790443 56.031979 
L 368.400314 56.031979 
L 368.603604 55.412845 
L 370.026636 55.376433 
L 370.433217 55.289292 
L 370.839797 55.289292 
L 371.043088 55.661007 
L 371.652958 55.661007 
L 371.856249 53.956308 
L 372.466119 53.956308 
L 372.66941 295.488 
L 373.27928 295.488 
L 373.482571 294.962815 
L 374.092442 294.962815 
L 374.295732 294.806277 
L 378.971408 294.768312 
L 379.174698 294.51406 
L 379.784569 294.51406 
L 379.987859 293.866374 
L 380.59773 293.866374 
L 380.80102 292.0985 
L 381.410891 292.0985 
L 381.614181 287.495875 
L 382.224052 287.495875 
L 382.427342 281.324563 
L 383.037213 281.324563 
L 383.240503 275.819598 
L 383.850374 275.819598 
L 384.053664 271.558316 
L 384.663535 271.558316 
L 384.866825 267.114686 
L 385.476696 267.114686 
L 385.679986 265.163909 
L 386.289857 265.163909 
L 386.493147 264.106457 
L 387.103018 264.106457 
L 387.306308 264.333756 
L 387.916179 264.333756 
L 388.119469 263.844651 
L 388.72934 263.844651 
L 388.932631 263.515156 
L 389.542501 263.515156 
L 389.745792 264.123691 
L 390.355662 264.123691 
L 390.558953 263.98659 
L 391.168823 263.98659 
L 391.372114 263.806349 
L 392.795145 263.872751 
L 393.201726 263.950224 
L 398.487273 263.894182 
L 398.487273 263.894182 
" style="fill:none;stroke:#008000;stroke-dasharray:5.55,2.4;stroke-dashoffset:0;stroke-width:1.5;"/>
   </g>
   <g id="patch_3">
    <path d="M 57.6 307.584 
L 57.6 41.472 
" style="fill:none;stroke:#000000;stroke-linecap:square;stroke-linejoin:miter;stroke-width:0.8;"/>
   </g>
   <g id="patch_4">
    <path d="M 414.72 307.584 
L 414.72 41.472 
" style="fill:none;stroke:#000000;stroke-linecap:square;stroke-linejoin:miter;stroke-width:0.8;"/>
   </g>
   <g id="patch_5">
    <path d="M 57.6 307.584 
L 414.72 307.584 
" style="fill:none;stroke:#000000;stroke-linecap:square;stroke-linejoin:miter;stroke-width:0.8;"/>
   </g>
   <g id="patch_6">
    <path d="M 57.6 41.472 
L 414.72 41.472 
" style="fill:none;stroke:#000000;stroke-linecap:square;stroke-linejoin:miter;stroke-width:0.8;"/>
   </g>
   <g id="legend_1">
    <g id="patch_7">
     <path d="M 180.95375 137.54075 
L 291.36625 137.54075 
Q 293.36625 137.54075 293.36625 135.54075 
L 293.36625 48.472 
Q 293.36625 46.472 291.36625 46.472 
L 180.95375 46.472 
Q 178.95375 46.472 178.95375 48.472 
L 178.95375 135.54075 
Q 178.95375 137.54075 180.95375 137.54075 
z
" style="fill:#ffffff;opacity:0.8;stroke:#cccccc;stroke-linejoin:miter;"/>
    </g>
    <g id="line2d_23">
     <path d="M 182.95375 54.570438 
L 202.95375 54.570438 
" style="fill:none;stroke:#ff0000;stroke-linecap:square;stroke-width:1.5;"/>
    </g>
    <g id="line2d_24"/>
    <g id="text_19">
     <!-- estimated roll -->
     <g transform="translate(210.95375 58.070438)scale(0.1 -0.1)">
      <defs>
       <path d="M 9.421875 75.984375 
L 18.40625 75.984375 
L 18.40625 0 
L 9.421875 0 
z
" id="DejaVuSans-108"/>
      </defs>
      <use xlink:href="#DejaVuSans-101"/>
      <use x="61.523438" xlink:href="#DejaVuSans-115"/>
      <use x="113.623047" xlink:href="#DejaVuSans-116"/>
      <use x="152.832031" xlink:href="#DejaVuSans-105"/>
      <use x="180.615234" xlink:href="#DejaVuSans-109"/>
      <use x="278.027344" xlink:href="#DejaVuSans-97"/>
      <use x="339.306641" xlink:href="#DejaVuSans-116"/>
      <use x="378.515625" xlink:href="#DejaVuSans-101"/>
      <use x="440.039062" xlink:href="#DejaVuSans-100"/>
      <use x="503.515625" xlink:href="#DejaVuSans-32"/>
      <use x="535.302734" xlink:href="#DejaVuSans-114"/>
      <use x="574.166016" xlink:href="#DejaVuSans-111"/>
      <use x="635.347656" xlink:href="#DejaVuSans-108"/>
      <use x="663.130859" xlink:href="#DejaVuSans-108"/>
     </g>
    </g>
    <g id="line2d_25">
     <path d="M 182.95375 69.248563 
L 202.95375 69.248563 
" style="fill:none;stroke:#0000ff;stroke-linecap:square;stroke-width:1.5;"/>
    </g>
    <g id="line2d_26"/>
    <g id="text_20">
     <!-- estimated pitch -->
     <g transform="translate(210.95375 72.748563)scale(0.1 -0.1)">
      <defs>
       <path d="M 18.109375 8.203125 
L 18.109375 -20.796875 
L 9.078125 -20.796875 
L 9.078125 54.6875 
L 18.109375 54.6875 
L 18.109375 46.390625 
Q 20.953125 51.265625 25.265625 53.625 
Q 29.59375 56 35.59375 56 
Q 45.5625 56 51.78125 48.09375 
Q 58.015625 40.1875 58.015625 27.296875 
Q 58.015625 14.40625 51.78125 6.484375 
Q 45.5625 -1.421875 35.59375 -1.421875 
Q 29.59375 -1.421875 25.265625 0.953125 
Q 20.953125 3.328125 18.109375 8.203125 
z
M 48.6875 27.296875 
Q 48.6875 37.203125 44.609375 42.84375 
Q 40.53125 48.484375 33.40625 48.484375 
Q 26.265625 48.484375 22.1875 42.84375 
Q 18.109375 37.203125 18.109375 27.296875 
Q 18.109375 17.390625 22.1875 11.75 
Q 26.265625 6.109375 33.40625 6.109375 
Q 40.53125 6.109375 44.609375 11.75 
Q 48.6875 17.390625 48.6875 27.296875 
z
" id="DejaVuSans-112"/>
       <path d="M 48.78125 52.59375 
L 48.78125 44.1875 
Q 44.96875 46.296875 41.140625 47.34375 
Q 37.3125 48.390625 33.40625 48.390625 
Q 24.65625 48.390625 19.8125 42.84375 
Q 14.984375 37.3125 14.984375 27.296875 
Q 14.984375 17.28125 19.8125 11.734375 
Q 24.65625 6.203125 33.40625 6.203125 
Q 37.3125 6.203125 41.140625 7.25 
Q 44.96875 8.296875 48.78125 10.40625 
L 48.78125 2.09375 
Q 45.015625 0.34375 40.984375 -0.53125 
Q 36.96875 -1.421875 32.421875 -1.421875 
Q 20.0625 -1.421875 12.78125 6.34375 
Q 5.515625 14.109375 5.515625 27.296875 
Q 5.515625 40.671875 12.859375 48.328125 
Q 20.21875 56 33.015625 56 
Q 37.15625 56 41.109375 55.140625 
Q 45.0625 54.296875 48.78125 52.59375 
z
" id="DejaVuSans-99"/>
       <path d="M 54.890625 33.015625 
L 54.890625 0 
L 45.90625 0 
L 45.90625 32.71875 
Q 45.90625 40.484375 42.875 44.328125 
Q 39.84375 48.1875 33.796875 48.1875 
Q 26.515625 48.1875 22.3125 43.546875 
Q 18.109375 38.921875 18.109375 30.90625 
L 18.109375 0 
L 9.078125 0 
L 9.078125 75.984375 
L 18.109375 75.984375 
L 18.109375 46.1875 
Q 21.34375 51.125 25.703125 53.5625 
Q 30.078125 56 35.796875 56 
Q 45.21875 56 50.046875 50.171875 
Q 54.890625 44.34375 54.890625 33.015625 
z
" id="DejaVuSans-104"/>
      </defs>
      <use xlink:href="#DejaVuSans-101"/>
      <use x="61.523438" xlink:href="#DejaVuSans-115"/>
      <use x="113.623047" xlink:href="#DejaVuSans-116"/>
      <use x="152.832031" xlink:href="#DejaVuSans-105"/>
      <use x="180.615234" xlink:href="#DejaVuSans-109"/>
      <use x="278.027344" xlink:href="#DejaVuSans-97"/>
      <use x="339.306641" xlink:href="#DejaVuSans-116"/>
      <use x="378.515625" xlink:href="#DejaVuSans-101"/>
      <use x="440.039062" xlink:href="#DejaVuSans-100"/>
      <use x="503.515625" xlink:href="#DejaVuSans-32"/>
      <use x="535.302734" xlink:href="#DejaVuSans-112"/>
      <use x="598.779297" xlink:href="#DejaVuSans-105"/>
      <use x="626.5625" xlink:href="#DejaVuSans-116"/>
      <use x="665.771484" xlink:href="#DejaVuSans-99"/>
      <use x="720.751953" xlink:href="#DejaVuSans-104"/>
     </g>
    </g>
    <g id="line2d_27">
     <path d="M 182.95375 83.926688 
L 202.95375 83.926688 
" style="fill:none;stroke:#008000;stroke-linecap:square;stroke-width:1.5;"/>
    </g>
    <g id="line2d_28"/>
    <g id="text_21">
     <!-- estimated yaw -->
     <g transform="translate(210.95375 87.426688)scale(0.1 -0.1)">
      <defs>
       <path d="M 32.171875 -5.078125 
Q 28.375 -14.84375 24.75 -17.8125 
Q 21.140625 -20.796875 15.09375 -20.796875 
L 7.90625 -20.796875 
L 7.90625 -13.28125 
L 13.1875 -13.28125 
Q 16.890625 -13.28125 18.9375 -11.515625 
Q 21 -9.765625 23.484375 -3.21875 
L 25.09375 0.875 
L 2.984375 54.6875 
L 12.5 54.6875 
L 29.59375 11.921875 
L 46.6875 54.6875 
L 56.203125 54.6875 
z
" id="DejaVuSans-121"/>
       <path d="M 4.203125 54.6875 
L 13.1875 54.6875 
L 24.421875 12.015625 
L 35.59375 54.6875 
L 46.1875 54.6875 
L 57.421875 12.015625 
L 68.609375 54.6875 
L 77.59375 54.6875 
L 63.28125 0 
L 52.6875 0 
L 40.921875 44.828125 
L 29.109375 0 
L 18.5 0 
z
" id="DejaVuSans-119"/>
      </defs>
      <use xlink:href="#DejaVuSans-101"/>
      <use x="61.523438" xlink:href="#DejaVuSans-115"/>
      <use x="113.623047" xlink:href="#DejaVuSans-116"/>
      <use x="152.832031" xlink:href="#DejaVuSans-105"/>
      <use x="180.615234" xlink:href="#DejaVuSans-109"/>
      <use x="278.027344" xlink:href="#DejaVuSans-97"/>
      <use x="339.306641" xlink:href="#DejaVuSans-116"/>
      <use x="378.515625" xlink:href="#DejaVuSans-101"/>
      <use x="440.039062" xlink:href="#DejaVuSans-100"/>
      <use x="503.515625" xlink:href="#DejaVuSans-32"/>
      <use x="535.302734" xlink:href="#DejaVuSans-121"/>
      <use x="594.482422" xlink:href="#DejaVuSans-97"/>
      <use x="655.761719" xlink:href="#DejaVuSans-119"/>
     </g>
    </g>
    <g id="line2d_29">
     <path d="M 182.95375 98.604813 
L 202.95375 98.604813 
" style="fill:none;stroke:#ff0000;stroke-dasharray:5.55,2.4;stroke-dashoffset:0;stroke-width:1.5;"/>
    </g>
    <g id="line2d_30"/>
    <g id="text_22">
     <!-- gt roll -->
     <g transform="translate(210.95375 102.104813)scale(0.1 -0.1)">
      <use xlink:href="#DejaVuSans-103"/>
      <use x="63.476562" xlink:href="#DejaVuSans-116"/>
      <use x="102.685547" xlink:href="#DejaVuSans-32"/>
      <use x="134.472656" xlink:href="#DejaVuSans-114"/>
      <use x="173.335938" xlink:href="#DejaVuSans-111"/>
      <use x="234.517578" xlink:href="#DejaVuSans-108"/>
      <use x="262.300781" xlink:href="#DejaVuSans-108"/>
     </g>
    </g>
    <g id="line2d_31">
     <path d="M 182.95375 113.282938 
L 202.95375 113.282938 
" style="fill:none;stroke:#0000ff;stroke-dasharray:5.55,2.4;stroke-dashoffset:0;stroke-width:1.5;"/>
    </g>
    <g id="line2d_32"/>
    <g id="text_23">
     <!-- gt pitch -->
     <g transform="translate(210.95375 116.782938)scale(0.1 -0.1)">
      <use xlink:href="#DejaVuSans-103"/>
      <use x="63.476562" xlink:href="#DejaVuSans-116"/>
      <use x="102.685547" xlink:href="#DejaVuSans-32"/>
      <use x="134.472656" xlink:href="#DejaVuSans-112"/>
      <use x="197.949219" xlink:href="#DejaVuSans-105"/>
      <use x="225.732422" xlink:href="#DejaVuSans-116"/>
      <use x="264.941406" xlink:href="#DejaVuSans-99"/>
      <use x="319.921875" xlink:href="#DejaVuSans-104"/>
     </g>
    </g>
    <g id="line2d_33">
     <path d="M 182.95375 127.961063 
L 202.95375 127.961063 
" style="fill:none;stroke:#008000;stroke-dasharray:5.55,2.4;stroke-dashoffset:0;stroke-width:1.5;"/>
    </g>
    <g id="line2d_34"/>
    <g id="text_24">
     <!-- gt yaw -->
     <g transform="translate(210.95375 131.461063)scale(0.1 -0.1)">
      <use xlink:href="#DejaVuSans-103"/>
      <use x="63.476562" xlink:href="#DejaVuSans-116"/>
      <use x="102.685547" xlink:href="#DejaVuSans-32"/>
      <use x="134.472656" xlink:href="#DejaVuSans-121"/>
      <use x="193.652344" xlink:href="#DejaVuSans-97"/>
      <use x="254.931641" xlink:href="#DejaVuSans-119"/>
     </g>
    </g>
   </g>
  </g>
 </g>
 <defs>
  <clipPath id="pdf85e3cb64">
   <rect height="266.112" width="357.12" x="57.6" y="41.472"/>
  </clipPath>
 </defs>
</svg>
