<?xml version="1.0" encoding="utf-8" standalone="no"?>
<!DOCTYPE svg PUBLIC "-//W3C//DTD SVG 1.1//EN"
  "http://www.w3.org/Graphics/SVG/1.1/DTD/svg11.dtd">
<!-- Created with matplotlib (https://matplotlib.org/) -->
<svg height="345.6pt" version="1.1" viewBox="0 0 460.8 345.6" width="460.8pt" xmlns="http://www.w3.org/2000/svg" xmlns:xlink="http://www.w3.org/1999/xlink">
 <metadata>
  <rdf:RDF xmlns:cc="http://creativecommons.org/ns#" xmlns:dc="http://purl.org/dc/elements/1.1/" xmlns:rdf="http://www.w3.org/1999/02/22-rdf-syntax-ns#">
   <cc:Work>
    <dc:type rdf:resource="http://purl.org/dc/dcmitype/StillImage"/>
    <dc:date>2023-04-13T14:15:49.451392</dc:date>
    <dc:format>image/svg+xml</dc:format>
    <dc:creator>
     <cc:Agent>
      <dc:title>Matplotlib v3.3.4, https://matplotlib.org/</dc:title>
     </cc:Agent>
    </dc:creator>
   </cc:Work>
  </rdf:RDF>
 </metadata>
 <defs>
  <style type="text/css">*{stroke-linecap:butt;stroke-linejoin:round;}</style>
 </defs>
 <g id="figure_1">
  <g id="patch_1">
   <path d="M 0 345.6 
L 460.8 345.6 
L 460.8 0 
L 0 0 
z
" style="fill:#ffffff;"/>
  </g>
  <g id="axes_1">
   <g id="patch_2">
    <path d="M 57.6 307.584 
L 414.72 307.584 
L 414.72 41.472 
L 57.6 41.472 
z
" style="fill:#ffffff;"/>
   </g>
   <g id="matplotlib.axis_1">
    <g id="xtick_1">
     <g id="line2d_1">
      <defs>
       <path d="M 0 0 
L 0 3.5 
" id="m64b4dc2838" style="stroke:#000000;stroke-width:0.8;"/>
      </defs>
      <g>
       <use style="stroke:#000000;stroke-width:0.8;" x="73.832727" xlink:href="#m64b4dc2838" y="307.584"/>
      </g>
     </g>
     <g id="text_1">
      <!-- 0 -->
      <g transform="translate(70.651477 322.182437)scale(0.1 -0.1)">
       <defs>
        <path d="M 31.78125 66.40625 
Q 24.171875 66.40625 20.328125 58.90625 
Q 16.5 51.421875 16.5 36.375 
Q 16.5 21.390625 20.328125 13.890625 
Q 24.171875 6.390625 31.78125 6.390625 
Q 39.453125 6.390625 43.28125 13.890625 
Q 47.125 21.390625 47.125 36.375 
Q 47.125 51.421875 43.28125 58.90625 
Q 39.453125 66.40625 31.78125 66.40625 
z
M 31.78125 74.21875 
Q 44.046875 74.21875 50.515625 64.515625 
Q 56.984375 54.828125 56.984375 36.375 
Q 56.984375 17.96875 50.515625 8.265625 
Q 44.046875 -1.421875 31.78125 -1.421875 
Q 19.53125 -1.421875 13.0625 8.265625 
Q 6.59375 17.96875 6.59375 36.375 
Q 6.59375 54.828125 13.0625 64.515625 
Q 19.53125 74.21875 31.78125 74.21875 
z
" id="DejaVuSans-48"/>
       </defs>
       <use xlink:href="#DejaVuSans-48"/>
      </g>
     </g>
    </g>
    <g id="xtick_2">
     <g id="line2d_2">
      <g>
       <use style="stroke:#000000;stroke-width:0.8;" x="114.490779" xlink:href="#m64b4dc2838" y="307.584"/>
      </g>
     </g>
     <g id="text_2">
      <!-- 200 -->
      <g transform="translate(104.947029 322.182437)scale(0.1 -0.1)">
       <defs>
        <path d="M 19.1875 8.296875 
L 53.609375 8.296875 
L 53.609375 0 
L 7.328125 0 
L 7.328125 8.296875 
Q 12.9375 14.109375 22.625 23.890625 
Q 32.328125 33.6875 34.8125 36.53125 
Q 39.546875 41.84375 41.421875 45.53125 
Q 43.3125 49.21875 43.3125 52.78125 
Q 43.3125 58.59375 39.234375 62.25 
Q 35.15625 65.921875 28.609375 65.921875 
Q 23.96875 65.921875 18.8125 64.3125 
Q 13.671875 62.703125 7.8125 59.421875 
L 7.8125 69.390625 
Q 13.765625 71.78125 18.9375 73 
Q 24.125 74.21875 28.421875 74.21875 
Q 39.75 74.21875 46.484375 68.546875 
Q 53.21875 62.890625 53.21875 53.421875 
Q 53.21875 48.921875 51.53125 44.890625 
Q 49.859375 40.875 45.40625 35.40625 
Q 44.1875 33.984375 37.640625 27.21875 
Q 31.109375 20.453125 19.1875 8.296875 
z
" id="DejaVuSans-50"/>
       </defs>
       <use xlink:href="#DejaVuSans-50"/>
       <use x="63.623047" xlink:href="#DejaVuSans-48"/>
       <use x="127.246094" xlink:href="#DejaVuSans-48"/>
      </g>
     </g>
    </g>
    <g id="xtick_3">
     <g id="line2d_3">
      <g>
       <use style="stroke:#000000;stroke-width:0.8;" x="155.148831" xlink:href="#m64b4dc2838" y="307.584"/>
      </g>
     </g>
     <g id="text_3">
      <!-- 400 -->
      <g transform="translate(145.605081 322.182437)scale(0.1 -0.1)">
       <defs>
        <path d="M 37.796875 64.3125 
L 12.890625 25.390625 
L 37.796875 25.390625 
z
M 35.203125 72.90625 
L 47.609375 72.90625 
L 47.609375 25.390625 
L 58.015625 25.390625 
L 58.015625 17.1875 
L 47.609375 17.1875 
L 47.609375 0 
L 37.796875 0 
L 37.796875 17.1875 
L 4.890625 17.1875 
L 4.890625 26.703125 
z
" id="DejaVuSans-52"/>
       </defs>
       <use xlink:href="#DejaVuSans-52"/>
       <use x="63.623047" xlink:href="#DejaVuSans-48"/>
       <use x="127.246094" xlink:href="#DejaVuSans-48"/>
      </g>
     </g>
    </g>
    <g id="xtick_4">
     <g id="line2d_4">
      <g>
       <use style="stroke:#000000;stroke-width:0.8;" x="195.806883" xlink:href="#m64b4dc2838" y="307.584"/>
      </g>
     </g>
     <g id="text_4">
      <!-- 600 -->
      <g transform="translate(186.263133 322.182437)scale(0.1 -0.1)">
       <defs>
        <path d="M 33.015625 40.375 
Q 26.375 40.375 22.484375 35.828125 
Q 18.609375 31.296875 18.609375 23.390625 
Q 18.609375 15.53125 22.484375 10.953125 
Q 26.375 6.390625 33.015625 6.390625 
Q 39.65625 6.390625 43.53125 10.953125 
Q 47.40625 15.53125 47.40625 23.390625 
Q 47.40625 31.296875 43.53125 35.828125 
Q 39.65625 40.375 33.015625 40.375 
z
M 52.59375 71.296875 
L 52.59375 62.3125 
Q 48.875 64.0625 45.09375 64.984375 
Q 41.3125 65.921875 37.59375 65.921875 
Q 27.828125 65.921875 22.671875 59.328125 
Q 17.53125 52.734375 16.796875 39.40625 
Q 19.671875 43.65625 24.015625 45.921875 
Q 28.375 48.1875 33.59375 48.1875 
Q 44.578125 48.1875 50.953125 41.515625 
Q 57.328125 34.859375 57.328125 23.390625 
Q 57.328125 12.15625 50.6875 5.359375 
Q 44.046875 -1.421875 33.015625 -1.421875 
Q 20.359375 -1.421875 13.671875 8.265625 
Q 6.984375 17.96875 6.984375 36.375 
Q 6.984375 53.65625 15.1875 63.9375 
Q 23.390625 74.21875 37.203125 74.21875 
Q 40.921875 74.21875 44.703125 73.484375 
Q 48.484375 72.75 52.59375 71.296875 
z
" id="DejaVuSans-54"/>
       </defs>
       <use xlink:href="#DejaVuSans-54"/>
       <use x="63.623047" xlink:href="#DejaVuSans-48"/>
       <use x="127.246094" xlink:href="#DejaVuSans-48"/>
      </g>
     </g>
    </g>
    <g id="xtick_5">
     <g id="line2d_5">
      <g>
       <use style="stroke:#000000;stroke-width:0.8;" x="236.464935" xlink:href="#m64b4dc2838" y="307.584"/>
      </g>
     </g>
     <g id="text_5">
      <!-- 800 -->
      <g transform="translate(226.921185 322.182437)scale(0.1 -0.1)">
       <defs>
        <path d="M 31.78125 34.625 
Q 24.75 34.625 20.71875 30.859375 
Q 16.703125 27.09375 16.703125 20.515625 
Q 16.703125 13.921875 20.71875 10.15625 
Q 24.75 6.390625 31.78125 6.390625 
Q 38.8125 6.390625 42.859375 10.171875 
Q 46.921875 13.96875 46.921875 20.515625 
Q 46.921875 27.09375 42.890625 30.859375 
Q 38.875 34.625 31.78125 34.625 
z
M 21.921875 38.8125 
Q 15.578125 40.375 12.03125 44.71875 
Q 8.5 49.078125 8.5 55.328125 
Q 8.5 64.0625 14.71875 69.140625 
Q 20.953125 74.21875 31.78125 74.21875 
Q 42.671875 74.21875 48.875 69.140625 
Q 55.078125 64.0625 55.078125 55.328125 
Q 55.078125 49.078125 51.53125 44.71875 
Q 48 40.375 41.703125 38.8125 
Q 48.828125 37.15625 52.796875 32.3125 
Q 56.78125 27.484375 56.78125 20.515625 
Q 56.78125 9.90625 50.3125 4.234375 
Q 43.84375 -1.421875 31.78125 -1.421875 
Q 19.734375 -1.421875 13.25 4.234375 
Q 6.78125 9.90625 6.78125 20.515625 
Q 6.78125 27.484375 10.78125 32.3125 
Q 14.796875 37.15625 21.921875 38.8125 
z
M 18.3125 54.390625 
Q 18.3125 48.734375 21.84375 45.5625 
Q 25.390625 42.390625 31.78125 42.390625 
Q 38.140625 42.390625 41.71875 45.5625 
Q 45.3125 48.734375 45.3125 54.390625 
Q 45.3125 60.0625 41.71875 63.234375 
Q 38.140625 66.40625 31.78125 66.40625 
Q 25.390625 66.40625 21.84375 63.234375 
Q 18.3125 60.0625 18.3125 54.390625 
z
" id="DejaVuSans-56"/>
       </defs>
       <use xlink:href="#DejaVuSans-56"/>
       <use x="63.623047" xlink:href="#DejaVuSans-48"/>
       <use x="127.246094" xlink:href="#DejaVuSans-48"/>
      </g>
     </g>
    </g>
    <g id="xtick_6">
     <g id="line2d_6">
      <g>
       <use style="stroke:#000000;stroke-width:0.8;" x="277.122987" xlink:href="#m64b4dc2838" y="307.584"/>
      </g>
     </g>
     <g id="text_6">
      <!-- 1000 -->
      <g transform="translate(264.397987 322.182437)scale(0.1 -0.1)">
       <defs>
        <path d="M 12.40625 8.296875 
L 28.515625 8.296875 
L 28.515625 63.921875 
L 10.984375 60.40625 
L 10.984375 69.390625 
L 28.421875 72.90625 
L 38.28125 72.90625 
L 38.28125 8.296875 
L 54.390625 8.296875 
L 54.390625 0 
L 12.40625 0 
z
" id="DejaVuSans-49"/>
       </defs>
       <use xlink:href="#DejaVuSans-49"/>
       <use x="63.623047" xlink:href="#DejaVuSans-48"/>
       <use x="127.246094" xlink:href="#DejaVuSans-48"/>
       <use x="190.869141" xlink:href="#DejaVuSans-48"/>
      </g>
     </g>
    </g>
    <g id="xtick_7">
     <g id="line2d_7">
      <g>
       <use style="stroke:#000000;stroke-width:0.8;" x="317.781039" xlink:href="#m64b4dc2838" y="307.584"/>
      </g>
     </g>
     <g id="text_7">
      <!-- 1200 -->
      <g transform="translate(305.056039 322.182437)scale(0.1 -0.1)">
       <use xlink:href="#DejaVuSans-49"/>
       <use x="63.623047" xlink:href="#DejaVuSans-50"/>
       <use x="127.246094" xlink:href="#DejaVuSans-48"/>
       <use x="190.869141" xlink:href="#DejaVuSans-48"/>
      </g>
     </g>
    </g>
    <g id="xtick_8">
     <g id="line2d_8">
      <g>
       <use style="stroke:#000000;stroke-width:0.8;" x="358.439091" xlink:href="#m64b4dc2838" y="307.584"/>
      </g>
     </g>
     <g id="text_8">
      <!-- 1400 -->
      <g transform="translate(345.714091 322.182437)scale(0.1 -0.1)">
       <use xlink:href="#DejaVuSans-49"/>
       <use x="63.623047" xlink:href="#DejaVuSans-52"/>
       <use x="127.246094" xlink:href="#DejaVuSans-48"/>
       <use x="190.869141" xlink:href="#DejaVuSans-48"/>
      </g>
     </g>
    </g>
    <g id="xtick_9">
     <g id="line2d_9">
      <g>
       <use style="stroke:#000000;stroke-width:0.8;" x="399.097144" xlink:href="#m64b4dc2838" y="307.584"/>
      </g>
     </g>
     <g id="text_9">
      <!-- 1600 -->
      <g transform="translate(386.372144 322.182437)scale(0.1 -0.1)">
       <use xlink:href="#DejaVuSans-49"/>
       <use x="63.623047" xlink:href="#DejaVuSans-54"/>
       <use x="127.246094" xlink:href="#DejaVuSans-48"/>
       <use x="190.869141" xlink:href="#DejaVuSans-48"/>
      </g>
     </g>
    </g>
    <g id="text_10">
     <!-- time [s] -->
     <g transform="translate(216.768594 335.860562)scale(0.1 -0.1)">
      <defs>
       <path d="M 18.3125 70.21875 
L 18.3125 54.6875 
L 36.8125 54.6875 
L 36.8125 47.703125 
L 18.3125 47.703125 
L 18.3125 18.015625 
Q 18.3125 11.328125 20.140625 9.421875 
Q 21.96875 7.515625 27.59375 7.515625 
L 36.8125 7.515625 
L 36.8125 0 
L 27.59375 0 
Q 17.1875 0 13.234375 3.875 
Q 9.28125 7.765625 9.28125 18.015625 
L 9.28125 47.703125 
L 2.6875 47.703125 
L 2.6875 54.6875 
L 9.28125 54.6875 
L 9.28125 70.21875 
z
" id="DejaVuSans-116"/>
       <path d="M 9.421875 54.6875 
L 18.40625 54.6875 
L 18.40625 0 
L 9.421875 0 
z
M 9.421875 75.984375 
L 18.40625 75.984375 
L 18.40625 64.59375 
L 9.421875 64.59375 
z
" id="DejaVuSans-105"/>
       <path d="M 52 44.1875 
Q 55.375 50.25 60.0625 53.125 
Q 64.75 56 71.09375 56 
Q 79.640625 56 84.28125 50.015625 
Q 88.921875 44.046875 88.921875 33.015625 
L 88.921875 0 
L 79.890625 0 
L 79.890625 32.71875 
Q 79.890625 40.578125 77.09375 44.375 
Q 74.3125 48.1875 68.609375 48.1875 
Q 61.625 48.1875 57.5625 43.546875 
Q 53.515625 38.921875 53.515625 30.90625 
L 53.515625 0 
L 44.484375 0 
L 44.484375 32.71875 
Q 44.484375 40.625 41.703125 44.40625 
Q 38.921875 48.1875 33.109375 48.1875 
Q 26.21875 48.1875 22.15625 43.53125 
Q 18.109375 38.875 18.109375 30.90625 
L 18.109375 0 
L 9.078125 0 
L 9.078125 54.6875 
L 18.109375 54.6875 
L 18.109375 46.1875 
Q 21.1875 51.21875 25.484375 53.609375 
Q 29.78125 56 35.6875 56 
Q 41.65625 56 45.828125 52.96875 
Q 50 49.953125 52 44.1875 
z
" id="DejaVuSans-109"/>
       <path d="M 56.203125 29.59375 
L 56.203125 25.203125 
L 14.890625 25.203125 
Q 15.484375 15.921875 20.484375 11.0625 
Q 25.484375 6.203125 34.421875 6.203125 
Q 39.59375 6.203125 44.453125 7.46875 
Q 49.3125 8.734375 54.109375 11.28125 
L 54.109375 2.78125 
Q 49.265625 0.734375 44.1875 -0.34375 
Q 39.109375 -1.421875 33.890625 -1.421875 
Q 20.796875 -1.421875 13.15625 6.1875 
Q 5.515625 13.8125 5.515625 26.8125 
Q 5.515625 40.234375 12.765625 48.109375 
Q 20.015625 56 32.328125 56 
Q 43.359375 56 49.78125 48.890625 
Q 56.203125 41.796875 56.203125 29.59375 
z
M 47.21875 32.234375 
Q 47.125 39.59375 43.09375 43.984375 
Q 39.0625 48.390625 32.421875 48.390625 
Q 24.90625 48.390625 20.390625 44.140625 
Q 15.875 39.890625 15.1875 32.171875 
z
" id="DejaVuSans-101"/>
       <path id="DejaVuSans-32"/>
       <path d="M 8.59375 75.984375 
L 29.296875 75.984375 
L 29.296875 69 
L 17.578125 69 
L 17.578125 -6.203125 
L 29.296875 -6.203125 
L 29.296875 -13.1875 
L 8.59375 -13.1875 
z
" id="DejaVuSans-91"/>
       <path d="M 44.28125 53.078125 
L 44.28125 44.578125 
Q 40.484375 46.53125 36.375 47.5 
Q 32.28125 48.484375 27.875 48.484375 
Q 21.1875 48.484375 17.84375 46.4375 
Q 14.5 44.390625 14.5 40.28125 
Q 14.5 37.15625 16.890625 35.375 
Q 19.28125 33.59375 26.515625 31.984375 
L 29.59375 31.296875 
Q 39.15625 29.25 43.1875 25.515625 
Q 47.21875 21.78125 47.21875 15.09375 
Q 47.21875 7.46875 41.1875 3.015625 
Q 35.15625 -1.421875 24.609375 -1.421875 
Q 20.21875 -1.421875 15.453125 -0.5625 
Q 10.6875 0.296875 5.421875 2 
L 5.421875 11.28125 
Q 10.40625 8.6875 15.234375 7.390625 
Q 20.0625 6.109375 24.8125 6.109375 
Q 31.15625 6.109375 34.5625 8.28125 
Q 37.984375 10.453125 37.984375 14.40625 
Q 37.984375 18.0625 35.515625 20.015625 
Q 33.0625 21.96875 24.703125 23.78125 
L 21.578125 24.515625 
Q 13.234375 26.265625 9.515625 29.90625 
Q 5.8125 33.546875 5.8125 39.890625 
Q 5.8125 47.609375 11.28125 51.796875 
Q 16.75 56 26.8125 56 
Q 31.78125 56 36.171875 55.265625 
Q 40.578125 54.546875 44.28125 53.078125 
z
" id="DejaVuSans-115"/>
       <path d="M 30.421875 75.984375 
L 30.421875 -13.1875 
L 9.71875 -13.1875 
L 9.71875 -6.203125 
L 21.390625 -6.203125 
L 21.390625 69 
L 9.71875 69 
L 9.71875 75.984375 
z
" id="DejaVuSans-93"/>
      </defs>
      <use xlink:href="#DejaVuSans-116"/>
      <use x="39.208984" xlink:href="#DejaVuSans-105"/>
      <use x="66.992188" xlink:href="#DejaVuSans-109"/>
      <use x="164.404297" xlink:href="#DejaVuSans-101"/>
      <use x="225.927734" xlink:href="#DejaVuSans-32"/>
      <use x="257.714844" xlink:href="#DejaVuSans-91"/>
      <use x="296.728516" xlink:href="#DejaVuSans-115"/>
      <use x="348.828125" xlink:href="#DejaVuSans-93"/>
     </g>
    </g>
   </g>
   <g id="matplotlib.axis_2">
    <g id="ytick_1">
     <g id="line2d_10">
      <defs>
       <path d="M 0 0 
L -3.5 0 
" id="m1a008a24dc" style="stroke:#000000;stroke-width:0.8;"/>
      </defs>
      <g>
       <use style="stroke:#000000;stroke-width:0.8;" x="57.6" xlink:href="#m1a008a24dc" y="275.522307"/>
      </g>
     </g>
     <g id="text_11">
      <!-- −150 -->
      <g transform="translate(23.132812 279.321526)scale(0.1 -0.1)">
       <defs>
        <path d="M 10.59375 35.5 
L 73.1875 35.5 
L 73.1875 27.203125 
L 10.59375 27.203125 
z
" id="DejaVuSans-8722"/>
        <path d="M 10.796875 72.90625 
L 49.515625 72.90625 
L 49.515625 64.59375 
L 19.828125 64.59375 
L 19.828125 46.734375 
Q 21.96875 47.46875 24.109375 47.828125 
Q 26.265625 48.1875 28.421875 48.1875 
Q 40.625 48.1875 47.75 41.5 
Q 54.890625 34.8125 54.890625 23.390625 
Q 54.890625 11.625 47.5625 5.09375 
Q 40.234375 -1.421875 26.90625 -1.421875 
Q 22.3125 -1.421875 17.546875 -0.640625 
Q 12.796875 0.140625 7.71875 1.703125 
L 7.71875 11.625 
Q 12.109375 9.234375 16.796875 8.0625 
Q 21.484375 6.890625 26.703125 6.890625 
Q 35.15625 6.890625 40.078125 11.328125 
Q 45.015625 15.765625 45.015625 23.390625 
Q 45.015625 31 40.078125 35.4375 
Q 35.15625 39.890625 26.703125 39.890625 
Q 22.75 39.890625 18.8125 39.015625 
Q 14.890625 38.140625 10.796875 36.28125 
z
" id="DejaVuSans-53"/>
       </defs>
       <use xlink:href="#DejaVuSans-8722"/>
       <use x="83.789062" xlink:href="#DejaVuSans-49"/>
       <use x="147.412109" xlink:href="#DejaVuSans-53"/>
       <use x="211.035156" xlink:href="#DejaVuSans-48"/>
      </g>
     </g>
    </g>
    <g id="ytick_2">
     <g id="line2d_11">
      <g>
       <use style="stroke:#000000;stroke-width:0.8;" x="57.6" xlink:href="#m1a008a24dc" y="241.8225"/>
      </g>
     </g>
     <g id="text_12">
      <!-- −100 -->
      <g transform="translate(23.132812 245.621718)scale(0.1 -0.1)">
       <use xlink:href="#DejaVuSans-8722"/>
       <use x="83.789062" xlink:href="#DejaVuSans-49"/>
       <use x="147.412109" xlink:href="#DejaVuSans-48"/>
       <use x="211.035156" xlink:href="#DejaVuSans-48"/>
      </g>
     </g>
    </g>
    <g id="ytick_3">
     <g id="line2d_12">
      <g>
       <use style="stroke:#000000;stroke-width:0.8;" x="57.6" xlink:href="#m1a008a24dc" y="208.122692"/>
      </g>
     </g>
     <g id="text_13">
      <!-- −50 -->
      <g transform="translate(29.495313 211.921911)scale(0.1 -0.1)">
       <use xlink:href="#DejaVuSans-8722"/>
       <use x="83.789062" xlink:href="#DejaVuSans-53"/>
       <use x="147.412109" xlink:href="#DejaVuSans-48"/>
      </g>
     </g>
    </g>
    <g id="ytick_4">
     <g id="line2d_13">
      <g>
       <use style="stroke:#000000;stroke-width:0.8;" x="57.6" xlink:href="#m1a008a24dc" y="174.422885"/>
      </g>
     </g>
     <g id="text_14">
      <!-- 0 -->
      <g transform="translate(44.2375 178.222104)scale(0.1 -0.1)">
       <use xlink:href="#DejaVuSans-48"/>
      </g>
     </g>
    </g>
    <g id="ytick_5">
     <g id="line2d_14">
      <g>
       <use style="stroke:#000000;stroke-width:0.8;" x="57.6" xlink:href="#m1a008a24dc" y="140.723078"/>
      </g>
     </g>
     <g id="text_15">
      <!-- 50 -->
      <g transform="translate(37.875 144.522296)scale(0.1 -0.1)">
       <use xlink:href="#DejaVuSans-53"/>
       <use x="63.623047" xlink:href="#DejaVuSans-48"/>
      </g>
     </g>
    </g>
    <g id="ytick_6">
     <g id="line2d_15">
      <g>
       <use style="stroke:#000000;stroke-width:0.8;" x="57.6" xlink:href="#m1a008a24dc" y="107.02327"/>
      </g>
     </g>
     <g id="text_16">
      <!-- 100 -->
      <g transform="translate(31.5125 110.822489)scale(0.1 -0.1)">
       <use xlink:href="#DejaVuSans-49"/>
       <use x="63.623047" xlink:href="#DejaVuSans-48"/>
       <use x="127.246094" xlink:href="#DejaVuSans-48"/>
      </g>
     </g>
    </g>
    <g id="ytick_7">
     <g id="line2d_16">
      <g>
       <use style="stroke:#000000;stroke-width:0.8;" x="57.6" xlink:href="#m1a008a24dc" y="73.323463"/>
      </g>
     </g>
     <g id="text_17">
      <!-- 150 -->
      <g transform="translate(31.5125 77.122682)scale(0.1 -0.1)">
       <use xlink:href="#DejaVuSans-49"/>
       <use x="63.623047" xlink:href="#DejaVuSans-53"/>
       <use x="127.246094" xlink:href="#DejaVuSans-48"/>
      </g>
     </g>
    </g>
    <g id="text_18">
     <!-- orientation [deg] -->
     <g transform="translate(17.053125 216.794406)rotate(-90)scale(0.1 -0.1)">
      <defs>
       <path d="M 30.609375 48.390625 
Q 23.390625 48.390625 19.1875 42.75 
Q 14.984375 37.109375 14.984375 27.296875 
Q 14.984375 17.484375 19.15625 11.84375 
Q 23.34375 6.203125 30.609375 6.203125 
Q 37.796875 6.203125 41.984375 11.859375 
Q 46.1875 17.53125 46.1875 27.296875 
Q 46.1875 37.015625 41.984375 42.703125 
Q 37.796875 48.390625 30.609375 48.390625 
z
M 30.609375 56 
Q 42.328125 56 49.015625 48.375 
Q 55.71875 40.765625 55.71875 27.296875 
Q 55.71875 13.875 49.015625 6.21875 
Q 42.328125 -1.421875 30.609375 -1.421875 
Q 18.84375 -1.421875 12.171875 6.21875 
Q 5.515625 13.875 5.515625 27.296875 
Q 5.515625 40.765625 12.171875 48.375 
Q 18.84375 56 30.609375 56 
z
" id="DejaVuSans-111"/>
       <path d="M 41.109375 46.296875 
Q 39.59375 47.171875 37.8125 47.578125 
Q 36.03125 48 33.890625 48 
Q 26.265625 48 22.1875 43.046875 
Q 18.109375 38.09375 18.109375 28.8125 
L 18.109375 0 
L 9.078125 0 
L 9.078125 54.6875 
L 18.109375 54.6875 
L 18.109375 46.1875 
Q 20.953125 51.171875 25.484375 53.578125 
Q 30.03125 56 36.53125 56 
Q 37.453125 56 38.578125 55.875 
Q 39.703125 55.765625 41.0625 55.515625 
z
" id="DejaVuSans-114"/>
       <path d="M 54.890625 33.015625 
L 54.890625 0 
L 45.90625 0 
L 45.90625 32.71875 
Q 45.90625 40.484375 42.875 44.328125 
Q 39.84375 48.1875 33.796875 48.1875 
Q 26.515625 48.1875 22.3125 43.546875 
Q 18.109375 38.921875 18.109375 30.90625 
L 18.109375 0 
L 9.078125 0 
L 9.078125 54.6875 
L 18.109375 54.6875 
L 18.109375 46.1875 
Q 21.34375 51.125 25.703125 53.5625 
Q 30.078125 56 35.796875 56 
Q 45.21875 56 50.046875 50.171875 
Q 54.890625 44.34375 54.890625 33.015625 
z
" id="DejaVuSans-110"/>
       <path d="M 34.28125 27.484375 
Q 23.390625 27.484375 19.1875 25 
Q 14.984375 22.515625 14.984375 16.5 
Q 14.984375 11.71875 18.140625 8.90625 
Q 21.296875 6.109375 26.703125 6.109375 
Q 34.1875 6.109375 38.703125 11.40625 
Q 43.21875 16.703125 43.21875 25.484375 
L 43.21875 27.484375 
z
M 52.203125 31.203125 
L 52.203125 0 
L 43.21875 0 
L 43.21875 8.296875 
Q 40.140625 3.328125 35.546875 0.953125 
Q 30.953125 -1.421875 24.3125 -1.421875 
Q 15.921875 -1.421875 10.953125 3.296875 
Q 6 8.015625 6 15.921875 
Q 6 25.140625 12.171875 29.828125 
Q 18.359375 34.515625 30.609375 34.515625 
L 43.21875 34.515625 
L 43.21875 35.40625 
Q 43.21875 41.609375 39.140625 45 
Q 35.0625 48.390625 27.6875 48.390625 
Q 23 48.390625 18.546875 47.265625 
Q 14.109375 46.140625 10.015625 43.890625 
L 10.015625 52.203125 
Q 14.9375 54.109375 19.578125 55.046875 
Q 24.21875 56 28.609375 56 
Q 40.484375 56 46.34375 49.84375 
Q 52.203125 43.703125 52.203125 31.203125 
z
" id="DejaVuSans-97"/>
       <path d="M 45.40625 46.390625 
L 45.40625 75.984375 
L 54.390625 75.984375 
L 54.390625 0 
L 45.40625 0 
L 45.40625 8.203125 
Q 42.578125 3.328125 38.25 0.953125 
Q 33.9375 -1.421875 27.875 -1.421875 
Q 17.96875 -1.421875 11.734375 6.484375 
Q 5.515625 14.40625 5.515625 27.296875 
Q 5.515625 40.1875 11.734375 48.09375 
Q 17.96875 56 27.875 56 
Q 33.9375 56 38.25 53.625 
Q 42.578125 51.265625 45.40625 46.390625 
z
M 14.796875 27.296875 
Q 14.796875 17.390625 18.875 11.75 
Q 22.953125 6.109375 30.078125 6.109375 
Q 37.203125 6.109375 41.296875 11.75 
Q 45.40625 17.390625 45.40625 27.296875 
Q 45.40625 37.203125 41.296875 42.84375 
Q 37.203125 48.484375 30.078125 48.484375 
Q 22.953125 48.484375 18.875 42.84375 
Q 14.796875 37.203125 14.796875 27.296875 
z
" id="DejaVuSans-100"/>
       <path d="M 45.40625 27.984375 
Q 45.40625 37.75 41.375 43.109375 
Q 37.359375 48.484375 30.078125 48.484375 
Q 22.859375 48.484375 18.828125 43.109375 
Q 14.796875 37.75 14.796875 27.984375 
Q 14.796875 18.265625 18.828125 12.890625 
Q 22.859375 7.515625 30.078125 7.515625 
Q 37.359375 7.515625 41.375 12.890625 
Q 45.40625 18.265625 45.40625 27.984375 
z
M 54.390625 6.78125 
Q 54.390625 -7.171875 48.1875 -13.984375 
Q 42 -20.796875 29.203125 -20.796875 
Q 24.46875 -20.796875 20.265625 -20.09375 
Q 16.0625 -19.390625 12.109375 -17.921875 
L 12.109375 -9.1875 
Q 16.0625 -11.328125 19.921875 -12.34375 
Q 23.78125 -13.375 27.78125 -13.375 
Q 36.625 -13.375 41.015625 -8.765625 
Q 45.40625 -4.15625 45.40625 5.171875 
L 45.40625 9.625 
Q 42.625 4.78125 38.28125 2.390625 
Q 33.9375 0 27.875 0 
Q 17.828125 0 11.671875 7.65625 
Q 5.515625 15.328125 5.515625 27.984375 
Q 5.515625 40.671875 11.671875 48.328125 
Q 17.828125 56 27.875 56 
Q 33.9375 56 38.28125 53.609375 
Q 42.625 51.21875 45.40625 46.390625 
L 45.40625 54.6875 
L 54.390625 54.6875 
z
" id="DejaVuSans-103"/>
      </defs>
      <use xlink:href="#DejaVuSans-111"/>
      <use x="61.181641" xlink:href="#DejaVuSans-114"/>
      <use x="102.294922" xlink:href="#DejaVuSans-105"/>
      <use x="130.078125" xlink:href="#DejaVuSans-101"/>
      <use x="191.601562" xlink:href="#DejaVuSans-110"/>
      <use x="254.980469" xlink:href="#DejaVuSans-116"/>
      <use x="294.189453" xlink:href="#DejaVuSans-97"/>
      <use x="355.46875" xlink:href="#DejaVuSans-116"/>
      <use x="394.677734" xlink:href="#DejaVuSans-105"/>
      <use x="422.460938" xlink:href="#DejaVuSans-111"/>
      <use x="483.642578" xlink:href="#DejaVuSans-110"/>
      <use x="547.021484" xlink:href="#DejaVuSans-32"/>
      <use x="578.808594" xlink:href="#DejaVuSans-91"/>
      <use x="617.822266" xlink:href="#DejaVuSans-100"/>
      <use x="681.298828" xlink:href="#DejaVuSans-101"/>
      <use x="742.822266" xlink:href="#DejaVuSans-103"/>
      <use x="806.298828" xlink:href="#DejaVuSans-93"/>
     </g>
    </g>
   </g>
   <g id="line2d_17">
    <path clip-path="url(#pcfad7d84c2)" d="M 73.832727 174.422885 
L 74.036018 174.059733 
L 74.442598 174.145851 
L 78.305113 174.050183 
L 80.134725 174.074972 
L 81.557757 174.485806 
L 82.574208 174.940152 
L 83.59066 175.017715 
L 84.200531 175.026128 
L 84.607111 175.055163 
L 85.216982 174.783998 
L 85.826853 174.495351 
L 86.030143 202.678893 
L 86.233433 177.56533 
L 86.436723 197.758456 
L 86.640014 200.559434 
L 86.843304 188.20071 
L 87.046594 187.217005 
L 87.453175 209.027791 
L 87.656465 167.326176 
L 87.859755 163.020016 
L 88.063045 171.693798 
L 88.266336 172.468288 
L 88.672916 172.822229 
L 90.705819 174.147767 
L 91.31569 174.213605 
L 91.92556 174.190859 
L 94.365044 174.21615 
L 94.771624 174.154298 
L 97.414397 174.221436 
L 98.634139 174.221323 
L 101.480203 174.398002 
L 104.122976 174.312744 
L 105.342718 174.206128 
L 107.57891 173.809578 
L 110.221684 173.760014 
L 115.710521 173.701262 
L 131.363871 173.631567 
L 132.786903 173.917694 
L 133.803354 174.052199 
L 137.055998 174.07271 
L 139.495481 174.071969 
L 139.902062 174.255479 
L 140.105352 173.821977 
L 141.121803 174.021659 
L 141.731674 173.850538 
L 143.764577 174.57489 
L 146.61064 174.73552 
L 148.643543 174.768759 
L 148.846833 174.43661 
L 149.659994 174.665533 
L 150.269865 174.678228 
L 150.879736 174.76077 
L 151.692897 174.746136 
L 152.302768 174.837491 
L 153.115929 174.851743 
L 153.319219 174.93963 
L 153.522509 174.851307 
L 153.92909 174.917779 
L 154.33567 174.880164 
L 157.181734 175.031712 
L 157.791605 175.059899 
L 158.401475 175.170085 
L 159.011346 175.071067 
L 159.621217 175.099718 
L 160.027798 175.046796 
L 165.516635 174.732637 
L 166.533086 174.723005 
L 168.362698 174.826889 
L 169.37915 174.803624 
L 169.98902 174.8391 
L 170.395601 174.824187 
L 171.412052 174.858009 
L 176.087728 174.595062 
L 176.291018 174.724891 
L 177.71405 174.731796 
L 178.120631 174.837888 
L 178.730502 174.790091 
L 181.576565 174.750203 
L 182.186436 174.674643 
L 182.389726 174.710101 
L 182.796307 174.597891 
L 184.422629 174.311392 
L 184.625919 174.402872 
L 185.0325 174.308138 
L 185.64237 174.34079 
L 185.845661 174.205413 
L 186.048951 174.31097 
L 186.252241 170.99486 
L 186.455531 171.015436 
L 186.658822 166.863247 
L 186.862112 173.787002 
L 187.268692 174.501802 
L 188.081853 174.650849 
L 188.488434 174.600139 
L 188.691724 174.968091 
L 189.301595 174.709263 
L 190.318046 174.552608 
L 192.350949 174.519593 
L 196.416754 174.631735 
L 210.850363 174.819485 
L 233.009001 175.053508 
L 234.635323 175.238705 
L 235.448484 175.223992 
L 235.651774 175.287187 
L 236.464935 175.043816 
L 238.091257 175.112277 
L 239.92087 175.428261 
L 240.937321 175.124086 
L 241.953772 174.587973 
L 242.970224 174.442904 
L 245.003126 174.394086 
L 246.222868 174.38552 
L 246.426158 174.286326 
L 246.832739 174.38466 
L 247.239319 174.377312 
L 247.442609 107.588741 
L 247.6459 179.11232 
L 247.84919 173.301746 
L 248.05248 174.277779 
L 248.459061 174.401691 
L 248.662351 174.269176 
L 249.068932 174.339525 
L 249.272222 174.934969 
L 249.475512 174.325274 
L 250.898544 174.336979 
L 253.744608 174.392757 
L 259.233445 174.257237 
L 259.436735 142.510441 
L 259.640025 172.87787 
L 259.843315 173.883251 
L 260.859767 174.346255 
L 261.672928 174.407928 
L 262.079508 174.527119 
L 262.486089 174.523098 
L 265.942023 174.381261 
L 266.145313 174.688839 
L 266.348604 179.039711 
L 266.551894 175.148208 
L 267.365055 174.371011 
L 268.178216 174.280352 
L 269.194667 174.249908 
L 269.397958 177.621197 
L 269.601248 174.481184 
L 270.211119 174.219284 
L 271.63415 174.263936 
L 271.837441 174.38241 
L 272.244021 174.304616 
L 272.650602 174.387178 
L 273.057182 174.286387 
L 273.260472 174.609014 
L 273.463763 174.313765 
L 273.667053 174.387157 
L 273.870343 174.337002 
L 274.073634 174.482971 
L 274.276924 173.56471 
L 274.480214 175.59758 
L 274.683504 174.323282 
L 275.293375 174.256126 
L 275.496665 173.698419 
L 276.106536 174.470654 
L 276.716407 174.428984 
L 277.936148 174.227641 
L 278.139439 169.888001 
L 278.9526 173.623232 
L 279.15589 172.000446 
L 279.562471 173.630478 
L 279.765761 173.828833 
L 280.375632 174.9023 
L 280.578922 175.076669 
L 280.782212 171.910309 
L 280.985502 237.711366 
L 281.188793 179.020735 
L 281.392083 179.79979 
L 281.595373 175.276087 
L 282.001954 174.630071 
L 282.408534 174.601875 
L 283.018405 174.983388 
L 283.628276 175.349424 
L 284.644727 175.558796 
L 286.474339 175.53377 
L 289.523693 175.409082 
L 290.946725 175.223999 
L 292.573047 174.843035 
L 293.182918 174.429063 
L 294.199369 174.228101 
L 295.419111 174.16052 
L 297.248723 174.146197 
L 300.094787 174.140213 
L 300.298077 173.995211 
L 300.704658 174.05483 
L 306.396785 173.934294 
L 307.819817 174.009086 
L 308.632978 173.980322 
L 308.836268 173.855439 
L 309.242849 173.866535 
L 312.292202 173.936109 
L 313.715234 173.966755 
L 317.98433 174.249735 
L 321.236974 174.646136 
L 326.11594 174.697993 
L 329.978455 174.553904 
L 333.434389 173.986273 
L 334.654131 173.928189 
L 340.346258 173.748249 
L 340.956129 173.673614 
L 344.005483 173.979555 
L 344.615354 174.300548 
L 345.225225 174.395862 
L 345.428515 174.370444 
L 345.835095 174.114438 
L 346.648256 173.995722 
L 347.867998 173.82821 
L 351.323932 173.561903 
L 354.576577 172.077949 
L 355.186447 171.990331 
L 355.999608 172.143212 
L 357.01606 173.006404 
L 358.642382 174.170879 
L 358.845672 173.053315 
L 359.658833 173.761501 
L 360.471994 174.956901 
L 361.285155 175.526139 
L 361.691736 175.58187 
L 361.895026 175.45126 
L 362.098316 175.547685 
L 362.708187 175.546212 
L 362.911477 175.667976 
L 363.318058 176.552173 
L 363.521348 175.593191 
L 363.724638 175.811087 
L 364.334509 175.458499 
L 364.74109 175.304253 
L 366.367412 174.451064 
L 366.773992 174.502524 
L 366.977282 132.35504 
L 367.180573 172.737638 
L 367.383863 159.51903 
L 367.587153 157.610974 
L 367.993734 125.317017 
L 368.197024 61.554889 
L 368.400314 176.583347 
L 368.806895 175.072894 
L 369.213475 174.42596 
L 370.433217 174.520654 
L 371.449668 174.467672 
L 376.938505 174.458196 
L 377.954956 174.564074 
L 381.614181 174.577171 
L 382.224052 174.400855 
L 383.037213 174.219812 
L 383.240503 174.224166 
L 383.850374 174.879275 
L 384.256955 175.232534 
L 384.866825 175.356065 
L 386.696438 174.404707 
L 386.899728 174.392991 
L 387.103018 174.607543 
L 387.306308 174.381746 
L 387.509599 173.349039 
L 387.712889 173.729403 
L 387.916179 173.831889 
L 388.119469 175.761307 
L 388.32276 175.814106 
L 388.932631 175.031826 
L 389.339211 174.813968 
L 391.778694 174.401004 
L 392.591855 174.343871 
L 393.201726 174.282511 
L 396.860951 174.233856 
L 398.283982 173.966687 
L 398.487273 173.949298 
L 398.487273 173.949298 
" style="fill:none;stroke:#ff0000;stroke-linecap:square;stroke-width:1.5;"/>
   </g>
   <g id="line2d_18">
    <path clip-path="url(#pcfad7d84c2)" d="M 73.832727 174.422885 
L 74.036018 175.711586 
L 74.239308 175.447905 
L 75.052469 175.503744 
L 78.305113 175.49618 
L 81.964338 175.385646 
L 82.167628 175.313194 
L 82.370918 175.064498 
L 83.99724 174.871626 
L 85.216982 174.998797 
L 85.826853 174.829334 
L 86.030143 160.347276 
L 86.233433 174.227396 
L 86.436723 171.421113 
L 86.640014 134.808709 
L 86.843304 160.261176 
L 87.046594 155.043087 
L 87.249884 138.637267 
L 87.453175 137.144363 
L 87.656465 120.490508 
L 87.859755 160.390228 
L 88.063045 170.513364 
L 88.266336 172.09296 
L 88.672916 173.059818 
L 89.486077 173.9766 
L 91.112399 174.712914 
L 91.92556 174.721566 
L 94.161753 174.657629 
L 95.788075 174.678981 
L 96.397946 174.673748 
L 97.617688 174.685044 
L 99.24401 174.622923 
L 101.683493 174.470486 
L 105.139427 174.433246 
L 107.57891 174.061228 
L 116.320392 174.114279 
L 121.199358 174.259313 
L 126.281614 174.301414 
L 130.95729 174.33857 
L 135.226386 174.813598 
L 138.68232 174.985436 
L 139.902062 175.338491 
L 140.308642 168.787412 
L 140.918513 171.822859 
L 141.528384 173.381553 
L 142.138255 174.147718 
L 142.544835 174.386559 
L 143.561287 174.502526 
L 143.967867 174.577339 
L 144.577738 174.622167 
L 145.797479 174.747859 
L 147.830382 174.760162 
L 148.643543 174.767492 
L 148.846833 174.481074 
L 150.879736 174.760475 
L 151.692897 174.739382 
L 152.302768 174.822551 
L 153.115929 174.841382 
L 153.319219 174.930897 
L 153.522509 174.846433 
L 153.92909 174.913539 
L 154.33567 174.866845 
L 159.621217 175.080673 
L 160.231088 175.037574 
L 162.467281 175.046623 
L 168.972569 174.787769 
L 169.98902 174.827907 
L 170.395601 174.81012 
L 171.412052 174.802425 
L 175.071277 174.517646 
L 175.477857 174.604254 
L 177.71405 174.741958 
L 178.120631 174.8497 
L 178.730502 174.797093 
L 180.763404 174.708584 
L 184.219339 174.410636 
L 186.048951 174.419764 
L 186.252241 177.188225 
L 186.455531 174.567086 
L 186.658822 164.836465 
L 186.862112 174.458905 
L 187.065402 174.014163 
L 187.471983 174.230707 
L 188.285144 174.326486 
L 188.691724 175.245285 
L 189.301595 174.634911 
L 191.131207 173.623887 
L 191.944368 173.268873 
L 193.16411 173.095818 
L 196.416754 173.079144 
L 198.652947 173.123509 
L 201.702301 173.057363 
L 229.959647 173.183913 
L 231.99255 173.322768 
L 234.228743 173.485495 
L 234.635323 173.564051 
L 235.041904 173.883232 
L 235.651774 174.277729 
L 237.481387 174.410179 
L 239.310999 174.233885 
L 240.937321 173.681721 
L 241.750482 173.92847 
L 242.157063 174.04287 
L 243.173514 174.038468 
L 243.376804 174.08668 
L 243.580094 173.988189 
L 244.189965 174.290999 
L 246.222868 174.06998 
L 246.426158 173.764876 
L 246.629448 174.082271 
L 247.239319 174.060426 
L 247.442609 235.082538 
L 247.6459 179.348454 
L 247.84919 174.124966 
L 248.05248 174.543277 
L 248.459061 174.357607 
L 248.662351 173.978522 
L 249.068932 173.7217 
L 249.272222 173.356501 
L 249.475512 174.05384 
L 250.898544 173.917376 
L 251.101834 174.043764 
L 251.711705 173.985454 
L 253.134737 174.044825 
L 254.761059 174.165256 
L 255.167639 174.16509 
L 255.57422 174.203649 
L 256.184091 174.049725 
L 257.403832 174.168455 
L 258.013703 174.183236 
L 259.030154 174.126518 
L 259.233445 174.175534 
L 259.436735 180.9351 
L 259.640025 174.724608 
L 259.843315 174.117793 
L 260.249896 174.158438 
L 261.063057 174.051236 
L 261.672928 174.081296 
L 262.282798 174.096313 
L 262.689379 174.061816 
L 263.095959 174.081289 
L 264.925572 174.04132 
L 265.535443 173.853194 
L 266.145313 173.94044 
L 266.348604 170.309565 
L 266.551894 173.377956 
L 266.755184 173.844619 
L 268.381506 173.816487 
L 268.788087 173.672805 
L 269.194667 173.643926 
L 269.397958 171.967418 
L 269.601248 174.73457 
L 269.804538 173.914671 
L 270.007828 174.155057 
L 270.211119 173.803779 
L 271.22757 173.676889 
L 271.43086 173.677137 
L 271.63415 173.859573 
L 271.837441 174.211728 
L 272.244021 173.989959 
L 272.447311 174.304416 
L 272.650602 174.288002 
L 272.853892 173.926138 
L 273.057182 173.887894 
L 273.260472 174.816052 
L 273.463763 174.095259 
L 273.667053 174.270217 
L 273.870343 174.137515 
L 274.073634 174.689187 
L 274.276924 169.036735 
L 274.480214 176.598948 
L 274.683504 174.126617 
L 275.090085 174.106053 
L 275.293375 174.001719 
L 275.496665 172.854694 
L 275.903246 173.545429 
L 276.106536 174.809897 
L 277.122987 174.192678 
L 277.529568 174.089001 
L 277.732858 173.948857 
L 277.936148 174.7142 
L 278.139439 155.370909 
L 278.342729 169.990918 
L 278.546019 171.129455 
L 278.74931 171.444602 
L 279.15589 171.767107 
L 279.35918 171.27461 
L 279.969051 172.555737 
L 280.172341 172.630434 
L 280.578922 172.965626 
L 280.782212 170.750689 
L 280.985502 235.082538 
L 281.188793 173.581298 
L 281.392083 183.244896 
L 281.595373 176.562162 
L 282.001954 174.944897 
L 282.408534 174.365885 
L 283.018405 173.862392 
L 283.628276 173.572589 
L 284.644727 173.407316 
L 286.67763 173.389699 
L 292.369757 173.540227 
L 293.996079 173.78181 
L 296.028982 173.87864 
L 297.045433 173.836382 
L 299.281626 173.639485 
L 299.484916 173.703924 
L 299.688206 173.970072 
L 300.094787 173.837542 
L 300.298077 173.590286 
L 300.501367 173.717831 
L 301.721109 173.426409 
L 304.770463 173.280284 
L 308.632978 173.500523 
L 308.836268 173.192364 
L 309.242849 173.258337 
L 309.649429 173.330162 
L 310.05601 173.398912 
L 310.46259 173.34891 
L 311.682332 173.554832 
L 313.105363 173.408843 
L 315.951427 173.563096 
L 317.98433 173.421945 
L 320.423813 173.285128 
L 324.692908 173.436379 
L 327.335682 173.518091 
L 333.434389 173.565847 
L 334.04426 173.628907 
L 336.483743 173.51247 
L 339.939678 173.558074 
L 340.142968 173.66153 
L 340.956129 173.627515 
L 341.566 173.877079 
L 343.192322 174.427228 
L 344.208773 174.543732 
L 345.225225 174.439556 
L 345.631805 174.558417 
L 346.444966 174.729799 
L 347.258127 174.78507 
L 351.933803 175.210779 
L 354.983157 175.542011 
L 356.202899 175.231032 
L 358.642382 174.480317 
L 358.845672 174.708944 
L 362.098316 174.025507 
L 362.708187 173.865661 
L 362.911477 173.747606 
L 363.318058 173.133157 
L 363.521348 173.611388 
L 363.927929 173.29672 
L 364.131219 173.187003 
L 364.537799 173.205454 
L 364.94438 173.166832 
L 365.757541 173.48403 
L 366.570702 174.166754 
L 366.773992 174.511898 
L 366.977282 145.400173 
L 367.180573 173.177699 
L 367.383863 161.910119 
L 367.587153 161.475552 
L 367.790443 151.839918 
L 367.993734 151.061983 
L 368.197024 235.082538 
L 368.400314 176.333851 
L 368.603604 175.602408 
L 368.806895 175.810165 
L 369.010185 175.755749 
L 369.823346 175.046571 
L 370.433217 174.871928 
L 374.702312 174.567259 
L 379.581279 174.761868 
L 381.00431 174.95561 
L 381.614181 174.902604 
L 382.833923 174.134403 
L 383.240503 174.128513 
L 384.256955 175.316544 
L 384.866825 175.290247 
L 385.679986 174.83243 
L 386.899728 174.398564 
L 387.103018 174.7631 
L 387.306308 174.375513 
L 387.509599 173.729192 
L 387.916179 173.964397 
L 388.119469 175.324002 
L 388.32276 175.433737 
L 388.932631 174.901108 
L 389.339211 174.722724 
L 391.981984 174.415826 
L 396.04779 174.422343 
L 397.064241 174.670342 
L 398.080692 174.945596 
L 398.487273 175.012775 
L 398.487273 175.012775 
" style="fill:none;stroke:#0000ff;stroke-linecap:square;stroke-width:1.5;"/>
   </g>
   <g id="line2d_19">
    <path clip-path="url(#pcfad7d84c2)" d="M 73.832727 174.422885 
L 74.036018 264.417795 
L 74.239308 261.108584 
L 74.442598 261.503874 
L 79.321564 261.501252 
L 81.354467 261.311135 
L 81.964338 261.1605 
L 82.370918 260.95004 
L 83.184079 260.022447 
L 83.59066 259.963888 
L 83.79395 260.104655 
L 83.99724 260.482025 
L 84.200531 261.188412 
L 84.403821 262.34891 
L 84.810401 266.899319 
L 85.420272 278.543144 
L 85.826853 289.088793 
L 86.030143 136.684837 
L 86.233433 183.292062 
L 86.436723 275.430581 
L 86.640014 217.788957 
L 87.046594 197.742066 
L 87.453175 203.713093 
L 87.656465 112.961854 
L 87.859755 82.607818 
L 88.063045 83.33629 
L 88.469626 81.459733 
L 89.486077 77.905209 
L 90.095948 75.937995 
L 90.299238 75.649807 
L 90.502529 75.55986 
L 90.705819 75.628631 
L 90.909109 75.856008 
L 91.31569 76.738458 
L 92.332141 79.410038 
L 92.738721 79.71245 
L 93.348592 79.918055 
L 94.161753 80.037693 
L 94.974914 79.81009 
L 96.194656 79.676825 
L 96.804527 79.423048 
L 97.211107 79.636891 
L 97.617688 79.721531 
L 98.227558 79.903924 
L 98.634139 79.953032 
L 99.04072 79.864587 
L 99.853881 79.839369 
L 100.260461 79.712841 
L 100.667042 79.689454 
L 103.513105 79.804413 
L 103.716396 79.865841 
L 103.919686 79.77322 
L 104.326266 79.796401 
L 104.529557 79.659115 
L 104.732847 79.750296 
L 104.936137 79.604608 
L 105.342718 79.736032 
L 106.96904 79.66361 
L 107.17233 79.588081 
L 107.57891 79.779854 
L 107.782201 79.737914 
L 107.985491 79.813113 
L 108.188781 79.729985 
L 108.392071 79.829034 
L 108.798652 79.676259 
L 109.205233 79.87665 
L 111.644716 80.018677 
L 112.051296 79.935816 
L 118.353294 79.99275 
L 120.386197 80.452554 
L 129.534259 81.846137 
L 131.160581 81.89977 
L 132.786903 81.821094 
L 133.193483 81.510795 
L 135.226386 78.626318 
L 135.632966 78.434299 
L 137.259288 78.16455 
L 137.869159 77.534592 
L 138.072449 77.187484 
L 138.47903 75.716892 
L 138.885611 72.292383 
L 139.292191 66.02358 
L 139.902062 54.088872 
L 140.105352 218.003473 
L 140.308642 286.136738 
L 140.511933 285.464563 
L 141.121803 274.762899 
L 141.731674 266.744797 
L 142.138255 263.769335 
L 142.544835 262.39233 
L 142.951416 262.004826 
L 143.357996 261.974898 
L 143.967867 262.391528 
L 144.374448 262.972368 
L 144.781028 263.665041 
L 145.187609 263.93373 
L 146.61064 264.39774 
L 147.017221 264.617178 
L 147.423801 264.54493 
L 148.033672 265.134162 
L 148.236962 265.13046 
L 148.440253 265.356068 
L 148.643543 265.321657 
L 148.846833 265.645244 
L 149.050124 265.330655 
L 149.253414 265.449193 
L 149.456704 265.323991 
L 149.659994 265.512812 
L 149.863285 265.162455 
L 150.066575 265.328671 
L 150.269865 265.22268 
L 150.879736 265.389503 
L 151.692897 264.965447 
L 152.506058 264.587044 
L 153.115929 264.900193 
L 153.7258 265.189019 
L 153.92909 265.197679 
L 155.148831 263.826248 
L 155.758702 263.303504 
L 156.165283 263.194017 
L 156.775153 263.327703 
L 156.978444 263.40244 
L 157.791605 264.348416 
L 158.198185 264.83064 
L 158.808056 264.886443 
L 159.011346 264.797247 
L 159.214637 264.977388 
L 159.417927 264.736343 
L 160.027798 265.169088 
L 160.637668 265.60606 
L 161.044249 265.435278 
L 161.65412 265.104214 
L 162.0607 265.157487 
L 162.873861 265.668425 
L 163.483732 266.332198 
L 163.890313 267.38757 
L 164.906764 270.263448 
L 165.313344 270.523118 
L 165.516635 270.492255 
L 166.126505 269.752254 
L 167.346247 267.768646 
L 168.362698 265.186592 
L 168.769279 264.658315 
L 169.37915 264.631267 
L 169.98902 264.821867 
L 170.192311 264.808539 
L 170.598891 264.399437 
L 171.208762 263.227554 
L 171.615342 262.405988 
L 171.818633 262.158649 
L 172.428503 262.310323 
L 172.835084 262.607808 
L 173.241664 263.479501 
L 173.851535 264.792989 
L 174.664696 265.567011 
L 174.867987 265.651692 
L 175.477857 266.296111 
L 175.681148 266.431916 
L 176.291018 266.153508 
L 177.104179 265.921287 
L 177.71405 266.000034 
L 178.730502 265.745064 
L 179.137082 265.545136 
L 179.543663 265.446653 
L 180.153533 264.857678 
L 180.356824 264.548386 
L 180.966694 262.201452 
L 181.576565 258.603827 
L 182.186436 253.738402 
L 182.999597 246.769927 
L 184.422629 236.134202 
L 184.829209 234.363049 
L 185.43908 233.158493 
L 185.845661 232.367918 
L 186.048951 230.856672 
L 186.252241 266.003767 
L 186.455531 237.19562 
L 186.658822 249.226929 
L 187.065402 230.890538 
L 187.268692 232.269492 
L 187.675273 232.387145 
L 188.081853 232.24195 
L 188.285144 232.297409 
L 188.488434 222.579717 
L 188.691724 231.967394 
L 188.895015 232.179195 
L 189.504885 232.134767 
L 190.318046 232.160832 
L 195.806883 232.233049 
L 198.246366 232.278953 
L 203.531913 232.342387 
L 206.174687 232.337091 
L 212.476685 232.344527 
L 214.103007 232.372701 
L 224.877391 232.282147 
L 228.536615 232.208506 
L 229.959647 232.299029 
L 230.569518 232.194298 
L 233.618872 232.350882 
L 234.025452 233.00686 
L 234.432033 234.113499 
L 235.041904 235.39525 
L 235.448484 235.314805 
L 236.058355 235.400222 
L 236.464935 235.228052 
L 237.278096 234.627357 
L 238.701128 231.283545 
L 239.107709 228.471172 
L 239.514289 223.913522 
L 242.360353 183.046096 
L 242.970224 176.578447 
L 243.376804 173.722901 
L 243.580094 173.03248 
L 243.783385 173.232378 
L 244.189965 171.277028 
L 244.393256 171.216895 
L 245.003126 170.717547 
L 245.612997 170.647666 
L 246.222868 170.290737 
L 246.426158 169.530488 
L 246.832739 169.93072 
L 247.239319 169.528886 
L 247.442609 75.907749 
L 247.6459 162.135834 
L 247.84919 154.935546 
L 248.05248 153.068951 
L 248.25577 159.875781 
L 248.865641 165.485546 
L 249.068932 167.371633 
L 249.272222 145.651181 
L 249.475512 164.949247 
L 249.678802 166.876129 
L 249.882093 165.66046 
L 250.085383 165.990101 
L 250.491963 168.053958 
L 250.695254 168.296148 
L 251.101834 167.704555 
L 251.305124 168.471369 
L 251.508415 168.245773 
L 252.321576 170.194314 
L 252.524866 170.019232 
L 252.931446 170.265703 
L 253.134737 170.718038 
L 253.541317 170.347794 
L 253.744608 170.225616 
L 254.151188 169.665141 
L 254.557769 169.604651 
L 254.761059 169.825312 
L 255.57422 171.250899 
L 255.77751 171.165479 
L 256.184091 171.187099 
L 256.590671 171.057215 
L 256.793961 170.838671 
L 256.997252 171.292137 
L 257.403832 170.610374 
L 257.810413 168.67551 
L 258.013703 169.734493 
L 258.216993 168.815259 
L 258.623574 168.483928 
L 258.826864 168.788418 
L 259.030154 169.958458 
L 259.233445 160.722443 
L 259.436735 133.418168 
L 259.640025 133.274701 
L 259.843315 164.814826 
L 260.046606 171.043994 
L 260.249896 171.150782 
L 260.453186 171.852971 
L 260.859767 170.834777 
L 261.063057 170.928211 
L 261.266347 172.952547 
L 261.469637 168.685046 
L 261.672928 171.177677 
L 261.876218 177.048282 
L 262.079508 172.121136 
L 262.282798 174.346395 
L 262.486089 169.841115 
L 262.689379 172.213251 
L 262.892669 172.060895 
L 263.095959 173.266162 
L 263.29925 173.608125 
L 263.50254 170.810627 
L 263.70583 170.326097 
L 263.909121 171.277272 
L 264.112411 170.382284 
L 264.315701 170.282949 
L 264.518991 170.877494 
L 265.128862 176.107208 
L 265.332152 174.238974 
L 265.535443 170.719216 
L 265.738733 172.452928 
L 265.942023 170.656128 
L 266.145313 183.624832 
L 266.551894 169.185695 
L 266.755184 170.678184 
L 266.958474 175.366023 
L 267.161765 169.529884 
L 267.365055 167.254086 
L 267.568345 166.826846 
L 267.771635 168.114729 
L 267.974926 167.270377 
L 268.178216 165.903528 
L 268.381506 165.762993 
L 268.584796 166.409848 
L 268.788087 165.724091 
L 268.991377 165.664404 
L 269.194667 166.104498 
L 269.397958 136.873925 
L 269.601248 164.962561 
L 269.804538 166.719283 
L 270.007828 166.152232 
L 270.211119 163.180647 
L 270.414409 163.455408 
L 270.617699 163.428134 
L 270.820989 163.919144 
L 271.02428 163.555065 
L 271.22757 164.080584 
L 271.43086 163.629101 
L 271.837441 164.467836 
L 272.040731 164.168926 
L 272.244021 164.212098 
L 272.447311 163.882998 
L 272.650602 163.803822 
L 272.853892 163.436491 
L 273.260472 164.736913 
L 273.463763 162.454657 
L 273.667053 162.84496 
L 273.870343 159.2925 
L 274.073634 160.342827 
L 274.276924 107.23446 
L 274.480214 163.686572 
L 274.683504 159.264424 
L 274.886795 159.806214 
L 275.090085 156.817597 
L 275.496665 159.226228 
L 275.903246 162.085447 
L 276.106536 161.169901 
L 276.309826 161.693546 
L 276.513117 162.678426 
L 276.716407 162.376551 
L 276.919697 161.411318 
L 277.122987 162.436792 
L 277.326278 160.943571 
L 277.529568 157.634621 
L 277.936148 161.067507 
L 278.139439 166.424341 
L 278.342729 159.568873 
L 278.546019 162.381993 
L 278.74931 162.034088 
L 278.9526 162.219774 
L 279.15589 159.299855 
L 279.35918 160.343189 
L 279.562471 163.66086 
L 279.765761 160.587916 
L 280.375632 160.572325 
L 280.578922 160.766752 
L 280.782212 151.939813 
L 280.985502 154.230531 
L 281.188793 168.25759 
L 281.392083 145.889194 
L 281.595373 157.801459 
L 281.798663 160.188462 
L 282.001954 160.086832 
L 282.205244 160.172731 
L 282.611824 160.097387 
L 283.221695 160.099516 
L 284.034856 160.189139 
L 284.238147 160.127952 
L 284.644727 160.300763 
L 286.067759 160.475453 
L 286.88092 160.153458 
L 287.08421 160.267889 
L 287.694081 159.975124 
L 288.100661 160.029479 
L 288.710532 159.866977 
L 289.930274 159.60564 
L 290.133564 159.606137 
L 290.946725 160.05764 
L 292.166467 160.138552 
L 292.979628 160.298872 
L 293.386208 160.448246 
L 294.199369 159.768731 
L 294.80924 159.56306 
L 295.01253 159.392534 
L 295.825691 158.072916 
L 296.028982 157.990757 
L 296.435562 158.068571 
L 296.638852 158.020233 
L 296.842143 158.122025 
L 297.452013 158.05819 
L 298.061884 158.035846 
L 298.265174 157.933446 
L 298.468465 157.993013 
L 298.671755 157.826542 
L 299.078336 157.814758 
L 299.281626 157.727806 
L 299.688206 156.981922 
L 299.891497 157.160181 
L 300.094787 157.042018 
L 300.298077 156.275465 
L 300.501367 156.617974 
L 300.907948 157.937619 
L 301.721109 158.208058 
L 302.127689 158.096956 
L 302.73756 157.683262 
L 303.347431 157.499145 
L 303.957302 157.819424 
L 304.160592 157.609009 
L 304.770463 157.855591 
L 304.973753 157.710873 
L 305.380334 157.929421 
L 305.583624 157.695012 
L 305.786914 157.763899 
L 306.193495 157.585567 
L 307.006656 157.781013 
L 307.616526 157.478401 
L 307.819817 157.555907 
L 308.023107 157.175342 
L 308.226397 157.067604 
L 308.632978 157.156835 
L 309.039558 158.493753 
L 309.242849 157.50634 
L 309.649429 158.002492 
L 309.852719 157.726483 
L 310.2593 157.706701 
L 311.072461 157.334443 
L 312.088912 157.005144 
L 313.715234 157.093355 
L 316.154717 157.482652 
L 317.374459 157.409618 
L 330.181745 156.812567 
L 330.994906 156.618822 
L 334.04426 155.233252 
L 334.247551 154.957067 
L 334.450841 154.908143 
L 334.857421 154.384242 
L 335.670582 153.485511 
L 336.280453 153.267612 
L 338.516646 152.007111 
L 339.329807 150.68762 
L 339.736388 149.568048 
L 341.36271 143.444578 
L 341.76929 139.411795 
L 342.175871 132.38019 
L 343.192322 113.462959 
L 344.005483 101.081885 
L 344.615354 95.562842 
L 345.021934 93.199613 
L 345.428515 91.907377 
L 345.835095 91.309002 
L 346.241676 91.049687 
L 346.851547 90.511949 
L 347.054837 90.494115 
L 347.258127 90.61762 
L 348.071288 91.55357 
L 348.477869 91.632888 
L 349.08774 91.165448 
L 349.49432 90.813584 
L 349.69761 90.91543 
L 350.104191 90.805932 
L 350.307481 90.935474 
L 351.120642 90.776606 
L 352.543674 92.087549 
L 354.169996 95.693063 
L 354.779867 96.699377 
L 355.593028 98.4973 
L 355.999608 99.154831 
L 357.42264 101.668993 
L 357.62593 101.819623 
L 358.032511 103.372748 
L 358.439091 104.942286 
L 358.642382 105.258401 
L 358.845672 105.018884 
L 359.048962 107.60715 
L 359.252253 106.36032 
L 359.455543 106.850894 
L 359.862123 108.828809 
L 360.065414 107.493286 
L 360.471994 107.793677 
L 360.675284 107.604167 
L 361.081865 106.830973 
L 361.285155 106.220432 
L 361.895026 102.349016 
L 362.504897 97.486502 
L 362.708187 98.99781 
L 362.911477 93.541234 
L 363.114767 93.885889 
L 363.521348 92.047132 
L 363.724638 89.581615 
L 364.131219 82.276147 
L 364.334509 81.280127 
L 364.537799 79.608722 
L 365.14767 71.50565 
L 365.35096 71.786886 
L 365.757541 63.34549 
L 366.164121 58.55423 
L 366.570702 55.63777 
L 366.773992 55.7235 
L 367.180573 167.491785 
L 367.383863 133.895213 
L 367.587153 138.015163 
L 367.993734 120.140433 
L 368.197024 283.461312 
L 368.400314 269.773224 
L 368.603604 271.33512 
L 369.010185 290.437588 
L 369.213475 53.568 
L 369.416766 294.879457 
L 369.823346 293.416783 
L 370.026636 293.586095 
L 370.229927 293.260646 
L 370.433217 293.83907 
L 371.043088 294.157134 
L 371.246378 294.057859 
L 371.449668 293.766637 
L 371.856249 292.750511 
L 372.466119 291.942787 
L 373.07599 291.557442 
L 373.27928 291.585272 
L 373.482571 291.423025 
L 373.685861 291.475167 
L 373.889151 291.312078 
L 374.092442 291.761556 
L 374.295732 291.435644 
L 374.499022 291.42897 
L 374.702312 291.980613 
L 374.905603 291.549595 
L 375.108893 291.478263 
L 375.312183 291.633258 
L 375.515473 291.940627 
L 375.718764 291.472401 
L 375.922054 291.76243 
L 376.125344 291.505311 
L 376.735215 291.398415 
L 377.345086 291.35593 
L 377.548376 291.530754 
L 377.751666 291.083436 
L 377.954956 291.509496 
L 378.158247 291.391463 
L 378.564827 291.444222 
L 378.971408 290.881749 
L 379.174698 290.826625 
L 379.377988 290.581538 
L 379.581279 290.900436 
L 379.987859 290.260028 
L 380.191149 290.205223 
L 380.39444 290.026429 
L 380.59773 289.624712 
L 381.00431 288.058711 
L 381.614181 284.229143 
L 383.850374 269.305665 
L 385.273406 262.682154 
L 386.289857 260.63629 
L 386.696438 260.796063 
L 387.103018 260.48781 
L 387.306308 258.644445 
L 387.509599 261.117809 
L 387.712889 260.962114 
L 387.916179 260.991476 
L 388.119469 256.587768 
L 388.32276 259.416734 
L 388.52605 259.738362 
L 388.932631 259.843139 
L 389.135921 260.255697 
L 389.339211 260.271987 
L 389.745792 260.554925 
L 390.965533 260.422309 
L 391.372114 260.085994 
L 391.575404 260.344461 
L 391.981984 260.18674 
L 392.185275 260.551326 
L 392.388565 260.416462 
L 392.795145 260.4352 
L 392.998436 260.24932 
L 393.201726 260.433771 
L 393.811597 260.4909 
L 397.877402 260.666783 
L 398.487273 260.691641 
L 398.487273 260.691641 
" style="fill:none;stroke:#008000;stroke-linecap:square;stroke-width:1.5;"/>
   </g>
   <g id="line2d_20">
    <path clip-path="url(#pcfad7d84c2)" d="M 73.832727 175.595514 
L 80.541306 175.614969 
L 80.744596 175.453947 
L 82.167628 175.468177 
L 82.370918 175.200001 
L 82.980789 175.200001 
L 83.387369 175.318355 
L 83.79395 175.318355 
L 83.99724 175.010109 
L 84.607111 175.010109 
L 84.810401 174.131615 
L 85.420272 174.131615 
L 85.623562 173.683657 
L 86.233433 173.683657 
L 86.436723 174.075145 
L 87.046594 174.075145 
L 87.249884 174.919868 
L 87.859755 174.919868 
L 88.063045 175.766808 
L 89.486077 175.683989 
L 89.689368 175.529857 
L 90.299238 175.529857 
L 90.502529 174.819846 
L 91.112399 174.819846 
L 91.31569 174.970657 
L 92.738721 174.958238 
L 92.942012 175.241649 
L 93.551883 175.241649 
L 93.755173 174.467318 
L 95.178205 174.378336 
L 95.584785 174.295039 
L 95.991366 174.295039 
L 96.194656 174.807936 
L 96.804527 174.807936 
L 97.007817 174.442537 
L 97.617688 174.442537 
L 97.820978 174.580393 
L 98.430849 174.580393 
L 98.634139 175.096287 
L 99.24401 175.096287 
L 99.4473 174.569746 
L 100.057171 174.569746 
L 100.260461 175.076526 
L 100.870332 175.076526 
L 101.073622 174.930399 
L 130.95729 174.863534 
L 131.363871 174.790586 
L 131.770451 174.790586 
L 132.177032 174.664987 
L 132.583612 174.664987 
L 132.786903 174.530252 
L 135.023096 174.622277 
L 136.039547 174.648347 
L 139.088901 174.737727 
L 139.292191 174.885449 
L 139.902062 174.885449 
L 140.105352 174.426098 
L 140.715223 174.426098 
L 140.918513 174.838135 
L 141.528384 174.838135 
L 141.731674 175.330793 
L 142.341545 175.330793 
L 142.544835 175.830221 
L 143.967867 175.834295 
L 144.171157 175.219491 
L 144.781028 175.219491 
L 144.984318 175.004552 
L 145.594189 175.004552 
L 145.797479 175.284928 
L 147.220511 175.191339 
L 147.627092 175.063883 
L 148.846833 174.973924 
L 149.050124 175.404162 
L 149.659994 175.404162 
L 149.863285 175.259664 
L 151.286316 175.251678 
L 151.489607 175.496526 
L 152.099477 175.496526 
L 152.302768 175.291956 
L 152.912638 175.291956 
L 153.115929 175.703294 
L 153.7258 175.703294 
L 153.92909 175.428417 
L 155.352122 175.43431 
L 155.555412 175.268627 
L 156.165283 175.268627 
L 156.368573 174.459691 
L 156.978444 174.459691 
L 157.181734 173.905265 
L 157.791605 173.905265 
L 157.994895 175.043756 
L 158.604766 175.043756 
L 158.808056 174.060185 
L 161.044249 174.160041 
L 161.247539 174.556342 
L 161.85741 174.556342 
L 162.0607 174.907217 
L 163.483732 174.859208 
L 163.687022 174.620373 
L 165.923215 174.56629 
L 166.126505 175.265322 
L 166.736376 175.265322 
L 166.939666 175.580727 
L 169.175859 175.517677 
L 169.37915 174.939706 
L 169.98902 174.939706 
L 170.192311 175.537047 
L 170.802181 175.537047 
L 171.005472 176.93208 
L 171.615342 176.93208 
L 171.818633 175.268214 
L 172.428503 175.268214 
L 172.631794 174.796039 
L 173.241664 174.796039 
L 173.444955 174.540528 
L 174.867987 174.455076 
L 175.071277 174.927777 
L 175.681148 174.927777 
L 175.884438 174.785411 
L 176.494309 174.785411 
L 176.697599 174.418884 
L 177.30747 174.418884 
L 177.51076 175.053707 
L 178.120631 175.053707 
L 178.323921 173.826524 
L 179.746953 173.746722 
L 179.950243 173.603244 
L 180.560114 173.603244 
L 180.763404 173.333272 
L 181.373275 173.333272 
L 181.576565 173.904574 
L 182.186436 173.904574 
L 182.389726 172.946116 
L 182.999597 172.946116 
L 183.202887 173.177096 
L 183.812758 173.177096 
L 184.016048 173.040809 
L 184.625919 173.040809 
L 184.829209 173.261054 
L 186.252241 173.289893 
L 186.455531 173.467733 
L 234.228743 173.359408 
L 234.432033 173.00878 
L 235.855065 172.913696 
L 236.058355 173.260432 
L 236.668226 173.260432 
L 236.871516 173.826806 
L 237.481387 173.826806 
L 237.684677 174.568375 
L 238.294548 174.568375 
L 238.497838 175.308801 
L 239.107709 175.308801 
L 239.310999 175.498052 
L 239.92087 175.498052 
L 240.12416 174.261014 
L 240.734031 174.261014 
L 240.937321 175.509556 
L 241.547192 175.509556 
L 241.750482 175.749889 
L 242.360353 175.749889 
L 242.766933 175.872939 
L 243.173514 175.872939 
L 243.376804 175.53497 
L 244.799836 175.637672 
L 245.206417 175.715825 
L 245.612997 175.715825 
L 245.816287 175.413847 
L 247.239319 175.511023 
L 247.442609 174.987603 
L 248.05248 174.987603 
L 248.459061 175.104643 
L 248.865641 175.104643 
L 249.068932 174.932894 
L 249.678802 174.932894 
L 249.882093 174.737028 
L 250.491963 174.737028 
L 250.695254 174.547908 
L 251.305124 174.547908 
L 251.711705 174.670726 
L 252.118285 174.670726 
L 252.321576 174.821479 
L 254.557769 174.721743 
L 255.167639 174.681338 
L 255.37093 174.681338 
L 255.57422 175.0204 
L 256.184091 175.0204 
L 256.387381 174.868948 
L 257.810413 174.830049 
L 258.013703 174.597025 
L 258.623574 174.597025 
L 258.826864 174.760055 
L 259.436735 174.760055 
L 259.640025 174.480834 
L 260.249896 174.480834 
L 260.453186 174.663605 
L 262.689379 174.755158 
L 262.892669 174.495663 
L 264.315701 174.406612 
L 264.518991 174.765979 
L 265.128862 174.765979 
L 265.535443 174.898544 
L 265.942023 174.898544 
L 266.145313 175.152583 
L 266.755184 175.152583 
L 266.958474 175.675984 
L 267.568345 175.675984 
L 267.771635 175.499361 
L 269.194667 175.439481 
L 269.397958 175.156599 
L 270.820989 175.207948 
L 271.02428 174.928433 
L 271.63415 174.928433 
L 271.837441 174.704304 
L 272.447311 174.704304 
L 272.650602 175.695586 
L 273.260472 175.695586 
L 273.463763 175.54635 
L 275.699956 175.620244 
L 276.309826 175.659541 
L 290.336854 175.612208 
L 290.743435 175.53953 
L 291.963176 175.538912 
L 292.166467 175.23754 
L 292.776337 175.23754 
L 292.979628 174.726721 
L 293.589498 174.726721 
L 293.792789 175.187805 
L 294.40266 175.187805 
L 294.60595 174.933234 
L 295.215821 174.933234 
L 295.419111 175.442188 
L 296.028982 175.442188 
L 296.232272 175.1291 
L 296.842143 175.1291 
L 297.045433 174.87481 
L 298.468465 174.820672 
L 298.671755 174.593974 
L 299.281626 174.593974 
L 299.484916 174.781731 
L 300.094787 174.781731 
L 300.298077 174.509283 
L 301.721109 174.577925 
L 302.127689 174.649792 
L 306.600075 174.60388 
L 306.803365 174.766829 
L 307.413236 174.766829 
L 307.616526 174.938354 
L 309.039558 175.021034 
L 309.242849 175.279313 
L 309.852719 175.279313 
L 310.05601 174.947997 
L 310.66588 174.947997 
L 310.869171 174.760233 
L 311.479041 174.760233 
L 311.682332 174.97043 
L 313.105363 174.874875 
L 313.715234 174.827689 
L 313.918525 174.827689 
L 314.325105 174.701145 
L 332.621228 174.734336 
L 333.027809 174.82399 
L 334.247551 174.752351 
L 334.450841 174.588854 
L 337.500195 174.570711 
L 337.703485 174.704327 
L 338.313356 174.704327 
L 338.516646 174.550912 
L 339.939678 174.465175 
L 340.142968 174.06212 
L 340.752839 174.06212 
L 340.956129 173.495128 
L 341.566 173.495128 
L 341.76929 174.073628 
L 342.379161 174.073628 
L 342.582451 174.239956 
L 344.818644 174.181474 
L 345.021934 174.723631 
L 345.631805 174.723631 
L 345.835095 174.941926 
L 346.444966 174.941926 
L 346.648256 175.511865 
L 347.258127 175.511865 
L 347.461417 175.167242 
L 349.69761 175.119445 
L 349.900901 174.814134 
L 351.323932 174.775938 
L 351.527223 175.494433 
L 352.137093 175.494433 
L 352.340384 174.970986 
L 353.763415 175.018211 
L 353.966706 175.506795 
L 355.389738 175.610072 
L 355.593028 176.007543 
L 356.202899 176.007543 
L 356.406189 174.794741 
L 357.01606 174.794741 
L 357.21935 175.373392 
L 358.642382 175.276134 
L 358.845672 175.67308 
L 359.455543 175.67308 
L 359.658833 176.744335 
L 360.268704 176.744335 
L 360.471994 176.991411 
L 361.081865 176.991411 
L 361.285155 176.62449 
L 361.895026 176.62449 
L 362.098316 175.201379 
L 362.708187 175.201379 
L 362.911477 172.835165 
L 363.521348 172.835165 
L 363.724638 171.430239 
L 365.14767 171.446828 
L 365.554251 171.54943 
L 365.960831 171.54943 
L 366.164121 171.770525 
L 367.587153 171.691642 
L 367.790443 172.31003 
L 368.400314 172.31003 
L 368.603604 173.49639 
L 369.213475 173.49639 
L 369.416766 174.300982 
L 370.026636 174.300982 
L 370.229927 174.569638 
L 370.839797 174.569638 
L 371.043088 174.823217 
L 381.410891 174.92731 
L 381.614181 174.635669 
L 382.224052 174.635669 
L 382.427342 174.433995 
L 383.037213 174.433995 
L 383.240503 174.934832 
L 383.850374 174.934832 
L 384.053664 175.067884 
L 384.663535 175.067884 
L 384.866825 175.328866 
L 385.476696 175.328866 
L 385.679986 175.550266 
L 387.103018 175.482466 
L 387.306308 175.161218 
L 387.916179 175.161218 
L 388.119469 175.604689 
L 389.542501 175.653741 
L 389.949082 175.728291 
L 391.981984 175.699513 
L 392.185275 175.249168 
L 392.795145 175.249168 
L 392.998436 175.410221 
L 393.608306 175.410221 
L 393.811597 175.269508 
L 398.487273 175.30653 
L 398.487273 175.30653 
" style="fill:none;stroke:#ff0000;stroke-dasharray:5.55,2.4;stroke-dashoffset:0;stroke-width:1.5;"/>
   </g>
   <g id="line2d_21">
    <path clip-path="url(#pcfad7d84c2)" d="M 73.832727 174.125684 
L 80.541306 174.019147 
L 80.947886 173.931868 
L 81.354467 173.931868 
L 81.557757 173.698381 
L 82.167628 173.698381 
L 82.370918 173.863296 
L 82.980789 173.863296 
L 83.184079 174.04085 
L 83.79395 174.04085 
L 83.99724 173.901785 
L 85.420272 173.892428 
L 85.623562 174.444352 
L 86.233433 174.444352 
L 86.436723 174.175226 
L 92.738721 174.182856 
L 93.145302 174.05196 
L 93.551883 174.05196 
L 93.958463 174.164614 
L 94.365044 174.164614 
L 94.568334 173.785671 
L 95.178205 173.785671 
L 95.381495 174.249703 
L 95.991366 174.249703 
L 96.194656 174.008245 
L 97.617688 173.997761 
L 98.024268 174.123301 
L 99.24401 174.09893 
L 99.4473 174.264366 
L 102.496654 174.23212 
L 102.903234 174.100552 
L 131.770451 174.028751 
L 132.380322 173.988647 
L 132.583612 173.988647 
L 132.786903 174.199802 
L 133.396773 174.199802 
L 133.803354 174.086584 
L 137.462579 174.005395 
L 137.869159 173.937719 
L 138.27574 173.937719 
L 138.68232 173.817612 
L 139.088901 173.817612 
L 139.292191 173.569906 
L 140.715223 173.614605 
L 140.918513 174.15489 
L 141.528384 174.15489 
L 141.731674 174.735274 
L 142.341545 174.735274 
L 142.544835 174.188097 
L 143.154706 174.188097 
L 143.357996 174.441274 
L 144.781028 174.418595 
L 144.984318 174.085506 
L 146.40735 174.087793 
L 146.61064 174.223431 
L 149.659994 174.320198 
L 149.863285 174.54736 
L 150.473155 174.54736 
L 150.676446 174.01715 
L 151.286316 174.01715 
L 151.489607 174.370458 
L 152.099477 174.370458 
L 152.302768 174.006874 
L 155.352122 174.008199 
L 155.555412 173.760539 
L 156.165283 173.760539 
L 156.368573 174.013794 
L 157.791605 174.054481 
L 157.994895 173.648187 
L 158.604766 173.648187 
L 158.808056 173.922731 
L 164.296893 173.960761 
L 164.500183 174.201636 
L 166.736376 174.156176 
L 166.939666 173.999471 
L 169.175859 174.091469 
L 169.78573 174.142583 
L 169.98902 174.142583 
L 170.395601 174.263095 
L 171.615342 174.297012 
L 172.021923 174.391814 
L 172.428503 174.391814 
L 172.631794 174.088152 
L 173.241664 174.088152 
L 173.444955 174.421893 
L 174.054826 174.421893 
L 174.258116 174.195731 
L 174.867987 174.195731 
L 175.071277 174.718997 
L 175.681148 174.718997 
L 175.884438 174.253985 
L 176.494309 174.253985 
L 176.697599 174.403171 
L 177.30747 174.403171 
L 177.51076 173.514915 
L 178.120631 173.514915 
L 178.323921 174.296927 
L 178.933792 174.296927 
L 179.340372 174.176465 
L 182.186436 174.279681 
L 182.389726 173.890057 
L 182.999597 173.890057 
L 183.202887 174.251359 
L 183.812758 174.251359 
L 184.219339 174.129874 
L 184.625919 174.129874 
L 184.829209 174.489426 
L 186.252241 174.428929 
L 186.455531 174.291614 
L 187.065402 174.291614 
L 187.268692 173.986368 
L 230.976098 174.036447 
L 231.179389 174.265072 
L 231.789259 174.265072 
L 231.99255 174.059212 
L 232.60242 174.059212 
L 232.805711 173.914297 
L 235.041904 173.955761 
L 235.245194 174.09891 
L 235.855065 174.09891 
L 236.058355 174.413625 
L 236.668226 174.413625 
L 236.871516 174.146259 
L 237.481387 174.146259 
L 237.684677 173.712507 
L 238.294548 173.712507 
L 238.497838 174.048948 
L 239.107709 174.048948 
L 239.514289 174.173947 
L 239.92087 174.173947 
L 240.12416 173.633412 
L 241.547192 173.742548 
L 241.750482 174.474972 
L 242.360353 174.474972 
L 242.563643 174.020143 
L 243.173514 174.020143 
L 243.376804 174.277553 
L 243.986675 174.277553 
L 244.189965 174.016216 
L 248.05248 174.10222 
L 248.25577 174.28009 
L 248.865641 174.28009 
L 249.068932 173.939989 
L 252.118285 174.029693 
L 252.321576 174.277638 
L 253.744608 174.286945 
L 253.947898 174.128167 
L 257.810413 174.07564 
L 258.216993 173.957197 
L 259.436735 173.956703 
L 259.640025 174.107595 
L 261.063057 174.00341 
L 261.672928 173.963538 
L 261.876218 173.963538 
L 262.079508 174.124089 
L 262.689379 174.124089 
L 262.892669 174.26235 
L 263.50254 174.26235 
L 263.70583 174.063024 
L 264.315701 174.063024 
L 264.518991 173.914873 
L 265.128862 173.914873 
L 265.332152 173.744239 
L 265.942023 173.744239 
L 266.145313 174.134033 
L 267.568345 174.07886 
L 267.974926 174.012578 
L 268.381506 174.012578 
L 268.584796 173.85882 
L 269.194667 173.85882 
L 269.397958 174.297812 
L 271.63415 174.241929 
L 272.040731 174.146413 
L 274.073634 174.072527 
L 274.276924 174.320882 
L 275.699956 174.347968 
L 275.903246 174.133851 
L 289.523693 174.030581 
L 290.133564 173.992903 
L 290.336854 173.992903 
L 290.743435 173.870641 
L 291.150015 173.870641 
L 291.353306 174.037969 
L 292.776337 173.964782 
L 293.182918 173.869393 
L 293.589498 173.869393 
L 293.792789 174.003345 
L 295.215821 173.958151 
L 295.419111 174.146332 
L 296.842143 174.19421 
L 297.045433 174.028245 
L 300.907948 174.024762 
L 301.111238 174.196855 
L 302.53427 174.122587 
L 302.94085 174.043105 
L 304.160592 174.130225 
L 304.363882 174.298932 
L 305.786914 174.227065 
L 306.193495 174.110496 
L 306.600075 174.110496 
L 306.803365 174.29658 
L 307.413236 174.29658 
L 307.616526 174.074385 
L 310.66588 173.995602 
L 310.869171 174.227142 
L 312.292202 174.177241 
L 312.495493 173.889258 
L 313.105363 173.889258 
L 313.308654 174.127719 
L 330.181745 174.041325 
L 330.588326 173.927416 
L 330.994906 173.927416 
L 331.198197 174.062498 
L 331.808067 174.062498 
L 332.011358 173.869861 
L 333.434389 173.847687 
L 333.63768 174.037837 
L 334.247551 174.037837 
L 334.450841 173.79572 
L 335.060712 173.79572 
L 335.264002 173.97062 
L 335.873873 173.97062 
L 336.077163 173.732252 
L 337.500195 173.805551 
L 338.110065 173.862033 
L 338.313356 173.862033 
L 338.516646 174.02307 
L 339.126517 174.02307 
L 339.329807 174.345017 
L 339.939678 174.345017 
L 340.346258 174.467063 
L 340.752839 174.467063 
L 340.956129 173.928439 
L 341.566 173.928439 
L 341.76929 174.285605 
L 342.379161 174.285605 
L 342.582451 174.452431 
L 344.005483 174.41074 
L 344.208773 174.5708 
L 344.818644 174.5708 
L 345.021934 175.042443 
L 345.631805 175.042443 
L 345.835095 173.770734 
L 346.444966 173.770734 
L 346.648256 174.267494 
L 347.258127 174.267494 
L 347.461417 173.892455 
L 348.884449 173.941306 
L 349.08774 173.756481 
L 349.69761 173.756481 
L 349.900901 173.894661 
L 351.323932 173.793607 
L 351.527223 173.254701 
L 352.137093 173.254701 
L 352.340384 172.906703 
L 352.950254 172.906703 
L 353.153545 172.716251 
L 353.763415 172.716251 
L 353.966706 172.078543 
L 354.576577 172.078543 
L 354.779867 172.697553 
L 356.202899 172.599264 
L 356.406189 173.319254 
L 357.01606 173.319254 
L 357.21935 174.157767 
L 357.829221 174.157767 
L 358.032511 174.812961 
L 358.642382 174.812961 
L 358.845672 175.355771 
L 359.455543 175.355771 
L 359.658833 175.889073 
L 360.268704 175.889073 
L 360.471994 176.455197 
L 361.895026 176.348374 
L 363.318058 176.172187 
L 363.521348 176.172187 
L 363.724638 176.613353 
L 364.334509 176.613353 
L 364.537799 175.970316 
L 365.14767 175.970316 
L 365.35096 175.225318 
L 365.960831 175.225318 
L 366.164121 173.987264 
L 366.773992 173.987264 
L 366.977282 172.918582 
L 367.587153 172.918582 
L 367.790443 172.359189 
L 368.400314 172.359189 
L 368.603604 172.817381 
L 369.213475 172.817381 
L 369.416766 173.841373 
L 370.839797 173.838766 
L 371.246378 173.722864 
L 372.466119 173.771341 
L 372.8727 173.888671 
L 379.784569 173.809765 
L 379.987859 173.670052 
L 381.410891 173.639262 
L 381.614181 173.869648 
L 382.224052 173.869648 
L 382.427342 174.9687 
L 383.037213 174.9687 
L 383.240503 174.713946 
L 383.850374 174.713946 
L 384.053664 171.982784 
L 384.663535 171.982784 
L 384.866825 172.880223 
L 385.476696 172.880223 
L 385.679986 174.286111 
L 391.981984 174.362094 
L 392.185275 173.972134 
L 392.795145 173.972134 
L 392.998436 174.197376 
L 394.421468 174.108113 
L 394.828048 174.034949 
L 398.487273 174.011539 
L 398.487273 174.011539 
" style="fill:none;stroke:#0000ff;stroke-dasharray:5.55,2.4;stroke-dashoffset:0;stroke-width:1.5;"/>
   </g>
   <g id="line2d_22">
    <path clip-path="url(#pcfad7d84c2)" d="M 73.832727 263.750782 
L 81.354467 263.728612 
L 81.761047 263.619797 
L 82.167628 263.619797 
L 82.370918 263.282213 
L 82.980789 263.282213 
L 83.184079 262.364245 
L 83.79395 262.364245 
L 83.99724 262.831957 
L 84.607111 262.831957 
L 84.810401 269.044952 
L 85.420272 269.044952 
L 85.623562 285.817729 
L 86.233433 285.817729 
L 86.436723 66.571816 
L 87.046594 66.571816 
L 87.249884 83.150951 
L 87.859755 83.150951 
L 88.063045 84.823 
L 88.672916 84.823 
L 88.876207 82.484732 
L 89.486077 82.484732 
L 89.689368 79.544629 
L 90.299238 79.544629 
L 90.502529 77.871765 
L 91.112399 77.871765 
L 91.31569 78.977092 
L 91.92556 78.977092 
L 92.128851 81.120571 
L 92.738721 81.120571 
L 92.942012 81.788925 
L 93.551883 81.788925 
L 93.755173 81.992754 
L 94.365044 81.992754 
L 94.568334 81.771142 
L 95.991366 81.734784 
L 96.397946 81.608483 
L 96.804527 81.608483 
L 97.007817 81.44548 
L 97.617688 81.44548 
L 97.820978 81.710737 
L 98.430849 81.710737 
L 98.837429 81.824619 
L 100.057171 81.812211 
L 100.260461 81.534975 
L 130.95729 81.449832 
L 132.177032 81.383658 
L 132.583612 81.383658 
L 132.990193 81.257584 
L 133.396773 81.257584 
L 133.600064 80.382918 
L 134.209935 80.382918 
L 134.413225 78.969133 
L 135.023096 78.969133 
L 135.226386 78.051829 
L 135.836257 78.051829 
L 136.039547 77.836956 
L 137.462579 77.803467 
L 137.665869 77.313238 
L 138.27574 77.313238 
L 138.47903 75.373387 
L 139.088901 75.373387 
L 139.292191 66.073427 
L 139.902062 66.073427 
L 140.105352 292.312474 
L 140.715223 292.312474 
L 140.918513 276.878638 
L 141.528384 276.878638 
L 141.731674 265.850987 
L 142.341545 265.850987 
L 142.544835 261.465134 
L 143.154706 261.465134 
L 143.357996 261.04822 
L 143.967867 261.04822 
L 144.171157 261.707766 
L 144.781028 261.707766 
L 144.984318 262.934092 
L 145.594189 262.934092 
L 145.797479 263.121307 
L 146.40735 263.121307 
L 146.61064 263.387155 
L 147.220511 263.387155 
L 147.423801 263.856269 
L 148.033672 263.856269 
L 148.236962 264.240563 
L 151.286316 264.294399 
L 151.489607 263.929336 
L 152.099477 263.929336 
L 152.302768 263.512862 
L 152.912638 263.512862 
L 153.115929 263.851835 
L 153.7258 263.851835 
L 153.92909 264.030772 
L 154.538961 264.030772 
L 154.742251 263.08006 
L 155.352122 263.08006 
L 155.555412 262.209974 
L 156.165283 262.209974 
L 156.368573 262.026415 
L 156.978444 262.026415 
L 157.181734 262.586035 
L 157.791605 262.586035 
L 157.994895 263.581736 
L 159.417927 263.626215 
L 159.621217 263.800108 
L 160.231088 263.800108 
L 160.434378 264.391162 
L 161.044249 264.391162 
L 161.247539 263.936604 
L 162.670571 263.835161 
L 162.873861 264.483079 
L 163.483732 264.483079 
L 163.687022 265.671096 
L 164.296893 265.671096 
L 164.500183 268.191834 
L 165.110054 268.191834 
L 165.313344 269.203444 
L 165.923215 269.203444 
L 166.126505 268.232675 
L 166.736376 268.232675 
L 166.939666 266.9225 
L 167.549537 266.9225 
L 167.752827 264.928045 
L 168.362698 264.928045 
L 168.565989 263.398625 
L 170.802181 263.445545 
L 171.005472 262.307305 
L 171.615342 262.307305 
L 171.818633 260.782978 
L 172.428503 260.782978 
L 172.631794 261.109814 
L 173.241664 261.109814 
L 173.444955 262.987924 
L 174.054826 262.987924 
L 174.258116 263.992997 
L 174.867987 263.992997 
L 175.071277 264.611446 
L 175.681148 264.611446 
L 175.884438 264.913502 
L 176.494309 264.913502 
L 176.697599 264.582224 
L 178.933792 264.486083 
L 179.137082 264.096989 
L 179.746953 264.096989 
L 179.950243 263.601307 
L 180.560114 263.601307 
L 180.763404 261.172328 
L 181.373275 261.172328 
L 181.576565 256.626751 
L 182.186436 256.626751 
L 182.389726 250.171129 
L 182.999597 250.171129 
L 183.202887 243.743538 
L 183.812758 243.743538 
L 184.016048 237.283946 
L 184.625919 237.283946 
L 184.829209 232.977525 
L 185.43908 232.977525 
L 185.64237 231.569869 
L 186.252241 231.569869 
L 186.455531 231.311937 
L 233.415581 231.301256 
L 233.618872 231.447352 
L 234.228743 231.447352 
L 234.432033 233.093083 
L 235.041904 233.093083 
L 235.245194 234.294269 
L 235.855065 234.294269 
L 236.261645 234.426927 
L 236.668226 234.426927 
L 236.871516 233.834018 
L 237.481387 233.834018 
L 237.684677 232.502222 
L 238.294548 232.502222 
L 238.497838 230.588631 
L 239.107709 230.588631 
L 239.310999 225.08175 
L 239.92087 225.08175 
L 240.12416 213.182428 
L 240.734031 213.182428 
L 240.937321 202.223353 
L 241.547192 202.223353 
L 241.750482 190.225731 
L 242.360353 190.225731 
L 242.563643 178.731515 
L 243.173514 178.731515 
L 243.376804 172.018787 
L 243.986675 172.018787 
L 244.189965 170.14949 
L 244.799836 170.14949 
L 245.003126 169.655167 
L 245.612997 169.655167 
L 245.816287 169.478729 
L 246.426158 169.478729 
L 246.629448 169.195894 
L 247.239319 169.195894 
L 247.442609 168.338365 
L 248.05248 168.338365 
L 248.25577 166.918259 
L 248.865641 166.918259 
L 249.068932 166.256535 
L 249.678802 166.256535 
L 249.882093 166.714851 
L 250.491963 166.714851 
L 250.695254 168.185654 
L 252.118285 168.183067 
L 252.321576 168.806664 
L 252.931446 168.806664 
L 253.134737 169.04838 
L 253.744608 169.04838 
L 253.947898 168.758103 
L 254.557769 168.758103 
L 254.761059 168.995741 
L 255.37093 168.995741 
L 255.57422 170.045644 
L 256.184091 170.045644 
L 256.387381 169.75237 
L 256.997252 169.75237 
L 257.200542 169.391327 
L 259.436735 169.420638 
L 259.640025 169.142861 
L 260.249896 169.142861 
L 260.453186 168.540592 
L 261.876218 168.553888 
L 262.282798 168.682927 
L 262.689379 168.682927 
L 262.892669 169.344852 
L 263.50254 169.344852 
L 263.70583 169.071095 
L 264.315701 169.071095 
L 264.518991 169.257326 
L 265.128862 169.257326 
L 265.332152 168.780956 
L 265.942023 168.780956 
L 266.145313 167.432952 
L 266.755184 167.432952 
L 266.958474 166.047852 
L 267.568345 166.047852 
L 267.771635 164.738588 
L 268.381506 164.738588 
L 268.584796 164.011605 
L 272.447311 164.100996 
L 272.650602 162.996878 
L 273.260472 162.996878 
L 273.463763 162.271085 
L 274.073634 162.271085 
L 274.276924 163.643649 
L 274.886795 163.643649 
L 275.090085 163.995992 
L 291.150015 163.931073 
L 291.353306 164.127789 
L 291.963176 164.127789 
L 292.166467 164.429578 
L 292.776337 164.429578 
L 292.979628 164.656156 
L 293.589498 164.656156 
L 293.792789 164.501726 
L 294.40266 164.501726 
L 294.60595 164.32145 
L 295.215821 164.32145 
L 295.419111 163.574776 
L 296.028982 163.574776 
L 296.232272 163.296242 
L 299.281626 163.261734 
L 299.484916 162.823124 
L 300.094787 162.823124 
L 300.298077 162.406144 
L 300.907948 162.406144 
L 301.111238 163.521175 
L 302.53427 163.546848 
L 302.73756 163.131057 
L 304.160592 163.049031 
L 304.363882 163.273168 
L 306.600075 163.18991 
L 306.803365 163.395225 
L 307.413236 163.395225 
L 307.616526 163.084446 
L 308.226397 163.084446 
L 308.429687 162.816884 
L 309.039558 162.816884 
L 309.242849 163.413986 
L 309.852719 163.413986 
L 310.05601 163.605758 
L 310.66588 163.605758 
L 310.869171 163.300417 
L 311.479041 163.300417 
L 311.682332 163.046327 
L 330.994906 162.978894 
L 331.198197 162.755293 
L 331.808067 162.755293 
L 332.011358 162.468306 
L 332.621228 162.468306 
L 332.824519 162.320364 
L 334.247551 162.253104 
L 334.450841 161.613832 
L 335.060712 161.613832 
L 335.264002 160.925204 
L 335.873873 160.925204 
L 336.077163 160.451878 
L 336.687034 160.451878 
L 336.890324 160.119214 
L 337.500195 160.119214 
L 337.703485 159.652526 
L 338.313356 159.652526 
L 338.516646 159.174589 
L 339.126517 159.174589 
L 339.329807 157.882888 
L 339.939678 157.882888 
L 340.142968 155.258074 
L 340.752839 155.258074 
L 340.956129 152.523019 
L 341.566 152.523019 
L 341.76929 146.564874 
L 342.379161 146.564874 
L 342.582451 132.216025 
L 343.192322 132.216025 
L 343.395612 117.424894 
L 344.005483 117.424894 
L 344.208773 106.003687 
L 344.818644 106.003687 
L 345.021934 100.332282 
L 345.631805 100.332282 
L 345.835095 98.679666 
L 346.444966 98.679666 
L 346.648256 97.795909 
L 347.258127 97.795909 
L 347.461417 98.213067 
L 348.071288 98.213067 
L 348.274578 98.852794 
L 348.884449 98.852794 
L 349.08774 98.242647 
L 350.510771 98.132461 
L 350.917352 98.025472 
L 351.323932 98.025472 
L 351.527223 98.457517 
L 352.137093 98.457517 
L 352.340384 99.166547 
L 352.950254 99.166547 
L 353.153545 101.035056 
L 353.763415 101.035056 
L 353.966706 102.781505 
L 354.576577 102.781505 
L 354.779867 104.134587 
L 355.389738 104.134587 
L 355.593028 106.040879 
L 356.202899 106.040879 
L 356.406189 107.625229 
L 357.01606 107.625229 
L 357.21935 109.021728 
L 357.829221 109.021728 
L 358.032511 110.646421 
L 358.642382 110.646421 
L 358.845672 112.302061 
L 359.455543 112.302061 
L 359.658833 113.70784 
L 360.268704 113.70784 
L 360.471994 113.992445 
L 361.081865 113.992445 
L 361.285155 111.754122 
L 361.895026 111.754122 
L 362.098316 106.039153 
L 362.708187 106.039153 
L 362.911477 99.793504 
L 363.521348 99.793504 
L 363.724638 94.301645 
L 364.334509 94.301645 
L 364.537799 84.904996 
L 365.14767 84.904996 
L 365.35096 73.120247 
L 365.960831 73.120247 
L 366.164121 62.288658 
L 366.773992 62.288658 
L 366.977282 57.554522 
L 367.587153 57.554522 
L 367.790443 56.184826 
L 368.400314 56.184826 
L 368.603604 55.566087 
L 370.026636 55.529698 
L 370.433217 55.442613 
L 370.839797 55.442613 
L 371.043088 55.81409 
L 371.652958 55.81409 
L 371.856249 54.11048 
L 372.466119 54.11048 
L 372.66941 295.488 
L 373.27928 295.488 
L 373.482571 294.963151 
L 374.092442 294.963151 
L 374.295732 294.806713 
L 378.971408 294.768771 
L 379.174698 294.514682 
L 379.784569 294.514682 
L 379.987859 293.867409 
L 380.59773 293.867409 
L 380.80102 292.100663 
L 381.410891 292.100663 
L 381.614181 287.500976 
L 382.224052 287.500976 
L 382.427342 281.333604 
L 383.037213 281.333604 
L 383.240503 275.832153 
L 383.850374 275.832153 
L 384.053664 271.57359 
L 384.663535 271.57359 
L 384.866825 267.132797 
L 385.476696 267.132797 
L 385.679986 265.183265 
L 386.289857 265.183265 
L 386.493147 264.126488 
L 387.103018 264.126488 
L 387.306308 264.353642 
L 387.916179 264.353642 
L 388.119469 263.864849 
L 388.72934 263.864849 
L 388.932631 263.535565 
L 389.542501 263.535565 
L 389.745792 264.143711 
L 390.355662 264.143711 
L 390.558953 264.006698 
L 391.168823 264.006698 
L 391.372114 263.826572 
L 392.795145 263.892932 
L 393.201726 263.970355 
L 398.487273 263.914349 
L 398.487273 263.914349 
" style="fill:none;stroke:#008000;stroke-dasharray:5.55,2.4;stroke-dashoffset:0;stroke-width:1.5;"/>
   </g>
   <g id="patch_3">
    <path d="M 57.6 307.584 
L 57.6 41.472 
" style="fill:none;stroke:#000000;stroke-linecap:square;stroke-linejoin:miter;stroke-width:0.8;"/>
   </g>
   <g id="patch_4">
    <path d="M 414.72 307.584 
L 414.72 41.472 
" style="fill:none;stroke:#000000;stroke-linecap:square;stroke-linejoin:miter;stroke-width:0.8;"/>
   </g>
   <g id="patch_5">
    <path d="M 57.6 307.584 
L 414.72 307.584 
" style="fill:none;stroke:#000000;stroke-linecap:square;stroke-linejoin:miter;stroke-width:0.8;"/>
   </g>
   <g id="patch_6">
    <path d="M 57.6 41.472 
L 414.72 41.472 
" style="fill:none;stroke:#000000;stroke-linecap:square;stroke-linejoin:miter;stroke-width:0.8;"/>
   </g>
   <g id="legend_1">
    <g id="patch_7">
     <path d="M 180.95375 137.54075 
L 291.36625 137.54075 
Q 293.36625 137.54075 293.36625 135.54075 
L 293.36625 48.472 
Q 293.36625 46.472 291.36625 46.472 
L 180.95375 46.472 
Q 178.95375 46.472 178.95375 48.472 
L 178.95375 135.54075 
Q 178.95375 137.54075 180.95375 137.54075 
z
" style="fill:#ffffff;opacity:0.8;stroke:#cccccc;stroke-linejoin:miter;"/>
    </g>
    <g id="line2d_23">
     <path d="M 182.95375 54.570438 
L 202.95375 54.570438 
" style="fill:none;stroke:#ff0000;stroke-linecap:square;stroke-width:1.5;"/>
    </g>
    <g id="line2d_24"/>
    <g id="text_19">
     <!-- estimated roll -->
     <g transform="translate(210.95375 58.070438)scale(0.1 -0.1)">
      <defs>
       <path d="M 9.421875 75.984375 
L 18.40625 75.984375 
L 18.40625 0 
L 9.421875 0 
z
" id="DejaVuSans-108"/>
      </defs>
      <use xlink:href="#DejaVuSans-101"/>
      <use x="61.523438" xlink:href="#DejaVuSans-115"/>
      <use x="113.623047" xlink:href="#DejaVuSans-116"/>
      <use x="152.832031" xlink:href="#DejaVuSans-105"/>
      <use x="180.615234" xlink:href="#DejaVuSans-109"/>
      <use x="278.027344" xlink:href="#DejaVuSans-97"/>
      <use x="339.306641" xlink:href="#DejaVuSans-116"/>
      <use x="378.515625" xlink:href="#DejaVuSans-101"/>
      <use x="440.039062" xlink:href="#DejaVuSans-100"/>
      <use x="503.515625" xlink:href="#DejaVuSans-32"/>
      <use x="535.302734" xlink:href="#DejaVuSans-114"/>
      <use x="574.166016" xlink:href="#DejaVuSans-111"/>
      <use x="635.347656" xlink:href="#DejaVuSans-108"/>
      <use x="663.130859" xlink:href="#DejaVuSans-108"/>
     </g>
    </g>
    <g id="line2d_25">
     <path d="M 182.95375 69.248563 
L 202.95375 69.248563 
" style="fill:none;stroke:#0000ff;stroke-linecap:square;stroke-width:1.5;"/>
    </g>
    <g id="line2d_26"/>
    <g id="text_20">
     <!-- estimated pitch -->
     <g transform="translate(210.95375 72.748563)scale(0.1 -0.1)">
      <defs>
       <path d="M 18.109375 8.203125 
L 18.109375 -20.796875 
L 9.078125 -20.796875 
L 9.078125 54.6875 
L 18.109375 54.6875 
L 18.109375 46.390625 
Q 20.953125 51.265625 25.265625 53.625 
Q 29.59375 56 35.59375 56 
Q 45.5625 56 51.78125 48.09375 
Q 58.015625 40.1875 58.015625 27.296875 
Q 58.015625 14.40625 51.78125 6.484375 
Q 45.5625 -1.421875 35.59375 -1.421875 
Q 29.59375 -1.421875 25.265625 0.953125 
Q 20.953125 3.328125 18.109375 8.203125 
z
M 48.6875 27.296875 
Q 48.6875 37.203125 44.609375 42.84375 
Q 40.53125 48.484375 33.40625 48.484375 
Q 26.265625 48.484375 22.1875 42.84375 
Q 18.109375 37.203125 18.109375 27.296875 
Q 18.109375 17.390625 22.1875 11.75 
Q 26.265625 6.109375 33.40625 6.109375 
Q 40.53125 6.109375 44.609375 11.75 
Q 48.6875 17.390625 48.6875 27.296875 
z
" id="DejaVuSans-112"/>
       <path d="M 48.78125 52.59375 
L 48.78125 44.1875 
Q 44.96875 46.296875 41.140625 47.34375 
Q 37.3125 48.390625 33.40625 48.390625 
Q 24.65625 48.390625 19.8125 42.84375 
Q 14.984375 37.3125 14.984375 27.296875 
Q 14.984375 17.28125 19.8125 11.734375 
Q 24.65625 6.203125 33.40625 6.203125 
Q 37.3125 6.203125 41.140625 7.25 
Q 44.96875 8.296875 48.78125 10.40625 
L 48.78125 2.09375 
Q 45.015625 0.34375 40.984375 -0.53125 
Q 36.96875 -1.421875 32.421875 -1.421875 
Q 20.0625 -1.421875 12.78125 6.34375 
Q 5.515625 14.109375 5.515625 27.296875 
Q 5.515625 40.671875 12.859375 48.328125 
Q 20.21875 56 33.015625 56 
Q 37.15625 56 41.109375 55.140625 
Q 45.0625 54.296875 48.78125 52.59375 
z
" id="DejaVuSans-99"/>
       <path d="M 54.890625 33.015625 
L 54.890625 0 
L 45.90625 0 
L 45.90625 32.71875 
Q 45.90625 40.484375 42.875 44.328125 
Q 39.84375 48.1875 33.796875 48.1875 
Q 26.515625 48.1875 22.3125 43.546875 
Q 18.109375 38.921875 18.109375 30.90625 
L 18.109375 0 
L 9.078125 0 
L 9.078125 75.984375 
L 18.109375 75.984375 
L 18.109375 46.1875 
Q 21.34375 51.125 25.703125 53.5625 
Q 30.078125 56 35.796875 56 
Q 45.21875 56 50.046875 50.171875 
Q 54.890625 44.34375 54.890625 33.015625 
z
" id="DejaVuSans-104"/>
      </defs>
      <use xlink:href="#DejaVuSans-101"/>
      <use x="61.523438" xlink:href="#DejaVuSans-115"/>
      <use x="113.623047" xlink:href="#DejaVuSans-116"/>
      <use x="152.832031" xlink:href="#DejaVuSans-105"/>
      <use x="180.615234" xlink:href="#DejaVuSans-109"/>
      <use x="278.027344" xlink:href="#DejaVuSans-97"/>
      <use x="339.306641" xlink:href="#DejaVuSans-116"/>
      <use x="378.515625" xlink:href="#DejaVuSans-101"/>
      <use x="440.039062" xlink:href="#DejaVuSans-100"/>
      <use x="503.515625" xlink:href="#DejaVuSans-32"/>
      <use x="535.302734" xlink:href="#DejaVuSans-112"/>
      <use x="598.779297" xlink:href="#DejaVuSans-105"/>
      <use x="626.5625" xlink:href="#DejaVuSans-116"/>
      <use x="665.771484" xlink:href="#DejaVuSans-99"/>
      <use x="720.751953" xlink:href="#DejaVuSans-104"/>
     </g>
    </g>
    <g id="line2d_27">
     <path d="M 182.95375 83.926688 
L 202.95375 83.926688 
" style="fill:none;stroke:#008000;stroke-linecap:square;stroke-width:1.5;"/>
    </g>
    <g id="line2d_28"/>
    <g id="text_21">
     <!-- estimated yaw -->
     <g transform="translate(210.95375 87.426688)scale(0.1 -0.1)">
      <defs>
       <path d="M 32.171875 -5.078125 
Q 28.375 -14.84375 24.75 -17.8125 
Q 21.140625 -20.796875 15.09375 -20.796875 
L 7.90625 -20.796875 
L 7.90625 -13.28125 
L 13.1875 -13.28125 
Q 16.890625 -13.28125 18.9375 -11.515625 
Q 21 -9.765625 23.484375 -3.21875 
L 25.09375 0.875 
L 2.984375 54.6875 
L 12.5 54.6875 
L 29.59375 11.921875 
L 46.6875 54.6875 
L 56.203125 54.6875 
z
" id="DejaVuSans-121"/>
       <path d="M 4.203125 54.6875 
L 13.1875 54.6875 
L 24.421875 12.015625 
L 35.59375 54.6875 
L 46.1875 54.6875 
L 57.421875 12.015625 
L 68.609375 54.6875 
L 77.59375 54.6875 
L 63.28125 0 
L 52.6875 0 
L 40.921875 44.828125 
L 29.109375 0 
L 18.5 0 
z
" id="DejaVuSans-119"/>
      </defs>
      <use xlink:href="#DejaVuSans-101"/>
      <use x="61.523438" xlink:href="#DejaVuSans-115"/>
      <use x="113.623047" xlink:href="#DejaVuSans-116"/>
      <use x="152.832031" xlink:href="#DejaVuSans-105"/>
      <use x="180.615234" xlink:href="#DejaVuSans-109"/>
      <use x="278.027344" xlink:href="#DejaVuSans-97"/>
      <use x="339.306641" xlink:href="#DejaVuSans-116"/>
      <use x="378.515625" xlink:href="#DejaVuSans-101"/>
      <use x="440.039062" xlink:href="#DejaVuSans-100"/>
      <use x="503.515625" xlink:href="#DejaVuSans-32"/>
      <use x="535.302734" xlink:href="#DejaVuSans-121"/>
      <use x="594.482422" xlink:href="#DejaVuSans-97"/>
      <use x="655.761719" xlink:href="#DejaVuSans-119"/>
     </g>
    </g>
    <g id="line2d_29">
     <path d="M 182.95375 98.604813 
L 202.95375 98.604813 
" style="fill:none;stroke:#ff0000;stroke-dasharray:5.55,2.4;stroke-dashoffset:0;stroke-width:1.5;"/>
    </g>
    <g id="line2d_30"/>
    <g id="text_22">
     <!-- gt roll -->
     <g transform="translate(210.95375 102.104813)scale(0.1 -0.1)">
      <use xlink:href="#DejaVuSans-103"/>
      <use x="63.476562" xlink:href="#DejaVuSans-116"/>
      <use x="102.685547" xlink:href="#DejaVuSans-32"/>
      <use x="134.472656" xlink:href="#DejaVuSans-114"/>
      <use x="173.335938" xlink:href="#DejaVuSans-111"/>
      <use x="234.517578" xlink:href="#DejaVuSans-108"/>
      <use x="262.300781" xlink:href="#DejaVuSans-108"/>
     </g>
    </g>
    <g id="line2d_31">
     <path d="M 182.95375 113.282938 
L 202.95375 113.282938 
" style="fill:none;stroke:#0000ff;stroke-dasharray:5.55,2.4;stroke-dashoffset:0;stroke-width:1.5;"/>
    </g>
    <g id="line2d_32"/>
    <g id="text_23">
     <!-- gt pitch -->
     <g transform="translate(210.95375 116.782938)scale(0.1 -0.1)">
      <use xlink:href="#DejaVuSans-103"/>
      <use x="63.476562" xlink:href="#DejaVuSans-116"/>
      <use x="102.685547" xlink:href="#DejaVuSans-32"/>
      <use x="134.472656" xlink:href="#DejaVuSans-112"/>
      <use x="197.949219" xlink:href="#DejaVuSans-105"/>
      <use x="225.732422" xlink:href="#DejaVuSans-116"/>
      <use x="264.941406" xlink:href="#DejaVuSans-99"/>
      <use x="319.921875" xlink:href="#DejaVuSans-104"/>
     </g>
    </g>
    <g id="line2d_33">
     <path d="M 182.95375 127.961063 
L 202.95375 127.961063 
" style="fill:none;stroke:#008000;stroke-dasharray:5.55,2.4;stroke-dashoffset:0;stroke-width:1.5;"/>
    </g>
    <g id="line2d_34"/>
    <g id="text_24">
     <!-- gt yaw -->
     <g transform="translate(210.95375 131.461063)scale(0.1 -0.1)">
      <use xlink:href="#DejaVuSans-103"/>
      <use x="63.476562" xlink:href="#DejaVuSans-116"/>
      <use x="102.685547" xlink:href="#DejaVuSans-32"/>
      <use x="134.472656" xlink:href="#DejaVuSans-121"/>
      <use x="193.652344" xlink:href="#DejaVuSans-97"/>
      <use x="254.931641" xlink:href="#DejaVuSans-119"/>
     </g>
    </g>
   </g>
  </g>
 </g>
 <defs>
  <clipPath id="pcfad7d84c2">
   <rect height="266.112" width="357.12" x="57.6" y="41.472"/>
  </clipPath>
 </defs>
</svg>
