<?xml version="1.0" encoding="utf-8" standalone="no"?>
<!DOCTYPE svg PUBLIC "-//W3C//DTD SVG 1.1//EN"
  "http://www.w3.org/Graphics/SVG/1.1/DTD/svg11.dtd">
<!-- Created with matplotlib (https://matplotlib.org/) -->
<svg height="345.6pt" version="1.1" viewBox="0 0 460.8 345.6" width="460.8pt" xmlns="http://www.w3.org/2000/svg" xmlns:xlink="http://www.w3.org/1999/xlink">
 <metadata>
  <rdf:RDF xmlns:cc="http://creativecommons.org/ns#" xmlns:dc="http://purl.org/dc/elements/1.1/" xmlns:rdf="http://www.w3.org/1999/02/22-rdf-syntax-ns#">
   <cc:Work>
    <dc:type rdf:resource="http://purl.org/dc/dcmitype/StillImage"/>
    <dc:date>2023-04-11T16:43:20.253617</dc:date>
    <dc:format>image/svg+xml</dc:format>
    <dc:creator>
     <cc:Agent>
      <dc:title>Matplotlib v3.3.4, https://matplotlib.org/</dc:title>
     </cc:Agent>
    </dc:creator>
   </cc:Work>
  </rdf:RDF>
 </metadata>
 <defs>
  <style type="text/css">*{stroke-linecap:butt;stroke-linejoin:round;}</style>
 </defs>
 <g id="figure_1">
  <g id="patch_1">
   <path d="M 0 345.6 
L 460.8 345.6 
L 460.8 0 
L 0 0 
z
" style="fill:#ffffff;"/>
  </g>
  <g id="axes_1">
   <g id="patch_2">
    <path d="M 57.6 307.584 
L 414.72 307.584 
L 414.72 41.472 
L 57.6 41.472 
z
" style="fill:#ffffff;"/>
   </g>
   <g id="matplotlib.axis_1">
    <g id="xtick_1">
     <g id="line2d_1">
      <defs>
       <path d="M 0 0 
L 0 3.5 
" id="m9a5a724e00" style="stroke:#000000;stroke-width:0.8;"/>
      </defs>
      <g>
       <use style="stroke:#000000;stroke-width:0.8;" x="73.019057" xlink:href="#m9a5a724e00" y="307.584"/>
      </g>
     </g>
     <g id="text_1">
      <!-- 0 -->
      <g transform="translate(69.837807 322.182437)scale(0.1 -0.1)">
       <defs>
        <path d="M 31.78125 66.40625 
Q 24.171875 66.40625 20.328125 58.90625 
Q 16.5 51.421875 16.5 36.375 
Q 16.5 21.390625 20.328125 13.890625 
Q 24.171875 6.390625 31.78125 6.390625 
Q 39.453125 6.390625 43.28125 13.890625 
Q 47.125 21.390625 47.125 36.375 
Q 47.125 51.421875 43.28125 58.90625 
Q 39.453125 66.40625 31.78125 66.40625 
z
M 31.78125 74.21875 
Q 44.046875 74.21875 50.515625 64.515625 
Q 56.984375 54.828125 56.984375 36.375 
Q 56.984375 17.96875 50.515625 8.265625 
Q 44.046875 -1.421875 31.78125 -1.421875 
Q 19.53125 -1.421875 13.0625 8.265625 
Q 6.59375 17.96875 6.59375 36.375 
Q 6.59375 54.828125 13.0625 64.515625 
Q 19.53125 74.21875 31.78125 74.21875 
z
" id="DejaVuSans-48"/>
       </defs>
       <use xlink:href="#DejaVuSans-48"/>
      </g>
     </g>
    </g>
    <g id="xtick_2">
     <g id="line2d_2">
      <g>
       <use style="stroke:#000000;stroke-width:0.8;" x="113.702584" xlink:href="#m9a5a724e00" y="307.584"/>
      </g>
     </g>
     <g id="text_2">
      <!-- 50 -->
      <g transform="translate(107.340084 322.182437)scale(0.1 -0.1)">
       <defs>
        <path d="M 10.796875 72.90625 
L 49.515625 72.90625 
L 49.515625 64.59375 
L 19.828125 64.59375 
L 19.828125 46.734375 
Q 21.96875 47.46875 24.109375 47.828125 
Q 26.265625 48.1875 28.421875 48.1875 
Q 40.625 48.1875 47.75 41.5 
Q 54.890625 34.8125 54.890625 23.390625 
Q 54.890625 11.625 47.5625 5.09375 
Q 40.234375 -1.421875 26.90625 -1.421875 
Q 22.3125 -1.421875 17.546875 -0.640625 
Q 12.796875 0.140625 7.71875 1.703125 
L 7.71875 11.625 
Q 12.109375 9.234375 16.796875 8.0625 
Q 21.484375 6.890625 26.703125 6.890625 
Q 35.15625 6.890625 40.078125 11.328125 
Q 45.015625 15.765625 45.015625 23.390625 
Q 45.015625 31 40.078125 35.4375 
Q 35.15625 39.890625 26.703125 39.890625 
Q 22.75 39.890625 18.8125 39.015625 
Q 14.890625 38.140625 10.796875 36.28125 
z
" id="DejaVuSans-53"/>
       </defs>
       <use xlink:href="#DejaVuSans-53"/>
       <use x="63.623047" xlink:href="#DejaVuSans-48"/>
      </g>
     </g>
    </g>
    <g id="xtick_3">
     <g id="line2d_3">
      <g>
       <use style="stroke:#000000;stroke-width:0.8;" x="154.386111" xlink:href="#m9a5a724e00" y="307.584"/>
      </g>
     </g>
     <g id="text_3">
      <!-- 100 -->
      <g transform="translate(144.842361 322.182437)scale(0.1 -0.1)">
       <defs>
        <path d="M 12.40625 8.296875 
L 28.515625 8.296875 
L 28.515625 63.921875 
L 10.984375 60.40625 
L 10.984375 69.390625 
L 28.421875 72.90625 
L 38.28125 72.90625 
L 38.28125 8.296875 
L 54.390625 8.296875 
L 54.390625 0 
L 12.40625 0 
z
" id="DejaVuSans-49"/>
       </defs>
       <use xlink:href="#DejaVuSans-49"/>
       <use x="63.623047" xlink:href="#DejaVuSans-48"/>
       <use x="127.246094" xlink:href="#DejaVuSans-48"/>
      </g>
     </g>
    </g>
    <g id="xtick_4">
     <g id="line2d_4">
      <g>
       <use style="stroke:#000000;stroke-width:0.8;" x="195.069638" xlink:href="#m9a5a724e00" y="307.584"/>
      </g>
     </g>
     <g id="text_4">
      <!-- 150 -->
      <g transform="translate(185.525888 322.182437)scale(0.1 -0.1)">
       <use xlink:href="#DejaVuSans-49"/>
       <use x="63.623047" xlink:href="#DejaVuSans-53"/>
       <use x="127.246094" xlink:href="#DejaVuSans-48"/>
      </g>
     </g>
    </g>
    <g id="xtick_5">
     <g id="line2d_5">
      <g>
       <use style="stroke:#000000;stroke-width:0.8;" x="235.753165" xlink:href="#m9a5a724e00" y="307.584"/>
      </g>
     </g>
     <g id="text_5">
      <!-- 200 -->
      <g transform="translate(226.209415 322.182437)scale(0.1 -0.1)">
       <defs>
        <path d="M 19.1875 8.296875 
L 53.609375 8.296875 
L 53.609375 0 
L 7.328125 0 
L 7.328125 8.296875 
Q 12.9375 14.109375 22.625 23.890625 
Q 32.328125 33.6875 34.8125 36.53125 
Q 39.546875 41.84375 41.421875 45.53125 
Q 43.3125 49.21875 43.3125 52.78125 
Q 43.3125 58.59375 39.234375 62.25 
Q 35.15625 65.921875 28.609375 65.921875 
Q 23.96875 65.921875 18.8125 64.3125 
Q 13.671875 62.703125 7.8125 59.421875 
L 7.8125 69.390625 
Q 13.765625 71.78125 18.9375 73 
Q 24.125 74.21875 28.421875 74.21875 
Q 39.75 74.21875 46.484375 68.546875 
Q 53.21875 62.890625 53.21875 53.421875 
Q 53.21875 48.921875 51.53125 44.890625 
Q 49.859375 40.875 45.40625 35.40625 
Q 44.1875 33.984375 37.640625 27.21875 
Q 31.109375 20.453125 19.1875 8.296875 
z
" id="DejaVuSans-50"/>
       </defs>
       <use xlink:href="#DejaVuSans-50"/>
       <use x="63.623047" xlink:href="#DejaVuSans-48"/>
       <use x="127.246094" xlink:href="#DejaVuSans-48"/>
      </g>
     </g>
    </g>
    <g id="xtick_6">
     <g id="line2d_6">
      <g>
       <use style="stroke:#000000;stroke-width:0.8;" x="276.436692" xlink:href="#m9a5a724e00" y="307.584"/>
      </g>
     </g>
     <g id="text_6">
      <!-- 250 -->
      <g transform="translate(266.892942 322.182437)scale(0.1 -0.1)">
       <use xlink:href="#DejaVuSans-50"/>
       <use x="63.623047" xlink:href="#DejaVuSans-53"/>
       <use x="127.246094" xlink:href="#DejaVuSans-48"/>
      </g>
     </g>
    </g>
    <g id="xtick_7">
     <g id="line2d_7">
      <g>
       <use style="stroke:#000000;stroke-width:0.8;" x="317.120219" xlink:href="#m9a5a724e00" y="307.584"/>
      </g>
     </g>
     <g id="text_7">
      <!-- 300 -->
      <g transform="translate(307.576469 322.182437)scale(0.1 -0.1)">
       <defs>
        <path d="M 40.578125 39.3125 
Q 47.65625 37.796875 51.625 33 
Q 55.609375 28.21875 55.609375 21.1875 
Q 55.609375 10.40625 48.1875 4.484375 
Q 40.765625 -1.421875 27.09375 -1.421875 
Q 22.515625 -1.421875 17.65625 -0.515625 
Q 12.796875 0.390625 7.625 2.203125 
L 7.625 11.71875 
Q 11.71875 9.328125 16.59375 8.109375 
Q 21.484375 6.890625 26.8125 6.890625 
Q 36.078125 6.890625 40.9375 10.546875 
Q 45.796875 14.203125 45.796875 21.1875 
Q 45.796875 27.640625 41.28125 31.265625 
Q 36.765625 34.90625 28.71875 34.90625 
L 20.21875 34.90625 
L 20.21875 43.015625 
L 29.109375 43.015625 
Q 36.375 43.015625 40.234375 45.921875 
Q 44.09375 48.828125 44.09375 54.296875 
Q 44.09375 59.90625 40.109375 62.90625 
Q 36.140625 65.921875 28.71875 65.921875 
Q 24.65625 65.921875 20.015625 65.03125 
Q 15.375 64.15625 9.8125 62.3125 
L 9.8125 71.09375 
Q 15.4375 72.65625 20.34375 73.4375 
Q 25.25 74.21875 29.59375 74.21875 
Q 40.828125 74.21875 47.359375 69.109375 
Q 53.90625 64.015625 53.90625 55.328125 
Q 53.90625 49.265625 50.4375 45.09375 
Q 46.96875 40.921875 40.578125 39.3125 
z
" id="DejaVuSans-51"/>
       </defs>
       <use xlink:href="#DejaVuSans-51"/>
       <use x="63.623047" xlink:href="#DejaVuSans-48"/>
       <use x="127.246094" xlink:href="#DejaVuSans-48"/>
      </g>
     </g>
    </g>
    <g id="xtick_8">
     <g id="line2d_8">
      <g>
       <use style="stroke:#000000;stroke-width:0.8;" x="357.803746" xlink:href="#m9a5a724e00" y="307.584"/>
      </g>
     </g>
     <g id="text_8">
      <!-- 350 -->
      <g transform="translate(348.259996 322.182437)scale(0.1 -0.1)">
       <use xlink:href="#DejaVuSans-51"/>
       <use x="63.623047" xlink:href="#DejaVuSans-53"/>
       <use x="127.246094" xlink:href="#DejaVuSans-48"/>
      </g>
     </g>
    </g>
    <g id="xtick_9">
     <g id="line2d_9">
      <g>
       <use style="stroke:#000000;stroke-width:0.8;" x="398.487273" xlink:href="#m9a5a724e00" y="307.584"/>
      </g>
     </g>
     <g id="text_9">
      <!-- 400 -->
      <g transform="translate(388.943523 322.182437)scale(0.1 -0.1)">
       <defs>
        <path d="M 37.796875 64.3125 
L 12.890625 25.390625 
L 37.796875 25.390625 
z
M 35.203125 72.90625 
L 47.609375 72.90625 
L 47.609375 25.390625 
L 58.015625 25.390625 
L 58.015625 17.1875 
L 47.609375 17.1875 
L 47.609375 0 
L 37.796875 0 
L 37.796875 17.1875 
L 4.890625 17.1875 
L 4.890625 26.703125 
z
" id="DejaVuSans-52"/>
       </defs>
       <use xlink:href="#DejaVuSans-52"/>
       <use x="63.623047" xlink:href="#DejaVuSans-48"/>
       <use x="127.246094" xlink:href="#DejaVuSans-48"/>
      </g>
     </g>
    </g>
    <g id="text_10">
     <!-- time [s] -->
     <g transform="translate(216.768594 335.860562)scale(0.1 -0.1)">
      <defs>
       <path d="M 18.3125 70.21875 
L 18.3125 54.6875 
L 36.8125 54.6875 
L 36.8125 47.703125 
L 18.3125 47.703125 
L 18.3125 18.015625 
Q 18.3125 11.328125 20.140625 9.421875 
Q 21.96875 7.515625 27.59375 7.515625 
L 36.8125 7.515625 
L 36.8125 0 
L 27.59375 0 
Q 17.1875 0 13.234375 3.875 
Q 9.28125 7.765625 9.28125 18.015625 
L 9.28125 47.703125 
L 2.6875 47.703125 
L 2.6875 54.6875 
L 9.28125 54.6875 
L 9.28125 70.21875 
z
" id="DejaVuSans-116"/>
       <path d="M 9.421875 54.6875 
L 18.40625 54.6875 
L 18.40625 0 
L 9.421875 0 
z
M 9.421875 75.984375 
L 18.40625 75.984375 
L 18.40625 64.59375 
L 9.421875 64.59375 
z
" id="DejaVuSans-105"/>
       <path d="M 52 44.1875 
Q 55.375 50.25 60.0625 53.125 
Q 64.75 56 71.09375 56 
Q 79.640625 56 84.28125 50.015625 
Q 88.921875 44.046875 88.921875 33.015625 
L 88.921875 0 
L 79.890625 0 
L 79.890625 32.71875 
Q 79.890625 40.578125 77.09375 44.375 
Q 74.3125 48.1875 68.609375 48.1875 
Q 61.625 48.1875 57.5625 43.546875 
Q 53.515625 38.921875 53.515625 30.90625 
L 53.515625 0 
L 44.484375 0 
L 44.484375 32.71875 
Q 44.484375 40.625 41.703125 44.40625 
Q 38.921875 48.1875 33.109375 48.1875 
Q 26.21875 48.1875 22.15625 43.53125 
Q 18.109375 38.875 18.109375 30.90625 
L 18.109375 0 
L 9.078125 0 
L 9.078125 54.6875 
L 18.109375 54.6875 
L 18.109375 46.1875 
Q 21.1875 51.21875 25.484375 53.609375 
Q 29.78125 56 35.6875 56 
Q 41.65625 56 45.828125 52.96875 
Q 50 49.953125 52 44.1875 
z
" id="DejaVuSans-109"/>
       <path d="M 56.203125 29.59375 
L 56.203125 25.203125 
L 14.890625 25.203125 
Q 15.484375 15.921875 20.484375 11.0625 
Q 25.484375 6.203125 34.421875 6.203125 
Q 39.59375 6.203125 44.453125 7.46875 
Q 49.3125 8.734375 54.109375 11.28125 
L 54.109375 2.78125 
Q 49.265625 0.734375 44.1875 -0.34375 
Q 39.109375 -1.421875 33.890625 -1.421875 
Q 20.796875 -1.421875 13.15625 6.1875 
Q 5.515625 13.8125 5.515625 26.8125 
Q 5.515625 40.234375 12.765625 48.109375 
Q 20.015625 56 32.328125 56 
Q 43.359375 56 49.78125 48.890625 
Q 56.203125 41.796875 56.203125 29.59375 
z
M 47.21875 32.234375 
Q 47.125 39.59375 43.09375 43.984375 
Q 39.0625 48.390625 32.421875 48.390625 
Q 24.90625 48.390625 20.390625 44.140625 
Q 15.875 39.890625 15.1875 32.171875 
z
" id="DejaVuSans-101"/>
       <path id="DejaVuSans-32"/>
       <path d="M 8.59375 75.984375 
L 29.296875 75.984375 
L 29.296875 69 
L 17.578125 69 
L 17.578125 -6.203125 
L 29.296875 -6.203125 
L 29.296875 -13.1875 
L 8.59375 -13.1875 
z
" id="DejaVuSans-91"/>
       <path d="M 44.28125 53.078125 
L 44.28125 44.578125 
Q 40.484375 46.53125 36.375 47.5 
Q 32.28125 48.484375 27.875 48.484375 
Q 21.1875 48.484375 17.84375 46.4375 
Q 14.5 44.390625 14.5 40.28125 
Q 14.5 37.15625 16.890625 35.375 
Q 19.28125 33.59375 26.515625 31.984375 
L 29.59375 31.296875 
Q 39.15625 29.25 43.1875 25.515625 
Q 47.21875 21.78125 47.21875 15.09375 
Q 47.21875 7.46875 41.1875 3.015625 
Q 35.15625 -1.421875 24.609375 -1.421875 
Q 20.21875 -1.421875 15.453125 -0.5625 
Q 10.6875 0.296875 5.421875 2 
L 5.421875 11.28125 
Q 10.40625 8.6875 15.234375 7.390625 
Q 20.0625 6.109375 24.8125 6.109375 
Q 31.15625 6.109375 34.5625 8.28125 
Q 37.984375 10.453125 37.984375 14.40625 
Q 37.984375 18.0625 35.515625 20.015625 
Q 33.0625 21.96875 24.703125 23.78125 
L 21.578125 24.515625 
Q 13.234375 26.265625 9.515625 29.90625 
Q 5.8125 33.546875 5.8125 39.890625 
Q 5.8125 47.609375 11.28125 51.796875 
Q 16.75 56 26.8125 56 
Q 31.78125 56 36.171875 55.265625 
Q 40.578125 54.546875 44.28125 53.078125 
z
" id="DejaVuSans-115"/>
       <path d="M 30.421875 75.984375 
L 30.421875 -13.1875 
L 9.71875 -13.1875 
L 9.71875 -6.203125 
L 21.390625 -6.203125 
L 21.390625 69 
L 9.71875 69 
L 9.71875 75.984375 
z
" id="DejaVuSans-93"/>
      </defs>
      <use xlink:href="#DejaVuSans-116"/>
      <use x="39.208984" xlink:href="#DejaVuSans-105"/>
      <use x="66.992188" xlink:href="#DejaVuSans-109"/>
      <use x="164.404297" xlink:href="#DejaVuSans-101"/>
      <use x="225.927734" xlink:href="#DejaVuSans-32"/>
      <use x="257.714844" xlink:href="#DejaVuSans-91"/>
      <use x="296.728516" xlink:href="#DejaVuSans-115"/>
      <use x="348.828125" xlink:href="#DejaVuSans-93"/>
     </g>
    </g>
   </g>
   <g id="matplotlib.axis_2">
    <g id="ytick_1">
     <g id="line2d_10">
      <defs>
       <path d="M 0 0 
L -3.5 0 
" id="m1d45d7b46c" style="stroke:#000000;stroke-width:0.8;"/>
      </defs>
      <g>
       <use style="stroke:#000000;stroke-width:0.8;" x="57.6" xlink:href="#m1d45d7b46c" y="276.301773"/>
      </g>
     </g>
     <g id="text_11">
      <!-- −400 -->
      <g transform="translate(23.132812 280.100992)scale(0.1 -0.1)">
       <defs>
        <path d="M 10.59375 35.5 
L 73.1875 35.5 
L 73.1875 27.203125 
L 10.59375 27.203125 
z
" id="DejaVuSans-8722"/>
       </defs>
       <use xlink:href="#DejaVuSans-8722"/>
       <use x="83.789062" xlink:href="#DejaVuSans-52"/>
       <use x="147.412109" xlink:href="#DejaVuSans-48"/>
       <use x="211.035156" xlink:href="#DejaVuSans-48"/>
      </g>
     </g>
    </g>
    <g id="ytick_2">
     <g id="line2d_11">
      <g>
       <use style="stroke:#000000;stroke-width:0.8;" x="57.6" xlink:href="#m1d45d7b46c" y="239.015479"/>
      </g>
     </g>
     <g id="text_12">
      <!-- −300 -->
      <g transform="translate(23.132812 242.814698)scale(0.1 -0.1)">
       <use xlink:href="#DejaVuSans-8722"/>
       <use x="83.789062" xlink:href="#DejaVuSans-51"/>
       <use x="147.412109" xlink:href="#DejaVuSans-48"/>
       <use x="211.035156" xlink:href="#DejaVuSans-48"/>
      </g>
     </g>
    </g>
    <g id="ytick_3">
     <g id="line2d_12">
      <g>
       <use style="stroke:#000000;stroke-width:0.8;" x="57.6" xlink:href="#m1d45d7b46c" y="201.729186"/>
      </g>
     </g>
     <g id="text_13">
      <!-- −200 -->
      <g transform="translate(23.132812 205.528404)scale(0.1 -0.1)">
       <use xlink:href="#DejaVuSans-8722"/>
       <use x="83.789062" xlink:href="#DejaVuSans-50"/>
       <use x="147.412109" xlink:href="#DejaVuSans-48"/>
       <use x="211.035156" xlink:href="#DejaVuSans-48"/>
      </g>
     </g>
    </g>
    <g id="ytick_4">
     <g id="line2d_13">
      <g>
       <use style="stroke:#000000;stroke-width:0.8;" x="57.6" xlink:href="#m1d45d7b46c" y="164.442892"/>
      </g>
     </g>
     <g id="text_14">
      <!-- −100 -->
      <g transform="translate(23.132812 168.242111)scale(0.1 -0.1)">
       <use xlink:href="#DejaVuSans-8722"/>
       <use x="83.789062" xlink:href="#DejaVuSans-49"/>
       <use x="147.412109" xlink:href="#DejaVuSans-48"/>
       <use x="211.035156" xlink:href="#DejaVuSans-48"/>
      </g>
     </g>
    </g>
    <g id="ytick_5">
     <g id="line2d_14">
      <g>
       <use style="stroke:#000000;stroke-width:0.8;" x="57.6" xlink:href="#m1d45d7b46c" y="127.156598"/>
      </g>
     </g>
     <g id="text_15">
      <!-- 0 -->
      <g transform="translate(44.2375 130.955817)scale(0.1 -0.1)">
       <use xlink:href="#DejaVuSans-48"/>
      </g>
     </g>
    </g>
    <g id="ytick_6">
     <g id="line2d_15">
      <g>
       <use style="stroke:#000000;stroke-width:0.8;" x="57.6" xlink:href="#m1d45d7b46c" y="89.870305"/>
      </g>
     </g>
     <g id="text_16">
      <!-- 100 -->
      <g transform="translate(31.5125 93.669523)scale(0.1 -0.1)">
       <use xlink:href="#DejaVuSans-49"/>
       <use x="63.623047" xlink:href="#DejaVuSans-48"/>
       <use x="127.246094" xlink:href="#DejaVuSans-48"/>
      </g>
     </g>
    </g>
    <g id="ytick_7">
     <g id="line2d_16">
      <g>
       <use style="stroke:#000000;stroke-width:0.8;" x="57.6" xlink:href="#m1d45d7b46c" y="52.584011"/>
      </g>
     </g>
     <g id="text_17">
      <!-- 200 -->
      <g transform="translate(31.5125 56.38323)scale(0.1 -0.1)">
       <use xlink:href="#DejaVuSans-50"/>
       <use x="63.623047" xlink:href="#DejaVuSans-48"/>
       <use x="127.246094" xlink:href="#DejaVuSans-48"/>
      </g>
     </g>
    </g>
    <g id="text_18">
     <!-- position [m] -->
     <g transform="translate(17.053125 204.693625)rotate(-90)scale(0.1 -0.1)">
      <defs>
       <path d="M 18.109375 8.203125 
L 18.109375 -20.796875 
L 9.078125 -20.796875 
L 9.078125 54.6875 
L 18.109375 54.6875 
L 18.109375 46.390625 
Q 20.953125 51.265625 25.265625 53.625 
Q 29.59375 56 35.59375 56 
Q 45.5625 56 51.78125 48.09375 
Q 58.015625 40.1875 58.015625 27.296875 
Q 58.015625 14.40625 51.78125 6.484375 
Q 45.5625 -1.421875 35.59375 -1.421875 
Q 29.59375 -1.421875 25.265625 0.953125 
Q 20.953125 3.328125 18.109375 8.203125 
z
M 48.6875 27.296875 
Q 48.6875 37.203125 44.609375 42.84375 
Q 40.53125 48.484375 33.40625 48.484375 
Q 26.265625 48.484375 22.1875 42.84375 
Q 18.109375 37.203125 18.109375 27.296875 
Q 18.109375 17.390625 22.1875 11.75 
Q 26.265625 6.109375 33.40625 6.109375 
Q 40.53125 6.109375 44.609375 11.75 
Q 48.6875 17.390625 48.6875 27.296875 
z
" id="DejaVuSans-112"/>
       <path d="M 30.609375 48.390625 
Q 23.390625 48.390625 19.1875 42.75 
Q 14.984375 37.109375 14.984375 27.296875 
Q 14.984375 17.484375 19.15625 11.84375 
Q 23.34375 6.203125 30.609375 6.203125 
Q 37.796875 6.203125 41.984375 11.859375 
Q 46.1875 17.53125 46.1875 27.296875 
Q 46.1875 37.015625 41.984375 42.703125 
Q 37.796875 48.390625 30.609375 48.390625 
z
M 30.609375 56 
Q 42.328125 56 49.015625 48.375 
Q 55.71875 40.765625 55.71875 27.296875 
Q 55.71875 13.875 49.015625 6.21875 
Q 42.328125 -1.421875 30.609375 -1.421875 
Q 18.84375 -1.421875 12.171875 6.21875 
Q 5.515625 13.875 5.515625 27.296875 
Q 5.515625 40.765625 12.171875 48.375 
Q 18.84375 56 30.609375 56 
z
" id="DejaVuSans-111"/>
       <path d="M 54.890625 33.015625 
L 54.890625 0 
L 45.90625 0 
L 45.90625 32.71875 
Q 45.90625 40.484375 42.875 44.328125 
Q 39.84375 48.1875 33.796875 48.1875 
Q 26.515625 48.1875 22.3125 43.546875 
Q 18.109375 38.921875 18.109375 30.90625 
L 18.109375 0 
L 9.078125 0 
L 9.078125 54.6875 
L 18.109375 54.6875 
L 18.109375 46.1875 
Q 21.34375 51.125 25.703125 53.5625 
Q 30.078125 56 35.796875 56 
Q 45.21875 56 50.046875 50.171875 
Q 54.890625 44.34375 54.890625 33.015625 
z
" id="DejaVuSans-110"/>
      </defs>
      <use xlink:href="#DejaVuSans-112"/>
      <use x="63.476562" xlink:href="#DejaVuSans-111"/>
      <use x="124.658203" xlink:href="#DejaVuSans-115"/>
      <use x="176.757812" xlink:href="#DejaVuSans-105"/>
      <use x="204.541016" xlink:href="#DejaVuSans-116"/>
      <use x="243.75" xlink:href="#DejaVuSans-105"/>
      <use x="271.533203" xlink:href="#DejaVuSans-111"/>
      <use x="332.714844" xlink:href="#DejaVuSans-110"/>
      <use x="396.09375" xlink:href="#DejaVuSans-32"/>
      <use x="427.880859" xlink:href="#DejaVuSans-91"/>
      <use x="466.894531" xlink:href="#DejaVuSans-109"/>
      <use x="564.306641" xlink:href="#DejaVuSans-93"/>
     </g>
    </g>
   </g>
   <g id="line2d_17">
    <path clip-path="url(#pbb5a94b55f)" d="M 73.832727 127.156598 
L 80.342092 127.237709 
L 81.155762 127.507508 
L 81.969433 128.0946 
L 82.783103 129.016273 
L 85.224115 132.374255 
L 86.037785 133.052384 
L 86.851456 132.887176 
L 87.665126 131.895279 
L 89.292468 129.135914 
L 91.733479 124.389971 
L 93.36082 120.299738 
L 95.801832 113.191094 
L 99.056514 103.752395 
L 99.870185 101.714787 
L 100.683855 100.160432 
L 101.497526 99.233304 
L 102.311196 98.919103 
L 114.516254 98.910885 
L 130.789665 98.889645 
L 131.603336 98.787188 
L 132.417006 98.555806 
L 134.858018 97.385449 
L 135.671688 97.211699 
L 138.1127 97.095901 
L 138.92637 96.935492 
L 139.740041 96.644982 
L 140.553712 96.619254 
L 141.367382 97.183504 
L 142.181053 98.385439 
L 142.994723 100.028898 
L 144.622064 104.103879 
L 146.249405 108.761797 
L 152.75877 128.906904 
L 155.199781 136.344325 
L 157.640793 144.76642 
L 162.522816 161.649206 
L 164.150157 166.673173 
L 168.21851 178.106683 
L 171.473192 188.66462 
L 180.423568 219.308697 
L 183.67825 230.352323 
L 185.305591 235.867366 
L 186.119262 238.17353 
L 186.932932 240.03208 
L 187.746603 241.278121 
L 188.560273 241.864375 
L 190.187614 241.965874 
L 229.2438 241.980299 
L 230.057471 242.079023 
L 230.871141 242.326844 
L 231.684812 242.822699 
L 233.312153 243.4129 
L 234.125824 244.219758 
L 234.939494 245.580425 
L 235.753165 247.519768 
L 240.635188 260.786809 
L 241.448859 262.635824 
L 242.262529 263.971038 
L 243.0762 264.565446 
L 243.88987 264.537951 
L 245.517211 263.787406 
L 247.144552 262.753694 
L 248.771893 261.449319 
L 252.840246 257.650476 
L 254.467587 256.575051 
L 256.094928 255.848346 
L 258.53594 254.838551 
L 261.790622 253.141897 
L 266.672645 250.398033 
L 267.486316 249.721752 
L 269.113657 247.862663 
L 271.554668 244.752576 
L 273.99568 241.948723 
L 274.809351 241.274714 
L 275.623021 240.866357 
L 276.436692 240.641152 
L 278.064033 240.53709 
L 290.269091 240.490883 
L 291.082761 240.38618 
L 291.896432 240.141124 
L 293.523773 239.294952 
L 295.151114 238.101153 
L 295.964785 237.382634 
L 297.592126 235.584321 
L 299.219467 233.545012 
L 300.846808 231.188724 
L 306.542502 222.970509 
L 308.169843 220.925573 
L 309.797184 219.204779 
L 311.424525 217.950926 
L 312.238195 217.515579 
L 313.865537 216.976387 
L 315.492878 216.688113 
L 317.933889 216.621835 
L 329.325277 216.517347 
L 330.952618 216.311147 
L 331.766288 216.074316 
L 332.579959 215.707276 
L 333.39363 215.200316 
L 335.020971 213.776988 
L 336.648312 211.830917 
L 339.089323 208.259616 
L 340.716664 205.539484 
L 342.344005 202.454164 
L 343.157676 200.529927 
L 344.785017 195.751181 
L 346.412358 189.961578 
L 348.039699 183.060569 
L 353.735393 156.163926 
L 358.617416 131.989149 
L 360.244757 125.051476 
L 361.872098 119.141765 
L 364.31311 111.685412 
L 365.126781 109.434181 
L 365.940451 107.719232 
L 366.754122 106.770557 
L 367.567792 106.386235 
L 369.195133 106.056225 
L 371.636145 105.802734 
L 374.077157 105.825886 
L 381.400191 105.983619 
L 382.213862 106.252985 
L 383.027532 106.869097 
L 383.841203 107.953407 
L 384.654874 109.446684 
L 386.282215 113.341145 
L 389.536897 121.690816 
L 391.164238 125.512295 
L 391.977908 127.14155 
L 392.791579 128.443162 
L 393.605249 129.305816 
L 394.41892 129.724603 
L 396.046261 129.806675 
L 398.487273 129.806888 
L 398.487273 129.806888 
" style="fill:none;stroke:#ff0000;stroke-dasharray:5.55,2.4;stroke-dashoffset:0;stroke-width:1.5;"/>
   </g>
   <g id="line2d_18">
    <path clip-path="url(#pbb5a94b55f)" d="M 73.832727 127.156598 
L 80.342092 127.207406 
L 81.155762 127.434494 
L 81.969433 127.943378 
L 82.783103 128.727865 
L 85.224115 131.62966 
L 89.292468 138.52993 
L 90.106138 140.333676 
L 91.733479 144.730125 
L 94.174491 152.125508 
L 99.870185 170.612614 
L 100.683855 172.367379 
L 101.497526 173.431478 
L 102.311196 173.790115 
L 120.211948 173.789771 
L 130.789665 173.808583 
L 131.603336 173.927402 
L 132.417006 174.197613 
L 134.858018 175.622298 
L 135.671688 175.861657 
L 138.1127 176.016604 
L 138.92637 176.272478 
L 139.740041 176.982529 
L 140.553712 178.183917 
L 144.622064 185.679349 
L 146.249405 189.598699 
L 147.876746 194.122813 
L 151.131429 203.371161 
L 156.827122 218.716448 
L 159.268134 226.090704 
L 162.522816 236.003617 
L 165.777498 245.542971 
L 168.21851 253.041177 
L 173.100533 266.529241 
L 174.727874 271.168995 
L 181.237239 291.164348 
L 182.050909 293.022068 
L 182.86458 294.34865 
L 183.67825 295.169786 
L 184.491921 295.488 
L 185.305591 295.405373 
L 187.746603 294.82046 
L 189.373944 294.74521 
L 230.871141 294.736513 
L 235.753165 294.286014 
L 238.194176 293.968979 
L 239.007847 293.717871 
L 239.821517 293.251717 
L 240.635188 292.193302 
L 241.448859 290.49916 
L 242.262529 288.226527 
L 243.88987 282.804841 
L 245.517211 276.708461 
L 247.144552 269.659119 
L 254.467587 236.450263 
L 256.094928 231.472576 
L 257.722269 226.756268 
L 260.976951 215.803661 
L 265.858975 198.82269 
L 268.299986 189.284804 
L 272.368339 172.075642 
L 273.99568 166.319568 
L 274.809351 164.228306 
L 275.623021 162.856954 
L 276.436692 162.089676 
L 277.250362 161.777145 
L 279.691374 161.739643 
L 290.269091 161.720606 
L 291.082761 161.461521 
L 291.896432 160.69516 
L 292.710103 159.475199 
L 293.523773 157.842353 
L 295.151114 153.699507 
L 296.778455 148.603243 
L 298.405796 142.63258 
L 300.033137 135.918035 
L 303.28782 121.218978 
L 306.542502 106.810655 
L 308.169843 100.444305 
L 309.797184 95.228759 
L 310.610854 93.051361 
L 311.424525 91.290634 
L 312.238195 89.962518 
L 313.051866 89.060363 
L 313.865537 88.364881 
L 314.679207 87.845448 
L 315.492878 87.508831 
L 316.306548 87.350902 
L 322.002242 87.3462 
L 326.884265 87.239423 
L 329.325277 86.999491 
L 330.138947 86.761508 
L 330.952618 86.36812 
L 331.766288 85.652452 
L 332.579959 84.572871 
L 333.39363 83.105178 
L 334.2073 81.252699 
L 335.834641 76.680223 
L 337.461982 71.293905 
L 340.716664 60.019506 
L 341.530335 57.566858 
L 342.344005 55.515974 
L 343.157676 54.121241 
L 343.971347 53.568 
L 344.785017 53.829183 
L 345.598688 54.702015 
L 346.412358 55.974547 
L 348.039699 59.110843 
L 351.294381 65.862829 
L 353.735393 70.813071 
L 355.362734 73.373345 
L 356.990075 75.205437 
L 357.803746 75.843585 
L 358.617416 76.30958 
L 359.431087 76.576699 
L 361.872098 76.802759 
L 362.685769 77.211058 
L 363.49944 78.048644 
L 364.31311 79.276983 
L 365.126781 80.995051 
L 365.940451 83.323161 
L 368.381463 91.436854 
L 370.008804 95.997768 
L 370.822474 97.870786 
L 371.636145 99.34812 
L 372.449815 100.398575 
L 373.263486 100.993936 
L 374.077157 101.266671 
L 375.704498 101.363127 
L 378.95918 101.387097 
L 379.77285 101.536425 
L 380.586521 102.002759 
L 381.400191 102.950795 
L 382.213862 104.344865 
L 383.027532 106.13875 
L 387.909556 118.476087 
L 390.350567 123.883431 
L 391.977908 126.999586 
L 392.791579 128.145349 
L 393.605249 128.920889 
L 394.41892 129.293291 
L 396.046261 129.371281 
L 398.487273 129.368413 
L 398.487273 129.368413 
" style="fill:none;stroke:#0000ff;stroke-dasharray:5.55,2.4;stroke-dashoffset:0;stroke-width:1.5;"/>
   </g>
   <g id="line2d_19">
    <path clip-path="url(#pbb5a94b55f)" d="M 73.832727 127.156598 
L 91.733479 127.275235 
L 108.00689 127.249695 
L 149.504087 127.367621 
L 156.827122 127.447757 
L 176.355215 127.565647 
L 187.746603 127.598543 
L 192.628626 127.471052 
L 194.255967 127.309976 
L 256.908599 127.385979 
L 264.231634 127.379629 
L 297.592126 127.176666 
L 305.728831 127.230968 
L 319.56123 127.151904 
L 344.785017 127.238889 
L 347.226029 127.345918 
L 352.108052 127.249359 
L 353.735393 126.994132 
L 356.990075 126.308193 
L 358.617416 126.322682 
L 361.058428 126.689572 
L 365.940451 127.600045 
L 367.567792 127.63501 
L 370.822474 127.351136 
L 376.518168 127.328724 
L 384.654874 127.380814 
L 386.282215 127.23982 
L 398.487273 127.267341 
L 398.487273 127.267341 
" style="fill:none;stroke:#008000;stroke-dasharray:5.55,2.4;stroke-dashoffset:0;stroke-width:1.5;"/>
   </g>
   <g id="line2d_20">
    <path clip-path="url(#pbb5a94b55f)" d="M 73.832727 127.156598 
L 77.491952 127.250216 
L 79.524855 127.420108 
L 80.541306 127.715982 
L 81.151177 128.219847 
L 81.557757 129.049632 
L 82.167628 130.333535 
L 82.574208 131.298451 
L 83.184079 132.855235 
L 84.200531 135.635712 
L 84.607111 136.819861 
L 85.216982 140.017378 
L 85.420272 139.658267 
L 85.623562 138.451229 
L 86.233433 137.52217 
L 87.453175 137.168676 
L 87.859755 136.941948 
L 88.469626 136.800372 
L 90.909109 135.22444 
L 91.31569 134.871428 
L 92.128851 134.574952 
L 94.365044 133.233883 
L 95.178205 133.095428 
L 95.584785 132.515948 
L 96.194656 131.65994 
L 97.007817 129.748644 
L 97.211107 129.157913 
L 97.820978 128.759486 
L 98.430849 127.385766 
L 98.634139 112.225039 
L 98.837429 110.073688 
L 99.4473 107.946328 
L 99.853881 106.976483 
L 100.057171 106.665374 
L 100.463751 105.574945 
L 101.480203 103.855283 
L 102.496654 102.987833 
L 103.309815 102.827641 
L 103.513105 105.557738 
L 103.919686 103.110412 
L 104.936137 100.391726 
L 105.546008 99.419615 
L 106.359169 98.791299 
L 107.17233 98.555031 
L 109.205233 98.094593 
L 110.424974 97.89738 
L 111.848006 97.544024 
L 113.271038 97.330553 
L 115.10065 97.01137 
L 121.402648 97.10485 
L 125.265163 97.660742 
L 128.517807 98.179374 
L 131.363871 98.587626 
L 131.973742 98.543422 
L 133.396773 98.1159 
L 134.006644 97.829138 
L 134.209935 97.852132 
L 134.616515 97.694228 
L 136.446127 98.020645 
L 136.852708 98.253397 
L 138.27574 99.078132 
L 138.885611 99.014271 
L 139.088901 99.066184 
L 139.495481 98.813963 
L 140.308642 98.53596 
L 141.934964 97.773476 
L 142.544835 98.006689 
L 143.154706 98.413611 
L 144.171157 99.01016 
L 146.61064 100.587881 
L 146.813931 100.979835 
L 147.017221 101.05182 
L 147.830382 101.935097 
L 148.236962 102.483544 
L 148.440253 102.633524 
L 149.050124 103.685404 
L 149.253414 103.810578 
L 149.456704 104.308946 
L 150.066575 104.894099 
L 150.879736 106.265373 
L 151.286316 106.701952 
L 151.489607 106.936476 
L 151.896187 107.558142 
L 152.506058 108.137132 
L 153.7258 109.650561 
L 154.945541 110.605568 
L 155.352122 110.99378 
L 155.555412 112.355275 
L 155.758702 112.233851 
L 155.961992 112.286835 
L 156.165283 111.153152 
L 156.775153 111.583789 
L 157.588314 112.37856 
L 158.808056 113.125551 
L 159.621217 113.533325 
L 159.824507 113.091445 
L 160.637668 112.662307 
L 160.840959 112.797853 
L 161.044249 112.326583 
L 161.450829 112.4689 
L 161.65412 112.413047 
L 161.85741 112.474151 
L 162.670571 113.354359 
L 163.077151 114.461302 
L 163.483732 115.162632 
L 164.500183 117.209233 
L 164.906764 118.568534 
L 165.313344 120.586378 
L 168.159408 131.911825 
L 168.769279 132.897038 
L 171.005472 135.164139 
L 171.208762 135.12466 
L 172.631794 136.172574 
L 173.038374 136.597493 
L 173.648245 137.528848 
L 174.054826 138.456525 
L 176.291018 144.537201 
L 177.91734 148.919542 
L 178.527211 150.747228 
L 179.340372 153.256011 
L 179.746953 154.099848 
L 180.153533 157.924578 
L 180.560114 159.8586 
L 180.966694 161.053196 
L 181.373275 161.377179 
L 181.779855 161.329057 
L 181.983146 161.42072 
L 182.389726 161.777795 
L 182.796307 161.593289 
L 183.202887 162.418607 
L 183.406177 162.314098 
L 183.609468 162.65735 
L 183.812758 162.782276 
L 184.422629 163.845248 
L 184.829209 164.213181 
L 185.0325 164.196915 
L 185.43908 164.633482 
L 185.64237 163.904714 
L 186.252241 165.249193 
L 186.455531 165.181944 
L 186.862112 166.482913 
L 187.268692 168.471446 
L 188.081853 173.572902 
L 188.895015 179.168446 
L 189.911466 186.919183 
L 191.944368 207.310967 
L 192.350949 212.470217 
L 192.554239 239.198201 
L 192.757529 241.870484 
L 193.16411 243.708662 
L 193.57069 244.488262 
L 194.180561 245.048615 
L 194.587142 245.156134 
L 194.790432 245.32775 
L 194.993722 245.276443 
L 195.197013 245.063612 
L 195.400303 245.096577 
L 196.010174 244.641911 
L 196.416754 244.802752 
L 197.026625 244.907312 
L 197.229915 244.647441 
L 197.433205 244.786161 
L 197.839786 244.56557 
L 198.449657 244.091948 
L 198.652947 244.10319 
L 199.059528 243.930277 
L 199.466108 244.051985 
L 199.872689 243.924098 
L 200.075979 243.962058 
L 200.482559 243.737348 
L 201.702301 243.601165 
L 202.108881 243.881894 
L 202.515462 243.984099 
L 203.125333 243.40472 
L 203.328623 243.302959 
L 203.735204 243.783102 
L 204.141784 244.104999 
L 204.954945 244.048071 
L 205.564816 243.783444 
L 206.174687 243.642641 
L 206.987848 243.473233 
L 207.801009 243.303266 
L 208.207589 243.271997 
L 208.61417 242.936594 
L 210.240492 242.690935 
L 211.866814 242.738169 
L 217.762231 242.222421 
L 228.943196 242.085295 
L 230.772808 242.335687 
L 230.976098 242.39051 
L 231.382679 243.346745 
L 231.789259 243.762654 
L 232.60242 243.002352 
L 233.415581 243.332203 
L 234.025452 244.373802 
L 234.228743 244.555398 
L 234.635323 245.242272 
L 235.041904 245.587063 
L 235.448484 246.405557 
L 235.855065 246.848207 
L 236.261645 248.293312 
L 236.871516 249.907508 
L 237.278096 250.995067 
L 237.481387 251.350053 
L 237.887967 252.710363 
L 239.107709 255.886196 
L 239.514289 257.41365 
L 239.92087 258.135594 
L 240.32745 259.830751 
L 240.937321 260.936902 
L 241.547192 262.267628 
L 241.953772 263.589864 
L 242.360353 264.128995 
L 242.563643 264.953474 
L 242.766933 264.973455 
L 243.173514 264.625455 
L 243.580094 264.952632 
L 243.986675 265.073476 
L 244.799836 265.655061 
L 245.206417 265.761477 
L 245.816287 266.042558 
L 246.426158 266.044173 
L 246.629448 266.307867 
L 247.239319 265.889921 
L 247.442609 265.967025 
L 248.662351 264.999206 
L 250.085383 263.388356 
L 250.288673 262.812664 
L 250.695254 262.443317 
L 251.101834 262.321154 
L 252.524866 260.64995 
L 252.728156 259.992945 
L 252.931446 259.935664 
L 253.338027 258.82314 
L 253.541317 258.420692 
L 253.947898 258.132624 
L 254.354478 257.506172 
L 254.557769 257.352239 
L 254.964349 256.470171 
L 255.37093 256.059359 
L 255.77751 256.159004 
L 256.184091 256.415359 
L 256.997252 256.285253 
L 257.200542 256.013924 
L 257.810413 256.488741 
L 258.013703 256.593427 
L 258.420283 256.488673 
L 259.436735 255.94631 
L 260.656476 255.045923 
L 261.063057 254.932054 
L 261.876218 254.34462 
L 263.50254 253.903063 
L 263.909121 253.880248 
L 264.112411 254.0024 
L 264.722282 253.695239 
L 264.925572 253.525796 
L 265.332152 252.690348 
L 265.535443 251.755278 
L 265.738733 251.406595 
L 265.942023 250.824361 
L 266.145313 250.682421 
L 266.348604 250.74447 
L 266.755184 251.062942 
L 267.161765 250.437877 
L 267.568345 249.752027 
L 267.974926 249.628293 
L 268.991377 249.011285 
L 269.601248 248.69675 
L 270.211119 248.194418 
L 271.02428 247.478164 
L 271.63415 246.965591 
L 271.837441 247.107372 
L 272.244021 246.442641 
L 272.447311 246.056305 
L 272.853892 245.705472 
L 274.886795 243.548379 
L 275.699956 241.288125 
L 276.106536 241.144057 
L 277.936148 240.89511 
L 278.342729 240.999522 
L 278.9526 240.889648 
L 280.782212 240.72305 
L 282.001954 241.026627 
L 287.490791 241.701519 
L 289.117113 241.618567 
L 292.776337 241.371839 
L 292.979628 241.60753 
L 293.386208 241.600031 
L 293.589498 241.542431 
L 294.199369 238.431538 
L 294.60595 237.590617 
L 296.028982 236.390475 
L 296.435562 236.686303 
L 296.842143 236.959578 
L 297.248723 236.181923 
L 298.468465 234.493458 
L 299.484916 233.956 
L 299.891497 233.645163 
L 300.094787 233.166499 
L 300.501367 234.048726 
L 300.704658 234.019949 
L 300.907948 233.776771 
L 301.517819 231.357361 
L 301.924399 230.087399 
L 302.53427 229.050704 
L 303.144141 227.504281 
L 303.347431 227.234988 
L 303.754011 225.582059 
L 303.957302 225.093837 
L 304.160592 225.003568 
L 304.363882 225.776205 
L 304.567173 226.009597 
L 304.770463 225.855664 
L 304.973753 225.530308 
L 305.177043 224.813621 
L 305.786914 224.330644 
L 306.396785 223.10267 
L 306.803365 222.712807 
L 307.209946 222.08475 
L 308.023107 220.853517 
L 308.429687 219.649427 
L 309.039558 218.783614 
L 309.242849 218.753397 
L 309.446139 218.872876 
L 309.649429 218.815737 
L 311.072461 217.148783 
L 311.885622 215.537989 
L 312.292202 214.642848 
L 312.902073 215.171948 
L 313.105363 215.298635 
L 313.715234 216.333617 
L 313.918525 216.521966 
L 314.121815 216.06804 
L 315.544847 216.687113 
L 316.358008 216.633735 
L 316.764588 216.04357 
L 317.374459 215.537967 
L 317.98433 215.289025 
L 318.797491 215.271252 
L 319.204071 214.941014 
L 319.813942 214.430848 
L 320.423813 214.479965 
L 321.033684 214.720525 
L 321.440264 214.833444 
L 322.456715 214.823328 
L 323.269876 215.028648 
L 324.083038 215.04921 
L 328.148843 214.795871 
L 330.791616 215.23819 
L 330.994906 215.178969 
L 331.401487 215.769197 
L 331.808067 215.932893 
L 332.621228 215.867971 
L 333.231099 215.3111 
L 333.434389 215.246525 
L 333.84097 214.689137 
L 334.247551 214.14084 
L 334.450841 214.191857 
L 335.467292 213.79734 
L 335.670582 213.720385 
L 336.077163 212.834158 
L 336.890324 211.940103 
L 337.296904 211.247505 
L 337.500195 210.833377 
L 338.313356 208.46363 
L 338.516646 208.277688 
L 338.923227 207.554247 
L 339.329807 207.119881 
L 340.549549 205.082824 
L 340.752839 205.017953 
L 341.36271 204.1679 
L 341.566 204.045822 
L 342.989032 200.986321 
L 343.192322 200.763421 
L 343.598902 199.43764 
L 344.005483 199.031579 
L 344.412064 196.272213 
L 344.818644 195.481683 
L 345.225225 193.435244 
L 345.631805 192.787371 
L 346.038386 190.540498 
L 346.444966 189.848572 
L 346.851547 187.736846 
L 347.258127 187.09526 
L 347.664708 184.305917 
L 348.071288 183.409318 
L 348.477869 181.446861 
L 348.884449 180.302641 
L 349.29103 177.707239 
L 349.69761 176.429893 
L 350.104191 172.681911 
L 350.510771 171.342762 
L 350.917352 168.885506 
L 351.323932 167.844825 
L 351.730513 165.475115 
L 352.137093 164.438372 
L 352.543674 161.972487 
L 352.950254 160.805069 
L 353.356835 158.164786 
L 353.966706 155.558014 
L 354.373286 153.6491 
L 354.576577 153.077226 
L 355.186447 149.870759 
L 355.389738 149.330521 
L 355.796318 146.529092 
L 356.609479 143.764554 
L 357.21935 141.347034 
L 358.032511 137.288894 
L 358.439091 134.760925 
L 359.252253 130.947804 
L 359.658833 129.790302 
L 360.268704 127.962652 
L 360.878575 126.438074 
L 361.488445 126.382453 
L 361.691736 126.653001 
L 361.895026 126.096041 
L 362.098316 126.314668 
L 362.504897 124.952094 
L 362.708187 124.132412 
L 363.318058 118.254529 
L 363.521348 117.060246 
L 363.927929 113.473741 
L 364.94438 109.519991 
L 365.14767 109.188342 
L 365.554251 108.074059 
L 365.757541 107.865979 
L 365.960831 107.827112 
L 366.367412 107.274387 
L 366.773992 106.968954 
L 366.977282 107.092044 
L 367.180573 107.062257 
L 367.587153 106.741771 
L 368.400314 106.799409 
L 368.603604 105.283507 
L 369.010185 105.581242 
L 369.213475 105.808554 
L 369.416766 105.780687 
L 370.026636 106.145902 
L 370.433217 105.666094 
L 370.839797 105.473679 
L 371.246378 104.903041 
L 371.652958 104.715397 
L 372.262829 105.070803 
L 373.27928 105.333258 
L 373.685861 105.070073 
L 374.092442 105.003682 
L 374.702312 104.627941 
L 375.108893 104.596071 
L 377.954956 104.661385 
L 378.361537 104.693393 
L 379.987859 104.940977 
L 381.614181 105.248675 
L 382.427342 105.539041 
L 382.833923 105.849373 
L 383.037213 105.907868 
L 383.443793 106.747407 
L 383.850374 107.083868 
L 384.256955 108.012084 
L 384.663535 108.438823 
L 385.070116 109.602071 
L 385.476696 110.193191 
L 385.883277 111.645516 
L 386.289857 112.308447 
L 386.696438 113.859472 
L 387.509599 115.10567 
L 387.916179 115.545861 
L 388.119469 118.090564 
L 388.52605 119.217825 
L 388.72934 119.407254 
L 389.135921 121.183068 
L 389.745792 123.068553 
L 390.152372 124.193067 
L 390.762243 125.028183 
L 391.168823 124.802342 
L 391.778694 125.920117 
L 391.981984 126.086798 
L 392.388565 126.808931 
L 392.795145 127.139003 
L 393.201726 129.946911 
L 393.811597 132.190912 
L 394.218177 132.857885 
L 394.828048 133.25904 
L 395.234629 133.334149 
L 395.641209 131.842853 
L 396.45437 130.44678 
L 396.860951 130.186264 
L 397.674112 129.979219 
L 398.080692 129.147516 
L 398.487273 128.949992 
L 398.487273 128.949992 
" style="fill:none;stroke:#ff0000;stroke-linecap:square;stroke-width:1.5;"/>
   </g>
   <g id="line2d_21">
    <path clip-path="url(#pbb5a94b55f)" d="M 73.832727 127.156598 
L 78.101823 127.25384 
L 79.931435 127.413727 
L 80.744596 127.698658 
L 81.151177 127.961204 
L 82.370918 129.428687 
L 82.574208 129.725383 
L 82.777499 129.794977 
L 83.184079 130.181436 
L 83.59066 130.290928 
L 83.79395 130.321029 
L 83.99724 130.502938 
L 84.403821 131.751343 
L 84.810401 133.073472 
L 85.216982 135.136451 
L 85.420272 135.03746 
L 85.623562 133.314637 
L 85.826853 133.516028 
L 86.030143 133.42716 
L 86.436723 132.202219 
L 86.843304 131.975091 
L 87.046594 131.945314 
L 87.453175 132.321644 
L 87.656465 132.885731 
L 87.859755 133.080397 
L 88.063045 133.110048 
L 88.469626 133.769999 
L 88.876207 134.100481 
L 89.282787 134.150223 
L 89.486077 134.366222 
L 89.892658 135.259472 
L 90.095948 135.471392 
L 91.112399 137.655705 
L 91.72227 139.766831 
L 91.92556 140.041132 
L 92.332141 141.697833 
L 93.348592 144.864612 
L 93.551883 145.212412 
L 94.568334 148.074698 
L 94.974914 149.054076 
L 95.381495 151.129476 
L 96.397946 154.018566 
L 97.007817 155.433532 
L 97.211107 155.975323 
L 97.617688 158.254836 
L 98.430849 161.883521 
L 98.634139 174.375258 
L 99.04072 179.950442 
L 100.057171 186.318168 
L 101.073622 190.563865 
L 101.683493 192.537929 
L 102.293364 193.697902 
L 102.903234 194.578843 
L 103.309815 194.896388 
L 103.513105 187.896469 
L 103.919686 182.656475 
L 104.122976 179.681849 
L 104.326266 178.927544 
L 104.732847 176.216214 
L 104.936137 175.205059 
L 105.546008 174.413701 
L 106.359169 173.949602 
L 106.96904 173.762867 
L 109.408523 173.077736 
L 110.424974 172.867454 
L 111.644716 172.465385 
L 112.051296 172.423502 
L 112.254586 172.480425 
L 113.271038 172.234633 
L 114.084199 172.088209 
L 115.913811 171.782735 
L 116.117101 171.851196 
L 116.726972 171.721445 
L 117.336843 171.73749 
L 123.23226 171.968481 
L 126.281614 172.33197 
L 126.484905 172.298468 
L 127.501356 172.581978 
L 128.111227 172.595935 
L 131.770451 173.239808 
L 131.973742 173.447581 
L 132.583612 173.60284 
L 133.193483 174.022569 
L 133.396773 174.089628 
L 133.803354 174.49628 
L 134.209935 174.727858 
L 134.819805 175.379173 
L 135.023096 175.414567 
L 135.429676 175.735662 
L 137.055998 176.506751 
L 137.869159 177.133505 
L 138.47903 177.475139 
L 139.088901 177.767257 
L 139.698772 178.396361 
L 139.902062 178.532509 
L 140.308642 179.114396 
L 140.715223 179.245885 
L 141.121803 179.725505 
L 143.154706 180.470616 
L 143.764577 180.878196 
L 146.20406 181.920449 
L 146.61064 182.212016 
L 147.423801 182.925551 
L 147.830382 183.26822 
L 148.033672 183.407594 
L 151.286316 187.985725 
L 151.692897 188.665726 
L 152.912638 189.8958 
L 155.352122 192.215668 
L 155.555412 204.444242 
L 155.961992 208.246902 
L 156.165283 208.446761 
L 156.571863 209.371812 
L 157.181734 210.126794 
L 157.994895 210.860555 
L 158.401475 211.403965 
L 158.604766 211.565733 
L 159.011346 212.941501 
L 159.824507 214.49074 
L 160.231088 214.91206 
L 160.637668 215.103641 
L 160.840959 215.287358 
L 161.044249 215.140008 
L 161.65412 215.526366 
L 162.26399 216.011954 
L 163.687022 217.719473 
L 164.906764 220.442256 
L 165.719925 223.351117 
L 166.736376 227.459618 
L 167.346247 230.005607 
L 168.769279 236.920856 
L 169.37915 238.526404 
L 170.395601 240.045074 
L 171.615342 241.278862 
L 172.225213 241.850332 
L 173.038374 242.542429 
L 173.444955 242.909171 
L 174.054826 243.833078 
L 176.291018 249.345722 
L 177.51076 252.910723 
L 177.91734 253.997041 
L 179.340372 258.377191 
L 179.746953 259.474421 
L 180.153533 273.711486 
L 180.560114 278.836827 
L 180.966694 282.207238 
L 181.373275 284.134136 
L 182.389726 286.344517 
L 182.593016 286.281728 
L 183.406177 286.906496 
L 183.812758 286.95794 
L 184.016048 286.937254 
L 184.219339 286.778575 
L 184.829209 286.8278 
L 185.0325 286.971151 
L 185.64237 286.674447 
L 185.845661 286.814555 
L 186.252241 286.698058 
L 186.455531 278.374742 
L 186.862112 273.88944 
L 187.065402 273.072517 
L 187.471983 276.164578 
L 187.878563 277.288651 
L 188.285144 275.23052 
L 188.691724 274.309014 
L 188.895015 274.203611 
L 189.301595 274.600597 
L 189.708176 275.29398 
L 190.318046 277.285408 
L 190.521337 277.458231 
L 191.131207 279.209052 
L 191.944368 281.827968 
L 192.350949 283.574011 
L 192.554239 291.815832 
L 192.96082 293.373463 
L 193.3674 294.173159 
L 194.180561 294.657546 
L 194.587142 294.616787 
L 194.790432 294.480059 
L 195.197013 294.609983 
L 195.603593 296.124386 
L 196.010174 296.573988 
L 196.416754 295.600377 
L 196.823335 295.28731 
L 197.026625 295.288937 
L 197.229915 295.423015 
L 197.636496 295.383553 
L 198.043076 296.008697 
L 198.449657 296.220446 
L 198.856237 296.234874 
L 199.262818 296.18739 
L 199.669398 296.001482 
L 200.075979 295.901803 
L 200.482559 296.175693 
L 201.09243 296.208168 
L 201.702301 296.146142 
L 202.718752 295.999081 
L 203.328623 295.783361 
L 203.938494 296.13589 
L 204.345074 296.160309 
L 208.207589 295.968643 
L 208.61417 295.317362 
L 209.427331 294.959746 
L 209.833911 294.911443 
L 211.053653 295.108366 
L 211.866814 295.091559 
L 212.883265 295.1306 
L 215.119458 295.159127 
L 216.3392 295.106761 
L 217.152361 295.192183 
L 226.910293 295.029317 
L 230.976098 294.96737 
L 231.179389 293.962058 
L 231.382679 293.577896 
L 231.789259 293.451534 
L 232.19584 294.819081 
L 232.60242 295.163485 
L 233.009001 294.92916 
L 233.415581 294.855675 
L 233.618872 294.180533 
L 233.822162 293.974381 
L 234.228743 293.93162 
L 235.041904 294.110063 
L 235.448484 294.6079 
L 235.855065 294.736334 
L 236.058355 294.402842 
L 236.464935 294.32674 
L 236.668226 294.361218 
L 236.871516 294.104818 
L 237.278096 294.049562 
L 237.481387 294.108834 
L 237.887967 294.026554 
L 238.294548 294.147352 
L 238.497838 293.850989 
L 238.904419 293.90043 
L 239.107709 293.940916 
L 239.310999 293.386264 
L 239.71758 293.346541 
L 239.92087 293.397017 
L 240.530741 291.792266 
L 241.343902 290.96855 
L 241.547192 290.917333 
L 241.953772 288.726058 
L 242.360353 288.180566 
L 242.766933 285.232778 
L 242.970224 284.977925 
L 243.173514 285.064257 
L 243.376804 283.745172 
L 243.580094 283.320126 
L 243.986675 283.201182 
L 244.189965 281.476441 
L 244.393256 280.839918 
L 244.799836 280.513481 
L 245.003126 278.31894 
L 245.206417 277.521486 
L 245.612997 277.156508 
L 245.816287 274.789566 
L 246.019578 273.910286 
L 246.426158 273.51404 
L 246.629448 271.16354 
L 246.832739 270.174545 
L 247.036029 269.825191 
L 247.239319 269.715351 
L 247.442609 267.454312 
L 247.6459 266.570503 
L 247.84919 266.264502 
L 248.05248 266.169477 
L 248.25577 263.905571 
L 248.459061 263.053737 
L 248.662351 262.742115 
L 248.865641 262.644086 
L 249.068932 260.343642 
L 249.272222 259.489339 
L 249.475512 259.171664 
L 249.678802 259.073953 
L 249.882093 256.727117 
L 250.085383 255.828721 
L 250.288673 255.449167 
L 250.491963 255.355087 
L 251.305124 251.528428 
L 252.728156 241.627045 
L 252.931446 240.641771 
L 254.151188 229.640004 
L 254.557769 226.566263 
L 254.964349 226.276841 
L 255.37093 226.244867 
L 255.77751 223.983657 
L 255.9808 223.732878 
L 256.387381 222.589779 
L 256.793961 221.001027 
L 256.997252 220.44547 
L 257.200542 224.933873 
L 257.403832 225.468577 
L 257.810413 225.694755 
L 258.013703 223.548449 
L 258.216993 222.652135 
L 258.420283 222.334522 
L 258.623574 222.236203 
L 258.826864 221.173991 
L 259.030154 220.750572 
L 259.436735 220.556721 
L 259.843315 219.237734 
L 260.859767 215.230766 
L 261.469637 213.033795 
L 261.876218 212.829317 
L 262.689379 210.954539 
L 264.315701 203.296574 
L 264.722282 202.234664 
L 265.128862 201.77486 
L 265.332152 199.968988 
L 265.738733 199.245644 
L 265.942023 199.185381 
L 266.145313 197.566526 
L 266.348604 196.923813 
L 266.755184 196.57381 
L 266.958474 193.581645 
L 267.161765 192.826628 
L 267.365055 192.651939 
L 267.568345 192.630746 
L 267.771635 190.569628 
L 267.974926 189.715723 
L 268.178216 189.383238 
L 268.381506 189.27581 
L 268.584796 187.067763 
L 268.788087 186.231427 
L 269.194667 185.803393 
L 269.397958 183.578323 
L 269.601248 182.711634 
L 270.007828 182.274583 
L 270.211119 180.124778 
L 270.414409 179.289136 
L 270.820989 178.878996 
L 271.02428 176.741873 
L 271.22757 175.924562 
L 271.63415 175.509666 
L 271.837441 173.515945 
L 272.040731 172.667124 
L 272.447311 172.222486 
L 272.650602 170.432469 
L 272.853892 169.741519 
L 273.260472 169.41449 
L 273.463763 167.645601 
L 273.667053 166.980563 
L 274.073634 166.611782 
L 274.276924 165.25686 
L 274.480214 164.755057 
L 275.496665 163.887398 
L 275.699956 163.788496 
L 275.903246 162.991539 
L 276.106536 162.720375 
L 276.919697 162.452206 
L 277.326278 162.424743 
L 277.732858 162.205222 
L 278.139439 162.201242 
L 278.74931 162.25346 
L 286.271049 162.418033 
L 287.694081 162.397775 
L 290.336854 162.347097 
L 290.743435 162.034115 
L 291.150015 161.99989 
L 291.556596 161.447455 
L 292.776337 161.004927 
L 292.979628 158.830018 
L 293.386208 157.977763 
L 293.589498 157.845953 
L 293.792789 158.244842 
L 293.996079 158.28805 
L 294.40266 157.661399 
L 294.60595 155.243337 
L 295.01253 153.592894 
L 295.215821 153.219431 
L 295.622401 151.527406 
L 296.028982 150.932651 
L 296.232272 149.431835 
L 296.435562 149.008575 
L 296.842143 148.792918 
L 297.045433 148.19913 
L 297.248723 148.068067 
L 297.655304 148.114589 
L 298.061884 145.80749 
L 298.468465 145.237324 
L 298.875045 144.978119 
L 299.281626 145.022567 
L 300.094787 143.458115 
L 300.298077 137.384644 
L 300.704658 134.516027 
L 300.907948 133.883375 
L 301.111238 130.557271 
L 301.517819 128.69991 
L 301.721109 128.406906 
L 302.127689 125.368763 
L 302.53427 124.681364 
L 302.73756 122.920962 
L 302.94085 122.275207 
L 303.347431 121.954946 
L 303.550721 119.909135 
L 303.754011 119.383109 
L 304.160592 119.257181 
L 304.567173 115.377417 
L 305.380334 111.768043 
L 305.786914 111.689864 
L 305.990204 109.828922 
L 306.193495 109.296863 
L 306.396785 109.150896 
L 306.600075 109.14477 
L 307.413236 105.995136 
L 309.039558 98.648901 
L 309.242849 96.673272 
L 309.649429 95.470517 
L 309.852719 95.040128 
L 311.275751 88.6468 
L 311.682332 87.385269 
L 312.088912 86.735664 
L 312.495493 86.395635 
L 313.105363 86.769046 
L 313.511944 86.415991 
L 313.918525 85.728653 
L 314.121815 87.590496 
L 314.528395 87.79605 
L 314.731686 87.845144 
L 314.934976 86.911575 
L 315.138266 86.602622 
L 316.358008 85.999829 
L 316.561298 87.149565 
L 316.967878 87.155228 
L 317.171169 87.117522 
L 317.577749 86.865289 
L 317.98433 86.830532 
L 318.39091 86.611321 
L 319.813942 86.550794 
L 320.627103 86.58924 
L 322.050135 86.6496 
L 322.456715 86.830407 
L 322.863296 86.883583 
L 323.269876 86.796495 
L 324.489618 86.733089 
L 324.896199 86.569663 
L 329.368584 86.309977 
L 329.775165 86.088211 
L 330.181745 86.089603 
L 330.588326 85.790204 
L 330.994906 85.74406 
L 332.214648 83.943134 
L 332.824519 83.512794 
L 333.434389 83.218909 
L 333.63768 81.551958 
L 334.04426 81.238456 
L 334.247551 81.172726 
L 335.060712 79.77303 
L 335.467292 78.491317 
L 335.873873 77.447396 
L 336.077163 75.752456 
L 336.483743 74.717343 
L 336.687034 74.449177 
L 336.890324 72.75942 
L 337.093614 72.368288 
L 337.500195 72.121059 
L 337.703485 70.448388 
L 338.110065 69.601754 
L 338.313356 69.467312 
L 338.516646 67.21021 
L 338.719936 66.506837 
L 339.126517 66.191568 
L 339.329807 64.373588 
L 339.533097 63.821718 
L 339.939678 63.518136 
L 340.142968 61.159085 
L 340.346258 60.626599 
L 340.752839 60.465969 
L 340.956129 58.762626 
L 341.159419 58.344901 
L 341.566 58.211831 
L 341.76929 56.505125 
L 341.97258 56.084903 
L 342.379161 55.930862 
L 342.582451 54.96376 
L 342.785741 54.715922 
L 343.192322 54.633511 
L 343.395612 54.33271 
L 343.802193 54.227308 
L 344.005483 54.215753 
L 344.412064 54.021453 
L 344.818644 54.044592 
L 345.021934 54.783672 
L 345.428515 54.921112 
L 345.631805 54.901734 
L 345.835095 56.026581 
L 346.038386 56.293598 
L 346.444966 56.328457 
L 346.648256 57.872365 
L 346.851547 58.245928 
L 347.258127 58.274074 
L 347.461417 59.709866 
L 347.664708 60.019837 
L 348.071288 59.96226 
L 348.477869 61.115333 
L 348.884449 61.365059 
L 349.29103 62.56231 
L 349.69761 62.795293 
L 349.900901 65.014725 
L 350.104191 65.437171 
L 350.307481 65.543023 
L 350.510771 65.381512 
L 350.917352 66.117526 
L 351.323932 66.201411 
L 351.730513 67.984622 
L 351.933803 68.235993 
L 352.137093 68.309461 
L 352.543674 69.435736 
L 352.950254 69.650563 
L 353.356835 71.357639 
L 353.763415 71.624559 
L 354.169996 72.560972 
L 354.576577 72.771305 
L 354.983157 74.081656 
L 355.593028 75.12197 
L 355.999608 75.756046 
L 356.406189 75.884417 
L 356.812769 76.095808 
L 357.01606 76.198019 
L 357.42264 76.616289 
L 358.032511 76.881974 
L 358.235801 77.144035 
L 358.642382 77.194262 
L 358.845672 77.014908 
L 359.658833 77.084917 
L 360.065414 77.292467 
L 360.471994 77.238822 
L 360.675284 77.315231 
L 361.081865 76.991684 
L 361.285155 76.637607 
L 361.488445 76.529246 
L 361.691736 76.191652 
L 361.895026 76.430961 
L 362.098316 76.452348 
L 362.708187 77.517007 
L 362.911477 78.867696 
L 363.114767 79.330384 
L 363.318058 79.402332 
L 363.521348 79.319232 
L 363.927929 80.608041 
L 364.334509 80.729851 
L 364.74109 81.834259 
L 365.14767 82.012993 
L 365.554251 83.03264 
L 365.960831 83.424366 
L 366.367412 84.339068 
L 366.570702 84.712585 
L 366.773992 84.587682 
L 367.587153 84.772999 
L 368.400314 88.803834 
L 368.603604 93.561133 
L 368.806895 94.369298 
L 369.213475 94.78674 
L 369.416766 96.233194 
L 369.620056 96.665757 
L 370.026636 96.795163 
L 370.229927 97.988883 
L 370.433217 98.245878 
L 370.839797 98.252939 
L 371.043088 99.212175 
L 371.246378 99.426746 
L 372.466119 99.506236 
L 372.8727 99.987384 
L 373.482571 100.332195 
L 373.889151 100.533908 
L 375.718764 100.336459 
L 376.125344 100.598822 
L 377.954956 100.78459 
L 379.377988 100.745154 
L 379.784569 100.796365 
L 380.191149 101.201097 
L 380.59773 101.386225 
L 381.00431 102.243766 
L 381.410891 102.454875 
L 381.817471 103.468764 
L 382.224052 103.706362 
L 382.427342 105.039128 
L 382.833923 105.859244 
L 383.037213 105.979254 
L 383.443793 107.693235 
L 383.850374 108.006342 
L 384.256955 110.038368 
L 384.663535 110.427209 
L 384.866825 112.127336 
L 385.070116 112.644544 
L 385.273406 112.813734 
L 385.476696 112.770082 
L 385.679986 114.293444 
L 385.883277 114.791627 
L 386.086567 114.886316 
L 386.289857 114.856919 
L 386.493147 116.191981 
L 386.696438 116.623554 
L 386.899728 116.731576 
L 387.103018 116.686878 
L 387.916179 117.005282 
L 388.119469 120.89762 
L 388.32276 121.145103 
L 388.72934 120.91879 
L 389.135921 123.021868 
L 389.542501 123.64891 
L 389.745792 124.95416 
L 389.949082 125.528988 
L 390.355662 125.816726 
L 390.762243 126.85647 
L 391.168823 127.417464 
L 391.575404 129.801769 
L 392.388565 131.390438 
L 392.998436 131.656059 
L 393.608306 129.314759 
L 394.421468 128.699479 
L 395.234629 128.733792 
L 395.437919 128.408627 
L 395.844499 129.093164 
L 396.04779 129.408321 
L 396.25108 129.275762 
L 397.674112 129.944929 
L 398.080692 129.445006 
L 398.487273 129.215339 
L 398.487273 129.215339 
" style="fill:none;stroke:#0000ff;stroke-linecap:square;stroke-width:1.5;"/>
   </g>
   <g id="line2d_22">
    <path clip-path="url(#pbb5a94b55f)" d="M 73.832727 127.156598 
L 81.964338 127.074336 
L 85.623562 126.931999 
L 86.843304 127.081205 
L 92.942012 127.059958 
L 95.381495 127.024916 
L 98.430849 126.986192 
L 98.634139 126.606441 
L 99.24401 126.535581 
L 102.496654 126.381969 
L 103.513105 126.348954 
L 103.919686 126.730743 
L 104.326266 126.784689 
L 114.084199 126.433864 
L 125.671744 126.313081 
L 171.818633 125.99663 
L 191.741078 125.803408 
L 198.246366 125.920512 
L 212.679975 125.560262 
L 230.976098 124.685123 
L 233.212291 124.543988 
L 254.964349 123.827981 
L 285.864469 123.205847 
L 341.566 123.056827 
L 347.258127 123.422981 
L 359.658833 123.529178 
L 370.433217 123.598834 
L 379.174698 123.800108 
L 396.25108 124.228778 
L 398.487273 124.421723 
L 398.487273 124.421723 
" style="fill:none;stroke:#008000;stroke-linecap:square;stroke-width:1.5;"/>
   </g>
   <g id="patch_3">
    <path d="M 57.6 307.584 
L 57.6 41.472 
" style="fill:none;stroke:#000000;stroke-linecap:square;stroke-linejoin:miter;stroke-width:0.8;"/>
   </g>
   <g id="patch_4">
    <path d="M 414.72 307.584 
L 414.72 41.472 
" style="fill:none;stroke:#000000;stroke-linecap:square;stroke-linejoin:miter;stroke-width:0.8;"/>
   </g>
   <g id="patch_5">
    <path d="M 57.6 307.584 
L 414.72 307.584 
" style="fill:none;stroke:#000000;stroke-linecap:square;stroke-linejoin:miter;stroke-width:0.8;"/>
   </g>
   <g id="patch_6">
    <path d="M 57.6 41.472 
L 414.72 41.472 
" style="fill:none;stroke:#000000;stroke-linecap:square;stroke-linejoin:miter;stroke-width:0.8;"/>
   </g>
   <g id="legend_1">
    <g id="patch_7">
     <path d="M 64.6 302.584 
L 157.870313 302.584 
Q 159.870313 302.584 159.870313 300.584 
L 159.870313 211.8465 
Q 159.870313 209.8465 157.870313 209.8465 
L 64.6 209.8465 
Q 62.6 209.8465 62.6 211.8465 
L 62.6 300.584 
Q 62.6 302.584 64.6 302.584 
z
" style="fill:#ffffff;opacity:0.8;stroke:#cccccc;stroke-linejoin:miter;"/>
    </g>
    <g id="line2d_23">
     <path d="M 66.6 217.944937 
L 86.6 217.944937 
" style="fill:none;stroke:#ff0000;stroke-dasharray:5.55,2.4;stroke-dashoffset:0;stroke-width:1.5;"/>
    </g>
    <g id="line2d_24"/>
    <g id="text_19">
     <!-- gt_x -->
     <g transform="translate(94.6 221.444937)scale(0.1 -0.1)">
      <defs>
       <path d="M 45.40625 27.984375 
Q 45.40625 37.75 41.375 43.109375 
Q 37.359375 48.484375 30.078125 48.484375 
Q 22.859375 48.484375 18.828125 43.109375 
Q 14.796875 37.75 14.796875 27.984375 
Q 14.796875 18.265625 18.828125 12.890625 
Q 22.859375 7.515625 30.078125 7.515625 
Q 37.359375 7.515625 41.375 12.890625 
Q 45.40625 18.265625 45.40625 27.984375 
z
M 54.390625 6.78125 
Q 54.390625 -7.171875 48.1875 -13.984375 
Q 42 -20.796875 29.203125 -20.796875 
Q 24.46875 -20.796875 20.265625 -20.09375 
Q 16.0625 -19.390625 12.109375 -17.921875 
L 12.109375 -9.1875 
Q 16.0625 -11.328125 19.921875 -12.34375 
Q 23.78125 -13.375 27.78125 -13.375 
Q 36.625 -13.375 41.015625 -8.765625 
Q 45.40625 -4.15625 45.40625 5.171875 
L 45.40625 9.625 
Q 42.625 4.78125 38.28125 2.390625 
Q 33.9375 0 27.875 0 
Q 17.828125 0 11.671875 7.65625 
Q 5.515625 15.328125 5.515625 27.984375 
Q 5.515625 40.671875 11.671875 48.328125 
Q 17.828125 56 27.875 56 
Q 33.9375 56 38.28125 53.609375 
Q 42.625 51.21875 45.40625 46.390625 
L 45.40625 54.6875 
L 54.390625 54.6875 
z
" id="DejaVuSans-103"/>
       <path d="M 50.984375 -16.609375 
L 50.984375 -23.578125 
L -0.984375 -23.578125 
L -0.984375 -16.609375 
z
" id="DejaVuSans-95"/>
       <path d="M 54.890625 54.6875 
L 35.109375 28.078125 
L 55.90625 0 
L 45.3125 0 
L 29.390625 21.484375 
L 13.484375 0 
L 2.875 0 
L 24.125 28.609375 
L 4.6875 54.6875 
L 15.28125 54.6875 
L 29.78125 35.203125 
L 44.28125 54.6875 
z
" id="DejaVuSans-120"/>
      </defs>
      <use xlink:href="#DejaVuSans-103"/>
      <use x="63.476562" xlink:href="#DejaVuSans-116"/>
      <use x="102.685547" xlink:href="#DejaVuSans-95"/>
      <use x="152.685547" xlink:href="#DejaVuSans-120"/>
     </g>
    </g>
    <g id="line2d_25">
     <path d="M 66.6 232.901187 
L 86.6 232.901187 
" style="fill:none;stroke:#0000ff;stroke-dasharray:5.55,2.4;stroke-dashoffset:0;stroke-width:1.5;"/>
    </g>
    <g id="line2d_26"/>
    <g id="text_20">
     <!-- gt_y -->
     <g transform="translate(94.6 236.401187)scale(0.1 -0.1)">
      <defs>
       <path d="M 32.171875 -5.078125 
Q 28.375 -14.84375 24.75 -17.8125 
Q 21.140625 -20.796875 15.09375 -20.796875 
L 7.90625 -20.796875 
L 7.90625 -13.28125 
L 13.1875 -13.28125 
Q 16.890625 -13.28125 18.9375 -11.515625 
Q 21 -9.765625 23.484375 -3.21875 
L 25.09375 0.875 
L 2.984375 54.6875 
L 12.5 54.6875 
L 29.59375 11.921875 
L 46.6875 54.6875 
L 56.203125 54.6875 
z
" id="DejaVuSans-121"/>
      </defs>
      <use xlink:href="#DejaVuSans-103"/>
      <use x="63.476562" xlink:href="#DejaVuSans-116"/>
      <use x="102.685547" xlink:href="#DejaVuSans-95"/>
      <use x="152.685547" xlink:href="#DejaVuSans-121"/>
     </g>
    </g>
    <g id="line2d_27">
     <path d="M 66.6 247.857437 
L 86.6 247.857437 
" style="fill:none;stroke:#008000;stroke-dasharray:5.55,2.4;stroke-dashoffset:0;stroke-width:1.5;"/>
    </g>
    <g id="line2d_28"/>
    <g id="text_21">
     <!-- gt_z -->
     <g transform="translate(94.6 251.357437)scale(0.1 -0.1)">
      <defs>
       <path d="M 5.515625 54.6875 
L 48.1875 54.6875 
L 48.1875 46.484375 
L 14.40625 7.171875 
L 48.1875 7.171875 
L 48.1875 0 
L 4.296875 0 
L 4.296875 8.203125 
L 38.09375 47.515625 
L 5.515625 47.515625 
z
" id="DejaVuSans-122"/>
      </defs>
      <use xlink:href="#DejaVuSans-103"/>
      <use x="63.476562" xlink:href="#DejaVuSans-116"/>
      <use x="102.685547" xlink:href="#DejaVuSans-95"/>
      <use x="152.685547" xlink:href="#DejaVuSans-122"/>
     </g>
    </g>
    <g id="line2d_29">
     <path d="M 66.6 262.813688 
L 86.6 262.813688 
" style="fill:none;stroke:#ff0000;stroke-linecap:square;stroke-width:1.5;"/>
    </g>
    <g id="line2d_30"/>
    <g id="text_22">
     <!-- estimated_x -->
     <g transform="translate(94.6 266.313688)scale(0.1 -0.1)">
      <defs>
       <path d="M 34.28125 27.484375 
Q 23.390625 27.484375 19.1875 25 
Q 14.984375 22.515625 14.984375 16.5 
Q 14.984375 11.71875 18.140625 8.90625 
Q 21.296875 6.109375 26.703125 6.109375 
Q 34.1875 6.109375 38.703125 11.40625 
Q 43.21875 16.703125 43.21875 25.484375 
L 43.21875 27.484375 
z
M 52.203125 31.203125 
L 52.203125 0 
L 43.21875 0 
L 43.21875 8.296875 
Q 40.140625 3.328125 35.546875 0.953125 
Q 30.953125 -1.421875 24.3125 -1.421875 
Q 15.921875 -1.421875 10.953125 3.296875 
Q 6 8.015625 6 15.921875 
Q 6 25.140625 12.171875 29.828125 
Q 18.359375 34.515625 30.609375 34.515625 
L 43.21875 34.515625 
L 43.21875 35.40625 
Q 43.21875 41.609375 39.140625 45 
Q 35.0625 48.390625 27.6875 48.390625 
Q 23 48.390625 18.546875 47.265625 
Q 14.109375 46.140625 10.015625 43.890625 
L 10.015625 52.203125 
Q 14.9375 54.109375 19.578125 55.046875 
Q 24.21875 56 28.609375 56 
Q 40.484375 56 46.34375 49.84375 
Q 52.203125 43.703125 52.203125 31.203125 
z
" id="DejaVuSans-97"/>
       <path d="M 45.40625 46.390625 
L 45.40625 75.984375 
L 54.390625 75.984375 
L 54.390625 0 
L 45.40625 0 
L 45.40625 8.203125 
Q 42.578125 3.328125 38.25 0.953125 
Q 33.9375 -1.421875 27.875 -1.421875 
Q 17.96875 -1.421875 11.734375 6.484375 
Q 5.515625 14.40625 5.515625 27.296875 
Q 5.515625 40.1875 11.734375 48.09375 
Q 17.96875 56 27.875 56 
Q 33.9375 56 38.25 53.625 
Q 42.578125 51.265625 45.40625 46.390625 
z
M 14.796875 27.296875 
Q 14.796875 17.390625 18.875 11.75 
Q 22.953125 6.109375 30.078125 6.109375 
Q 37.203125 6.109375 41.296875 11.75 
Q 45.40625 17.390625 45.40625 27.296875 
Q 45.40625 37.203125 41.296875 42.84375 
Q 37.203125 48.484375 30.078125 48.484375 
Q 22.953125 48.484375 18.875 42.84375 
Q 14.796875 37.203125 14.796875 27.296875 
z
" id="DejaVuSans-100"/>
      </defs>
      <use xlink:href="#DejaVuSans-101"/>
      <use x="61.523438" xlink:href="#DejaVuSans-115"/>
      <use x="113.623047" xlink:href="#DejaVuSans-116"/>
      <use x="152.832031" xlink:href="#DejaVuSans-105"/>
      <use x="180.615234" xlink:href="#DejaVuSans-109"/>
      <use x="278.027344" xlink:href="#DejaVuSans-97"/>
      <use x="339.306641" xlink:href="#DejaVuSans-116"/>
      <use x="378.515625" xlink:href="#DejaVuSans-101"/>
      <use x="440.039062" xlink:href="#DejaVuSans-100"/>
      <use x="503.515625" xlink:href="#DejaVuSans-95"/>
      <use x="553.515625" xlink:href="#DejaVuSans-120"/>
     </g>
    </g>
    <g id="line2d_31">
     <path d="M 66.6 277.769937 
L 86.6 277.769937 
" style="fill:none;stroke:#0000ff;stroke-linecap:square;stroke-width:1.5;"/>
    </g>
    <g id="line2d_32"/>
    <g id="text_23">
     <!-- estimated_y -->
     <g transform="translate(94.6 281.269937)scale(0.1 -0.1)">
      <use xlink:href="#DejaVuSans-101"/>
      <use x="61.523438" xlink:href="#DejaVuSans-115"/>
      <use x="113.623047" xlink:href="#DejaVuSans-116"/>
      <use x="152.832031" xlink:href="#DejaVuSans-105"/>
      <use x="180.615234" xlink:href="#DejaVuSans-109"/>
      <use x="278.027344" xlink:href="#DejaVuSans-97"/>
      <use x="339.306641" xlink:href="#DejaVuSans-116"/>
      <use x="378.515625" xlink:href="#DejaVuSans-101"/>
      <use x="440.039062" xlink:href="#DejaVuSans-100"/>
      <use x="503.515625" xlink:href="#DejaVuSans-95"/>
      <use x="553.515625" xlink:href="#DejaVuSans-121"/>
     </g>
    </g>
    <g id="line2d_33">
     <path d="M 66.6 292.726187 
L 86.6 292.726187 
" style="fill:none;stroke:#008000;stroke-linecap:square;stroke-width:1.5;"/>
    </g>
    <g id="line2d_34"/>
    <g id="text_24">
     <!-- estimated_z -->
     <g transform="translate(94.6 296.226187)scale(0.1 -0.1)">
      <use xlink:href="#DejaVuSans-101"/>
      <use x="61.523438" xlink:href="#DejaVuSans-115"/>
      <use x="113.623047" xlink:href="#DejaVuSans-116"/>
      <use x="152.832031" xlink:href="#DejaVuSans-105"/>
      <use x="180.615234" xlink:href="#DejaVuSans-109"/>
      <use x="278.027344" xlink:href="#DejaVuSans-97"/>
      <use x="339.306641" xlink:href="#DejaVuSans-116"/>
      <use x="378.515625" xlink:href="#DejaVuSans-101"/>
      <use x="440.039062" xlink:href="#DejaVuSans-100"/>
      <use x="503.515625" xlink:href="#DejaVuSans-95"/>
      <use x="553.515625" xlink:href="#DejaVuSans-122"/>
     </g>
    </g>
   </g>
  </g>
 </g>
 <defs>
  <clipPath id="pbb5a94b55f">
   <rect height="266.112" width="357.12" x="57.6" y="41.472"/>
  </clipPath>
 </defs>
</svg>
