<?xml version="1.0" encoding="utf-8" standalone="no"?>
<!DOCTYPE svg PUBLIC "-//W3C//DTD SVG 1.1//EN"
  "http://www.w3.org/Graphics/SVG/1.1/DTD/svg11.dtd">
<!-- Created with matplotlib (https://matplotlib.org/) -->
<svg height="345.6pt" version="1.1" viewBox="0 0 460.8 345.6" width="460.8pt" xmlns="http://www.w3.org/2000/svg" xmlns:xlink="http://www.w3.org/1999/xlink">
 <metadata>
  <rdf:RDF xmlns:cc="http://creativecommons.org/ns#" xmlns:dc="http://purl.org/dc/elements/1.1/" xmlns:rdf="http://www.w3.org/1999/02/22-rdf-syntax-ns#">
   <cc:Work>
    <dc:type rdf:resource="http://purl.org/dc/dcmitype/StillImage"/>
    <dc:date>2023-04-13T14:15:46.509928</dc:date>
    <dc:format>image/svg+xml</dc:format>
    <dc:creator>
     <cc:Agent>
      <dc:title>Matplotlib v3.3.4, https://matplotlib.org/</dc:title>
     </cc:Agent>
    </dc:creator>
   </cc:Work>
  </rdf:RDF>
 </metadata>
 <defs>
  <style type="text/css">*{stroke-linecap:butt;stroke-linejoin:round;}</style>
 </defs>
 <g id="figure_1">
  <g id="patch_1">
   <path d="M 0 345.6 
L 460.8 345.6 
L 460.8 0 
L 0 0 
z
" style="fill:#ffffff;"/>
  </g>
  <g id="axes_1">
   <g id="patch_2">
    <path d="M 57.6 307.584 
L 414.72 307.584 
L 414.72 41.472 
L 57.6 41.472 
z
" style="fill:#ffffff;"/>
   </g>
   <g id="matplotlib.axis_1">
    <g id="xtick_1">
     <g id="line2d_1">
      <defs>
       <path d="M 0 0 
L 0 3.5 
" id="mff029c2715" style="stroke:#000000;stroke-width:0.8;"/>
      </defs>
      <g>
       <use style="stroke:#000000;stroke-width:0.8;" x="73.019057" xlink:href="#mff029c2715" y="307.584"/>
      </g>
     </g>
     <g id="text_1">
      <!-- 0 -->
      <g transform="translate(69.837807 322.182437)scale(0.1 -0.1)">
       <defs>
        <path d="M 31.78125 66.40625 
Q 24.171875 66.40625 20.328125 58.90625 
Q 16.5 51.421875 16.5 36.375 
Q 16.5 21.390625 20.328125 13.890625 
Q 24.171875 6.390625 31.78125 6.390625 
Q 39.453125 6.390625 43.28125 13.890625 
Q 47.125 21.390625 47.125 36.375 
Q 47.125 51.421875 43.28125 58.90625 
Q 39.453125 66.40625 31.78125 66.40625 
z
M 31.78125 74.21875 
Q 44.046875 74.21875 50.515625 64.515625 
Q 56.984375 54.828125 56.984375 36.375 
Q 56.984375 17.96875 50.515625 8.265625 
Q 44.046875 -1.421875 31.78125 -1.421875 
Q 19.53125 -1.421875 13.0625 8.265625 
Q 6.59375 17.96875 6.59375 36.375 
Q 6.59375 54.828125 13.0625 64.515625 
Q 19.53125 74.21875 31.78125 74.21875 
z
" id="DejaVuSans-48"/>
       </defs>
       <use xlink:href="#DejaVuSans-48"/>
      </g>
     </g>
    </g>
    <g id="xtick_2">
     <g id="line2d_2">
      <g>
       <use style="stroke:#000000;stroke-width:0.8;" x="113.702584" xlink:href="#mff029c2715" y="307.584"/>
      </g>
     </g>
     <g id="text_2">
      <!-- 50 -->
      <g transform="translate(107.340084 322.182437)scale(0.1 -0.1)">
       <defs>
        <path d="M 10.796875 72.90625 
L 49.515625 72.90625 
L 49.515625 64.59375 
L 19.828125 64.59375 
L 19.828125 46.734375 
Q 21.96875 47.46875 24.109375 47.828125 
Q 26.265625 48.1875 28.421875 48.1875 
Q 40.625 48.1875 47.75 41.5 
Q 54.890625 34.8125 54.890625 23.390625 
Q 54.890625 11.625 47.5625 5.09375 
Q 40.234375 -1.421875 26.90625 -1.421875 
Q 22.3125 -1.421875 17.546875 -0.640625 
Q 12.796875 0.140625 7.71875 1.703125 
L 7.71875 11.625 
Q 12.109375 9.234375 16.796875 8.0625 
Q 21.484375 6.890625 26.703125 6.890625 
Q 35.15625 6.890625 40.078125 11.328125 
Q 45.015625 15.765625 45.015625 23.390625 
Q 45.015625 31 40.078125 35.4375 
Q 35.15625 39.890625 26.703125 39.890625 
Q 22.75 39.890625 18.8125 39.015625 
Q 14.890625 38.140625 10.796875 36.28125 
z
" id="DejaVuSans-53"/>
       </defs>
       <use xlink:href="#DejaVuSans-53"/>
       <use x="63.623047" xlink:href="#DejaVuSans-48"/>
      </g>
     </g>
    </g>
    <g id="xtick_3">
     <g id="line2d_3">
      <g>
       <use style="stroke:#000000;stroke-width:0.8;" x="154.386111" xlink:href="#mff029c2715" y="307.584"/>
      </g>
     </g>
     <g id="text_3">
      <!-- 100 -->
      <g transform="translate(144.842361 322.182437)scale(0.1 -0.1)">
       <defs>
        <path d="M 12.40625 8.296875 
L 28.515625 8.296875 
L 28.515625 63.921875 
L 10.984375 60.40625 
L 10.984375 69.390625 
L 28.421875 72.90625 
L 38.28125 72.90625 
L 38.28125 8.296875 
L 54.390625 8.296875 
L 54.390625 0 
L 12.40625 0 
z
" id="DejaVuSans-49"/>
       </defs>
       <use xlink:href="#DejaVuSans-49"/>
       <use x="63.623047" xlink:href="#DejaVuSans-48"/>
       <use x="127.246094" xlink:href="#DejaVuSans-48"/>
      </g>
     </g>
    </g>
    <g id="xtick_4">
     <g id="line2d_4">
      <g>
       <use style="stroke:#000000;stroke-width:0.8;" x="195.069638" xlink:href="#mff029c2715" y="307.584"/>
      </g>
     </g>
     <g id="text_4">
      <!-- 150 -->
      <g transform="translate(185.525888 322.182437)scale(0.1 -0.1)">
       <use xlink:href="#DejaVuSans-49"/>
       <use x="63.623047" xlink:href="#DejaVuSans-53"/>
       <use x="127.246094" xlink:href="#DejaVuSans-48"/>
      </g>
     </g>
    </g>
    <g id="xtick_5">
     <g id="line2d_5">
      <g>
       <use style="stroke:#000000;stroke-width:0.8;" x="235.753165" xlink:href="#mff029c2715" y="307.584"/>
      </g>
     </g>
     <g id="text_5">
      <!-- 200 -->
      <g transform="translate(226.209415 322.182437)scale(0.1 -0.1)">
       <defs>
        <path d="M 19.1875 8.296875 
L 53.609375 8.296875 
L 53.609375 0 
L 7.328125 0 
L 7.328125 8.296875 
Q 12.9375 14.109375 22.625 23.890625 
Q 32.328125 33.6875 34.8125 36.53125 
Q 39.546875 41.84375 41.421875 45.53125 
Q 43.3125 49.21875 43.3125 52.78125 
Q 43.3125 58.59375 39.234375 62.25 
Q 35.15625 65.921875 28.609375 65.921875 
Q 23.96875 65.921875 18.8125 64.3125 
Q 13.671875 62.703125 7.8125 59.421875 
L 7.8125 69.390625 
Q 13.765625 71.78125 18.9375 73 
Q 24.125 74.21875 28.421875 74.21875 
Q 39.75 74.21875 46.484375 68.546875 
Q 53.21875 62.890625 53.21875 53.421875 
Q 53.21875 48.921875 51.53125 44.890625 
Q 49.859375 40.875 45.40625 35.40625 
Q 44.1875 33.984375 37.640625 27.21875 
Q 31.109375 20.453125 19.1875 8.296875 
z
" id="DejaVuSans-50"/>
       </defs>
       <use xlink:href="#DejaVuSans-50"/>
       <use x="63.623047" xlink:href="#DejaVuSans-48"/>
       <use x="127.246094" xlink:href="#DejaVuSans-48"/>
      </g>
     </g>
    </g>
    <g id="xtick_6">
     <g id="line2d_6">
      <g>
       <use style="stroke:#000000;stroke-width:0.8;" x="276.436692" xlink:href="#mff029c2715" y="307.584"/>
      </g>
     </g>
     <g id="text_6">
      <!-- 250 -->
      <g transform="translate(266.892942 322.182437)scale(0.1 -0.1)">
       <use xlink:href="#DejaVuSans-50"/>
       <use x="63.623047" xlink:href="#DejaVuSans-53"/>
       <use x="127.246094" xlink:href="#DejaVuSans-48"/>
      </g>
     </g>
    </g>
    <g id="xtick_7">
     <g id="line2d_7">
      <g>
       <use style="stroke:#000000;stroke-width:0.8;" x="317.120219" xlink:href="#mff029c2715" y="307.584"/>
      </g>
     </g>
     <g id="text_7">
      <!-- 300 -->
      <g transform="translate(307.576469 322.182437)scale(0.1 -0.1)">
       <defs>
        <path d="M 40.578125 39.3125 
Q 47.65625 37.796875 51.625 33 
Q 55.609375 28.21875 55.609375 21.1875 
Q 55.609375 10.40625 48.1875 4.484375 
Q 40.765625 -1.421875 27.09375 -1.421875 
Q 22.515625 -1.421875 17.65625 -0.515625 
Q 12.796875 0.390625 7.625 2.203125 
L 7.625 11.71875 
Q 11.71875 9.328125 16.59375 8.109375 
Q 21.484375 6.890625 26.8125 6.890625 
Q 36.078125 6.890625 40.9375 10.546875 
Q 45.796875 14.203125 45.796875 21.1875 
Q 45.796875 27.640625 41.28125 31.265625 
Q 36.765625 34.90625 28.71875 34.90625 
L 20.21875 34.90625 
L 20.21875 43.015625 
L 29.109375 43.015625 
Q 36.375 43.015625 40.234375 45.921875 
Q 44.09375 48.828125 44.09375 54.296875 
Q 44.09375 59.90625 40.109375 62.90625 
Q 36.140625 65.921875 28.71875 65.921875 
Q 24.65625 65.921875 20.015625 65.03125 
Q 15.375 64.15625 9.8125 62.3125 
L 9.8125 71.09375 
Q 15.4375 72.65625 20.34375 73.4375 
Q 25.25 74.21875 29.59375 74.21875 
Q 40.828125 74.21875 47.359375 69.109375 
Q 53.90625 64.015625 53.90625 55.328125 
Q 53.90625 49.265625 50.4375 45.09375 
Q 46.96875 40.921875 40.578125 39.3125 
z
" id="DejaVuSans-51"/>
       </defs>
       <use xlink:href="#DejaVuSans-51"/>
       <use x="63.623047" xlink:href="#DejaVuSans-48"/>
       <use x="127.246094" xlink:href="#DejaVuSans-48"/>
      </g>
     </g>
    </g>
    <g id="xtick_8">
     <g id="line2d_8">
      <g>
       <use style="stroke:#000000;stroke-width:0.8;" x="357.803746" xlink:href="#mff029c2715" y="307.584"/>
      </g>
     </g>
     <g id="text_8">
      <!-- 350 -->
      <g transform="translate(348.259996 322.182437)scale(0.1 -0.1)">
       <use xlink:href="#DejaVuSans-51"/>
       <use x="63.623047" xlink:href="#DejaVuSans-53"/>
       <use x="127.246094" xlink:href="#DejaVuSans-48"/>
      </g>
     </g>
    </g>
    <g id="xtick_9">
     <g id="line2d_9">
      <g>
       <use style="stroke:#000000;stroke-width:0.8;" x="398.487273" xlink:href="#mff029c2715" y="307.584"/>
      </g>
     </g>
     <g id="text_9">
      <!-- 400 -->
      <g transform="translate(388.943523 322.182437)scale(0.1 -0.1)">
       <defs>
        <path d="M 37.796875 64.3125 
L 12.890625 25.390625 
L 37.796875 25.390625 
z
M 35.203125 72.90625 
L 47.609375 72.90625 
L 47.609375 25.390625 
L 58.015625 25.390625 
L 58.015625 17.1875 
L 47.609375 17.1875 
L 47.609375 0 
L 37.796875 0 
L 37.796875 17.1875 
L 4.890625 17.1875 
L 4.890625 26.703125 
z
" id="DejaVuSans-52"/>
       </defs>
       <use xlink:href="#DejaVuSans-52"/>
       <use x="63.623047" xlink:href="#DejaVuSans-48"/>
       <use x="127.246094" xlink:href="#DejaVuSans-48"/>
      </g>
     </g>
    </g>
    <g id="text_10">
     <!-- time [s] -->
     <g transform="translate(216.768594 335.860562)scale(0.1 -0.1)">
      <defs>
       <path d="M 18.3125 70.21875 
L 18.3125 54.6875 
L 36.8125 54.6875 
L 36.8125 47.703125 
L 18.3125 47.703125 
L 18.3125 18.015625 
Q 18.3125 11.328125 20.140625 9.421875 
Q 21.96875 7.515625 27.59375 7.515625 
L 36.8125 7.515625 
L 36.8125 0 
L 27.59375 0 
Q 17.1875 0 13.234375 3.875 
Q 9.28125 7.765625 9.28125 18.015625 
L 9.28125 47.703125 
L 2.6875 47.703125 
L 2.6875 54.6875 
L 9.28125 54.6875 
L 9.28125 70.21875 
z
" id="DejaVuSans-116"/>
       <path d="M 9.421875 54.6875 
L 18.40625 54.6875 
L 18.40625 0 
L 9.421875 0 
z
M 9.421875 75.984375 
L 18.40625 75.984375 
L 18.40625 64.59375 
L 9.421875 64.59375 
z
" id="DejaVuSans-105"/>
       <path d="M 52 44.1875 
Q 55.375 50.25 60.0625 53.125 
Q 64.75 56 71.09375 56 
Q 79.640625 56 84.28125 50.015625 
Q 88.921875 44.046875 88.921875 33.015625 
L 88.921875 0 
L 79.890625 0 
L 79.890625 32.71875 
Q 79.890625 40.578125 77.09375 44.375 
Q 74.3125 48.1875 68.609375 48.1875 
Q 61.625 48.1875 57.5625 43.546875 
Q 53.515625 38.921875 53.515625 30.90625 
L 53.515625 0 
L 44.484375 0 
L 44.484375 32.71875 
Q 44.484375 40.625 41.703125 44.40625 
Q 38.921875 48.1875 33.109375 48.1875 
Q 26.21875 48.1875 22.15625 43.53125 
Q 18.109375 38.875 18.109375 30.90625 
L 18.109375 0 
L 9.078125 0 
L 9.078125 54.6875 
L 18.109375 54.6875 
L 18.109375 46.1875 
Q 21.1875 51.21875 25.484375 53.609375 
Q 29.78125 56 35.6875 56 
Q 41.65625 56 45.828125 52.96875 
Q 50 49.953125 52 44.1875 
z
" id="DejaVuSans-109"/>
       <path d="M 56.203125 29.59375 
L 56.203125 25.203125 
L 14.890625 25.203125 
Q 15.484375 15.921875 20.484375 11.0625 
Q 25.484375 6.203125 34.421875 6.203125 
Q 39.59375 6.203125 44.453125 7.46875 
Q 49.3125 8.734375 54.109375 11.28125 
L 54.109375 2.78125 
Q 49.265625 0.734375 44.1875 -0.34375 
Q 39.109375 -1.421875 33.890625 -1.421875 
Q 20.796875 -1.421875 13.15625 6.1875 
Q 5.515625 13.8125 5.515625 26.8125 
Q 5.515625 40.234375 12.765625 48.109375 
Q 20.015625 56 32.328125 56 
Q 43.359375 56 49.78125 48.890625 
Q 56.203125 41.796875 56.203125 29.59375 
z
M 47.21875 32.234375 
Q 47.125 39.59375 43.09375 43.984375 
Q 39.0625 48.390625 32.421875 48.390625 
Q 24.90625 48.390625 20.390625 44.140625 
Q 15.875 39.890625 15.1875 32.171875 
z
" id="DejaVuSans-101"/>
       <path id="DejaVuSans-32"/>
       <path d="M 8.59375 75.984375 
L 29.296875 75.984375 
L 29.296875 69 
L 17.578125 69 
L 17.578125 -6.203125 
L 29.296875 -6.203125 
L 29.296875 -13.1875 
L 8.59375 -13.1875 
z
" id="DejaVuSans-91"/>
       <path d="M 44.28125 53.078125 
L 44.28125 44.578125 
Q 40.484375 46.53125 36.375 47.5 
Q 32.28125 48.484375 27.875 48.484375 
Q 21.1875 48.484375 17.84375 46.4375 
Q 14.5 44.390625 14.5 40.28125 
Q 14.5 37.15625 16.890625 35.375 
Q 19.28125 33.59375 26.515625 31.984375 
L 29.59375 31.296875 
Q 39.15625 29.25 43.1875 25.515625 
Q 47.21875 21.78125 47.21875 15.09375 
Q 47.21875 7.46875 41.1875 3.015625 
Q 35.15625 -1.421875 24.609375 -1.421875 
Q 20.21875 -1.421875 15.453125 -0.5625 
Q 10.6875 0.296875 5.421875 2 
L 5.421875 11.28125 
Q 10.40625 8.6875 15.234375 7.390625 
Q 20.0625 6.109375 24.8125 6.109375 
Q 31.15625 6.109375 34.5625 8.28125 
Q 37.984375 10.453125 37.984375 14.40625 
Q 37.984375 18.0625 35.515625 20.015625 
Q 33.0625 21.96875 24.703125 23.78125 
L 21.578125 24.515625 
Q 13.234375 26.265625 9.515625 29.90625 
Q 5.8125 33.546875 5.8125 39.890625 
Q 5.8125 47.609375 11.28125 51.796875 
Q 16.75 56 26.8125 56 
Q 31.78125 56 36.171875 55.265625 
Q 40.578125 54.546875 44.28125 53.078125 
z
" id="DejaVuSans-115"/>
       <path d="M 30.421875 75.984375 
L 30.421875 -13.1875 
L 9.71875 -13.1875 
L 9.71875 -6.203125 
L 21.390625 -6.203125 
L 21.390625 69 
L 9.71875 69 
L 9.71875 75.984375 
z
" id="DejaVuSans-93"/>
      </defs>
      <use xlink:href="#DejaVuSans-116"/>
      <use x="39.208984" xlink:href="#DejaVuSans-105"/>
      <use x="66.992188" xlink:href="#DejaVuSans-109"/>
      <use x="164.404297" xlink:href="#DejaVuSans-101"/>
      <use x="225.927734" xlink:href="#DejaVuSans-32"/>
      <use x="257.714844" xlink:href="#DejaVuSans-91"/>
      <use x="296.728516" xlink:href="#DejaVuSans-115"/>
      <use x="348.828125" xlink:href="#DejaVuSans-93"/>
     </g>
    </g>
   </g>
   <g id="matplotlib.axis_2">
    <g id="ytick_1">
     <g id="line2d_10">
      <defs>
       <path d="M 0 0 
L -3.5 0 
" id="m8af3096be5" style="stroke:#000000;stroke-width:0.8;"/>
      </defs>
      <g>
       <use style="stroke:#000000;stroke-width:0.8;" x="57.6" xlink:href="#m8af3096be5" y="276.301773"/>
      </g>
     </g>
     <g id="text_11">
      <!-- −400 -->
      <g transform="translate(23.132812 280.100992)scale(0.1 -0.1)">
       <defs>
        <path d="M 10.59375 35.5 
L 73.1875 35.5 
L 73.1875 27.203125 
L 10.59375 27.203125 
z
" id="DejaVuSans-8722"/>
       </defs>
       <use xlink:href="#DejaVuSans-8722"/>
       <use x="83.789062" xlink:href="#DejaVuSans-52"/>
       <use x="147.412109" xlink:href="#DejaVuSans-48"/>
       <use x="211.035156" xlink:href="#DejaVuSans-48"/>
      </g>
     </g>
    </g>
    <g id="ytick_2">
     <g id="line2d_11">
      <g>
       <use style="stroke:#000000;stroke-width:0.8;" x="57.6" xlink:href="#m8af3096be5" y="239.015479"/>
      </g>
     </g>
     <g id="text_12">
      <!-- −300 -->
      <g transform="translate(23.132812 242.814698)scale(0.1 -0.1)">
       <use xlink:href="#DejaVuSans-8722"/>
       <use x="83.789062" xlink:href="#DejaVuSans-51"/>
       <use x="147.412109" xlink:href="#DejaVuSans-48"/>
       <use x="211.035156" xlink:href="#DejaVuSans-48"/>
      </g>
     </g>
    </g>
    <g id="ytick_3">
     <g id="line2d_12">
      <g>
       <use style="stroke:#000000;stroke-width:0.8;" x="57.6" xlink:href="#m8af3096be5" y="201.729186"/>
      </g>
     </g>
     <g id="text_13">
      <!-- −200 -->
      <g transform="translate(23.132812 205.528404)scale(0.1 -0.1)">
       <use xlink:href="#DejaVuSans-8722"/>
       <use x="83.789062" xlink:href="#DejaVuSans-50"/>
       <use x="147.412109" xlink:href="#DejaVuSans-48"/>
       <use x="211.035156" xlink:href="#DejaVuSans-48"/>
      </g>
     </g>
    </g>
    <g id="ytick_4">
     <g id="line2d_13">
      <g>
       <use style="stroke:#000000;stroke-width:0.8;" x="57.6" xlink:href="#m8af3096be5" y="164.442892"/>
      </g>
     </g>
     <g id="text_14">
      <!-- −100 -->
      <g transform="translate(23.132812 168.242111)scale(0.1 -0.1)">
       <use xlink:href="#DejaVuSans-8722"/>
       <use x="83.789062" xlink:href="#DejaVuSans-49"/>
       <use x="147.412109" xlink:href="#DejaVuSans-48"/>
       <use x="211.035156" xlink:href="#DejaVuSans-48"/>
      </g>
     </g>
    </g>
    <g id="ytick_5">
     <g id="line2d_14">
      <g>
       <use style="stroke:#000000;stroke-width:0.8;" x="57.6" xlink:href="#m8af3096be5" y="127.156598"/>
      </g>
     </g>
     <g id="text_15">
      <!-- 0 -->
      <g transform="translate(44.2375 130.955817)scale(0.1 -0.1)">
       <use xlink:href="#DejaVuSans-48"/>
      </g>
     </g>
    </g>
    <g id="ytick_6">
     <g id="line2d_15">
      <g>
       <use style="stroke:#000000;stroke-width:0.8;" x="57.6" xlink:href="#m8af3096be5" y="89.870305"/>
      </g>
     </g>
     <g id="text_16">
      <!-- 100 -->
      <g transform="translate(31.5125 93.669523)scale(0.1 -0.1)">
       <use xlink:href="#DejaVuSans-49"/>
       <use x="63.623047" xlink:href="#DejaVuSans-48"/>
       <use x="127.246094" xlink:href="#DejaVuSans-48"/>
      </g>
     </g>
    </g>
    <g id="ytick_7">
     <g id="line2d_16">
      <g>
       <use style="stroke:#000000;stroke-width:0.8;" x="57.6" xlink:href="#m8af3096be5" y="52.584011"/>
      </g>
     </g>
     <g id="text_17">
      <!-- 200 -->
      <g transform="translate(31.5125 56.38323)scale(0.1 -0.1)">
       <use xlink:href="#DejaVuSans-50"/>
       <use x="63.623047" xlink:href="#DejaVuSans-48"/>
       <use x="127.246094" xlink:href="#DejaVuSans-48"/>
      </g>
     </g>
    </g>
    <g id="text_18">
     <!-- position [m] -->
     <g transform="translate(17.053125 204.693625)rotate(-90)scale(0.1 -0.1)">
      <defs>
       <path d="M 18.109375 8.203125 
L 18.109375 -20.796875 
L 9.078125 -20.796875 
L 9.078125 54.6875 
L 18.109375 54.6875 
L 18.109375 46.390625 
Q 20.953125 51.265625 25.265625 53.625 
Q 29.59375 56 35.59375 56 
Q 45.5625 56 51.78125 48.09375 
Q 58.015625 40.1875 58.015625 27.296875 
Q 58.015625 14.40625 51.78125 6.484375 
Q 45.5625 -1.421875 35.59375 -1.421875 
Q 29.59375 -1.421875 25.265625 0.953125 
Q 20.953125 3.328125 18.109375 8.203125 
z
M 48.6875 27.296875 
Q 48.6875 37.203125 44.609375 42.84375 
Q 40.53125 48.484375 33.40625 48.484375 
Q 26.265625 48.484375 22.1875 42.84375 
Q 18.109375 37.203125 18.109375 27.296875 
Q 18.109375 17.390625 22.1875 11.75 
Q 26.265625 6.109375 33.40625 6.109375 
Q 40.53125 6.109375 44.609375 11.75 
Q 48.6875 17.390625 48.6875 27.296875 
z
" id="DejaVuSans-112"/>
       <path d="M 30.609375 48.390625 
Q 23.390625 48.390625 19.1875 42.75 
Q 14.984375 37.109375 14.984375 27.296875 
Q 14.984375 17.484375 19.15625 11.84375 
Q 23.34375 6.203125 30.609375 6.203125 
Q 37.796875 6.203125 41.984375 11.859375 
Q 46.1875 17.53125 46.1875 27.296875 
Q 46.1875 37.015625 41.984375 42.703125 
Q 37.796875 48.390625 30.609375 48.390625 
z
M 30.609375 56 
Q 42.328125 56 49.015625 48.375 
Q 55.71875 40.765625 55.71875 27.296875 
Q 55.71875 13.875 49.015625 6.21875 
Q 42.328125 -1.421875 30.609375 -1.421875 
Q 18.84375 -1.421875 12.171875 6.21875 
Q 5.515625 13.875 5.515625 27.296875 
Q 5.515625 40.765625 12.171875 48.375 
Q 18.84375 56 30.609375 56 
z
" id="DejaVuSans-111"/>
       <path d="M 54.890625 33.015625 
L 54.890625 0 
L 45.90625 0 
L 45.90625 32.71875 
Q 45.90625 40.484375 42.875 44.328125 
Q 39.84375 48.1875 33.796875 48.1875 
Q 26.515625 48.1875 22.3125 43.546875 
Q 18.109375 38.921875 18.109375 30.90625 
L 18.109375 0 
L 9.078125 0 
L 9.078125 54.6875 
L 18.109375 54.6875 
L 18.109375 46.1875 
Q 21.34375 51.125 25.703125 53.5625 
Q 30.078125 56 35.796875 56 
Q 45.21875 56 50.046875 50.171875 
Q 54.890625 44.34375 54.890625 33.015625 
z
" id="DejaVuSans-110"/>
      </defs>
      <use xlink:href="#DejaVuSans-112"/>
      <use x="63.476562" xlink:href="#DejaVuSans-111"/>
      <use x="124.658203" xlink:href="#DejaVuSans-115"/>
      <use x="176.757812" xlink:href="#DejaVuSans-105"/>
      <use x="204.541016" xlink:href="#DejaVuSans-116"/>
      <use x="243.75" xlink:href="#DejaVuSans-105"/>
      <use x="271.533203" xlink:href="#DejaVuSans-111"/>
      <use x="332.714844" xlink:href="#DejaVuSans-110"/>
      <use x="396.09375" xlink:href="#DejaVuSans-32"/>
      <use x="427.880859" xlink:href="#DejaVuSans-91"/>
      <use x="466.894531" xlink:href="#DejaVuSans-109"/>
      <use x="564.306641" xlink:href="#DejaVuSans-93"/>
     </g>
    </g>
   </g>
   <g id="line2d_17">
    <path clip-path="url(#p82214d0d54)" d="M 73.832727 127.156598 
L 80.342092 127.237709 
L 81.155762 127.507508 
L 81.969433 128.0946 
L 82.783103 129.016273 
L 85.224115 132.374255 
L 86.037785 133.052384 
L 86.851456 132.887176 
L 87.665126 131.895279 
L 89.292468 129.135914 
L 91.733479 124.389971 
L 93.36082 120.299738 
L 95.801832 113.191094 
L 99.056514 103.752395 
L 99.870185 101.714787 
L 100.683855 100.160432 
L 101.497526 99.233304 
L 102.311196 98.919103 
L 114.516254 98.910885 
L 130.789665 98.889645 
L 131.603336 98.787188 
L 132.417006 98.555806 
L 134.858018 97.385449 
L 135.671688 97.211699 
L 138.1127 97.095901 
L 138.92637 96.935492 
L 139.740041 96.644982 
L 140.553712 96.619254 
L 141.367382 97.183504 
L 142.181053 98.385439 
L 142.994723 100.028898 
L 144.622064 104.103879 
L 146.249405 108.761797 
L 152.75877 128.906904 
L 155.199781 136.344325 
L 157.640793 144.76642 
L 162.522816 161.649206 
L 164.150157 166.673173 
L 168.21851 178.106683 
L 171.473192 188.66462 
L 180.423568 219.308697 
L 183.67825 230.352323 
L 185.305591 235.867366 
L 186.119262 238.17353 
L 186.932932 240.03208 
L 187.746603 241.278121 
L 188.560273 241.864375 
L 190.187614 241.965874 
L 229.2438 241.980299 
L 230.057471 242.079023 
L 230.871141 242.326844 
L 231.684812 242.822699 
L 233.312153 243.4129 
L 234.125824 244.219758 
L 234.939494 245.580425 
L 235.753165 247.519768 
L 240.635188 260.786809 
L 241.448859 262.635824 
L 242.262529 263.971038 
L 243.0762 264.565446 
L 243.88987 264.537951 
L 245.517211 263.787406 
L 247.144552 262.753694 
L 248.771893 261.449319 
L 252.840246 257.650476 
L 254.467587 256.575051 
L 256.094928 255.848346 
L 258.53594 254.838551 
L 261.790622 253.141897 
L 266.672645 250.398033 
L 267.486316 249.721752 
L 269.113657 247.862663 
L 271.554668 244.752576 
L 273.99568 241.948723 
L 274.809351 241.274714 
L 275.623021 240.866357 
L 276.436692 240.641152 
L 278.064033 240.53709 
L 290.269091 240.490883 
L 291.082761 240.38618 
L 291.896432 240.141124 
L 293.523773 239.294952 
L 295.151114 238.101153 
L 295.964785 237.382634 
L 297.592126 235.584321 
L 299.219467 233.545012 
L 300.846808 231.188724 
L 306.542502 222.970509 
L 308.169843 220.925573 
L 309.797184 219.204779 
L 311.424525 217.950926 
L 312.238195 217.515579 
L 313.865537 216.976387 
L 315.492878 216.688113 
L 317.933889 216.621835 
L 329.325277 216.517347 
L 330.952618 216.311147 
L 331.766288 216.074316 
L 332.579959 215.707276 
L 333.39363 215.200316 
L 335.020971 213.776988 
L 336.648312 211.830917 
L 339.089323 208.259616 
L 340.716664 205.539484 
L 342.344005 202.454164 
L 343.157676 200.529927 
L 344.785017 195.751181 
L 346.412358 189.961578 
L 348.039699 183.060569 
L 353.735393 156.163926 
L 358.617416 131.989149 
L 360.244757 125.051476 
L 361.872098 119.141765 
L 364.31311 111.685412 
L 365.126781 109.434181 
L 365.940451 107.719232 
L 366.754122 106.770557 
L 367.567792 106.386235 
L 369.195133 106.056225 
L 371.636145 105.802734 
L 374.077157 105.825886 
L 381.400191 105.983619 
L 382.213862 106.252985 
L 383.027532 106.869097 
L 383.841203 107.953407 
L 384.654874 109.446684 
L 386.282215 113.341145 
L 389.536897 121.690816 
L 391.164238 125.512295 
L 391.977908 127.14155 
L 392.791579 128.443162 
L 393.605249 129.305816 
L 394.41892 129.724603 
L 396.046261 129.806675 
L 398.487273 129.806888 
L 398.487273 129.806888 
" style="fill:none;stroke:#ff0000;stroke-dasharray:5.55,2.4;stroke-dashoffset:0;stroke-width:1.5;"/>
   </g>
   <g id="line2d_18">
    <path clip-path="url(#p82214d0d54)" d="M 73.832727 127.156598 
L 80.342092 127.207406 
L 81.155762 127.434494 
L 81.969433 127.943378 
L 82.783103 128.727865 
L 85.224115 131.62966 
L 89.292468 138.52993 
L 90.106138 140.333676 
L 91.733479 144.730125 
L 94.174491 152.125508 
L 99.870185 170.612614 
L 100.683855 172.367379 
L 101.497526 173.431478 
L 102.311196 173.790115 
L 120.211948 173.789771 
L 130.789665 173.808583 
L 131.603336 173.927402 
L 132.417006 174.197613 
L 134.858018 175.622298 
L 135.671688 175.861657 
L 138.1127 176.016604 
L 138.92637 176.272478 
L 139.740041 176.982529 
L 140.553712 178.183917 
L 144.622064 185.679349 
L 146.249405 189.598699 
L 147.876746 194.122813 
L 151.131429 203.371161 
L 156.827122 218.716448 
L 159.268134 226.090704 
L 162.522816 236.003617 
L 165.777498 245.542971 
L 168.21851 253.041177 
L 173.100533 266.529241 
L 174.727874 271.168995 
L 181.237239 291.164348 
L 182.050909 293.022068 
L 182.86458 294.34865 
L 183.67825 295.169786 
L 184.491921 295.488 
L 185.305591 295.405373 
L 187.746603 294.82046 
L 189.373944 294.74521 
L 230.871141 294.736513 
L 235.753165 294.286014 
L 238.194176 293.968979 
L 239.007847 293.717871 
L 239.821517 293.251717 
L 240.635188 292.193302 
L 241.448859 290.49916 
L 242.262529 288.226527 
L 243.88987 282.804841 
L 245.517211 276.708461 
L 247.144552 269.659119 
L 254.467587 236.450263 
L 256.094928 231.472576 
L 257.722269 226.756268 
L 260.976951 215.803661 
L 265.858975 198.82269 
L 268.299986 189.284804 
L 272.368339 172.075642 
L 273.99568 166.319568 
L 274.809351 164.228306 
L 275.623021 162.856954 
L 276.436692 162.089676 
L 277.250362 161.777145 
L 279.691374 161.739643 
L 290.269091 161.720606 
L 291.082761 161.461521 
L 291.896432 160.69516 
L 292.710103 159.475199 
L 293.523773 157.842353 
L 295.151114 153.699507 
L 296.778455 148.603243 
L 298.405796 142.63258 
L 300.033137 135.918035 
L 303.28782 121.218978 
L 306.542502 106.810655 
L 308.169843 100.444305 
L 309.797184 95.228759 
L 310.610854 93.051361 
L 311.424525 91.290634 
L 312.238195 89.962518 
L 313.051866 89.060363 
L 313.865537 88.364881 
L 314.679207 87.845448 
L 315.492878 87.508831 
L 316.306548 87.350902 
L 322.002242 87.3462 
L 326.884265 87.239423 
L 329.325277 86.999491 
L 330.138947 86.761508 
L 330.952618 86.36812 
L 331.766288 85.652452 
L 332.579959 84.572871 
L 333.39363 83.105178 
L 334.2073 81.252699 
L 335.834641 76.680223 
L 337.461982 71.293905 
L 340.716664 60.019506 
L 341.530335 57.566858 
L 342.344005 55.515974 
L 343.157676 54.121241 
L 343.971347 53.568 
L 344.785017 53.829183 
L 345.598688 54.702015 
L 346.412358 55.974547 
L 348.039699 59.110843 
L 351.294381 65.862829 
L 353.735393 70.813071 
L 355.362734 73.373345 
L 356.990075 75.205437 
L 357.803746 75.843585 
L 358.617416 76.30958 
L 359.431087 76.576699 
L 361.872098 76.802759 
L 362.685769 77.211058 
L 363.49944 78.048644 
L 364.31311 79.276983 
L 365.126781 80.995051 
L 365.940451 83.323161 
L 368.381463 91.436854 
L 370.008804 95.997768 
L 370.822474 97.870786 
L 371.636145 99.34812 
L 372.449815 100.398575 
L 373.263486 100.993936 
L 374.077157 101.266671 
L 375.704498 101.363127 
L 378.95918 101.387097 
L 379.77285 101.536425 
L 380.586521 102.002759 
L 381.400191 102.950795 
L 382.213862 104.344865 
L 383.027532 106.13875 
L 387.909556 118.476087 
L 390.350567 123.883431 
L 391.977908 126.999586 
L 392.791579 128.145349 
L 393.605249 128.920889 
L 394.41892 129.293291 
L 396.046261 129.371281 
L 398.487273 129.368413 
L 398.487273 129.368413 
" style="fill:none;stroke:#0000ff;stroke-dasharray:5.55,2.4;stroke-dashoffset:0;stroke-width:1.5;"/>
   </g>
   <g id="line2d_19">
    <path clip-path="url(#p82214d0d54)" d="M 73.832727 127.156598 
L 91.733479 127.275235 
L 108.00689 127.249695 
L 149.504087 127.367621 
L 156.827122 127.447757 
L 176.355215 127.565647 
L 187.746603 127.598543 
L 192.628626 127.471052 
L 194.255967 127.309976 
L 256.908599 127.385979 
L 264.231634 127.379629 
L 297.592126 127.176666 
L 305.728831 127.230968 
L 319.56123 127.151904 
L 344.785017 127.238889 
L 347.226029 127.345918 
L 352.108052 127.249359 
L 353.735393 126.994132 
L 356.990075 126.308193 
L 358.617416 126.322682 
L 361.058428 126.689572 
L 365.940451 127.600045 
L 367.567792 127.63501 
L 370.822474 127.351136 
L 376.518168 127.328724 
L 384.654874 127.380814 
L 386.282215 127.23982 
L 398.487273 127.267341 
L 398.487273 127.267341 
" style="fill:none;stroke:#008000;stroke-dasharray:5.55,2.4;stroke-dashoffset:0;stroke-width:1.5;"/>
   </g>
   <g id="line2d_20">
    <path clip-path="url(#p82214d0d54)" d="M 73.832727 127.156598 
L 74.036018 127.156627 
L 74.645888 126.809633 
L 75.052469 126.806298 
L 75.255759 126.49317 
L 75.86563 126.517874 
L 76.06892 126.14518 
L 80.744596 126.29981 
L 81.761047 126.499962 
L 82.167628 126.669445 
L 82.980789 127.597933 
L 83.387369 128.473941 
L 83.99724 129.770625 
L 84.403821 130.326917 
L 85.216982 130.981382 
L 85.623562 130.994603 
L 85.826853 130.958812 
L 86.233433 135.75518 
L 86.436723 137.945716 
L 86.640014 136.48777 
L 86.843304 136.434889 
L 87.046594 136.551558 
L 87.249884 135.752949 
L 87.453175 135.633415 
L 87.656465 135.796354 
L 89.079497 135.811338 
L 90.095948 135.652905 
L 90.705819 135.353704 
L 91.31569 134.715073 
L 91.92556 133.827832 
L 92.942012 131.79312 
L 93.958463 129.176959 
L 95.178205 125.692195 
L 96.194656 123.119019 
L 96.601236 121.67969 
L 97.007817 119.820273 
L 98.430849 116.205655 
L 98.634139 108.566195 
L 99.04072 104.978611 
L 100.260461 100.572576 
L 100.667042 99.522943 
L 101.886783 97.633655 
L 102.496654 97.265654 
L 103.106525 97.164956 
L 103.513105 97.272814 
L 103.716396 97.413107 
L 104.326266 97.4337 
L 105.952588 97.727866 
L 108.188781 97.628418 
L 114.084199 96.641739 
L 114.490779 96.673645 
L 118.759875 96.442972 
L 122.012519 96.539986 
L 122.215809 96.696041 
L 123.638841 96.749986 
L 127.704646 97.267756 
L 128.314517 97.713987 
L 131.770451 98.2331 
L 132.177032 98.073756 
L 132.786903 97.869684 
L 133.803354 97.504655 
L 134.819805 97.282221 
L 135.836257 97.27641 
L 138.47903 98.543009 
L 139.902062 98.260304 
L 140.105352 97.60448 
L 141.731674 96.868895 
L 141.934964 96.452104 
L 142.544835 96.795186 
L 143.764577 98.007394 
L 144.171157 97.935659 
L 145.390899 100.218372 
L 146.00077 101.603858 
L 146.20406 101.769898 
L 146.40735 102.62285 
L 146.61064 102.804448 
L 147.627092 106.118587 
L 148.236962 109.579165 
L 148.846833 111.711201 
L 149.050124 111.959344 
L 150.879736 118.758248 
L 156.368573 136.297561 
L 156.775153 138.374945 
L 157.994895 142.36296 
L 159.011346 146.611894 
L 159.621217 150.39358 
L 160.231088 153.126218 
L 162.873861 161.660248 
L 163.483732 163.38233 
L 163.890313 164.593486 
L 164.296893 166.198735 
L 165.313344 168.533062 
L 165.923215 170.512451 
L 168.362698 177.194786 
L 170.598891 182.553331 
L 171.615342 184.973066 
L 172.021923 185.88069 
L 172.631794 187.993195 
L 173.241664 190.41198 
L 173.444955 190.855266 
L 174.664696 195.502774 
L 175.884438 199.281038 
L 176.291018 200.275825 
L 177.30747 203.616707 
L 178.527211 208.891003 
L 179.543663 212.717297 
L 179.950243 213.774099 
L 180.153533 214.094557 
L 180.966694 216.647139 
L 182.186436 220.204522 
L 182.999597 221.845766 
L 183.609468 223.292857 
L 185.43908 230.214467 
L 185.64237 236.315864 
L 185.845661 237.717559 
L 186.048951 238.155305 
L 186.252241 237.74447 
L 186.658822 236.451978 
L 187.065402 236.38705 
L 188.285144 237.280429 
L 188.691724 237.043611 
L 188.895015 240.389308 
L 189.301595 242.04441 
L 189.504885 242.415521 
L 189.708176 242.164093 
L 190.318046 242.627077 
L 190.521337 242.370745 
L 191.537788 242.973438 
L 193.977271 243.100609 
L 194.180561 242.846723 
L 194.790432 243.050178 
L 195.197013 243.056356 
L 195.400303 242.599927 
L 195.806883 242.421438 
L 196.010174 242.106801 
L 196.823335 242.681582 
L 197.636496 242.683539 
L 198.246366 242.356305 
L 199.059528 242.294905 
L 199.262818 241.928346 
L 200.075979 242.20087 
L 200.68585 242.023871 
L 200.88914 242.042362 
L 201.09243 241.699824 
L 201.499011 241.837793 
L 201.702301 241.573188 
L 202.515462 242.49168 
L 203.328623 242.218086 
L 204.141784 242.987958 
L 204.345074 242.831373 
L 204.954945 242.972073 
L 205.158235 242.712987 
L 206.377977 242.905427 
L 207.801009 242.606345 
L 208.207589 242.619499 
L 209.02075 242.325537 
L 209.224041 241.999748 
L 210.647072 242.094113 
L 211.053653 242.113457 
L 211.663524 242.166813 
L 212.273394 242.168565 
L 212.476685 241.860414 
L 213.493136 242.116814 
L 215.119458 241.885504 
L 215.729329 241.840205 
L 218.168812 241.840706 
L 218.575392 241.873147 
L 218.778683 241.632302 
L 219.591844 241.771636 
L 219.795134 241.660965 
L 220.811585 241.794826 
L 221.014876 241.597733 
L 221.624746 241.764376 
L 222.031327 241.640927 
L 222.844488 241.816673 
L 224.26752 241.828485 
L 224.47081 241.847476 
L 224.6741 241.603297 
L 225.487261 241.740833 
L 226.910293 241.75492 
L 227.113583 241.520902 
L 228.130035 241.730149 
L 228.536615 241.528333 
L 229.756357 241.781137 
L 230.162937 241.776085 
L 230.366228 241.841707 
L 230.569518 241.520242 
L 230.976098 241.679456 
L 231.382679 242.643975 
L 231.789259 243.230464 
L 231.99255 242.874647 
L 232.39913 242.779554 
L 232.60242 242.582608 
L 233.009001 242.790125 
L 233.212291 242.577203 
L 233.415581 242.706353 
L 234.025452 243.934578 
L 234.228743 244.092209 
L 234.635323 244.795606 
L 235.041904 245.017756 
L 235.651774 246.372501 
L 235.855065 246.615861 
L 236.464935 248.533816 
L 236.668226 248.606698 
L 237.278096 250.929706 
L 237.481387 251.089147 
L 238.091257 252.763491 
L 239.107709 255.949565 
L 239.514289 257.339267 
L 241.140611 260.834322 
L 241.343902 260.809539 
L 241.750482 261.185224 
L 242.360353 261.851229 
L 242.563643 261.864474 
L 242.970224 262.12893 
L 243.376804 262.316796 
L 243.580094 262.398678 
L 243.783385 262.907029 
L 244.393256 262.643961 
L 244.596546 262.317251 
L 245.409707 262.323225 
L 245.612997 262.351604 
L 246.019578 262.158572 
L 246.222868 262.155056 
L 246.426158 261.983292 
L 246.629448 263.122363 
L 247.239319 262.793093 
L 247.442609 228.269043 
L 247.6459 220.584372 
L 247.84919 218.648848 
L 248.05248 218.766591 
L 248.25577 219.96065 
L 248.459061 219.837167 
L 248.662351 220.138229 
L 248.865641 221.152269 
L 249.068932 220.866335 
L 249.272222 221.388284 
L 249.882093 220.491219 
L 250.288673 220.625473 
L 250.898544 220.038465 
L 251.101834 219.925387 
L 251.305124 219.319127 
L 251.711705 218.91772 
L 252.931446 218.395208 
L 253.541317 218.37922 
L 254.761059 218.012343 
L 255.167639 217.975885 
L 255.57422 218.029656 
L 256.997252 218.217134 
L 257.200542 218.564053 
L 258.013703 217.592206 
L 258.420283 217.399818 
L 258.623574 217.419116 
L 258.826864 217.290086 
L 259.233445 217.365232 
L 259.436735 220.106306 
L 259.640025 220.757843 
L 259.843315 220.975447 
L 260.046606 220.750947 
L 260.859767 220.964654 
L 261.469637 221.178554 
L 264.315701 222.581051 
L 264.722282 228.411325 
L 265.332152 232.031206 
L 265.942023 234.214448 
L 266.348604 232.028987 
L 266.551894 231.960907 
L 266.958474 232.055693 
L 267.161765 232.42611 
L 268.584796 237.148456 
L 268.991377 237.87725 
L 269.194667 238.577677 
L 269.397958 240.170662 
L 269.804538 239.885781 
L 270.007828 239.846456 
L 270.211119 238.515867 
L 271.43086 236.77177 
L 271.63415 236.788486 
L 271.837441 236.570478 
L 272.040731 236.608267 
L 272.853892 235.695329 
L 273.057182 235.020823 
L 273.463763 232.742454 
L 273.667053 232.350167 
L 273.870343 233.48265 
L 274.073634 233.811431 
L 274.276924 232.353171 
L 275.090085 230.46776 
L 275.699956 230.316137 
L 276.106536 230.759128 
L 276.513117 231.501838 
L 277.122987 231.861024 
L 277.326278 232.132785 
L 277.529568 231.648637 
L 277.732858 231.825385 
L 277.936148 231.765214 
L 278.139439 232.306461 
L 278.342729 231.741159 
L 278.546019 231.860944 
L 278.9526 232.429478 
L 279.15589 231.880868 
L 279.969051 234.265789 
L 280.578922 234.181825 
L 280.782212 233.884085 
L 280.985502 243.058291 
L 281.188793 243.385547 
L 281.392083 243.394286 
L 283.424985 241.97187 
L 284.238147 241.69525 
L 285.254598 241.795577 
L 285.457888 241.962835 
L 286.271049 241.911562 
L 287.490791 241.824001 
L 287.897371 241.911414 
L 289.320403 241.634976 
L 290.743435 241.465521 
L 290.946725 241.830965 
L 291.963176 241.689981 
L 293.589498 241.188116 
L 293.996079 240.2851 
L 295.01253 238.945738 
L 295.622401 238.086121 
L 296.028982 237.453137 
L 296.232272 236.762394 
L 296.435562 236.918842 
L 296.638852 236.828938 
L 296.842143 236.5549 
L 297.045433 235.976842 
L 297.655304 235.458216 
L 298.265174 234.224211 
L 298.671755 233.671687 
L 299.078336 233.328659 
L 299.281626 233.237128 
L 300.094787 231.739816 
L 300.907948 230.336027 
L 301.111238 230.551475 
L 302.33098 227.799574 
L 303.144141 226.877839 
L 304.567173 224.54905 
L 304.770463 224.565743 
L 305.583624 222.86979 
L 305.786914 222.753373 
L 306.193495 221.920935 
L 306.600075 221.532739 
L 308.226397 217.994745 
L 308.836268 217.325445 
L 309.039558 217.068465 
L 309.242849 217.214143 
L 309.446139 217.193798 
L 309.649429 217.426308 
L 310.2593 216.752098 
L 310.869171 216.225501 
L 311.072461 216.014269 
L 311.275751 216.241869 
L 311.682332 215.911034 
L 312.292202 215.423563 
L 312.495493 215.623758 
L 312.902073 215.591692 
L 313.308654 215.91933 
L 315.138266 216.833912 
L 315.341556 216.861842 
L 315.544847 217.20764 
L 316.561298 216.844455 
L 317.171169 216.426708 
L 318.39091 216.024294 
L 318.797491 215.885147 
L 319.407362 215.176966 
L 319.610652 214.986928 
L 320.017232 214.920338 
L 320.220523 215.031527 
L 320.627103 215.020313 
L 321.643554 215.195036 
L 322.456715 215.124248 
L 322.660006 215.516068 
L 324.286328 215.271701 
L 325.506069 215.25589 
L 326.31923 215.110485 
L 326.522521 215.158441 
L 326.725811 215.062745 
L 327.132391 215.06382 
L 328.352133 215.068856 
L 328.555423 215.425885 
L 330.181745 215.035009 
L 330.385036 215.062466 
L 330.588326 215.344736 
L 330.994906 215.217532 
L 331.604777 215.99703 
L 332.417938 215.907729 
L 332.824519 215.651078 
L 333.434389 215.279228 
L 334.450841 213.740207 
L 335.264002 213.271858 
L 335.670582 212.973811 
L 335.873873 212.833043 
L 336.280453 212.246844 
L 336.687034 211.912111 
L 337.093614 211.124864 
L 337.500195 210.666398 
L 338.110065 209.013184 
L 339.126517 207.491498 
L 339.329807 207.31908 
L 340.549549 205.177695 
L 340.752839 205.163842 
L 341.36271 204.011253 
L 341.566 203.846868 
L 342.175871 202.518578 
L 342.379161 202.38297 
L 342.785741 201.526983 
L 343.192322 201.032286 
L 343.598902 199.62728 
L 343.802193 199.226727 
L 344.005483 199.082607 
L 344.615354 196.290886 
L 344.818644 195.698138 
L 345.225225 193.703643 
L 345.835095 191.981695 
L 346.241676 190.395935 
L 346.444966 189.935552 
L 346.851547 187.582736 
L 347.461417 185.40375 
L 347.867998 183.587511 
L 348.071288 183.011837 
L 348.681159 179.881554 
L 349.08774 178.659697 
L 349.69761 175.76998 
L 350.104191 172.499106 
L 356.812769 142.21545 
L 357.829221 136.293481 
L 358.845672 130.062923 
L 359.252253 128.285886 
L 360.268704 122.110921 
L 361.285155 116.093279 
L 361.895026 112.983345 
L 362.708187 110.570257 
L 362.911477 110.753248 
L 363.114767 110.727811 
L 363.318058 110.53231 
L 363.521348 109.76618 
L 364.131219 109.061681 
L 364.334509 109.169078 
L 364.74109 108.445929 
L 364.94438 108.301503 
L 365.14767 108.407139 
L 365.35096 107.868773 
L 365.554251 107.930532 
L 365.757541 107.689949 
L 365.960831 107.840283 
L 366.164121 107.719702 
L 366.367412 107.99865 
L 366.570702 107.86414 
L 366.773992 107.513612 
L 366.977282 92.750957 
L 367.180573 93.767714 
L 367.383863 93.207387 
L 367.587153 93.071176 
L 367.993734 91.728859 
L 368.197024 91.282892 
L 368.400314 92.541996 
L 368.603604 91.481522 
L 369.416766 97.434078 
L 370.026636 100.284446 
L 370.839797 102.295622 
L 371.246378 103.809566 
L 372.466119 105.766526 
L 373.07599 106.033218 
L 373.482571 105.965325 
L 374.295732 105.598551 
L 374.499022 105.501458 
L 374.702312 105.230918 
L 375.108893 105.210073 
L 375.312183 105.232144 
L 375.515473 105.112939 
L 376.125344 105.246066 
L 377.751666 105.45851 
L 378.971408 105.522797 
L 380.80102 105.829542 
L 382.020762 106.120912 
L 382.224052 106.17347 
L 382.630632 106.66175 
L 383.037213 106.93657 
L 383.443793 107.836512 
L 383.647084 107.875152 
L 383.850374 108.211637 
L 384.256955 109.394407 
L 384.460245 109.737785 
L 384.663535 109.8289 
L 384.866825 110.273301 
L 385.273406 111.561931 
L 385.476696 111.866545 
L 385.883277 113.663168 
L 386.493147 114.767882 
L 386.899728 116.045835 
L 387.103018 116.140952 
L 387.306308 116.591925 
L 387.509599 116.160476 
L 387.916179 116.929652 
L 388.32276 119.941474 
L 388.52605 120.677593 
L 388.72934 120.926749 
L 389.339211 122.942887 
L 389.542501 123.393962 
L 389.949082 124.981495 
L 390.558953 126.252793 
L 390.965533 126.673877 
L 391.168823 126.692126 
L 391.778694 128.447635 
L 391.981984 128.210913 
L 392.388565 129.293594 
L 392.591855 129.342163 
L 393.811597 131.354862 
L 394.218177 131.755532 
L 395.031338 131.993927 
L 395.234629 132.000369 
L 395.641209 131.328858 
L 396.04779 131.112486 
L 396.45437 130.54159 
L 397.064241 130.30121 
L 397.674112 130.229812 
L 398.283982 130.389876 
L 398.487273 130.423227 
L 398.487273 130.423227 
" style="fill:none;stroke:#ff0000;stroke-linecap:square;stroke-width:1.5;"/>
   </g>
   <g id="line2d_21">
    <path clip-path="url(#p82214d0d54)" d="M 73.832727 127.156598 
L 74.239308 127.142044 
L 74.442598 126.947396 
L 75.052469 126.953614 
L 75.459049 126.845369 
L 77.288662 126.950892 
L 77.491952 126.79375 
L 81.151177 127.077815 
L 82.167628 127.324551 
L 82.980789 128.064503 
L 83.387369 128.748212 
L 84.200531 130.024853 
L 85.420272 131.403756 
L 85.623562 130.763132 
L 85.826853 131.023165 
L 86.030143 130.031087 
L 86.233433 130.042665 
L 86.436723 132.738674 
L 86.640014 131.159254 
L 86.843304 131.178351 
L 87.249884 130.795185 
L 87.453175 130.984796 
L 87.656465 131.454036 
L 88.063045 131.519586 
L 89.282787 131.575242 
L 90.299238 131.91241 
L 90.705819 132.279565 
L 91.31569 133.257546 
L 92.128851 135.009355 
L 92.942012 137.173573 
L 93.958463 140.512612 
L 95.381495 145.498364 
L 96.397946 148.974589 
L 97.617688 154.255019 
L 98.227558 156.028585 
L 98.430849 156.725515 
L 98.634139 160.88366 
L 99.04072 163.405349 
L 100.463751 168.143364 
L 101.073622 169.492116 
L 101.480203 170.101629 
L 102.293364 170.718335 
L 103.309815 170.991971 
L 103.513105 171.70209 
L 104.326266 172.148338 
L 104.529557 172.080733 
L 104.732847 172.152838 
L 104.936137 172.097907 
L 105.546008 172.254731 
L 106.359169 172.329404 
L 106.765749 172.353542 
L 107.37562 172.205463 
L 107.985491 172.1819 
L 108.392071 172.112648 
L 108.595362 172.065616 
L 108.798652 171.860054 
L 109.408523 171.921312 
L 109.815103 171.852098 
L 111.034845 171.78216 
L 116.523682 171.280912 
L 120.182907 171.188109 
L 123.842131 171.420864 
L 127.298066 171.803558 
L 127.907936 172.024101 
L 128.721098 172.36052 
L 131.973742 173.069227 
L 132.786903 173.540094 
L 134.819805 175.033824 
L 136.039547 175.724141 
L 137.665869 176.608768 
L 138.47903 177.071604 
L 139.292191 177.484902 
L 139.698772 177.843365 
L 139.902062 177.97784 
L 140.105352 177.741234 
L 140.511933 178.00214 
L 140.715223 178.049049 
L 141.121803 178.411273 
L 141.528384 178.598273 
L 141.731674 178.764519 
L 141.934964 178.653091 
L 142.951416 179.526152 
L 143.967867 180.628327 
L 144.171157 180.238783 
L 144.781028 181.231345 
L 144.984318 181.238474 
L 145.797479 183.067195 
L 146.00077 183.582897 
L 146.40735 184.117676 
L 146.813931 185.266157 
L 149.456704 194.43209 
L 149.863285 195.559321 
L 153.115929 206.236864 
L 155.352122 213.210543 
L 155.555412 215.526491 
L 155.961992 217.156207 
L 156.978444 220.029123 
L 157.791605 221.408316 
L 159.011346 225.150048 
L 159.621217 227.922841 
L 160.434378 230.699798 
L 161.65412 234.981441 
L 162.26399 237.029991 
L 162.670571 238.525334 
L 163.280442 240.193227 
L 163.890313 242.259278 
L 164.296893 244.110745 
L 165.313344 247.329351 
L 165.923215 249.879937 
L 167.346247 254.763602 
L 168.362698 257.49609 
L 170.192311 261.673138 
L 170.802181 263.234013 
L 171.412052 264.385953 
L 172.631794 267.555834 
L 173.241664 269.755882 
L 173.444955 270.194026 
L 174.867987 275.506538 
L 177.30747 283.413341 
L 178.527211 288.916529 
L 179.543663 292.861858 
L 179.746953 293.576405 
L 179.950243 292.656742 
L 180.153533 292.373442 
L 180.560114 292.533759 
L 181.779855 294.848495 
L 182.389726 295.580043 
L 182.999597 295.89517 
L 184.829209 296.338513 
L 185.43908 296.377895 
L 185.64237 296.682531 
L 185.845661 297.74121 
L 186.048951 297.766243 
L 186.252241 291.007022 
L 186.455531 291.70565 
L 186.658822 291.612651 
L 187.065402 292.052035 
L 187.471983 292.817878 
L 187.878563 293.26764 
L 188.691724 293.001841 
L 188.895015 293.739567 
L 189.301595 294.072672 
L 189.911466 294.168892 
L 191.131207 294.280439 
L 192.96082 294.14833 
L 195.197013 294.10401 
L 195.603593 295.19728 
L 196.010174 295.528087 
L 196.416754 294.902238 
L 196.823335 294.614967 
L 197.636496 294.704791 
L 198.043076 295.153392 
L 198.652947 295.453829 
L 199.059528 295.518028 
L 199.872689 295.326977 
L 200.075979 295.315939 
L 200.68585 295.56071 
L 200.88914 295.612985 
L 201.29572 295.522181 
L 203.735204 295.640453 
L 204.345074 295.75084 
L 205.564816 295.740144 
L 208.207589 295.767009 
L 208.61417 295.30398 
L 209.427331 294.891689 
L 210.037202 294.818444 
L 215.526039 294.985008 
L 222.641198 294.929126 
L 224.47081 294.926281 
L 225.283971 294.876453 
L 230.976098 294.730382 
L 231.382679 293.437401 
L 231.789259 293.107527 
L 232.19584 294.108573 
L 232.60242 294.6348 
L 233.415581 294.627472 
L 233.618872 293.950691 
L 234.025452 293.582072 
L 234.838613 293.557323 
L 235.041904 293.647 
L 235.448484 294.018475 
L 235.855065 294.185448 
L 236.261645 293.881006 
L 236.668226 293.836891 
L 237.074806 293.479241 
L 237.481387 293.447824 
L 237.887967 293.247556 
L 238.904419 293.415576 
L 239.107709 293.484657 
L 239.514289 292.896996 
L 239.92087 292.794324 
L 240.530741 291.456931 
L 240.734031 291.222458 
L 241.140611 290.543571 
L 241.547192 290.259077 
L 241.953772 288.540901 
L 242.360353 287.782192 
L 242.766933 285.369609 
L 243.173514 284.41656 
L 243.580094 282.693116 
L 243.986675 281.766682 
L 244.393256 279.94893 
L 244.799836 279.22521 
L 245.206417 277.068356 
L 245.409707 276.724862 
L 245.612997 276.14471 
L 246.019578 273.451502 
L 246.426158 272.115918 
L 247.239319 268.590595 
L 247.442609 269.1938 
L 247.6459 265.991 
L 247.84919 264.609286 
L 248.05248 264.331721 
L 248.459061 261.495639 
L 248.662351 261.048302 
L 249.475512 256.831439 
L 249.678802 256.228575 
L 250.085383 254.232971 
L 250.491963 253.674791 
L 250.898544 251.795172 
L 252.118285 245.413957 
L 252.728156 242.471539 
L 253.338027 239.968301 
L 255.167639 232.478555 
L 255.37093 232.107923 
L 255.77751 230.881007 
L 256.387381 229.608769 
L 256.997252 228.138004 
L 257.200542 226.222701 
L 257.810413 224.414029 
L 258.420283 221.370715 
L 258.623574 220.919298 
L 259.030154 219.60984 
L 259.233445 217.526254 
L 259.436735 217.610737 
L 260.046606 220.15367 
L 260.453186 221.033428 
L 260.859767 221.388523 
L 261.063057 221.458457 
L 261.469637 216.906282 
L 261.672928 216.750898 
L 261.876218 216.744105 
L 262.486089 217.177856 
L 262.689379 217.137506 
L 263.095959 216.245659 
L 263.70583 214.305532 
L 264.315701 212.026947 
L 264.518991 205.180108 
L 264.925572 203.831762 
L 265.128862 203.664613 
L 265.535443 201.27275 
L 265.738733 201.024958 
L 265.942023 200.470745 
L 266.145313 200.489912 
L 266.958474 198.278223 
L 267.365055 196.069402 
L 267.568345 195.442762 
L 268.381506 190.915159 
L 269.194667 186.747385 
L 269.601248 184.129123 
L 270.414409 179.973291 
L 273.260472 166.619713 
L 273.667053 165.279583 
L 274.073634 164.412553 
L 274.683504 162.424396 
L 275.090085 160.637896 
L 275.496665 159.814578 
L 275.699956 159.87911 
L 275.903246 159.826557 
L 276.106536 159.207842 
L 276.309826 158.970911 
L 276.919697 159.540529 
L 277.326278 159.835074 
L 278.546019 160.564283 
L 278.74931 160.371463 
L 278.9526 160.34553 
L 279.15589 159.716045 
L 279.562471 160.531538 
L 279.765761 160.705139 
L 279.969051 161.039576 
L 280.172341 161.03965 
L 280.375632 160.898094 
L 280.782212 161.029847 
L 280.985502 158.004589 
L 281.392083 160.831892 
L 281.595373 161.517645 
L 282.001954 161.94249 
L 282.408534 162.011858 
L 283.628276 161.925862 
L 283.831566 162.108621 
L 284.441437 161.977864 
L 284.644727 162.174334 
L 284.848017 162.077349 
L 285.051308 162.240938 
L 285.254598 162.126042 
L 285.457888 162.298372 
L 286.067759 162.011884 
L 286.67763 161.913732 
L 286.88092 162.126953 
L 287.490791 161.947377 
L 287.897371 162.036963 
L 288.303952 161.933762 
L 288.913823 162.206482 
L 289.117113 162.099669 
L 289.320403 162.216527 
L 289.726984 161.986099 
L 289.930274 162.027544 
L 291.150015 161.628151 
L 291.759886 160.922999 
L 292.166467 160.746186 
L 292.369757 160.930899 
L 292.776337 160.689994 
L 293.182918 158.805431 
L 293.589498 157.952428 
L 293.996079 157.67216 
L 294.40266 157.193719 
L 294.80924 155.089853 
L 296.028982 151.265283 
L 296.232272 149.361065 
L 296.638852 148.083017 
L 296.842143 147.64964 
L 297.248723 146.169213 
L 297.655304 145.705394 
L 298.265174 142.995882 
L 298.671755 141.999048 
L 299.078336 141.600612 
L 299.281626 141.46527 
L 300.298077 136.740093 
L 300.907948 133.301559 
L 301.314528 129.524176 
L 302.94085 121.646041 
L 303.347431 120.77019 
L 303.754011 117.842971 
L 304.363882 115.569492 
L 304.770463 113.678703 
L 304.973753 113.009031 
L 305.380334 110.526164 
L 305.786914 109.844543 
L 306.193495 107.88041 
L 306.600075 107.301638 
L 308.429687 99.168167 
L 308.836268 97.722629 
L 309.039558 98.06783 
L 309.242849 97.666779 
L 310.05601 94.557046 
L 311.072461 91.541488 
L 311.275751 91.365096 
L 311.479041 90.802118 
L 311.885622 88.781002 
L 312.292202 87.777761 
L 312.902073 87.243449 
L 313.105363 87.32763 
L 313.715234 86.953717 
L 313.918525 86.938014 
L 314.121815 87.407854 
L 314.528395 87.303006 
L 314.731686 87.426353 
L 315.138266 86.475031 
L 315.341556 86.238134 
L 315.544847 86.352594 
L 315.748137 86.277138 
L 316.358008 86.467703 
L 316.561298 86.928408 
L 317.171169 86.910494 
L 317.781039 86.693209 
L 317.98433 86.676531 
L 318.39091 86.407608 
L 319.610652 86.135195 
L 320.423813 86.267116 
L 321.236974 86.25776 
L 321.643554 86.313462 
L 322.253425 86.366089 
L 323.066586 86.468175 
L 326.725811 86.090942 
L 326.929101 86.182397 
L 327.335682 86.04609 
L 329.368584 85.830247 
L 329.775165 85.607337 
L 330.994906 85.248078 
L 331.808067 84.959999 
L 332.621228 83.985825 
L 333.434389 83.427956 
L 333.63768 81.434392 
L 334.04426 80.742354 
L 334.247551 80.57047 
L 334.654131 79.600114 
L 335.264002 78.467091 
L 335.873873 77.219432 
L 336.280453 75.194806 
L 336.687034 74.242758 
L 336.890324 72.457669 
L 337.296904 71.540458 
L 337.500195 71.358413 
L 337.906775 69.424238 
L 338.313356 68.813494 
L 338.719936 66.29519 
L 339.126517 65.544633 
L 339.533097 63.501164 
L 339.939678 62.889754 
L 340.549549 60.452565 
L 340.752839 60.254669 
L 340.956129 58.990527 
L 341.36271 58.087062 
L 341.566 57.931598 
L 341.97258 56.268143 
L 342.379161 55.875208 
L 342.785741 54.862391 
L 343.802193 54.308889 
L 344.818644 54.355559 
L 345.021934 54.806891 
L 345.428515 55.032915 
L 345.631805 55.038849 
L 346.038386 56.234433 
L 346.444966 56.432335 
L 346.851547 57.787832 
L 347.258127 57.976123 
L 347.461417 59.071135 
L 347.867998 59.832786 
L 348.071288 59.853797 
L 348.477869 60.74631 
L 349.08774 61.582379 
L 349.49432 62.632609 
L 349.69761 62.909895 
L 349.900901 64.505839 
L 350.104191 65.114779 
L 350.510771 65.339745 
L 350.917352 66.190868 
L 351.323932 66.517527 
L 351.730513 67.611998 
L 352.137093 67.998863 
L 352.543674 68.988609 
L 352.950254 69.38324 
L 353.356835 70.623582 
L 353.966706 71.610256 
L 354.373286 72.199323 
L 354.779867 72.553331 
L 356.202899 75.881646 
L 356.609479 75.738506 
L 357.01606 76.353744 
L 357.829221 76.947261 
L 358.032511 77.250405 
L 358.235801 77.194592 
L 358.439091 77.37584 
L 358.642382 77.343359 
L 359.048962 77.584899 
L 359.658833 77.889995 
L 359.862123 77.540868 
L 360.065414 77.540328 
L 360.675284 78.018206 
L 361.081865 78.482549 
L 361.488445 77.346727 
L 361.895026 77.072417 
L 362.708187 78.568562 
L 362.911477 78.233073 
L 363.114767 78.188616 
L 363.318058 78.347983 
L 363.927929 79.393019 
L 364.131219 79.477262 
L 364.74109 81.266801 
L 365.14767 81.681268 
L 365.554251 83.186138 
L 365.960831 84.166957 
L 366.773992 87.045695 
L 366.977282 60.992344 
L 367.180573 58.968048 
L 367.383863 62.739622 
L 367.587153 63.066679 
L 368.400314 71.110826 
L 368.603604 83.81795 
L 369.010185 88.784436 
L 369.213475 90.026798 
L 369.620056 93.908604 
L 370.433217 96.680913 
L 370.839797 97.220346 
L 371.043088 98.494384 
L 371.246378 99.022887 
L 371.449668 99.215182 
L 372.059539 99.361631 
L 372.262829 99.382764 
L 373.07599 100.322025 
L 373.27928 100.29731 
L 374.092442 100.921196 
L 374.905603 100.985922 
L 375.312183 100.895375 
L 376.531925 100.912853 
L 376.938505 100.543122 
L 377.345086 100.730515 
L 377.954956 100.198359 
L 378.361537 100.291066 
L 378.768117 100.493135 
L 378.971408 100.280392 
L 379.377988 100.431487 
L 380.191149 100.866939 
L 380.39444 100.767189 
L 380.59773 101.028986 
L 380.80102 101.066377 
L 382.020762 103.655251 
L 382.224052 103.897732 
L 382.630632 105.097028 
L 383.240503 107.124892 
L 383.443793 107.864622 
L 383.647084 108.046414 
L 383.850374 108.516576 
L 384.256955 110.124048 
L 384.460245 110.534405 
L 384.663535 110.632134 
L 386.086567 114.157714 
L 386.289857 114.363992 
L 386.696438 116.106848 
L 387.306308 117.066864 
L 387.509599 117.327048 
L 387.916179 118.47796 
L 388.119469 118.788896 
L 388.32276 119.606937 
L 388.52605 119.781663 
L 389.135921 120.958843 
L 389.745792 122.629782 
L 390.152372 123.638605 
L 390.355662 123.775472 
L 390.762243 124.588383 
L 391.778694 126.736769 
L 391.981984 126.872212 
L 392.591855 128.103029 
L 392.795145 128.171875 
L 393.201726 128.577041 
L 396.25108 128.603911 
L 396.65766 128.478198 
L 397.470821 128.522239 
L 398.283982 128.535622 
L 398.487273 128.444123 
L 398.487273 128.444123 
" style="fill:none;stroke:#0000ff;stroke-linecap:square;stroke-width:1.5;"/>
   </g>
   <g id="line2d_22">
    <path clip-path="url(#p82214d0d54)" d="M 73.832727 127.156598 
L 186.252241 127.097796 
L 186.455531 128.197364 
L 186.658822 127.162841 
L 190.318046 127.156599 
L 247.239319 127.156606 
L 247.442609 126.994624 
L 247.6459 127.159549 
L 249.068932 127.156635 
L 249.272222 127.303044 
L 249.475512 127.156655 
L 280.782212 127.156683 
L 280.985502 127.882812 
L 281.188793 127.145917 
L 283.424985 127.156596 
L 398.487273 127.156613 
L 398.487273 127.156613 
" style="fill:none;stroke:#008000;stroke-linecap:square;stroke-width:1.5;"/>
   </g>
   <g id="patch_3">
    <path d="M 57.6 307.584 
L 57.6 41.472 
" style="fill:none;stroke:#000000;stroke-linecap:square;stroke-linejoin:miter;stroke-width:0.8;"/>
   </g>
   <g id="patch_4">
    <path d="M 414.72 307.584 
L 414.72 41.472 
" style="fill:none;stroke:#000000;stroke-linecap:square;stroke-linejoin:miter;stroke-width:0.8;"/>
   </g>
   <g id="patch_5">
    <path d="M 57.6 307.584 
L 414.72 307.584 
" style="fill:none;stroke:#000000;stroke-linecap:square;stroke-linejoin:miter;stroke-width:0.8;"/>
   </g>
   <g id="patch_6">
    <path d="M 57.6 41.472 
L 414.72 41.472 
" style="fill:none;stroke:#000000;stroke-linecap:square;stroke-linejoin:miter;stroke-width:0.8;"/>
   </g>
   <g id="legend_1">
    <g id="patch_7">
     <path d="M 64.6 302.584 
L 157.870313 302.584 
Q 159.870313 302.584 159.870313 300.584 
L 159.870313 211.8465 
Q 159.870313 209.8465 157.870313 209.8465 
L 64.6 209.8465 
Q 62.6 209.8465 62.6 211.8465 
L 62.6 300.584 
Q 62.6 302.584 64.6 302.584 
z
" style="fill:#ffffff;opacity:0.8;stroke:#cccccc;stroke-linejoin:miter;"/>
    </g>
    <g id="line2d_23">
     <path d="M 66.6 217.944937 
L 86.6 217.944937 
" style="fill:none;stroke:#ff0000;stroke-dasharray:5.55,2.4;stroke-dashoffset:0;stroke-width:1.5;"/>
    </g>
    <g id="line2d_24"/>
    <g id="text_19">
     <!-- gt_x -->
     <g transform="translate(94.6 221.444937)scale(0.1 -0.1)">
      <defs>
       <path d="M 45.40625 27.984375 
Q 45.40625 37.75 41.375 43.109375 
Q 37.359375 48.484375 30.078125 48.484375 
Q 22.859375 48.484375 18.828125 43.109375 
Q 14.796875 37.75 14.796875 27.984375 
Q 14.796875 18.265625 18.828125 12.890625 
Q 22.859375 7.515625 30.078125 7.515625 
Q 37.359375 7.515625 41.375 12.890625 
Q 45.40625 18.265625 45.40625 27.984375 
z
M 54.390625 6.78125 
Q 54.390625 -7.171875 48.1875 -13.984375 
Q 42 -20.796875 29.203125 -20.796875 
Q 24.46875 -20.796875 20.265625 -20.09375 
Q 16.0625 -19.390625 12.109375 -17.921875 
L 12.109375 -9.1875 
Q 16.0625 -11.328125 19.921875 -12.34375 
Q 23.78125 -13.375 27.78125 -13.375 
Q 36.625 -13.375 41.015625 -8.765625 
Q 45.40625 -4.15625 45.40625 5.171875 
L 45.40625 9.625 
Q 42.625 4.78125 38.28125 2.390625 
Q 33.9375 0 27.875 0 
Q 17.828125 0 11.671875 7.65625 
Q 5.515625 15.328125 5.515625 27.984375 
Q 5.515625 40.671875 11.671875 48.328125 
Q 17.828125 56 27.875 56 
Q 33.9375 56 38.28125 53.609375 
Q 42.625 51.21875 45.40625 46.390625 
L 45.40625 54.6875 
L 54.390625 54.6875 
z
" id="DejaVuSans-103"/>
       <path d="M 50.984375 -16.609375 
L 50.984375 -23.578125 
L -0.984375 -23.578125 
L -0.984375 -16.609375 
z
" id="DejaVuSans-95"/>
       <path d="M 54.890625 54.6875 
L 35.109375 28.078125 
L 55.90625 0 
L 45.3125 0 
L 29.390625 21.484375 
L 13.484375 0 
L 2.875 0 
L 24.125 28.609375 
L 4.6875 54.6875 
L 15.28125 54.6875 
L 29.78125 35.203125 
L 44.28125 54.6875 
z
" id="DejaVuSans-120"/>
      </defs>
      <use xlink:href="#DejaVuSans-103"/>
      <use x="63.476562" xlink:href="#DejaVuSans-116"/>
      <use x="102.685547" xlink:href="#DejaVuSans-95"/>
      <use x="152.685547" xlink:href="#DejaVuSans-120"/>
     </g>
    </g>
    <g id="line2d_25">
     <path d="M 66.6 232.901187 
L 86.6 232.901187 
" style="fill:none;stroke:#0000ff;stroke-dasharray:5.55,2.4;stroke-dashoffset:0;stroke-width:1.5;"/>
    </g>
    <g id="line2d_26"/>
    <g id="text_20">
     <!-- gt_y -->
     <g transform="translate(94.6 236.401187)scale(0.1 -0.1)">
      <defs>
       <path d="M 32.171875 -5.078125 
Q 28.375 -14.84375 24.75 -17.8125 
Q 21.140625 -20.796875 15.09375 -20.796875 
L 7.90625 -20.796875 
L 7.90625 -13.28125 
L 13.1875 -13.28125 
Q 16.890625 -13.28125 18.9375 -11.515625 
Q 21 -9.765625 23.484375 -3.21875 
L 25.09375 0.875 
L 2.984375 54.6875 
L 12.5 54.6875 
L 29.59375 11.921875 
L 46.6875 54.6875 
L 56.203125 54.6875 
z
" id="DejaVuSans-121"/>
      </defs>
      <use xlink:href="#DejaVuSans-103"/>
      <use x="63.476562" xlink:href="#DejaVuSans-116"/>
      <use x="102.685547" xlink:href="#DejaVuSans-95"/>
      <use x="152.685547" xlink:href="#DejaVuSans-121"/>
     </g>
    </g>
    <g id="line2d_27">
     <path d="M 66.6 247.857437 
L 86.6 247.857437 
" style="fill:none;stroke:#008000;stroke-dasharray:5.55,2.4;stroke-dashoffset:0;stroke-width:1.5;"/>
    </g>
    <g id="line2d_28"/>
    <g id="text_21">
     <!-- gt_z -->
     <g transform="translate(94.6 251.357437)scale(0.1 -0.1)">
      <defs>
       <path d="M 5.515625 54.6875 
L 48.1875 54.6875 
L 48.1875 46.484375 
L 14.40625 7.171875 
L 48.1875 7.171875 
L 48.1875 0 
L 4.296875 0 
L 4.296875 8.203125 
L 38.09375 47.515625 
L 5.515625 47.515625 
z
" id="DejaVuSans-122"/>
      </defs>
      <use xlink:href="#DejaVuSans-103"/>
      <use x="63.476562" xlink:href="#DejaVuSans-116"/>
      <use x="102.685547" xlink:href="#DejaVuSans-95"/>
      <use x="152.685547" xlink:href="#DejaVuSans-122"/>
     </g>
    </g>
    <g id="line2d_29">
     <path d="M 66.6 262.813688 
L 86.6 262.813688 
" style="fill:none;stroke:#ff0000;stroke-linecap:square;stroke-width:1.5;"/>
    </g>
    <g id="line2d_30"/>
    <g id="text_22">
     <!-- estimated_x -->
     <g transform="translate(94.6 266.313688)scale(0.1 -0.1)">
      <defs>
       <path d="M 34.28125 27.484375 
Q 23.390625 27.484375 19.1875 25 
Q 14.984375 22.515625 14.984375 16.5 
Q 14.984375 11.71875 18.140625 8.90625 
Q 21.296875 6.109375 26.703125 6.109375 
Q 34.1875 6.109375 38.703125 11.40625 
Q 43.21875 16.703125 43.21875 25.484375 
L 43.21875 27.484375 
z
M 52.203125 31.203125 
L 52.203125 0 
L 43.21875 0 
L 43.21875 8.296875 
Q 40.140625 3.328125 35.546875 0.953125 
Q 30.953125 -1.421875 24.3125 -1.421875 
Q 15.921875 -1.421875 10.953125 3.296875 
Q 6 8.015625 6 15.921875 
Q 6 25.140625 12.171875 29.828125 
Q 18.359375 34.515625 30.609375 34.515625 
L 43.21875 34.515625 
L 43.21875 35.40625 
Q 43.21875 41.609375 39.140625 45 
Q 35.0625 48.390625 27.6875 48.390625 
Q 23 48.390625 18.546875 47.265625 
Q 14.109375 46.140625 10.015625 43.890625 
L 10.015625 52.203125 
Q 14.9375 54.109375 19.578125 55.046875 
Q 24.21875 56 28.609375 56 
Q 40.484375 56 46.34375 49.84375 
Q 52.203125 43.703125 52.203125 31.203125 
z
" id="DejaVuSans-97"/>
       <path d="M 45.40625 46.390625 
L 45.40625 75.984375 
L 54.390625 75.984375 
L 54.390625 0 
L 45.40625 0 
L 45.40625 8.203125 
Q 42.578125 3.328125 38.25 0.953125 
Q 33.9375 -1.421875 27.875 -1.421875 
Q 17.96875 -1.421875 11.734375 6.484375 
Q 5.515625 14.40625 5.515625 27.296875 
Q 5.515625 40.1875 11.734375 48.09375 
Q 17.96875 56 27.875 56 
Q 33.9375 56 38.25 53.625 
Q 42.578125 51.265625 45.40625 46.390625 
z
M 14.796875 27.296875 
Q 14.796875 17.390625 18.875 11.75 
Q 22.953125 6.109375 30.078125 6.109375 
Q 37.203125 6.109375 41.296875 11.75 
Q 45.40625 17.390625 45.40625 27.296875 
Q 45.40625 37.203125 41.296875 42.84375 
Q 37.203125 48.484375 30.078125 48.484375 
Q 22.953125 48.484375 18.875 42.84375 
Q 14.796875 37.203125 14.796875 27.296875 
z
" id="DejaVuSans-100"/>
      </defs>
      <use xlink:href="#DejaVuSans-101"/>
      <use x="61.523438" xlink:href="#DejaVuSans-115"/>
      <use x="113.623047" xlink:href="#DejaVuSans-116"/>
      <use x="152.832031" xlink:href="#DejaVuSans-105"/>
      <use x="180.615234" xlink:href="#DejaVuSans-109"/>
      <use x="278.027344" xlink:href="#DejaVuSans-97"/>
      <use x="339.306641" xlink:href="#DejaVuSans-116"/>
      <use x="378.515625" xlink:href="#DejaVuSans-101"/>
      <use x="440.039062" xlink:href="#DejaVuSans-100"/>
      <use x="503.515625" xlink:href="#DejaVuSans-95"/>
      <use x="553.515625" xlink:href="#DejaVuSans-120"/>
     </g>
    </g>
    <g id="line2d_31">
     <path d="M 66.6 277.769937 
L 86.6 277.769937 
" style="fill:none;stroke:#0000ff;stroke-linecap:square;stroke-width:1.5;"/>
    </g>
    <g id="line2d_32"/>
    <g id="text_23">
     <!-- estimated_y -->
     <g transform="translate(94.6 281.269937)scale(0.1 -0.1)">
      <use xlink:href="#DejaVuSans-101"/>
      <use x="61.523438" xlink:href="#DejaVuSans-115"/>
      <use x="113.623047" xlink:href="#DejaVuSans-116"/>
      <use x="152.832031" xlink:href="#DejaVuSans-105"/>
      <use x="180.615234" xlink:href="#DejaVuSans-109"/>
      <use x="278.027344" xlink:href="#DejaVuSans-97"/>
      <use x="339.306641" xlink:href="#DejaVuSans-116"/>
      <use x="378.515625" xlink:href="#DejaVuSans-101"/>
      <use x="440.039062" xlink:href="#DejaVuSans-100"/>
      <use x="503.515625" xlink:href="#DejaVuSans-95"/>
      <use x="553.515625" xlink:href="#DejaVuSans-121"/>
     </g>
    </g>
    <g id="line2d_33">
     <path d="M 66.6 292.726187 
L 86.6 292.726187 
" style="fill:none;stroke:#008000;stroke-linecap:square;stroke-width:1.5;"/>
    </g>
    <g id="line2d_34"/>
    <g id="text_24">
     <!-- estimated_z -->
     <g transform="translate(94.6 296.226187)scale(0.1 -0.1)">
      <use xlink:href="#DejaVuSans-101"/>
      <use x="61.523438" xlink:href="#DejaVuSans-115"/>
      <use x="113.623047" xlink:href="#DejaVuSans-116"/>
      <use x="152.832031" xlink:href="#DejaVuSans-105"/>
      <use x="180.615234" xlink:href="#DejaVuSans-109"/>
      <use x="278.027344" xlink:href="#DejaVuSans-97"/>
      <use x="339.306641" xlink:href="#DejaVuSans-116"/>
      <use x="378.515625" xlink:href="#DejaVuSans-101"/>
      <use x="440.039062" xlink:href="#DejaVuSans-100"/>
      <use x="503.515625" xlink:href="#DejaVuSans-95"/>
      <use x="553.515625" xlink:href="#DejaVuSans-122"/>
     </g>
    </g>
   </g>
  </g>
 </g>
 <defs>
  <clipPath id="p82214d0d54">
   <rect height="266.112" width="357.12" x="57.6" y="41.472"/>
  </clipPath>
 </defs>
</svg>
