<?xml version="1.0" encoding="utf-8" standalone="no"?>
<!DOCTYPE svg PUBLIC "-//W3C//DTD SVG 1.1//EN"
  "http://www.w3.org/Graphics/SVG/1.1/DTD/svg11.dtd">
<!-- Created with matplotlib (https://matplotlib.org/) -->
<svg height="345.6pt" version="1.1" viewBox="0 0 460.8 345.6" width="460.8pt" xmlns="http://www.w3.org/2000/svg" xmlns:xlink="http://www.w3.org/1999/xlink">
 <metadata>
  <rdf:RDF xmlns:cc="http://creativecommons.org/ns#" xmlns:dc="http://purl.org/dc/elements/1.1/" xmlns:rdf="http://www.w3.org/1999/02/22-rdf-syntax-ns#">
   <cc:Work>
    <dc:type rdf:resource="http://purl.org/dc/dcmitype/StillImage"/>
    <dc:date>2023-04-13T12:31:21.800351</dc:date>
    <dc:format>image/svg+xml</dc:format>
    <dc:creator>
     <cc:Agent>
      <dc:title>Matplotlib v3.3.4, https://matplotlib.org/</dc:title>
     </cc:Agent>
    </dc:creator>
   </cc:Work>
  </rdf:RDF>
 </metadata>
 <defs>
  <style type="text/css">*{stroke-linecap:butt;stroke-linejoin:round;}</style>
 </defs>
 <g id="figure_1">
  <g id="patch_1">
   <path d="M 0 345.6 
L 460.8 345.6 
L 460.8 0 
L 0 0 
z
" style="fill:#ffffff;"/>
  </g>
  <g id="axes_1">
   <g id="patch_2">
    <path d="M 57.6 307.584 
L 414.72 307.584 
L 414.72 41.472 
L 57.6 41.472 
z
" style="fill:#ffffff;"/>
   </g>
   <g id="matplotlib.axis_1">
    <g id="xtick_1">
     <g id="line2d_1">
      <defs>
       <path d="M 0 0 
L 0 3.5 
" id="m338c278eb3" style="stroke:#000000;stroke-width:0.8;"/>
      </defs>
      <g>
       <use style="stroke:#000000;stroke-width:0.8;" x="73.019057" xlink:href="#m338c278eb3" y="307.584"/>
      </g>
     </g>
     <g id="text_1">
      <!-- 0 -->
      <g transform="translate(69.837807 322.182437)scale(0.1 -0.1)">
       <defs>
        <path d="M 31.78125 66.40625 
Q 24.171875 66.40625 20.328125 58.90625 
Q 16.5 51.421875 16.5 36.375 
Q 16.5 21.390625 20.328125 13.890625 
Q 24.171875 6.390625 31.78125 6.390625 
Q 39.453125 6.390625 43.28125 13.890625 
Q 47.125 21.390625 47.125 36.375 
Q 47.125 51.421875 43.28125 58.90625 
Q 39.453125 66.40625 31.78125 66.40625 
z
M 31.78125 74.21875 
Q 44.046875 74.21875 50.515625 64.515625 
Q 56.984375 54.828125 56.984375 36.375 
Q 56.984375 17.96875 50.515625 8.265625 
Q 44.046875 -1.421875 31.78125 -1.421875 
Q 19.53125 -1.421875 13.0625 8.265625 
Q 6.59375 17.96875 6.59375 36.375 
Q 6.59375 54.828125 13.0625 64.515625 
Q 19.53125 74.21875 31.78125 74.21875 
z
" id="DejaVuSans-48"/>
       </defs>
       <use xlink:href="#DejaVuSans-48"/>
      </g>
     </g>
    </g>
    <g id="xtick_2">
     <g id="line2d_2">
      <g>
       <use style="stroke:#000000;stroke-width:0.8;" x="113.702584" xlink:href="#m338c278eb3" y="307.584"/>
      </g>
     </g>
     <g id="text_2">
      <!-- 50 -->
      <g transform="translate(107.340084 322.182437)scale(0.1 -0.1)">
       <defs>
        <path d="M 10.796875 72.90625 
L 49.515625 72.90625 
L 49.515625 64.59375 
L 19.828125 64.59375 
L 19.828125 46.734375 
Q 21.96875 47.46875 24.109375 47.828125 
Q 26.265625 48.1875 28.421875 48.1875 
Q 40.625 48.1875 47.75 41.5 
Q 54.890625 34.8125 54.890625 23.390625 
Q 54.890625 11.625 47.5625 5.09375 
Q 40.234375 -1.421875 26.90625 -1.421875 
Q 22.3125 -1.421875 17.546875 -0.640625 
Q 12.796875 0.140625 7.71875 1.703125 
L 7.71875 11.625 
Q 12.109375 9.234375 16.796875 8.0625 
Q 21.484375 6.890625 26.703125 6.890625 
Q 35.15625 6.890625 40.078125 11.328125 
Q 45.015625 15.765625 45.015625 23.390625 
Q 45.015625 31 40.078125 35.4375 
Q 35.15625 39.890625 26.703125 39.890625 
Q 22.75 39.890625 18.8125 39.015625 
Q 14.890625 38.140625 10.796875 36.28125 
z
" id="DejaVuSans-53"/>
       </defs>
       <use xlink:href="#DejaVuSans-53"/>
       <use x="63.623047" xlink:href="#DejaVuSans-48"/>
      </g>
     </g>
    </g>
    <g id="xtick_3">
     <g id="line2d_3">
      <g>
       <use style="stroke:#000000;stroke-width:0.8;" x="154.386111" xlink:href="#m338c278eb3" y="307.584"/>
      </g>
     </g>
     <g id="text_3">
      <!-- 100 -->
      <g transform="translate(144.842361 322.182437)scale(0.1 -0.1)">
       <defs>
        <path d="M 12.40625 8.296875 
L 28.515625 8.296875 
L 28.515625 63.921875 
L 10.984375 60.40625 
L 10.984375 69.390625 
L 28.421875 72.90625 
L 38.28125 72.90625 
L 38.28125 8.296875 
L 54.390625 8.296875 
L 54.390625 0 
L 12.40625 0 
z
" id="DejaVuSans-49"/>
       </defs>
       <use xlink:href="#DejaVuSans-49"/>
       <use x="63.623047" xlink:href="#DejaVuSans-48"/>
       <use x="127.246094" xlink:href="#DejaVuSans-48"/>
      </g>
     </g>
    </g>
    <g id="xtick_4">
     <g id="line2d_4">
      <g>
       <use style="stroke:#000000;stroke-width:0.8;" x="195.069638" xlink:href="#m338c278eb3" y="307.584"/>
      </g>
     </g>
     <g id="text_4">
      <!-- 150 -->
      <g transform="translate(185.525888 322.182437)scale(0.1 -0.1)">
       <use xlink:href="#DejaVuSans-49"/>
       <use x="63.623047" xlink:href="#DejaVuSans-53"/>
       <use x="127.246094" xlink:href="#DejaVuSans-48"/>
      </g>
     </g>
    </g>
    <g id="xtick_5">
     <g id="line2d_5">
      <g>
       <use style="stroke:#000000;stroke-width:0.8;" x="235.753165" xlink:href="#m338c278eb3" y="307.584"/>
      </g>
     </g>
     <g id="text_5">
      <!-- 200 -->
      <g transform="translate(226.209415 322.182437)scale(0.1 -0.1)">
       <defs>
        <path d="M 19.1875 8.296875 
L 53.609375 8.296875 
L 53.609375 0 
L 7.328125 0 
L 7.328125 8.296875 
Q 12.9375 14.109375 22.625 23.890625 
Q 32.328125 33.6875 34.8125 36.53125 
Q 39.546875 41.84375 41.421875 45.53125 
Q 43.3125 49.21875 43.3125 52.78125 
Q 43.3125 58.59375 39.234375 62.25 
Q 35.15625 65.921875 28.609375 65.921875 
Q 23.96875 65.921875 18.8125 64.3125 
Q 13.671875 62.703125 7.8125 59.421875 
L 7.8125 69.390625 
Q 13.765625 71.78125 18.9375 73 
Q 24.125 74.21875 28.421875 74.21875 
Q 39.75 74.21875 46.484375 68.546875 
Q 53.21875 62.890625 53.21875 53.421875 
Q 53.21875 48.921875 51.53125 44.890625 
Q 49.859375 40.875 45.40625 35.40625 
Q 44.1875 33.984375 37.640625 27.21875 
Q 31.109375 20.453125 19.1875 8.296875 
z
" id="DejaVuSans-50"/>
       </defs>
       <use xlink:href="#DejaVuSans-50"/>
       <use x="63.623047" xlink:href="#DejaVuSans-48"/>
       <use x="127.246094" xlink:href="#DejaVuSans-48"/>
      </g>
     </g>
    </g>
    <g id="xtick_6">
     <g id="line2d_6">
      <g>
       <use style="stroke:#000000;stroke-width:0.8;" x="276.436692" xlink:href="#m338c278eb3" y="307.584"/>
      </g>
     </g>
     <g id="text_6">
      <!-- 250 -->
      <g transform="translate(266.892942 322.182437)scale(0.1 -0.1)">
       <use xlink:href="#DejaVuSans-50"/>
       <use x="63.623047" xlink:href="#DejaVuSans-53"/>
       <use x="127.246094" xlink:href="#DejaVuSans-48"/>
      </g>
     </g>
    </g>
    <g id="xtick_7">
     <g id="line2d_7">
      <g>
       <use style="stroke:#000000;stroke-width:0.8;" x="317.120219" xlink:href="#m338c278eb3" y="307.584"/>
      </g>
     </g>
     <g id="text_7">
      <!-- 300 -->
      <g transform="translate(307.576469 322.182437)scale(0.1 -0.1)">
       <defs>
        <path d="M 40.578125 39.3125 
Q 47.65625 37.796875 51.625 33 
Q 55.609375 28.21875 55.609375 21.1875 
Q 55.609375 10.40625 48.1875 4.484375 
Q 40.765625 -1.421875 27.09375 -1.421875 
Q 22.515625 -1.421875 17.65625 -0.515625 
Q 12.796875 0.390625 7.625 2.203125 
L 7.625 11.71875 
Q 11.71875 9.328125 16.59375 8.109375 
Q 21.484375 6.890625 26.8125 6.890625 
Q 36.078125 6.890625 40.9375 10.546875 
Q 45.796875 14.203125 45.796875 21.1875 
Q 45.796875 27.640625 41.28125 31.265625 
Q 36.765625 34.90625 28.71875 34.90625 
L 20.21875 34.90625 
L 20.21875 43.015625 
L 29.109375 43.015625 
Q 36.375 43.015625 40.234375 45.921875 
Q 44.09375 48.828125 44.09375 54.296875 
Q 44.09375 59.90625 40.109375 62.90625 
Q 36.140625 65.921875 28.71875 65.921875 
Q 24.65625 65.921875 20.015625 65.03125 
Q 15.375 64.15625 9.8125 62.3125 
L 9.8125 71.09375 
Q 15.4375 72.65625 20.34375 73.4375 
Q 25.25 74.21875 29.59375 74.21875 
Q 40.828125 74.21875 47.359375 69.109375 
Q 53.90625 64.015625 53.90625 55.328125 
Q 53.90625 49.265625 50.4375 45.09375 
Q 46.96875 40.921875 40.578125 39.3125 
z
" id="DejaVuSans-51"/>
       </defs>
       <use xlink:href="#DejaVuSans-51"/>
       <use x="63.623047" xlink:href="#DejaVuSans-48"/>
       <use x="127.246094" xlink:href="#DejaVuSans-48"/>
      </g>
     </g>
    </g>
    <g id="xtick_8">
     <g id="line2d_8">
      <g>
       <use style="stroke:#000000;stroke-width:0.8;" x="357.803746" xlink:href="#m338c278eb3" y="307.584"/>
      </g>
     </g>
     <g id="text_8">
      <!-- 350 -->
      <g transform="translate(348.259996 322.182437)scale(0.1 -0.1)">
       <use xlink:href="#DejaVuSans-51"/>
       <use x="63.623047" xlink:href="#DejaVuSans-53"/>
       <use x="127.246094" xlink:href="#DejaVuSans-48"/>
      </g>
     </g>
    </g>
    <g id="xtick_9">
     <g id="line2d_9">
      <g>
       <use style="stroke:#000000;stroke-width:0.8;" x="398.487273" xlink:href="#m338c278eb3" y="307.584"/>
      </g>
     </g>
     <g id="text_9">
      <!-- 400 -->
      <g transform="translate(388.943523 322.182437)scale(0.1 -0.1)">
       <defs>
        <path d="M 37.796875 64.3125 
L 12.890625 25.390625 
L 37.796875 25.390625 
z
M 35.203125 72.90625 
L 47.609375 72.90625 
L 47.609375 25.390625 
L 58.015625 25.390625 
L 58.015625 17.1875 
L 47.609375 17.1875 
L 47.609375 0 
L 37.796875 0 
L 37.796875 17.1875 
L 4.890625 17.1875 
L 4.890625 26.703125 
z
" id="DejaVuSans-52"/>
       </defs>
       <use xlink:href="#DejaVuSans-52"/>
       <use x="63.623047" xlink:href="#DejaVuSans-48"/>
       <use x="127.246094" xlink:href="#DejaVuSans-48"/>
      </g>
     </g>
    </g>
    <g id="text_10">
     <!-- time [s] -->
     <g transform="translate(216.768594 335.860562)scale(0.1 -0.1)">
      <defs>
       <path d="M 18.3125 70.21875 
L 18.3125 54.6875 
L 36.8125 54.6875 
L 36.8125 47.703125 
L 18.3125 47.703125 
L 18.3125 18.015625 
Q 18.3125 11.328125 20.140625 9.421875 
Q 21.96875 7.515625 27.59375 7.515625 
L 36.8125 7.515625 
L 36.8125 0 
L 27.59375 0 
Q 17.1875 0 13.234375 3.875 
Q 9.28125 7.765625 9.28125 18.015625 
L 9.28125 47.703125 
L 2.6875 47.703125 
L 2.6875 54.6875 
L 9.28125 54.6875 
L 9.28125 70.21875 
z
" id="DejaVuSans-116"/>
       <path d="M 9.421875 54.6875 
L 18.40625 54.6875 
L 18.40625 0 
L 9.421875 0 
z
M 9.421875 75.984375 
L 18.40625 75.984375 
L 18.40625 64.59375 
L 9.421875 64.59375 
z
" id="DejaVuSans-105"/>
       <path d="M 52 44.1875 
Q 55.375 50.25 60.0625 53.125 
Q 64.75 56 71.09375 56 
Q 79.640625 56 84.28125 50.015625 
Q 88.921875 44.046875 88.921875 33.015625 
L 88.921875 0 
L 79.890625 0 
L 79.890625 32.71875 
Q 79.890625 40.578125 77.09375 44.375 
Q 74.3125 48.1875 68.609375 48.1875 
Q 61.625 48.1875 57.5625 43.546875 
Q 53.515625 38.921875 53.515625 30.90625 
L 53.515625 0 
L 44.484375 0 
L 44.484375 32.71875 
Q 44.484375 40.625 41.703125 44.40625 
Q 38.921875 48.1875 33.109375 48.1875 
Q 26.21875 48.1875 22.15625 43.53125 
Q 18.109375 38.875 18.109375 30.90625 
L 18.109375 0 
L 9.078125 0 
L 9.078125 54.6875 
L 18.109375 54.6875 
L 18.109375 46.1875 
Q 21.1875 51.21875 25.484375 53.609375 
Q 29.78125 56 35.6875 56 
Q 41.65625 56 45.828125 52.96875 
Q 50 49.953125 52 44.1875 
z
" id="DejaVuSans-109"/>
       <path d="M 56.203125 29.59375 
L 56.203125 25.203125 
L 14.890625 25.203125 
Q 15.484375 15.921875 20.484375 11.0625 
Q 25.484375 6.203125 34.421875 6.203125 
Q 39.59375 6.203125 44.453125 7.46875 
Q 49.3125 8.734375 54.109375 11.28125 
L 54.109375 2.78125 
Q 49.265625 0.734375 44.1875 -0.34375 
Q 39.109375 -1.421875 33.890625 -1.421875 
Q 20.796875 -1.421875 13.15625 6.1875 
Q 5.515625 13.8125 5.515625 26.8125 
Q 5.515625 40.234375 12.765625 48.109375 
Q 20.015625 56 32.328125 56 
Q 43.359375 56 49.78125 48.890625 
Q 56.203125 41.796875 56.203125 29.59375 
z
M 47.21875 32.234375 
Q 47.125 39.59375 43.09375 43.984375 
Q 39.0625 48.390625 32.421875 48.390625 
Q 24.90625 48.390625 20.390625 44.140625 
Q 15.875 39.890625 15.1875 32.171875 
z
" id="DejaVuSans-101"/>
       <path id="DejaVuSans-32"/>
       <path d="M 8.59375 75.984375 
L 29.296875 75.984375 
L 29.296875 69 
L 17.578125 69 
L 17.578125 -6.203125 
L 29.296875 -6.203125 
L 29.296875 -13.1875 
L 8.59375 -13.1875 
z
" id="DejaVuSans-91"/>
       <path d="M 44.28125 53.078125 
L 44.28125 44.578125 
Q 40.484375 46.53125 36.375 47.5 
Q 32.28125 48.484375 27.875 48.484375 
Q 21.1875 48.484375 17.84375 46.4375 
Q 14.5 44.390625 14.5 40.28125 
Q 14.5 37.15625 16.890625 35.375 
Q 19.28125 33.59375 26.515625 31.984375 
L 29.59375 31.296875 
Q 39.15625 29.25 43.1875 25.515625 
Q 47.21875 21.78125 47.21875 15.09375 
Q 47.21875 7.46875 41.1875 3.015625 
Q 35.15625 -1.421875 24.609375 -1.421875 
Q 20.21875 -1.421875 15.453125 -0.5625 
Q 10.6875 0.296875 5.421875 2 
L 5.421875 11.28125 
Q 10.40625 8.6875 15.234375 7.390625 
Q 20.0625 6.109375 24.8125 6.109375 
Q 31.15625 6.109375 34.5625 8.28125 
Q 37.984375 10.453125 37.984375 14.40625 
Q 37.984375 18.0625 35.515625 20.015625 
Q 33.0625 21.96875 24.703125 23.78125 
L 21.578125 24.515625 
Q 13.234375 26.265625 9.515625 29.90625 
Q 5.8125 33.546875 5.8125 39.890625 
Q 5.8125 47.609375 11.28125 51.796875 
Q 16.75 56 26.8125 56 
Q 31.78125 56 36.171875 55.265625 
Q 40.578125 54.546875 44.28125 53.078125 
z
" id="DejaVuSans-115"/>
       <path d="M 30.421875 75.984375 
L 30.421875 -13.1875 
L 9.71875 -13.1875 
L 9.71875 -6.203125 
L 21.390625 -6.203125 
L 21.390625 69 
L 9.71875 69 
L 9.71875 75.984375 
z
" id="DejaVuSans-93"/>
      </defs>
      <use xlink:href="#DejaVuSans-116"/>
      <use x="39.208984" xlink:href="#DejaVuSans-105"/>
      <use x="66.992188" xlink:href="#DejaVuSans-109"/>
      <use x="164.404297" xlink:href="#DejaVuSans-101"/>
      <use x="225.927734" xlink:href="#DejaVuSans-32"/>
      <use x="257.714844" xlink:href="#DejaVuSans-91"/>
      <use x="296.728516" xlink:href="#DejaVuSans-115"/>
      <use x="348.828125" xlink:href="#DejaVuSans-93"/>
     </g>
    </g>
   </g>
   <g id="matplotlib.axis_2">
    <g id="ytick_1">
     <g id="line2d_10">
      <defs>
       <path d="M 0 0 
L -3.5 0 
" id="mccda1f71a2" style="stroke:#000000;stroke-width:0.8;"/>
      </defs>
      <g>
       <use style="stroke:#000000;stroke-width:0.8;" x="57.6" xlink:href="#mccda1f71a2" y="276.301773"/>
      </g>
     </g>
     <g id="text_11">
      <!-- −400 -->
      <g transform="translate(23.132812 280.100992)scale(0.1 -0.1)">
       <defs>
        <path d="M 10.59375 35.5 
L 73.1875 35.5 
L 73.1875 27.203125 
L 10.59375 27.203125 
z
" id="DejaVuSans-8722"/>
       </defs>
       <use xlink:href="#DejaVuSans-8722"/>
       <use x="83.789062" xlink:href="#DejaVuSans-52"/>
       <use x="147.412109" xlink:href="#DejaVuSans-48"/>
       <use x="211.035156" xlink:href="#DejaVuSans-48"/>
      </g>
     </g>
    </g>
    <g id="ytick_2">
     <g id="line2d_11">
      <g>
       <use style="stroke:#000000;stroke-width:0.8;" x="57.6" xlink:href="#mccda1f71a2" y="239.015479"/>
      </g>
     </g>
     <g id="text_12">
      <!-- −300 -->
      <g transform="translate(23.132812 242.814698)scale(0.1 -0.1)">
       <use xlink:href="#DejaVuSans-8722"/>
       <use x="83.789062" xlink:href="#DejaVuSans-51"/>
       <use x="147.412109" xlink:href="#DejaVuSans-48"/>
       <use x="211.035156" xlink:href="#DejaVuSans-48"/>
      </g>
     </g>
    </g>
    <g id="ytick_3">
     <g id="line2d_12">
      <g>
       <use style="stroke:#000000;stroke-width:0.8;" x="57.6" xlink:href="#mccda1f71a2" y="201.729186"/>
      </g>
     </g>
     <g id="text_13">
      <!-- −200 -->
      <g transform="translate(23.132812 205.528404)scale(0.1 -0.1)">
       <use xlink:href="#DejaVuSans-8722"/>
       <use x="83.789062" xlink:href="#DejaVuSans-50"/>
       <use x="147.412109" xlink:href="#DejaVuSans-48"/>
       <use x="211.035156" xlink:href="#DejaVuSans-48"/>
      </g>
     </g>
    </g>
    <g id="ytick_4">
     <g id="line2d_13">
      <g>
       <use style="stroke:#000000;stroke-width:0.8;" x="57.6" xlink:href="#mccda1f71a2" y="164.442892"/>
      </g>
     </g>
     <g id="text_14">
      <!-- −100 -->
      <g transform="translate(23.132812 168.242111)scale(0.1 -0.1)">
       <use xlink:href="#DejaVuSans-8722"/>
       <use x="83.789062" xlink:href="#DejaVuSans-49"/>
       <use x="147.412109" xlink:href="#DejaVuSans-48"/>
       <use x="211.035156" xlink:href="#DejaVuSans-48"/>
      </g>
     </g>
    </g>
    <g id="ytick_5">
     <g id="line2d_14">
      <g>
       <use style="stroke:#000000;stroke-width:0.8;" x="57.6" xlink:href="#mccda1f71a2" y="127.156598"/>
      </g>
     </g>
     <g id="text_15">
      <!-- 0 -->
      <g transform="translate(44.2375 130.955817)scale(0.1 -0.1)">
       <use xlink:href="#DejaVuSans-48"/>
      </g>
     </g>
    </g>
    <g id="ytick_6">
     <g id="line2d_15">
      <g>
       <use style="stroke:#000000;stroke-width:0.8;" x="57.6" xlink:href="#mccda1f71a2" y="89.870305"/>
      </g>
     </g>
     <g id="text_16">
      <!-- 100 -->
      <g transform="translate(31.5125 93.669523)scale(0.1 -0.1)">
       <use xlink:href="#DejaVuSans-49"/>
       <use x="63.623047" xlink:href="#DejaVuSans-48"/>
       <use x="127.246094" xlink:href="#DejaVuSans-48"/>
      </g>
     </g>
    </g>
    <g id="ytick_7">
     <g id="line2d_16">
      <g>
       <use style="stroke:#000000;stroke-width:0.8;" x="57.6" xlink:href="#mccda1f71a2" y="52.584011"/>
      </g>
     </g>
     <g id="text_17">
      <!-- 200 -->
      <g transform="translate(31.5125 56.38323)scale(0.1 -0.1)">
       <use xlink:href="#DejaVuSans-50"/>
       <use x="63.623047" xlink:href="#DejaVuSans-48"/>
       <use x="127.246094" xlink:href="#DejaVuSans-48"/>
      </g>
     </g>
    </g>
    <g id="text_18">
     <!-- position [m] -->
     <g transform="translate(17.053125 204.693625)rotate(-90)scale(0.1 -0.1)">
      <defs>
       <path d="M 18.109375 8.203125 
L 18.109375 -20.796875 
L 9.078125 -20.796875 
L 9.078125 54.6875 
L 18.109375 54.6875 
L 18.109375 46.390625 
Q 20.953125 51.265625 25.265625 53.625 
Q 29.59375 56 35.59375 56 
Q 45.5625 56 51.78125 48.09375 
Q 58.015625 40.1875 58.015625 27.296875 
Q 58.015625 14.40625 51.78125 6.484375 
Q 45.5625 -1.421875 35.59375 -1.421875 
Q 29.59375 -1.421875 25.265625 0.953125 
Q 20.953125 3.328125 18.109375 8.203125 
z
M 48.6875 27.296875 
Q 48.6875 37.203125 44.609375 42.84375 
Q 40.53125 48.484375 33.40625 48.484375 
Q 26.265625 48.484375 22.1875 42.84375 
Q 18.109375 37.203125 18.109375 27.296875 
Q 18.109375 17.390625 22.1875 11.75 
Q 26.265625 6.109375 33.40625 6.109375 
Q 40.53125 6.109375 44.609375 11.75 
Q 48.6875 17.390625 48.6875 27.296875 
z
" id="DejaVuSans-112"/>
       <path d="M 30.609375 48.390625 
Q 23.390625 48.390625 19.1875 42.75 
Q 14.984375 37.109375 14.984375 27.296875 
Q 14.984375 17.484375 19.15625 11.84375 
Q 23.34375 6.203125 30.609375 6.203125 
Q 37.796875 6.203125 41.984375 11.859375 
Q 46.1875 17.53125 46.1875 27.296875 
Q 46.1875 37.015625 41.984375 42.703125 
Q 37.796875 48.390625 30.609375 48.390625 
z
M 30.609375 56 
Q 42.328125 56 49.015625 48.375 
Q 55.71875 40.765625 55.71875 27.296875 
Q 55.71875 13.875 49.015625 6.21875 
Q 42.328125 -1.421875 30.609375 -1.421875 
Q 18.84375 -1.421875 12.171875 6.21875 
Q 5.515625 13.875 5.515625 27.296875 
Q 5.515625 40.765625 12.171875 48.375 
Q 18.84375 56 30.609375 56 
z
" id="DejaVuSans-111"/>
       <path d="M 54.890625 33.015625 
L 54.890625 0 
L 45.90625 0 
L 45.90625 32.71875 
Q 45.90625 40.484375 42.875 44.328125 
Q 39.84375 48.1875 33.796875 48.1875 
Q 26.515625 48.1875 22.3125 43.546875 
Q 18.109375 38.921875 18.109375 30.90625 
L 18.109375 0 
L 9.078125 0 
L 9.078125 54.6875 
L 18.109375 54.6875 
L 18.109375 46.1875 
Q 21.34375 51.125 25.703125 53.5625 
Q 30.078125 56 35.796875 56 
Q 45.21875 56 50.046875 50.171875 
Q 54.890625 44.34375 54.890625 33.015625 
z
" id="DejaVuSans-110"/>
      </defs>
      <use xlink:href="#DejaVuSans-112"/>
      <use x="63.476562" xlink:href="#DejaVuSans-111"/>
      <use x="124.658203" xlink:href="#DejaVuSans-115"/>
      <use x="176.757812" xlink:href="#DejaVuSans-105"/>
      <use x="204.541016" xlink:href="#DejaVuSans-116"/>
      <use x="243.75" xlink:href="#DejaVuSans-105"/>
      <use x="271.533203" xlink:href="#DejaVuSans-111"/>
      <use x="332.714844" xlink:href="#DejaVuSans-110"/>
      <use x="396.09375" xlink:href="#DejaVuSans-32"/>
      <use x="427.880859" xlink:href="#DejaVuSans-91"/>
      <use x="466.894531" xlink:href="#DejaVuSans-109"/>
      <use x="564.306641" xlink:href="#DejaVuSans-93"/>
     </g>
    </g>
   </g>
   <g id="line2d_17">
    <path clip-path="url(#pf293f694c8)" d="M 73.832727 127.156598 
L 80.342092 127.237709 
L 81.155762 127.507508 
L 81.969433 128.0946 
L 82.783103 129.016273 
L 85.224115 132.374255 
L 86.037785 133.052384 
L 86.851456 132.887176 
L 87.665126 131.895279 
L 89.292468 129.135914 
L 91.733479 124.389971 
L 93.36082 120.299738 
L 95.801832 113.191094 
L 99.056514 103.752395 
L 99.870185 101.714787 
L 100.683855 100.160432 
L 101.497526 99.233304 
L 102.311196 98.919103 
L 114.516254 98.910885 
L 130.789665 98.889645 
L 131.603336 98.787188 
L 132.417006 98.555806 
L 134.858018 97.385449 
L 135.671688 97.211699 
L 138.1127 97.095901 
L 138.92637 96.935492 
L 139.740041 96.644982 
L 140.553712 96.619254 
L 141.367382 97.183504 
L 142.181053 98.385439 
L 142.994723 100.028898 
L 144.622064 104.103879 
L 146.249405 108.761797 
L 152.75877 128.906904 
L 155.199781 136.344325 
L 157.640793 144.76642 
L 162.522816 161.649206 
L 164.150157 166.673173 
L 168.21851 178.106683 
L 171.473192 188.66462 
L 180.423568 219.308697 
L 183.67825 230.352323 
L 185.305591 235.867366 
L 186.119262 238.17353 
L 186.932932 240.03208 
L 187.746603 241.278121 
L 188.560273 241.864375 
L 190.187614 241.965874 
L 229.2438 241.980299 
L 230.057471 242.079023 
L 230.871141 242.326844 
L 231.684812 242.822699 
L 233.312153 243.4129 
L 234.125824 244.219758 
L 234.939494 245.580425 
L 235.753165 247.519768 
L 240.635188 260.786809 
L 241.448859 262.635824 
L 242.262529 263.971038 
L 243.0762 264.565446 
L 243.88987 264.537951 
L 245.517211 263.787406 
L 247.144552 262.753694 
L 248.771893 261.449319 
L 252.840246 257.650476 
L 254.467587 256.575051 
L 256.094928 255.848346 
L 258.53594 254.838551 
L 261.790622 253.141897 
L 266.672645 250.398033 
L 267.486316 249.721752 
L 269.113657 247.862663 
L 271.554668 244.752576 
L 273.99568 241.948723 
L 274.809351 241.274714 
L 275.623021 240.866357 
L 276.436692 240.641152 
L 278.064033 240.53709 
L 290.269091 240.490883 
L 291.082761 240.38618 
L 291.896432 240.141124 
L 293.523773 239.294952 
L 295.151114 238.101153 
L 295.964785 237.382634 
L 297.592126 235.584321 
L 299.219467 233.545012 
L 300.846808 231.188724 
L 306.542502 222.970509 
L 308.169843 220.925573 
L 309.797184 219.204779 
L 311.424525 217.950926 
L 312.238195 217.515579 
L 313.865537 216.976387 
L 315.492878 216.688113 
L 317.933889 216.621835 
L 329.325277 216.517347 
L 330.952618 216.311147 
L 331.766288 216.074316 
L 332.579959 215.707276 
L 333.39363 215.200316 
L 335.020971 213.776988 
L 336.648312 211.830917 
L 339.089323 208.259616 
L 340.716664 205.539484 
L 342.344005 202.454164 
L 343.157676 200.529927 
L 344.785017 195.751181 
L 346.412358 189.961578 
L 348.039699 183.060569 
L 353.735393 156.163926 
L 358.617416 131.989149 
L 360.244757 125.051476 
L 361.872098 119.141765 
L 364.31311 111.685412 
L 365.126781 109.434181 
L 365.940451 107.719232 
L 366.754122 106.770557 
L 367.567792 106.386235 
L 369.195133 106.056225 
L 371.636145 105.802734 
L 374.077157 105.825886 
L 381.400191 105.983619 
L 382.213862 106.252985 
L 383.027532 106.869097 
L 383.841203 107.953407 
L 384.654874 109.446684 
L 386.282215 113.341145 
L 389.536897 121.690816 
L 391.164238 125.512295 
L 391.977908 127.14155 
L 392.791579 128.443162 
L 393.605249 129.305816 
L 394.41892 129.724603 
L 396.046261 129.806675 
L 398.487273 129.806888 
L 398.487273 129.806888 
" style="fill:none;stroke:#ff0000;stroke-dasharray:5.55,2.4;stroke-dashoffset:0;stroke-width:1.5;"/>
   </g>
   <g id="line2d_18">
    <path clip-path="url(#pf293f694c8)" d="M 73.832727 127.156598 
L 80.342092 127.207406 
L 81.155762 127.434494 
L 81.969433 127.943378 
L 82.783103 128.727865 
L 85.224115 131.62966 
L 89.292468 138.52993 
L 90.106138 140.333676 
L 91.733479 144.730125 
L 94.174491 152.125508 
L 99.870185 170.612614 
L 100.683855 172.367379 
L 101.497526 173.431478 
L 102.311196 173.790115 
L 120.211948 173.789771 
L 130.789665 173.808583 
L 131.603336 173.927402 
L 132.417006 174.197613 
L 134.858018 175.622298 
L 135.671688 175.861657 
L 138.1127 176.016604 
L 138.92637 176.272478 
L 139.740041 176.982529 
L 140.553712 178.183917 
L 144.622064 185.679349 
L 146.249405 189.598699 
L 147.876746 194.122813 
L 151.131429 203.371161 
L 156.827122 218.716448 
L 159.268134 226.090704 
L 162.522816 236.003617 
L 165.777498 245.542971 
L 168.21851 253.041177 
L 173.100533 266.529241 
L 174.727874 271.168995 
L 181.237239 291.164348 
L 182.050909 293.022068 
L 182.86458 294.34865 
L 183.67825 295.169786 
L 184.491921 295.488 
L 185.305591 295.405373 
L 187.746603 294.82046 
L 189.373944 294.74521 
L 230.871141 294.736513 
L 235.753165 294.286014 
L 238.194176 293.968979 
L 239.007847 293.717871 
L 239.821517 293.251717 
L 240.635188 292.193302 
L 241.448859 290.49916 
L 242.262529 288.226527 
L 243.88987 282.804841 
L 245.517211 276.708461 
L 247.144552 269.659119 
L 254.467587 236.450263 
L 256.094928 231.472576 
L 257.722269 226.756268 
L 260.976951 215.803661 
L 265.858975 198.82269 
L 268.299986 189.284804 
L 272.368339 172.075642 
L 273.99568 166.319568 
L 274.809351 164.228306 
L 275.623021 162.856954 
L 276.436692 162.089676 
L 277.250362 161.777145 
L 279.691374 161.739643 
L 290.269091 161.720606 
L 291.082761 161.461521 
L 291.896432 160.69516 
L 292.710103 159.475199 
L 293.523773 157.842353 
L 295.151114 153.699507 
L 296.778455 148.603243 
L 298.405796 142.63258 
L 300.033137 135.918035 
L 303.28782 121.218978 
L 306.542502 106.810655 
L 308.169843 100.444305 
L 309.797184 95.228759 
L 310.610854 93.051361 
L 311.424525 91.290634 
L 312.238195 89.962518 
L 313.051866 89.060363 
L 313.865537 88.364881 
L 314.679207 87.845448 
L 315.492878 87.508831 
L 316.306548 87.350902 
L 322.002242 87.3462 
L 326.884265 87.239423 
L 329.325277 86.999491 
L 330.138947 86.761508 
L 330.952618 86.36812 
L 331.766288 85.652452 
L 332.579959 84.572871 
L 333.39363 83.105178 
L 334.2073 81.252699 
L 335.834641 76.680223 
L 337.461982 71.293905 
L 340.716664 60.019506 
L 341.530335 57.566858 
L 342.344005 55.515974 
L 343.157676 54.121241 
L 343.971347 53.568 
L 344.785017 53.829183 
L 345.598688 54.702015 
L 346.412358 55.974547 
L 348.039699 59.110843 
L 351.294381 65.862829 
L 353.735393 70.813071 
L 355.362734 73.373345 
L 356.990075 75.205437 
L 357.803746 75.843585 
L 358.617416 76.30958 
L 359.431087 76.576699 
L 361.872098 76.802759 
L 362.685769 77.211058 
L 363.49944 78.048644 
L 364.31311 79.276983 
L 365.126781 80.995051 
L 365.940451 83.323161 
L 368.381463 91.436854 
L 370.008804 95.997768 
L 370.822474 97.870786 
L 371.636145 99.34812 
L 372.449815 100.398575 
L 373.263486 100.993936 
L 374.077157 101.266671 
L 375.704498 101.363127 
L 378.95918 101.387097 
L 379.77285 101.536425 
L 380.586521 102.002759 
L 381.400191 102.950795 
L 382.213862 104.344865 
L 383.027532 106.13875 
L 387.909556 118.476087 
L 390.350567 123.883431 
L 391.977908 126.999586 
L 392.791579 128.145349 
L 393.605249 128.920889 
L 394.41892 129.293291 
L 396.046261 129.371281 
L 398.487273 129.368413 
L 398.487273 129.368413 
" style="fill:none;stroke:#0000ff;stroke-dasharray:5.55,2.4;stroke-dashoffset:0;stroke-width:1.5;"/>
   </g>
   <g id="line2d_19">
    <path clip-path="url(#pf293f694c8)" d="M 73.832727 127.156598 
L 91.733479 127.275235 
L 108.00689 127.249695 
L 149.504087 127.367621 
L 156.827122 127.447757 
L 176.355215 127.565647 
L 187.746603 127.598543 
L 192.628626 127.471052 
L 194.255967 127.309976 
L 256.908599 127.385979 
L 264.231634 127.379629 
L 297.592126 127.176666 
L 305.728831 127.230968 
L 319.56123 127.151904 
L 344.785017 127.238889 
L 347.226029 127.345918 
L 352.108052 127.249359 
L 353.735393 126.994132 
L 356.990075 126.308193 
L 358.617416 126.322682 
L 361.058428 126.689572 
L 365.940451 127.600045 
L 367.567792 127.63501 
L 370.822474 127.351136 
L 376.518168 127.328724 
L 384.654874 127.380814 
L 386.282215 127.23982 
L 398.487273 127.267341 
L 398.487273 127.267341 
" style="fill:none;stroke:#008000;stroke-dasharray:5.55,2.4;stroke-dashoffset:0;stroke-width:1.5;"/>
   </g>
   <g id="line2d_20">
    <path clip-path="url(#pf293f694c8)" d="M 73.832727 127.156598 
L 77.695242 127.268139 
L 79.321564 127.423539 
L 79.931435 127.648018 
L 80.541306 127.961386 
L 81.557757 128.746382 
L 82.167628 129.572133 
L 82.777499 131.181889 
L 83.184079 132.284447 
L 83.79395 134.429514 
L 84.403821 135.767159 
L 84.810401 136.266207 
L 85.420272 136.738276 
L 85.623562 136.565635 
L 86.030143 136.479191 
L 86.233433 136.261174 
L 86.640014 136.260547 
L 87.453175 135.96441 
L 88.266336 135.379905 
L 89.079497 135.047243 
L 90.502529 133.764476 
L 90.909109 133.218225 
L 91.72227 132.332768 
L 92.942012 130.49883 
L 93.551883 129.322559 
L 94.974914 125.642644 
L 95.584785 124.042294 
L 96.194656 122.509154 
L 96.804527 120.300196 
L 97.414397 118.3894 
L 98.430849 115.959315 
L 98.837429 109.423133 
L 99.4473 105.683292 
L 99.853881 104.046096 
L 101.480203 99.983762 
L 102.293364 99.124919 
L 103.106525 98.844085 
L 103.513105 98.746475 
L 103.919686 98.77045 
L 104.529557 98.929874 
L 105.749298 98.63773 
L 106.359169 98.53437 
L 107.985491 98.338073 
L 108.595362 98.240934 
L 116.117101 96.490243 
L 117.540133 96.428021 
L 117.946714 96.48997 
L 122.419099 96.731228 
L 127.907936 97.570801 
L 128.924388 97.899872 
L 130.95729 98.153126 
L 131.973742 98.116828 
L 134.006644 97.232669 
L 134.819805 97.076884 
L 135.836257 97.247686 
L 136.446127 97.620763 
L 137.869159 98.426526 
L 138.47903 98.686417 
L 139.088901 98.44455 
L 139.902062 98.166181 
L 140.918513 98.159427 
L 141.325094 98.037815 
L 142.138255 98.108584 
L 144.374448 99.549354 
L 145.187609 100.491505 
L 146.20406 102.245854 
L 146.813931 103.787602 
L 147.220511 104.665539 
L 149.050124 109.700662 
L 149.659994 111.360123 
L 151.286316 115.449194 
L 152.506058 118.193313 
L 153.92909 121.12498 
L 154.538961 121.829763 
L 154.742251 122.046502 
L 155.352122 123.771982 
L 155.758702 122.965404 
L 155.961992 122.947322 
L 156.165283 123.108278 
L 156.978444 124.52382 
L 157.181734 124.695212 
L 157.588314 125.534743 
L 159.417927 130.430615 
L 160.637668 134.939298 
L 161.85741 139.028641 
L 163.077151 142.481685 
L 163.890313 144.954061 
L 164.296893 146.583934 
L 165.516635 149.719584 
L 166.126505 151.333761 
L 166.939666 152.984116 
L 167.752827 154.231673 
L 169.175859 157.614965 
L 169.78573 158.989959 
L 170.192311 159.78334 
L 170.598891 160.66469 
L 170.802181 160.811936 
L 171.005472 160.704809 
L 171.208762 160.873388 
L 171.615342 161.931916 
L 172.225213 163.613252 
L 172.835084 166.363779 
L 173.241664 168.124646 
L 173.648245 169.460449 
L 174.258116 171.531398 
L 175.681148 176.154717 
L 176.900889 179.604063 
L 177.30747 180.944028 
L 178.120631 184.091789 
L 179.137082 185.536081 
L 179.746953 187.352291 
L 180.153533 190.558306 
L 180.560114 192.423452 
L 181.373275 195.449356 
L 181.779855 196.353618 
L 181.983146 196.537984 
L 182.186436 196.913106 
L 182.593016 197.160329 
L 183.202887 197.895438 
L 183.609468 198.596109 
L 185.0325 202.742867 
L 185.43908 204.707816 
L 185.64237 226.854513 
L 185.845661 230.710494 
L 186.252241 233.384791 
L 186.455531 233.364981 
L 188.081853 234.267894 
L 188.691724 234.303453 
L 189.098305 237.872005 
L 189.504885 240.078892 
L 189.911466 241.197788 
L 191.944368 243.222932 
L 192.554239 243.251208 
L 194.383852 243.271041 
L 195.400303 243.248068 
L 195.806883 243.04046 
L 196.010174 242.834548 
L 196.416754 242.988276 
L 198.043076 242.80453 
L 199.262818 242.38473 
L 199.669398 242.408568 
L 200.279269 242.506017 
L 201.905591 242.378813 
L 202.515462 242.911037 
L 202.718752 242.953116 
L 203.531913 242.478389 
L 203.938494 242.871097 
L 204.345074 243.267753 
L 204.954945 243.310868 
L 205.564816 243.132959 
L 206.174687 242.98319 
L 206.987848 242.871279 
L 207.597718 242.709266 
L 210.240492 242.226438 
L 213.493136 242.309071 
L 216.3392 241.975318 
L 217.355651 241.960298 
L 218.778683 242.004425 
L 220.608295 241.983943 
L 223.860939 241.979039 
L 225.283971 241.983761 
L 228.130035 241.907306 
L 230.976098 242.21886 
L 231.179389 242.244519 
L 231.585969 242.922165 
L 231.789259 243.324716 
L 231.99255 243.422267 
L 232.39913 243.296485 
L 232.805711 243.196726 
L 233.618872 243.404334 
L 234.228743 244.404025 
L 234.432033 244.532264 
L 235.651774 246.220343 
L 236.261645 247.089075 
L 236.871516 249.149208 
L 237.481387 251.237949 
L 239.71758 257.706099 
L 239.92087 258.075662 
L 240.32745 259.551354 
L 241.140611 261.227849 
L 242.157063 262.765704 
L 242.563643 263.096533 
L 243.173514 263.604383 
L 243.580094 263.780039 
L 244.799836 264.106931 
L 245.816287 263.91893 
L 246.426158 263.538989 
L 246.629448 263.885521 
L 246.832739 263.95607 
L 247.6459 263.579168 
L 248.05248 263.265987 
L 248.25577 263.941357 
L 248.865641 264.162984 
L 249.068932 263.664145 
L 249.678802 263.390654 
L 250.085383 262.82872 
L 250.695254 262.340794 
L 251.711705 261.442545 
L 256.793961 258.003269 
L 257.403832 257.680542 
L 257.607122 257.547637 
L 257.810413 257.133059 
L 258.216993 257.003271 
L 260.656476 255.751823 
L 261.063057 255.64229 
L 261.469637 255.000578 
L 262.486089 254.269383 
L 262.892669 254.201474 
L 263.70583 254.006633 
L 264.315701 253.837999 
L 264.518991 253.98267 
L 264.722282 253.864068 
L 265.128862 253.840832 
L 265.332152 252.954486 
L 265.738733 252.534412 
L 266.755184 251.819238 
L 267.568345 251.093039 
L 267.771635 250.973083 
L 268.584796 249.050838 
L 268.788087 249.1484 
L 269.194667 248.960683 
L 269.601248 248.541178 
L 270.007828 248.338828 
L 270.414409 247.807855 
L 270.820989 247.617612 
L 271.63415 246.942947 
L 272.040731 246.529223 
L 272.447311 245.884837 
L 272.650602 245.788981 
L 273.667053 244.539661 
L 274.073634 244.263109 
L 274.276924 244.229985 
L 275.293375 243.243379 
L 276.106536 242.494445 
L 276.513117 242.188262 
L 277.529568 240.932694 
L 277.936148 240.916946 
L 278.546019 241.062277 
L 280.782212 240.732847 
L 281.798663 241.025591 
L 283.018405 241.194955 
L 284.441437 241.42747 
L 285.457888 241.617873 
L 286.67763 241.673561 
L 287.08421 241.685794 
L 288.710532 241.617134 
L 289.726984 241.540212 
L 290.336854 241.445688 
L 293.792789 241.303464 
L 294.80924 240.17122 
L 295.622401 238.985496 
L 296.028982 238.260354 
L 296.232272 236.502102 
L 296.638852 236.40784 
L 296.842143 236.273148 
L 297.248723 235.579617 
L 297.655304 235.189151 
L 298.265174 234.069857 
L 301.517819 228.553003 
L 302.94085 225.912661 
L 303.347431 225.339825 
L 303.754011 223.621001 
L 303.957302 223.378187 
L 304.160592 223.494957 
L 304.567173 222.811781 
L 305.177043 221.392648 
L 305.583624 220.68289 
L 305.786914 220.476182 
L 306.193495 219.651509 
L 306.600075 219.188975 
L 307.413236 217.595028 
L 307.616526 217.313031 
L 308.023107 216.346766 
L 309.039558 215.21752 
L 309.242849 216.406806 
L 309.446139 216.907187 
L 309.649429 217.081215 
L 309.852719 217.081352 
L 310.869171 216.087174 
L 311.479041 215.507835 
L 311.682332 215.628309 
L 312.495493 215.033501 
L 313.105363 215.251708 
L 313.715234 215.767211 
L 314.121815 215.997468 
L 314.528395 215.598303 
L 314.934976 215.603463 
L 315.748137 216.197162 
L 316.358008 216.647782 
L 316.561298 216.688974 
L 317.98433 216.047552 
L 318.5942 215.562932 
L 320.627103 214.630866 
L 321.440264 214.905887 
L 322.456715 214.771543 
L 323.676457 215.015511 
L 324.286328 214.892335 
L 325.506069 214.852947 
L 326.522521 214.751157 
L 328.148843 214.748381 
L 329.368584 214.939495 
L 330.181745 214.953104 
L 330.791616 214.991627 
L 331.198197 214.979924 
L 332.214648 215.411587 
L 332.621228 215.33825 
L 333.84097 214.55527 
L 334.247551 214.061148 
L 334.654131 213.401896 
L 336.687034 211.524439 
L 337.500195 210.36661 
L 337.906775 209.275097 
L 339.329807 206.512602 
L 339.939678 205.72705 
L 340.346258 204.922604 
L 341.76929 203.644688 
L 342.379161 202.692669 
L 342.785741 201.657442 
L 343.395612 200.414562 
L 343.802193 199.464283 
L 344.005483 199.153936 
L 345.428515 193.373696 
L 345.631805 193.01162 
L 346.038386 191.032828 
L 346.444966 189.988418 
L 346.851547 187.66306 
L 347.258127 186.740694 
L 347.867998 183.842028 
L 348.071288 183.270883 
L 348.681159 180.496782 
L 349.29103 178.140314 
L 349.900901 174.570274 
L 350.307481 172.02459 
L 350.510771 171.325589 
L 350.917352 168.962288 
L 351.527223 166.076187 
L 352.746964 160.991415 
L 352.950254 160.187964 
L 353.356835 157.868233 
L 355.389738 150.01937 
L 356.406189 145.168172 
L 357.42264 140.078248 
L 358.845672 131.734692 
L 359.252253 130.457229 
L 360.268704 128.906932 
L 360.675284 128.598787 
L 361.285155 127.813307 
L 361.895026 127.398966 
L 362.708187 125.646094 
L 363.114767 123.563385 
L 363.521348 122.104293 
L 363.927929 118.298789 
L 364.94438 112.701224 
L 365.14767 111.946031 
L 365.554251 109.893185 
L 365.960831 109.003364 
L 366.367412 108.667046 
L 367.180573 108.049609 
L 368.400314 107.496861 
L 368.603604 105.84351 
L 368.806895 105.521779 
L 369.010185 105.523406 
L 369.213475 105.679869 
L 369.620056 106.182594 
L 370.026636 106.327693 
L 370.839797 105.60992 
L 371.043088 105.638468 
L 371.652958 105.231928 
L 373.685861 105.834788 
L 375.312183 105.340745 
L 375.922054 105.313594 
L 376.531925 105.286386 
L 377.548376 105.352914 
L 378.361537 105.293742 
L 379.377988 105.356371 
L 379.784569 105.402039 
L 381.410891 105.42926 
L 381.817471 105.518798 
L 382.224052 105.648407 
L 382.630632 106.172912 
L 383.037213 106.45386 
L 383.647084 107.634503 
L 383.850374 107.886073 
L 385.273406 111.114349 
L 385.476696 111.300897 
L 385.883277 112.815466 
L 386.493147 114.546445 
L 386.899728 115.684684 
L 387.103018 116.032753 
L 387.509599 116.993846 
L 388.119469 117.972959 
L 388.52605 119.423132 
L 388.932631 120.22939 
L 390.355662 123.923766 
L 390.558953 124.755605 
L 390.965533 125.334874 
L 391.168823 125.471018 
L 391.778694 126.86511 
L 391.981984 127.17065 
L 392.388565 128.145815 
L 392.795145 128.581293 
L 392.998436 129.579091 
L 393.405016 130.265166 
L 393.608306 130.419723 
L 394.014887 130.989606 
L 394.828048 131.524433 
L 395.234629 131.63004 
L 395.641209 131.130362 
L 396.04779 131.06135 
L 396.45437 130.531566 
L 397.064241 130.304461 
L 397.674112 130.236284 
L 398.283982 130.380667 
L 398.487273 130.396146 
L 398.487273 130.396146 
" style="fill:none;stroke:#ff0000;stroke-linecap:square;stroke-width:1.5;"/>
   </g>
   <g id="line2d_21">
    <path clip-path="url(#pf293f694c8)" d="M 73.832727 127.156598 
L 78.101823 127.260188 
L 79.728145 127.443558 
L 80.338016 127.713957 
L 81.761047 128.703865 
L 82.167628 129.179221 
L 82.777499 130.397742 
L 83.184079 131.243296 
L 83.79395 132.863047 
L 84.607111 134.162796 
L 85.216982 134.903631 
L 85.420272 135.163007 
L 85.623562 135.210906 
L 86.030143 135.613991 
L 86.233433 135.791752 
L 86.436723 135.72469 
L 87.249884 136.29833 
L 88.469626 137.15869 
L 88.876207 137.258392 
L 90.299238 138.180166 
L 91.112399 139.368883 
L 93.145302 143.312333 
L 93.958463 145.575147 
L 96.601236 154.168745 
L 97.007817 156.436756 
L 98.227558 160.099104 
L 98.430849 160.621459 
L 98.837429 165.27943 
L 99.4473 168.552133 
L 99.853881 170.011206 
L 101.480203 173.825169 
L 102.293364 174.588319 
L 103.106525 174.891907 
L 103.309815 174.930185 
L 103.513105 173.887357 
L 104.936137 173.828654 
L 105.546008 173.695967 
L 106.562459 173.731449 
L 107.985491 173.383455 
L 108.595362 173.226011 
L 110.018394 172.918523 
L 111.441425 172.56796 
L 113.067747 172.532034 
L 113.677618 172.324031 
L 114.287489 172.236422 
L 115.30394 172.135722 
L 115.710521 172.046454 
L 117.336843 171.941024 
L 117.946714 171.904526 
L 118.759875 171.951344 
L 126.078324 172.579907 
L 131.567161 173.466959 
L 132.583612 174.016223 
L 133.600064 174.786829 
L 134.616515 175.719714 
L 135.023096 176.009853 
L 135.429676 176.124148 
L 136.649418 176.501062 
L 137.055998 176.609332 
L 137.462579 176.652361 
L 138.072449 176.874499 
L 138.47903 177.022698 
L 138.885611 177.064265 
L 139.292191 177.16342 
L 140.105352 177.798731 
L 141.121803 178.653996 
L 141.934964 179.790996 
L 142.748125 180.807977 
L 143.357996 181.159789 
L 144.171157 181.619364 
L 144.781028 182.286616 
L 146.20406 184.447703 
L 147.220511 187.092455 
L 151.692897 198.291685 
L 152.302768 199.426045 
L 153.7258 202.246207 
L 154.13238 202.772719 
L 154.538961 203.069617 
L 154.742251 203.242923 
L 154.945541 203.77138 
L 155.148831 203.847346 
L 155.352122 204.282053 
L 155.758702 207.025761 
L 159.417927 219.162895 
L 160.434378 223.021471 
L 162.467281 229.780784 
L 163.890313 233.878589 
L 164.296893 235.6875 
L 166.939666 244.027111 
L 167.752827 245.559424 
L 170.598891 251.667751 
L 170.802181 251.937704 
L 171.005472 251.867417 
L 171.208762 252.009994 
L 171.818633 253.263479 
L 172.225213 254.342299 
L 172.835084 256.634118 
L 173.241664 257.999014 
L 173.444955 258.396569 
L 174.664696 262.576917 
L 175.884438 266.297331 
L 176.494309 267.968295 
L 177.51076 271.55833 
L 178.120631 273.969229 
L 178.730502 274.93674 
L 179.137082 275.613601 
L 179.746953 277.46681 
L 180.153533 281.517496 
L 180.763404 284.852906 
L 181.169985 286.619794 
L 181.576565 287.455402 
L 181.779855 287.733524 
L 181.983146 287.741615 
L 182.186436 287.954024 
L 182.999597 288.244106 
L 183.609468 288.593585 
L 184.219339 289.012111 
L 185.43908 289.629802 
L 185.64237 291.31812 
L 186.252241 290.173246 
L 187.065402 291.00288 
L 187.471983 291.825493 
L 187.878563 292.133405 
L 188.285144 292.093488 
L 188.691724 292.045799 
L 189.098305 293.13891 
L 189.708176 293.84068 
L 190.724627 294.250183 
L 192.350949 294.334147 
L 195.400303 294.316157 
L 196.010174 295.176491 
L 197.026625 294.692024 
L 197.839786 294.859373 
L 199.059528 295.610698 
L 199.466108 295.671256 
L 200.075979 295.474572 
L 200.279269 295.464286 
L 201.09243 295.81422 
L 202.312172 295.814687 
L 203.125333 295.731769 
L 203.531913 295.582854 
L 205.361526 295.929704 
L 207.191138 295.823039 
L 208.410879 295.749008 
L 209.02075 295.175638 
L 210.037202 294.8643 
L 212.883265 295.071009 
L 215.932619 295.101027 
L 216.94907 295.144141 
L 218.778683 295.127471 
L 220.811585 295.017767 
L 221.828037 295.011077 
L 224.877391 295.025846 
L 226.503713 295.003851 
L 230.569518 294.92305 
L 231.179389 294.804482 
L 231.789259 293.631843 
L 231.99255 293.820107 
L 232.60242 294.714259 
L 233.415581 294.863504 
L 234.228743 293.90175 
L 235.448484 294.304244 
L 236.058355 294.62572 
L 236.464935 294.194096 
L 237.278096 294.010987 
L 237.684677 294.131182 
L 238.091257 294.070203 
L 238.497838 294.130773 
L 238.904419 293.770643 
L 239.107709 293.721543 
L 239.71758 293.216537 
L 239.92087 293.164308 
L 240.32745 292.503309 
L 241.140611 290.953825 
L 241.547192 290.588893 
L 241.953772 288.865973 
L 242.360353 288.130556 
L 242.766933 285.710304 
L 244.596546 280.144111 
L 244.799836 279.825389 
L 245.206417 277.449879 
L 245.612997 276.500414 
L 246.019578 273.653147 
L 246.629448 271.635911 
L 247.036029 269.729404 
L 247.239319 269.150037 
L 247.6459 266.452436 
L 248.459061 263.334704 
L 249.068932 260.338123 
L 249.475512 258.231427 
L 249.678802 257.754755 
L 250.085383 255.095273 
L 250.898544 252.112028 
L 251.914995 246.875994 
L 252.728156 243.167983 
L 254.151188 236.874669 
L 256.997252 226.374848 
L 257.403832 225.123001 
L 257.810413 224.549471 
L 258.420283 221.953524 
L 258.623574 221.532659 
L 259.030154 220.230813 
L 259.640025 219.159919 
L 261.063057 215.655892 
L 261.469637 213.249083 
L 262.079508 212.099806 
L 262.689379 211.076646 
L 264.315701 207.780687 
L 264.722282 204.633461 
L 265.128862 203.51667 
L 265.332152 200.855834 
L 265.738733 199.258974 
L 265.942023 198.935052 
L 266.348604 196.970745 
L 266.755184 196.295136 
L 267.161765 193.671026 
L 267.568345 192.652372 
L 267.974926 190.263462 
L 268.381506 188.981297 
L 268.788087 186.610315 
L 269.194667 185.443656 
L 269.601248 183.049518 
L 270.007828 181.891894 
L 270.414409 179.576766 
L 270.820989 178.677977 
L 271.22757 176.466288 
L 271.837441 174.32754 
L 272.244021 172.446834 
L 272.447311 171.954604 
L 273.057182 169.600907 
L 273.260472 169.31272 
L 273.870343 166.882451 
L 274.073634 166.502727 
L 274.683504 164.737232 
L 275.293375 164.084967 
L 275.699956 163.746701 
L 276.106536 162.742848 
L 276.716407 162.289198 
L 277.732858 161.94852 
L 278.74931 162.061012 
L 279.765761 162.070374 
L 280.782212 162.107145 
L 281.595373 162.058984 
L 282.611824 162.078968 
L 284.441437 162.078433 
L 285.457888 162.132483 
L 288.913823 162.090728 
L 289.523693 162.106966 
L 290.540145 161.992488 
L 290.946725 161.703556 
L 291.353306 161.47688 
L 291.759886 161.024522 
L 292.776337 160.703086 
L 293.182918 159.558086 
L 293.589498 158.329037 
L 293.996079 158.002404 
L 294.40266 157.789977 
L 295.01253 155.27965 
L 295.419111 154.029106 
L 295.825691 152.590958 
L 296.028982 152.123722 
L 296.435562 149.17148 
L 297.248723 146.508084 
L 297.655304 146.041294 
L 298.061884 144.053739 
L 298.468465 142.78348 
L 298.875045 141.904246 
L 300.094787 137.527425 
L 300.907948 133.692487 
L 301.314528 129.971132 
L 302.33098 124.406336 
L 302.53427 123.907166 
L 302.94085 121.758632 
L 303.347431 120.848441 
L 303.754011 118.430792 
L 304.363882 116.167649 
L 304.973753 113.416463 
L 305.380334 111.090406 
L 305.786914 110.513126 
L 306.193495 108.570563 
L 306.600075 108.018382 
L 308.023107 101.85223 
L 308.836268 99.666164 
L 309.039558 99.239598 
L 309.649429 96.394405 
L 311.072461 92.122718 
L 311.479041 90.960156 
L 311.885622 88.613673 
L 312.292202 87.685953 
L 312.902073 86.92973 
L 313.715234 86.667086 
L 313.918525 86.440592 
L 314.121815 86.606428 
L 314.325105 86.441503 
L 314.731686 86.690487 
L 315.138266 86.226453 
L 315.544847 85.965883 
L 316.358008 85.901646 
L 316.764588 86.69214 
L 317.171169 86.922607 
L 319.204071 86.236538 
L 321.236974 86.227825 
L 323.269876 86.42077 
L 324.489618 86.310421 
L 325.506069 86.137994 
L 327.538972 86.001669 
L 329.368584 85.839367 
L 329.775165 85.646632 
L 330.181745 85.563028 
L 331.808067 84.514365 
L 333.434389 82.050831 
L 333.84097 81.049547 
L 334.450841 80.132372 
L 335.670582 77.214971 
L 335.873873 76.730129 
L 336.280453 74.943788 
L 336.687034 73.960545 
L 336.890324 72.401088 
L 337.296904 71.466723 
L 337.500195 71.277987 
L 337.906775 69.464411 
L 338.313356 68.81404 
L 338.719936 66.357483 
L 339.126517 65.4894 
L 339.533097 63.475732 
L 339.939678 62.762755 
L 340.346258 60.724065 
L 340.549549 60.353665 
L 340.752839 60.234892 
L 341.159419 58.549459 
L 341.566 58.020615 
L 341.97258 56.470021 
L 342.989032 54.714597 
L 344.005483 54.205847 
L 344.208773 54.304553 
L 344.615354 54.220503 
L 344.818644 54.269415 
L 345.021934 54.704908 
L 345.631805 54.996537 
L 346.038386 56.129076 
L 346.444966 56.490634 
L 346.851547 57.670293 
L 347.258127 58.117495 
L 347.867998 59.667587 
L 348.274578 60.421768 
L 348.681159 61.26517 
L 348.884449 61.491911 
L 350.307481 65.086275 
L 350.510771 65.236112 
L 350.917352 66.264689 
L 351.527223 67.472584 
L 353.560125 71.168295 
L 353.763415 71.390268 
L 354.169996 72.281518 
L 354.779867 72.966259 
L 355.593028 74.772889 
L 355.999608 75.728623 
L 356.202899 75.955353 
L 356.609479 76.068749 
L 357.42264 76.763054 
L 358.439091 77.555279 
L 358.642382 77.591777 
L 359.252253 77.224439 
L 359.455543 77.055809 
L 361.081865 77.372233 
L 361.285155 77.321529 
L 361.895026 76.916367 
L 362.708187 77.061078 
L 363.114767 78.330755 
L 363.521348 78.869858 
L 363.927929 79.975381 
L 364.334509 80.278059 
L 364.74109 81.16098 
L 365.35096 81.71824 
L 365.960831 82.626087 
L 366.570702 83.202168 
L 366.773992 83.444754 
L 367.180573 83.567757 
L 367.790443 83.922075 
L 368.400314 84.87414 
L 368.603604 90.047801 
L 369.010185 92.749839 
L 369.213475 93.34471 
L 369.620056 95.538355 
L 370.636507 97.767416 
L 370.839797 97.963565 
L 371.246378 99.227158 
L 372.059539 99.926066 
L 373.07599 100.262445 
L 374.295732 100.696504 
L 374.702312 100.667155 
L 375.922054 100.585585 
L 377.141795 100.883586 
L 378.158247 100.957959 
L 379.174698 100.906876 
L 379.581279 100.937349 
L 379.784569 100.916841 
L 380.191149 101.213895 
L 380.59773 101.589711 
L 382.020762 103.977339 
L 382.224052 104.191333 
L 382.833923 106.041593 
L 383.037213 106.293186 
L 384.256955 110.14994 
L 384.663535 111.019975 
L 385.070116 112.448077 
L 385.476696 113.040307 
L 386.086567 114.757999 
L 386.289857 114.991127 
L 386.696438 116.162997 
L 387.306308 117.096111 
L 389.135921 121.886157 
L 389.542501 122.69362 
L 389.949082 124.185784 
L 390.355662 124.769541 
L 390.762243 126.011752 
L 391.168823 126.202679 
L 391.575404 127.267027 
L 392.591855 128.696897 
L 392.795145 128.789321 
L 392.998436 128.71346 
L 393.811597 129.088232 
L 394.218177 129.054339 
L 395.031338 128.778227 
L 396.04779 128.803346 
L 396.45437 128.43774 
L 397.064241 128.379107 
L 398.487273 128.465048 
L 398.487273 128.465048 
" style="fill:none;stroke:#0000ff;stroke-linecap:square;stroke-width:1.5;"/>
   </g>
   <g id="line2d_22">
    <path clip-path="url(#pf293f694c8)" d="M 73.832727 127.156598 
L 398.487273 127.163281 
L 398.487273 127.163281 
" style="fill:none;stroke:#008000;stroke-linecap:square;stroke-width:1.5;"/>
   </g>
   <g id="patch_3">
    <path d="M 57.6 307.584 
L 57.6 41.472 
" style="fill:none;stroke:#000000;stroke-linecap:square;stroke-linejoin:miter;stroke-width:0.8;"/>
   </g>
   <g id="patch_4">
    <path d="M 414.72 307.584 
L 414.72 41.472 
" style="fill:none;stroke:#000000;stroke-linecap:square;stroke-linejoin:miter;stroke-width:0.8;"/>
   </g>
   <g id="patch_5">
    <path d="M 57.6 307.584 
L 414.72 307.584 
" style="fill:none;stroke:#000000;stroke-linecap:square;stroke-linejoin:miter;stroke-width:0.8;"/>
   </g>
   <g id="patch_6">
    <path d="M 57.6 41.472 
L 414.72 41.472 
" style="fill:none;stroke:#000000;stroke-linecap:square;stroke-linejoin:miter;stroke-width:0.8;"/>
   </g>
   <g id="legend_1">
    <g id="patch_7">
     <path d="M 64.6 302.584 
L 157.870313 302.584 
Q 159.870313 302.584 159.870313 300.584 
L 159.870313 211.8465 
Q 159.870313 209.8465 157.870313 209.8465 
L 64.6 209.8465 
Q 62.6 209.8465 62.6 211.8465 
L 62.6 300.584 
Q 62.6 302.584 64.6 302.584 
z
" style="fill:#ffffff;opacity:0.8;stroke:#cccccc;stroke-linejoin:miter;"/>
    </g>
    <g id="line2d_23">
     <path d="M 66.6 217.944937 
L 86.6 217.944937 
" style="fill:none;stroke:#ff0000;stroke-dasharray:5.55,2.4;stroke-dashoffset:0;stroke-width:1.5;"/>
    </g>
    <g id="line2d_24"/>
    <g id="text_19">
     <!-- gt_x -->
     <g transform="translate(94.6 221.444937)scale(0.1 -0.1)">
      <defs>
       <path d="M 45.40625 27.984375 
Q 45.40625 37.75 41.375 43.109375 
Q 37.359375 48.484375 30.078125 48.484375 
Q 22.859375 48.484375 18.828125 43.109375 
Q 14.796875 37.75 14.796875 27.984375 
Q 14.796875 18.265625 18.828125 12.890625 
Q 22.859375 7.515625 30.078125 7.515625 
Q 37.359375 7.515625 41.375 12.890625 
Q 45.40625 18.265625 45.40625 27.984375 
z
M 54.390625 6.78125 
Q 54.390625 -7.171875 48.1875 -13.984375 
Q 42 -20.796875 29.203125 -20.796875 
Q 24.46875 -20.796875 20.265625 -20.09375 
Q 16.0625 -19.390625 12.109375 -17.921875 
L 12.109375 -9.1875 
Q 16.0625 -11.328125 19.921875 -12.34375 
Q 23.78125 -13.375 27.78125 -13.375 
Q 36.625 -13.375 41.015625 -8.765625 
Q 45.40625 -4.15625 45.40625 5.171875 
L 45.40625 9.625 
Q 42.625 4.78125 38.28125 2.390625 
Q 33.9375 0 27.875 0 
Q 17.828125 0 11.671875 7.65625 
Q 5.515625 15.328125 5.515625 27.984375 
Q 5.515625 40.671875 11.671875 48.328125 
Q 17.828125 56 27.875 56 
Q 33.9375 56 38.28125 53.609375 
Q 42.625 51.21875 45.40625 46.390625 
L 45.40625 54.6875 
L 54.390625 54.6875 
z
" id="DejaVuSans-103"/>
       <path d="M 50.984375 -16.609375 
L 50.984375 -23.578125 
L -0.984375 -23.578125 
L -0.984375 -16.609375 
z
" id="DejaVuSans-95"/>
       <path d="M 54.890625 54.6875 
L 35.109375 28.078125 
L 55.90625 0 
L 45.3125 0 
L 29.390625 21.484375 
L 13.484375 0 
L 2.875 0 
L 24.125 28.609375 
L 4.6875 54.6875 
L 15.28125 54.6875 
L 29.78125 35.203125 
L 44.28125 54.6875 
z
" id="DejaVuSans-120"/>
      </defs>
      <use xlink:href="#DejaVuSans-103"/>
      <use x="63.476562" xlink:href="#DejaVuSans-116"/>
      <use x="102.685547" xlink:href="#DejaVuSans-95"/>
      <use x="152.685547" xlink:href="#DejaVuSans-120"/>
     </g>
    </g>
    <g id="line2d_25">
     <path d="M 66.6 232.901187 
L 86.6 232.901187 
" style="fill:none;stroke:#0000ff;stroke-dasharray:5.55,2.4;stroke-dashoffset:0;stroke-width:1.5;"/>
    </g>
    <g id="line2d_26"/>
    <g id="text_20">
     <!-- gt_y -->
     <g transform="translate(94.6 236.401187)scale(0.1 -0.1)">
      <defs>
       <path d="M 32.171875 -5.078125 
Q 28.375 -14.84375 24.75 -17.8125 
Q 21.140625 -20.796875 15.09375 -20.796875 
L 7.90625 -20.796875 
L 7.90625 -13.28125 
L 13.1875 -13.28125 
Q 16.890625 -13.28125 18.9375 -11.515625 
Q 21 -9.765625 23.484375 -3.21875 
L 25.09375 0.875 
L 2.984375 54.6875 
L 12.5 54.6875 
L 29.59375 11.921875 
L 46.6875 54.6875 
L 56.203125 54.6875 
z
" id="DejaVuSans-121"/>
      </defs>
      <use xlink:href="#DejaVuSans-103"/>
      <use x="63.476562" xlink:href="#DejaVuSans-116"/>
      <use x="102.685547" xlink:href="#DejaVuSans-95"/>
      <use x="152.685547" xlink:href="#DejaVuSans-121"/>
     </g>
    </g>
    <g id="line2d_27">
     <path d="M 66.6 247.857437 
L 86.6 247.857437 
" style="fill:none;stroke:#008000;stroke-dasharray:5.55,2.4;stroke-dashoffset:0;stroke-width:1.5;"/>
    </g>
    <g id="line2d_28"/>
    <g id="text_21">
     <!-- gt_z -->
     <g transform="translate(94.6 251.357437)scale(0.1 -0.1)">
      <defs>
       <path d="M 5.515625 54.6875 
L 48.1875 54.6875 
L 48.1875 46.484375 
L 14.40625 7.171875 
L 48.1875 7.171875 
L 48.1875 0 
L 4.296875 0 
L 4.296875 8.203125 
L 38.09375 47.515625 
L 5.515625 47.515625 
z
" id="DejaVuSans-122"/>
      </defs>
      <use xlink:href="#DejaVuSans-103"/>
      <use x="63.476562" xlink:href="#DejaVuSans-116"/>
      <use x="102.685547" xlink:href="#DejaVuSans-95"/>
      <use x="152.685547" xlink:href="#DejaVuSans-122"/>
     </g>
    </g>
    <g id="line2d_29">
     <path d="M 66.6 262.813688 
L 86.6 262.813688 
" style="fill:none;stroke:#ff0000;stroke-linecap:square;stroke-width:1.5;"/>
    </g>
    <g id="line2d_30"/>
    <g id="text_22">
     <!-- estimated_x -->
     <g transform="translate(94.6 266.313688)scale(0.1 -0.1)">
      <defs>
       <path d="M 34.28125 27.484375 
Q 23.390625 27.484375 19.1875 25 
Q 14.984375 22.515625 14.984375 16.5 
Q 14.984375 11.71875 18.140625 8.90625 
Q 21.296875 6.109375 26.703125 6.109375 
Q 34.1875 6.109375 38.703125 11.40625 
Q 43.21875 16.703125 43.21875 25.484375 
L 43.21875 27.484375 
z
M 52.203125 31.203125 
L 52.203125 0 
L 43.21875 0 
L 43.21875 8.296875 
Q 40.140625 3.328125 35.546875 0.953125 
Q 30.953125 -1.421875 24.3125 -1.421875 
Q 15.921875 -1.421875 10.953125 3.296875 
Q 6 8.015625 6 15.921875 
Q 6 25.140625 12.171875 29.828125 
Q 18.359375 34.515625 30.609375 34.515625 
L 43.21875 34.515625 
L 43.21875 35.40625 
Q 43.21875 41.609375 39.140625 45 
Q 35.0625 48.390625 27.6875 48.390625 
Q 23 48.390625 18.546875 47.265625 
Q 14.109375 46.140625 10.015625 43.890625 
L 10.015625 52.203125 
Q 14.9375 54.109375 19.578125 55.046875 
Q 24.21875 56 28.609375 56 
Q 40.484375 56 46.34375 49.84375 
Q 52.203125 43.703125 52.203125 31.203125 
z
" id="DejaVuSans-97"/>
       <path d="M 45.40625 46.390625 
L 45.40625 75.984375 
L 54.390625 75.984375 
L 54.390625 0 
L 45.40625 0 
L 45.40625 8.203125 
Q 42.578125 3.328125 38.25 0.953125 
Q 33.9375 -1.421875 27.875 -1.421875 
Q 17.96875 -1.421875 11.734375 6.484375 
Q 5.515625 14.40625 5.515625 27.296875 
Q 5.515625 40.1875 11.734375 48.09375 
Q 17.96875 56 27.875 56 
Q 33.9375 56 38.25 53.625 
Q 42.578125 51.265625 45.40625 46.390625 
z
M 14.796875 27.296875 
Q 14.796875 17.390625 18.875 11.75 
Q 22.953125 6.109375 30.078125 6.109375 
Q 37.203125 6.109375 41.296875 11.75 
Q 45.40625 17.390625 45.40625 27.296875 
Q 45.40625 37.203125 41.296875 42.84375 
Q 37.203125 48.484375 30.078125 48.484375 
Q 22.953125 48.484375 18.875 42.84375 
Q 14.796875 37.203125 14.796875 27.296875 
z
" id="DejaVuSans-100"/>
      </defs>
      <use xlink:href="#DejaVuSans-101"/>
      <use x="61.523438" xlink:href="#DejaVuSans-115"/>
      <use x="113.623047" xlink:href="#DejaVuSans-116"/>
      <use x="152.832031" xlink:href="#DejaVuSans-105"/>
      <use x="180.615234" xlink:href="#DejaVuSans-109"/>
      <use x="278.027344" xlink:href="#DejaVuSans-97"/>
      <use x="339.306641" xlink:href="#DejaVuSans-116"/>
      <use x="378.515625" xlink:href="#DejaVuSans-101"/>
      <use x="440.039062" xlink:href="#DejaVuSans-100"/>
      <use x="503.515625" xlink:href="#DejaVuSans-95"/>
      <use x="553.515625" xlink:href="#DejaVuSans-120"/>
     </g>
    </g>
    <g id="line2d_31">
     <path d="M 66.6 277.769937 
L 86.6 277.769937 
" style="fill:none;stroke:#0000ff;stroke-linecap:square;stroke-width:1.5;"/>
    </g>
    <g id="line2d_32"/>
    <g id="text_23">
     <!-- estimated_y -->
     <g transform="translate(94.6 281.269937)scale(0.1 -0.1)">
      <use xlink:href="#DejaVuSans-101"/>
      <use x="61.523438" xlink:href="#DejaVuSans-115"/>
      <use x="113.623047" xlink:href="#DejaVuSans-116"/>
      <use x="152.832031" xlink:href="#DejaVuSans-105"/>
      <use x="180.615234" xlink:href="#DejaVuSans-109"/>
      <use x="278.027344" xlink:href="#DejaVuSans-97"/>
      <use x="339.306641" xlink:href="#DejaVuSans-116"/>
      <use x="378.515625" xlink:href="#DejaVuSans-101"/>
      <use x="440.039062" xlink:href="#DejaVuSans-100"/>
      <use x="503.515625" xlink:href="#DejaVuSans-95"/>
      <use x="553.515625" xlink:href="#DejaVuSans-121"/>
     </g>
    </g>
    <g id="line2d_33">
     <path d="M 66.6 292.726187 
L 86.6 292.726187 
" style="fill:none;stroke:#008000;stroke-linecap:square;stroke-width:1.5;"/>
    </g>
    <g id="line2d_34"/>
    <g id="text_24">
     <!-- estimated_z -->
     <g transform="translate(94.6 296.226187)scale(0.1 -0.1)">
      <use xlink:href="#DejaVuSans-101"/>
      <use x="61.523438" xlink:href="#DejaVuSans-115"/>
      <use x="113.623047" xlink:href="#DejaVuSans-116"/>
      <use x="152.832031" xlink:href="#DejaVuSans-105"/>
      <use x="180.615234" xlink:href="#DejaVuSans-109"/>
      <use x="278.027344" xlink:href="#DejaVuSans-97"/>
      <use x="339.306641" xlink:href="#DejaVuSans-116"/>
      <use x="378.515625" xlink:href="#DejaVuSans-101"/>
      <use x="440.039062" xlink:href="#DejaVuSans-100"/>
      <use x="503.515625" xlink:href="#DejaVuSans-95"/>
      <use x="553.515625" xlink:href="#DejaVuSans-122"/>
     </g>
    </g>
   </g>
  </g>
 </g>
 <defs>
  <clipPath id="pf293f694c8">
   <rect height="266.112" width="357.12" x="57.6" y="41.472"/>
  </clipPath>
 </defs>
</svg>
